<svg width="365" height="368" viewBox="0 0 365 368" fill="none" xmlns="http://www.w3.org/2000/svg">
<path d="M49 77.9999C49 61.4314 62.4315 47.9999 79 47.9999H286C302.569 47.9999 316 61.4314 316 77.9999V290C316 306.568 302.569 320 286 320H79C62.4315 320 49 306.568 49 290V77.9999Z" fill="black"/>
<path d="M155.56 225.949C167.169 220.923 179.482 221.79 220.667 242.632C247.156 256.039 270.563 238.451 275.786 210.501C278.379 196.627 278.378 182.735 274.614 170.037C270.115 154.882 246.004 121.088 237.112 144.511C200.472 241.007 210.234 167.469 190.85 165.286C177.724 163.809 158.886 249.914 150.761 124.239C148.552 90.049 94.5858 139.594 87.8977 175.628C85.4242 188.954 85.2889 202.287 88.7007 214.559C97.2144 245.189 132.119 236.102 155.56 225.949Z" fill="url(#paint0_radial_304_2)"/>
<mask id="mask0_304_2" style="mask-type:alpha" maskUnits="userSpaceOnUse" x="86" y="112" width="192" height="136">
<path d="M155.56 225.949C167.169 220.923 179.482 221.79 220.667 242.632C247.156 256.039 270.563 238.451 275.786 210.501C278.379 196.627 278.378 182.735 274.614 170.037C270.115 154.882 246.004 121.088 237.112 144.511C200.472 241.007 210.234 167.469 190.85 165.286C177.724 163.809 158.886 249.914 150.761 124.239C148.552 90.049 94.5858 139.594 87.8977 175.628C85.4242 188.954 85.2889 202.287 88.7007 214.559C97.2144 245.189 132.119 236.102 155.56 225.949Z" fill="white"/>
</mask>
<g mask="url(#mask0_304_2)">
<path d="M267.894 140.858C267.44 141.594 267.033 142.323 266.609 143.076C262.315 150.708 235.58 193.469 201.451 142.138C185.669 118.403 162.4 117.235 142.725 122.25C129.164 125.707 112.2 113.092 115.657 99.531V99.531C117.315 93.0258 123.101 88.4197 129.812 88.2615L198.844 86.6344C202.745 86.5425 206.644 86.855 210.48 87.5671L247.292 94.3995C268.572 98.3493 279.253 122.435 267.894 140.858V140.858Z" fill="url(#paint1_linear_304_2)"/>
<path d="M196.283 279.176C200.66 269.766 211.35 264.895 221.048 261.202C232.301 256.917 245.12 245.116 246.455 213.813C247.578 187.465 257.787 159.022 301.088 156.849C334.063 155.195 311.186 231.664 298.401 268.225C294.149 280.384 284.381 289.615 272.2 293.804L224.3 310.275C205.334 316.797 187.824 297.362 196.283 279.176V279.176Z" fill="url(#paint2_radial_304_2)"/>
<path d="M130.219 273.782C153.617 268.55 174.136 250.167 170.797 226.425C168.723 211.675 161.886 197.745 144.077 195.058C103.631 188.952 89.1442 168.872 94.4289 139.752C96.8765 126.265 83.1304 135.967 67.6657 150.27C43.6873 172.448 40.7742 208.687 57.3874 236.809L61.7042 244.116C75.7003 267.808 103.365 279.786 130.219 273.782V273.782Z" fill="url(#paint3_radial_304_2)"/>
</g>
<defs>
<radialGradient id="paint0_radial_304_2" cx="0" cy="0" r="1" gradientUnits="userSpaceOnUse" gradientTransform="translate(183.445 184.413) rotate(-169.503) scale(170.62 170.799)">
<stop stop-color="#FFD505"/>
<stop offset="1" stop-color="#C4C4C4"/>
</radialGradient>
<linearGradient id="paint1_linear_304_2" x1="298.407" y1="149.405" x2="66.6424" y2="89.1036" gradientUnits="userSpaceOnUse">
<stop stop-color="#FFD505"/>
<stop offset="1" stop-color="#FFD505"/>
</linearGradient>
<radialGradient id="paint2_radial_304_2" cx="0" cy="0" r="1" gradientUnits="userSpaceOnUse" gradientTransform="translate(248.916 244.131) rotate(-169.529) scale(104.787 259.719)">
<stop stop-color="#FFD505"/>
<stop offset="1" stop-color="#C4C4C4"/>
</radialGradient>
<radialGradient id="paint3_radial_304_2" cx="0" cy="0" r="1" gradientUnits="userSpaceOnUse" gradientTransform="translate(102.041 211.049) rotate(-169.512) scale(134.339 202.293)">
<stop stop-color="#FFD505"/>
<stop offset="1" stop-color="#C4C4C4"/>
</radialGradient>
</defs>
</svg>
