<svg width="211" height="159" viewBox="0 0 211 159" fill="none" xmlns="http://www.w3.org/2000/svg">
<path d="M77.5599 120.949C89.1686 115.923 101.482 116.79 142.667 137.632C169.156 151.039 192.563 133.451 197.786 105.501C200.379 91.6271 200.378 77.7349 196.614 65.037C192.115 49.8821 168.004 16.0878 159.112 39.5114C122.472 136.007 132.234 62.4692 112.85 60.2863C99.7235 58.8087 80.8863 144.915 72.7614 19.2391C70.5519 -14.9509 16.5858 34.594 9.89768 70.6277C7.42415 83.9543 7.28893 97.2869 10.7007 109.559C19.2144 140.189 54.119 131.103 77.5599 120.949Z" fill="url(#paint0_radial_304_2)"/>
<mask id="mask0_304_2" style="mask-type:alpha" maskUnits="userSpaceOnUse" x="8" y="7" width="192" height="136">
<path d="M77.5599 120.949C89.1686 115.923 101.482 116.79 142.667 137.632C169.156 151.039 192.563 133.451 197.786 105.501C200.379 91.6271 200.378 77.7349 196.614 65.037C192.115 49.8821 168.004 16.0878 159.112 39.5114C122.472 136.007 132.234 62.4692 112.85 60.2863C99.7235 58.8087 80.8863 144.915 72.7614 19.2391C70.5519 -14.9509 16.5858 34.594 9.89768 70.6277C7.42415 83.9543 7.28893 97.2869 10.7007 109.559C19.2144 140.189 54.119 131.103 77.5599 120.949Z" fill="white"/>
</mask>
<g mask="url(#mask0_304_2)">
<path d="M189.894 35.8585C189.44 36.5942 189.033 37.3231 188.609 38.0763C184.315 45.7082 157.58 88.469 123.451 37.138C107.669 13.4028 84.4003 12.2351 64.7249 17.2504C51.1639 20.7072 34.2003 8.09203 37.6569 -5.46897V-5.46897C39.315 -11.9741 45.1006 -16.5803 51.8118 -16.7384L120.844 -18.3655C124.745 -18.4574 128.644 -18.1449 132.48 -17.4329L169.292 -10.6005C190.572 -6.65063 201.253 17.4348 189.894 35.8585V35.8585Z" fill="url(#paint1_linear_304_2)"/>
<path d="M118.283 174.176C122.66 164.766 133.35 159.895 143.048 156.202C154.301 151.917 167.12 140.116 168.455 108.813C169.578 82.465 179.787 54.0219 223.088 51.8495C256.063 50.195 233.186 126.664 220.401 163.225C216.149 175.384 206.381 184.616 194.2 188.804L146.3 205.275C127.334 211.797 109.824 192.362 118.283 174.176V174.176Z" fill="url(#paint2_radial_304_2)"/>
<path d="M52.2192 168.782C75.6166 163.55 96.1363 145.167 92.7974 121.425C90.7229 106.675 83.8859 92.7451 66.0765 90.058C25.6307 83.9518 11.1442 63.8724 16.4289 34.7524C18.8765 21.2655 5.13038 30.967 -10.3343 45.2705C-34.3127 67.4486 -37.2258 103.687 -20.6126 131.809L-16.2958 139.116C-2.29973 162.808 25.3653 174.786 52.2192 168.782V168.782Z" fill="url(#paint3_radial_304_2)"/>
</g>
<defs>
<radialGradient id="paint0_radial_304_2" cx="0" cy="0" r="1" gradientUnits="userSpaceOnUse" gradientTransform="translate(105.445 79.4132) rotate(-169.503) scale(170.62 170.799)">
<stop stop-color="#FFD505"/>
<stop offset="1" stop-color="#C4C4C4"/>
</radialGradient>
<linearGradient id="paint1_linear_304_2" x1="220.407" y1="44.405" x2="-11.3576" y2="-15.8963" gradientUnits="userSpaceOnUse">
<stop stop-color="#FFD505"/>
<stop offset="1" stop-color="#FFD505"/>
</linearGradient>
<radialGradient id="paint2_radial_304_2" cx="0" cy="0" r="1" gradientUnits="userSpaceOnUse" gradientTransform="translate(170.916 139.132) rotate(-169.529) scale(104.787 259.719)">
<stop stop-color="#FFD505"/>
<stop offset="1" stop-color="#C4C4C4"/>
</radialGradient>
<radialGradient id="paint3_radial_304_2" cx="0" cy="0" r="1" gradientUnits="userSpaceOnUse" gradientTransform="translate(24.0412 106.049) rotate(-169.512) scale(134.339 202.293)">
<stop stop-color="#FFD505"/>
<stop offset="1" stop-color="#C4C4C4"/>
</radialGradient>
</defs>
</svg>
