<svg width="240" height="180" viewBox="0 0 240 180" fill="none" xmlns="http://www.w3.org/2000/svg">
<g clip-path="url(#clip0_1_1726)">
<path fill-rule="evenodd" clip-rule="evenodd" d="M145.738 116.775C145.361 122.3 137.865 125.173 133.317 126.352C134.229 120.932 135.406 115.313 134.674 109.816C134.433 108.006 134.116 106.205 133.776 104.41C133.651 103.747 133.521 103.084 133.387 102.422C133.354 102.261 133.091 101.557 133.174 101.396C133.325 101.109 134.597 101.154 134.921 101.167C135.756 101.199 136.575 101.41 137.34 101.744C138.946 102.445 140.299 103.652 141.413 104.985C144.043 108.127 146.022 112.609 145.738 116.775ZM137.059 79.2188C132.706 81.7959 127.464 83.179 122.5 83.853C114.938 84.8801 107.216 83.6979 99.8234 82.0596C98.0081 81.6574 96.1966 81.2238 94.4081 80.715C94.3275 85.9545 95.8015 90.937 98.6803 95.3065C101.06 98.9191 104.167 101.938 106.882 105.285C109.409 108.4 111.448 111.914 111.549 116.025C111.591 117.741 111.45 119.311 110.013 120.423C108.57 121.541 106.62 121.955 104.853 122.21C100.429 122.847 95.7961 122.503 91.4002 121.801C90.5466 121.665 89.6946 121.509 88.8523 121.315C87.8958 121.095 87.5606 120.836 86.7619 121.554C85.038 123.103 84.2473 125.426 83.8568 127.649C83.1251 131.812 83.3733 136.669 84.428 140.776C85.4442 144.732 90.24 146.925 93.7929 147.881C104.509 150.765 116.333 146.783 124.556 139.692C124.735 139.538 124.913 139.381 125.087 139.22C125.671 140.436 126.308 141.631 127.005 142.786C127.49 143.589 128.001 144.397 128.612 145.112C128.833 145.37 129.092 145.719 129.394 145.889C129.956 146.203 130.528 145.972 131.164 145.861C135.857 145.046 140.539 143.975 145.002 142.287C151.787 139.721 157.871 135.494 161.087 128.816C162.712 125.444 163.558 121.748 163.968 118.042C164.439 113.786 164.54 109.436 163.343 105.289C161.149 97.6882 155.55 91.5265 149.419 86.7741C145.625 83.8331 141.455 81.1758 137.059 79.2188Z" fill="#F3F3F1"/>
<path fill-rule="evenodd" clip-rule="evenodd" d="M213.745 28.8872C212.753 29.2814 211.685 29.3911 210.63 29.4682C209.802 29.5287 209.153 29.8605 208.373 29.8793C206.201 29.9311 204.02 30.0286 201.859 30.3532C199.688 30.6792 197.689 30.2533 195.975 31.8844C195.365 32.4647 194.6 33.1319 194.966 34.0687C195.135 34.4976 195.372 34.8054 195.511 35.2659C195.669 35.7865 195.866 36.2782 196.094 36.7739C196.532 37.7245 198.726 41.265 196.946 41.6981C195.015 42.1676 192.397 41.6189 190.538 41.0817C189.453 40.7683 188.385 40.4011 187.316 40.0392C186.469 39.7528 185.357 39.5904 184.577 39.1418C184.06 38.8439 183.953 38.3358 183.611 37.8529C182.989 36.9747 182.407 36.2269 181.604 35.4961C179.936 33.9804 177.851 32.9512 175.796 32.0468C175.663 31.9879 175.421 31.8513 175.278 31.8377C175.123 31.8234 174.952 31.9828 174.852 31.9633C174.578 31.9101 174.483 31.7376 174.183 31.5672C173.78 31.3385 172.136 30.577 171.849 31.1756C172.118 30.3893 172.314 30.6162 173.042 30.7303C173.363 30.7809 173.577 30.634 173.865 30.6487C174.131 30.6621 174.24 30.8133 174.461 30.854C174.867 30.9286 175.246 30.8723 175.67 30.8693C175.784 30.6178 175.945 30.6197 176.155 30.8747C176.272 30.9126 176.389 30.9504 176.505 30.9886C176.928 31.1044 177.379 31.0821 177.811 31.1161C178.461 31.1676 180.153 31.9594 180.478 31.158C180.826 30.3023 179.771 30.089 179.595 29.4919C179.423 28.9059 180.227 28.5621 180.549 28.2084C180.917 27.806 181.141 27.4528 181.573 27.0984C181.825 26.8903 182.156 26.6965 182.344 26.4192C182.516 26.1642 182.508 25.7519 182.732 25.5396C182.999 25.2862 183.04 25.4615 183.282 25.3392C183.757 25.0987 183.547 25.1109 183.828 24.7823C184.069 24.5015 184.246 24.51 184.56 24.2948C185.021 23.9796 185.183 23.3637 185.63 23.025C185.957 22.777 186.478 22.7775 186.765 22.5199C186.935 22.3682 186.882 22.1223 187.029 21.9791C187.309 21.7039 187.502 21.8157 187.852 21.725C188.443 21.572 188.634 21.2453 189.069 20.8671C189.467 20.5218 189.719 20.5233 190.216 20.38C190.896 20.1845 191.335 19.6724 191.948 19.3715C192.526 19.0885 193.122 18.89 193.706 18.5885C194.128 18.3706 194.534 18.2355 194.919 18.0132C195.049 17.9382 195.061 17.6634 195.229 17.6262C195.421 17.5833 195.575 17.9036 195.78 17.9203C196.21 17.9556 196.699 17.4792 196.981 17.2034C197.103 17.0835 197.269 16.7595 197.427 16.6925C197.757 16.5523 197.954 16.83 198.248 16.7204C198.66 16.5665 198.496 16.116 198.749 15.8676C198.97 15.6508 199.44 15.6655 199.833 15.7341C201.415 16.01 198.952 17.1277 198.49 17.3538C197.711 17.7346 192.044 20.5048 193.37 21.8862C194.071 22.617 195.784 22.0675 196.546 21.875C197.883 21.5373 199.276 20.8873 200.647 20.7381C200.817 20.7196 201.322 20.841 201.46 20.788C201.772 20.6688 201.694 20.4304 201.947 20.305C202.329 20.1167 203.107 20.1259 203.494 20.1682C203.797 20.2013 204.128 20.382 204.436 20.3575C204.775 20.3305 205.102 20.1333 205.439 20.0698C206.014 19.9614 206.61 20.0145 207.191 20.0313C208.026 20.0558 209.696 20.182 208.482 21.2921C207.5 22.1905 205.8 22.5794 204.561 22.9715C202.727 23.5509 200.926 24.0783 199.116 24.7385C197.883 25.188 195.252 25.9779 196.721 27.6635C196.866 27.5266 197.01 27.39 197.155 27.2531C197.326 27.4263 197.503 27.7633 197.778 27.7732C198.006 27.7812 197.922 27.536 198.138 27.4594C198.816 27.2187 199.745 27.2369 200.46 27.1917C202.252 27.0783 204.037 26.8408 205.83 26.7672C207.52 26.6981 209.227 26.7881 210.883 27.1425C211.309 27.2337 215.281 28.2769 213.745 28.8872ZM199.096 46.2194C199.186 46.9718 198.853 47.5804 198.76 48.3072C198.648 49.1859 198.73 49.9598 198.481 50.8333C197.997 52.5314 197.652 54.2686 197.133 55.9568C196.215 58.9376 194.734 61.5701 193.211 64.2745C192.433 65.6533 191.263 66.7919 190.194 67.9453C189.098 69.1272 188.222 70.2907 186.912 71.2612C184.294 73.2009 181.469 74.9261 178.369 75.974C175.125 77.0712 171.713 77.4035 168.305 77.264C166.793 77.2022 165.19 77.3552 163.702 77.1108C162.119 76.8504 160.404 76.5309 158.849 76.1465C155.994 75.4418 153.243 74.2453 150.454 73.1765C147.341 71.9829 144.537 70.4592 141.698 68.738C140.946 68.2826 140.152 68.07 139.448 67.5187C138.854 67.0544 138.269 66.6103 137.645 66.1861C136.928 65.6995 136.241 65.1675 135.509 64.7051C135.071 64.4285 134.456 64.158 134.226 63.6576C133.91 62.9693 134.291 62.1049 134.488 61.4372C134.744 60.5681 135.017 59.7098 135.325 58.8579C135.847 57.4153 137.175 55.1904 136.445 53.6653C134.905 54.6194 134.226 56.4951 133.567 58.0896C132.781 59.9946 132.232 61.8949 132.113 63.9609C131.875 68.1169 132.571 72.4912 134.078 76.3664C134.303 76.9418 134.696 77.5659 134.407 78.1816C134.103 78.8276 133.28 79.3732 132.647 79.6526C130.644 80.5359 128.633 80.7933 126.542 81.2819C125.972 81.4148 125.349 81.8144 124.814 81.8648C124.454 81.8988 124.155 81.7804 123.742 81.7833C123.327 81.7861 123.003 82.0183 122.632 82.0432C122.307 82.0652 122.02 81.8756 121.711 81.8934C121.019 81.9337 120.892 83.119 120.549 82.0755C120.487 82.1184 120.143 82.5075 120.1 82.5077C120.003 82.5079 119.83 82.2178 119.737 82.1662C119.555 82.0654 119.316 82.0596 119.112 82.0333C118.664 81.975 118.18 81.9691 117.739 82.072C116.92 82.2628 116.096 82.1824 115.396 82.1686C115.237 82.1655 115.124 82.2937 114.926 82.2862C114.836 82.2825 114.706 82.1229 114.61 82.0983C114.056 81.9555 113.482 82.0622 112.918 82.031C111.593 81.9579 110.314 81.9225 109.02 81.6297C106.369 81.0295 103.666 80.9093 101.004 80.3604C99.6483 80.0805 98.3236 79.9279 96.9884 79.5593C96.5191 79.4297 96.0382 79.3685 95.6224 79.1918C95.2254 79.0228 95.3815 78.7978 94.7653 79.2497C94.4885 78.5711 94.4557 78.6403 93.7875 78.416C93.529 78.329 92.9351 78.1134 92.7427 77.9426C92.7234 77.9254 92.3121 76.8926 92.2767 76.7655C92.1054 76.1486 92.2481 75.4434 92.3196 74.8226C92.4811 73.4229 92.7145 72.0342 92.7284 70.6233C92.7345 70.001 92.8467 69.9829 93.0403 69.514C93.1001 69.3686 93.2761 69.3801 93.2906 69.1589C93.3106 68.8638 93.0087 68.6585 93.0413 68.314C93.0846 67.8504 93.5501 67.3807 93.7134 66.9487C93.9099 66.4287 93.9073 65.8786 94.0245 65.3402C94.1813 64.624 94.4841 63.9518 94.6367 63.2325C94.7665 62.6233 94.7789 62.1389 95.1033 61.6162C95.4279 61.0945 95.3323 60.6686 95.5908 60.149C95.828 59.6726 96.128 59.5015 96.2904 58.9261C96.6837 57.5341 97.2813 56.156 98.1279 54.9759C98.8725 57.9349 99.6647 60.9921 101.738 63.3309C102.592 64.294 103.695 65.2657 104.982 65.5591C106.438 65.8908 107.603 65.032 108.551 64.0148C110.809 61.5907 111.745 58.8848 111.881 55.5979C111.915 54.7809 111.911 53.9627 111.9 53.1452C111.894 52.7815 111.708 51.8477 111.957 51.5419C112.23 51.2065 113.01 51.416 113.416 51.195C113.915 50.9226 114.464 50.1944 114.241 49.594C115.571 50.1963 116.843 50.9892 118.323 51.157C118.909 51.2236 119.532 51.1223 120.056 51.0944C120.04 51.0951 120.462 51.1812 120.487 51.1868C120.591 51.067 120.703 51.0379 120.824 51.0994C120.932 51.1108 121.01 51.1685 121.059 51.2728C123.168 51.4835 125.291 50.4415 127.096 49.3378C128.15 48.6928 129.309 47.7382 129.605 46.4826C129.71 46.0347 129.619 45.6126 130.082 45.3841C130.458 45.198 131.185 45.4664 131.582 45.4954C132.979 45.5979 134.355 45.4652 135.718 45.8815C136.55 46.1355 138.003 47.9156 138.583 46.6633C138.835 46.8996 138.698 47.3203 138.966 47.5502C139.2 47.7506 139.985 47.8917 140.308 48.0633C140.809 48.3286 141.102 48.6818 141.54 49.0008C142.078 49.3929 142.642 49.4231 143.163 49.8832C144.967 51.4765 147.081 52.6305 149.095 53.9519C151.486 55.5194 153.601 57.3672 156.166 58.6458C158.79 59.9531 161.328 61.0453 164.194 61.7254C165.495 62.0341 166.828 62.2917 168.163 62.3869C168.793 62.4314 169.394 62.4089 170.001 62.5978C170.37 62.7126 170.489 62.7701 170.851 62.7806C171.063 62.7867 171.368 62.6648 171.628 62.6695C172.162 62.6791 172.435 62.6571 172.917 62.8338C173.463 63.0337 173.916 63.154 174.537 63.1711C175.252 63.1912 175.673 62.9168 176.321 62.7476C176.845 62.6111 177.316 62.6763 177.784 62.3929C179.865 61.1344 181.536 59.2122 182.628 57.0302C183.88 54.5259 184.845 51.4729 185.042 48.6665C185.154 47.0601 184.8 45.4936 184.186 44.0187C184.013 43.6026 182.974 41.8305 183.295 41.5087C183.658 41.1429 184.845 41.9812 185.18 42.1633C186.243 42.7408 188.162 42.9258 188.906 43.8972C189.096 43.5333 190.151 44.0728 190.489 44.2247C190.769 44.3503 190.849 44.5774 191.201 44.6046C191.533 44.6301 191.875 44.3655 192.18 44.2812C191.957 44.903 192.706 44.932 193.22 44.9651C193.59 44.9887 193.987 44.9306 194.316 44.9072C194.947 44.8624 194.957 44.7208 195.532 44.3979C195.51 44.6344 195.536 44.8655 195.609 45.0909C195.979 44.5554 196.685 44.9273 197.185 44.692C196.824 44.1438 198.366 43.9936 198.725 44.1089C199.63 44.3993 199.016 45.5529 199.096 46.2194ZM128.289 83.899C128.886 83.7211 129.486 83.5584 130.085 83.3885C129.631 83.8045 129.161 84.5552 128.513 84.6724C127.732 84.8133 127.425 84.1565 128.289 83.899ZM98.8317 84.1971C99.8363 84.3173 100.93 84.2252 101.811 84.8184C101.381 85.312 101.103 85.8288 100.387 85.5457C99.7856 85.308 99.2906 84.63 98.8317 84.1971ZM132.392 111.227C131.732 110.636 131.819 110.371 132.129 109.605C132.262 109.276 132.473 108.252 132.974 108.552C133.151 108.658 133.366 109.774 133.398 110C133.469 110.505 133.156 111.913 132.392 111.227ZM136.112 107.792C135.879 106.935 135.887 106.003 135.658 105.126C135.416 104.199 135.119 103.27 135.034 102.312C138.519 102.928 140.498 106.387 142.008 109.274C142.81 110.807 143.596 112.504 143.899 114.218C144.194 115.889 143.682 117.158 143.087 118.647C142.784 119.407 142.282 119.671 141.697 120.173C141.178 120.618 140.984 121.369 140.444 121.769C140.044 122.065 139.526 122.218 139.108 122.516C138.696 122.811 138.283 123.103 137.858 123.378C137.371 123.693 135.912 124.839 135.255 124.594C134.764 124.411 134.983 123.81 135.107 123.432C135.368 122.637 135.551 121.871 135.712 121.042C136.142 118.829 136.375 116.63 136.486 114.38C136.595 112.182 136.697 109.937 136.112 107.792ZM133.197 117.772C133.249 117.88 133.467 118.809 132.981 118.618C132.644 118.485 133.148 117.942 133.197 117.772ZM135.251 80.8922C135.662 80.7222 135.826 81.225 136.188 81.24C136.668 81.2599 136.769 80.726 137.273 80.7103C138.504 80.6716 140.289 81.8618 141.29 82.4829C140.8 83.1028 140.598 83.737 140.842 84.5001C141.056 85.1726 141.877 85.9244 141.847 86.6369C141.816 87.3513 140.928 87.8114 140.651 88.447C140.397 89.0308 140.3 90.1985 141.085 90.4558C142.437 90.8986 142.746 88.3673 143.77 88.3476C144.208 88.3394 144.777 89.1626 145.091 89.419C145.797 89.9929 146.592 90.4122 147.412 90.7933C147.966 91.0504 148.736 91.5574 149.147 90.866C149.476 90.3124 149.207 89.4349 148.887 88.9584C148.52 88.4118 145.234 85.9101 145.441 85.6898C145.552 85.5722 146.37 85.8963 146.486 85.9947C146.748 86.2165 146.845 86.5776 147.107 86.8139C147.508 87.1746 148.026 87.3173 148.522 87.4842C149.556 87.8318 150.211 89.0547 151.214 89.6243C151.792 89.9526 152.145 90.5833 152.635 91.0718C153.275 91.7111 153.928 92.3812 153.832 93.3227C153.765 93.9752 153.668 95.4949 153.299 96.0454C152.898 96.6429 152.232 96.4139 151.623 96.555C150.939 96.7136 150.391 97.2478 150.527 98.0109C150.669 98.8043 151.303 98.861 151.966 98.8809C153.836 98.9374 153.147 100.125 153.799 101.428C154.153 102.136 154.744 102.414 155.15 101.586C155.478 100.919 154.893 99.8676 155.248 99.2983C155.681 98.6043 157.997 98.7933 158.48 99.3321C158.846 99.7408 159.04 100.303 159.405 100.73C159.959 101.379 160.187 102.289 160.52 103.085C160.873 103.93 161.181 104.787 161.451 105.662C161.641 106.277 162.051 107.251 161.069 106.726C160.383 106.359 159.871 105.532 159.002 105.506C158.142 105.48 157.652 106.373 157.903 107.149C158.146 107.901 159.255 108.232 159.383 108.993C159.524 109.827 158.096 110.677 157.663 111.29C156.665 112.701 157.5 114.29 159.135 113.092C159.715 112.667 160.323 111.811 160.977 111.543C162.011 111.118 162.005 112.691 162.501 113.27C162.768 113.581 162.864 113.265 162.706 113.73C162.648 113.902 162.352 113.955 162.319 114.169C162.295 114.325 162.435 114.408 162.44 114.529C162.457 114.939 162.457 114.999 162.365 115.445C162.263 115.939 162.3 116.553 162.27 117.056C162.199 118.203 162.184 119.299 162.063 120.447C161.996 121.085 161.856 122.386 162.61 122.697C162.342 123.118 161.985 124.287 161.457 124.199C161.5 124.476 161.476 124.83 161.745 125.011C161.809 124.842 161.873 124.673 161.937 124.504C162.085 124.89 161.955 124.935 161.947 125.197C161.958 124.872 161.65 125.651 161.816 125.555C161.675 125.673 161.488 125.741 161.275 125.894C160.978 126.108 160.822 126.403 160.591 126.692C160.174 127.215 160.198 127.743 159.832 128.288C159.314 129.061 158.649 129.825 158.103 130.597C157.658 131.226 156.811 131.589 156.454 132.265C156.228 132.695 156.138 133.195 155.751 133.498C155.197 133.931 154.457 134.339 153.856 134.786C153.478 135.067 153.19 135.457 152.813 135.73C152.621 135.869 152.046 136.009 152.045 136.29C151.321 136.087 150.809 135.348 150.239 134.898C149.859 134.597 148.953 134.206 149.007 133.603C149.052 133.11 149.754 132.498 149.915 131.981C150.052 131.543 150.243 130.725 149.864 130.351C149.069 129.566 148.168 131.251 147.741 131.7C146.861 132.625 146.486 131.692 145.762 131.02C144.606 129.947 143.88 131.06 144.286 132.397C144.493 133.073 145.278 133.676 145.328 134.367C145.384 135.126 144.562 135.508 144.236 136.114C143.929 136.687 143.787 137.692 144.365 138.165C145.002 138.687 145.556 138.069 145.973 137.587C146.296 137.213 146.656 136.389 147.182 136.342C147.84 136.284 148.92 137.48 149.422 137.849C148.66 138.07 148.202 138.707 147.559 139.115C146.728 139.642 145.569 139.767 144.639 140.129C143.764 140.47 142.976 140.747 142.142 141.17C141.153 141.671 139.943 141.797 138.895 142.162C137.96 142.488 137.073 142.946 136.118 143.215C135.041 143.519 133.923 143.701 132.838 143.976C131.909 144.21 130.82 144.435 129.864 144.437C128.896 144.439 128.916 143.84 128.607 143.041C128.239 142.093 127.63 141.26 127.242 140.335C126.872 139.455 127.43 139.121 127.965 138.447C128.47 137.813 128.336 137.713 128.986 138.159C129.842 138.746 130.408 138.349 131.074 137.674C131.666 137.075 131.884 136.576 132.736 136.994C133.589 137.412 134.402 138.091 135.318 138.364C136.04 138.578 136.578 138.423 136.699 137.633C136.83 136.779 136.343 136.174 135.73 135.667C135.263 135.281 134.243 134.824 134.072 134.198C133.893 133.539 134.839 132.578 134.941 131.841C135.068 130.911 134.668 130.227 133.785 130.871C133.145 131.338 132.719 132.351 131.83 132.414C132.076 131.378 132.612 130.458 133.071 129.509C133.456 128.714 133.787 127.812 134.82 127.724C135.155 127.695 135.373 127.73 135.693 127.672C136.115 127.596 136.688 127.536 137.139 127.422C138.201 127.154 139.139 126.334 140.116 125.864C140.341 126.467 140.737 128.185 141.65 127.182C142.325 126.44 141.578 125.163 142.2 124.338C143.483 122.634 146.277 123.885 147.963 123.007C148.697 122.624 149.295 121.405 148.26 121.038C147.655 120.823 145.909 121.616 145.545 121.031C145.286 120.614 146.373 118.986 146.504 118.538C146.913 117.145 146.846 115.699 146.846 114.264C147.667 114.6 148.705 115.385 149.589 115.493C150.498 115.603 150.658 114.536 150.42 113.835C150.091 112.869 148.997 112.077 148.248 111.455C147.917 111.181 147.052 110.74 146.87 110.323C146.683 109.892 146.951 109.683 147.161 109.309C147.489 108.725 148.284 107.213 147.419 106.665C146.624 106.161 146.177 107.574 145.67 107.876C144.81 108.389 144.515 107.214 144.173 106.616C143.552 105.531 142.692 104.562 141.92 103.586C141.217 102.697 140.783 102.095 140.681 100.962C140.603 100.104 140.428 99.4401 141.439 99.2451C143.233 98.8997 145.858 99.7511 147.315 98.2917C148.079 97.5265 147.533 96.7352 146.569 96.7746C145.301 96.8264 144.097 96.889 142.821 96.7861C142.143 96.7315 140.726 96.8962 140.383 96.1973C139.943 95.2973 140.69 93.8515 139.878 93.0628C138.843 92.0557 138.589 94.3317 138.555 94.9601C138.529 95.418 138.647 96.1151 138.362 96.5111C138.096 96.8805 137.61 96.8751 137.217 97.0087C136.227 97.3453 135.716 98.5619 137.029 98.8193C137.471 98.906 138.087 98.7799 138.454 99.1076C138.839 99.4504 138.692 100.06 138.728 100.522C137.808 99.4554 135.895 99.9281 134.649 99.532C133.993 99.3234 133.882 99.0454 133.606 98.4098C133.272 97.6406 132.51 96.6679 132.481 95.8174C132.457 95.0953 133.058 94.5518 133.339 93.9293C133.579 93.3951 133.797 92.5258 133.762 91.9265C133.676 90.4809 131.068 91.9565 130.531 92.5097C129.556 93.5135 128.354 94.8119 128.883 96.2339C129.354 97.5025 129.604 98.2221 127.969 98.1222C127.37 98.0857 126.113 98.2043 125.648 97.9514C125.304 97.7639 125.433 97.4273 125.422 96.9398C125.412 96.5175 125.444 95.8774 125.173 95.5083C124.219 94.2103 123.996 97.4404 123.46 97.7904C122.624 98.3376 120.852 97.7641 120.989 99.3881C121.108 100.809 123.029 100.229 123.56 101.451C123.816 102.04 123.761 102.726 124.084 103.294C124.543 104.104 125.108 104.061 125.412 103.217C125.626 102.623 125.341 102.014 125.505 101.454C125.743 100.645 126.874 100.72 127.569 100.628C128.415 100.517 129.151 100.304 129.956 100.044C130.948 99.723 130.894 100.25 131.055 101.013C131.243 101.899 131.529 102.752 131.705 103.651C131.869 104.488 132.303 105.39 132.374 106.228C132.428 106.869 132.21 106.811 131.68 107.18C131.1 107.584 130.462 108.635 129.789 108.808C128.777 109.068 127.756 106.753 126.836 107.937C126.44 108.446 126.593 109.528 126.874 110.054C127.246 110.748 127.929 110.924 127.356 111.719C126.926 112.316 126.385 112.779 126.345 113.583C126.307 114.329 126.814 115.034 127.608 114.815C128.248 114.638 128.627 113.982 129.112 113.583C129.95 112.896 130.638 113.533 131.495 113.922C132.17 114.229 133.41 114.429 133.748 115.15C134.178 116.064 133.627 116.418 132.829 116.158C133.14 117.181 132.731 117.775 132.618 118.832C132.527 119.688 132.331 120.47 132.205 121.298C132.039 122.402 132.021 122.283 130.885 122.32C129.919 122.352 128.98 122.326 128.016 122.284C127.166 122.246 126.588 122.323 126.55 121.298C126.533 120.845 126.818 119.311 125.926 119.495C125.141 119.657 125.367 121.059 125.104 121.586C124.725 122.349 124.082 122.115 123.367 122.304C122.639 122.495 122.051 123.033 122.239 123.863C122.439 124.749 123.251 124.687 123.957 124.892C125.044 125.208 124.806 126.807 125.44 127.676C125.699 128.03 125.972 128.388 126.407 128.098C127.204 127.564 126.451 126.26 126.662 125.606C126.883 124.918 127.63 125.059 128.336 124.97C129.379 124.838 130.469 124.336 131.508 124.342C131.309 124.941 130.751 125.289 130.55 125.92C130.442 126.258 130.543 126.89 130.393 127.17C130.233 127.47 129.726 127.56 129.517 127.978C129.243 128.525 129.158 129.112 128.837 129.648C128.079 130.915 127.425 132.211 126.619 133.466C125.787 134.761 124.89 135.994 123.842 137.117C122.826 138.207 122.523 137.679 121.65 136.788C121.295 136.426 120.54 136.006 120.441 135.465C120.344 134.931 120.785 134.495 121.027 134.061C121.347 133.485 121.926 132.494 121.785 131.802C121.52 130.504 120.36 131.7 119.92 132.185C119.152 133.034 118.723 133.927 117.562 133.256C116.818 132.827 115.881 131.652 114.906 132.086C114.018 132.482 114.266 133.625 114.813 134.205C115.119 134.53 115.555 134.715 115.879 135.019C116.578 135.675 116.183 135.853 115.864 136.586C115.602 137.187 115.565 138.368 116.046 138.869C116.993 139.853 117.725 137.868 118.604 137.827C119.021 137.808 120.753 138.945 120.876 139.354C121.093 140.072 119.224 140.929 118.728 141.266C117.573 142.05 116.315 142.849 115.016 143.368C113.483 143.982 114.626 142.049 113.788 141.407C112.698 140.572 112.614 142.86 112.502 143.429C112.205 144.941 110.607 144.98 109.319 145.355C108.499 145.594 107.678 145.848 106.849 146.055C106.145 146.231 105.358 146.227 104.676 146.445C104.078 146.637 103.669 147.025 103 147.03C102.783 147.031 102.594 146.958 102.384 146.953C101.961 146.942 101.574 147.184 101.169 147.159C100.497 147.117 100.79 146.905 100.556 146.436C100.336 145.996 99.7772 145.834 99.3424 145.697C98.0958 145.303 97.058 145.648 96.877 144.063C96.8213 143.576 96.8949 141.577 95.9688 141.811C94.8874 142.083 95.839 144.459 95.1677 145.054C94.841 145.344 94.3479 145.199 93.9542 145.285C93.3077 145.425 93.0244 145.914 92.3168 145.881C91.7199 145.853 91.1642 145.588 90.6438 145.325C89.8683 144.933 88.943 144.673 88.2963 144.074C87.4099 143.253 87.0211 141.974 86.6433 140.864C86.0874 139.229 85.8504 137.6 85.7611 135.886C85.7299 135.288 85.4761 134.867 85.3699 134.318C85.2572 133.735 85.5905 133.618 85.6671 133.066C85.7417 132.528 85.7056 131.955 85.8185 131.379C85.9809 130.552 86.0377 129.705 86.1952 128.875C86.4558 127.502 86.851 126.139 87.1753 124.778C87.2761 124.356 87.4587 123.001 87.9802 122.871C88.365 122.775 89.2535 123.348 89.61 123.516C90.3152 123.849 90.9213 124.308 91.6758 124.538C92.0651 124.657 92.5566 124.646 92.812 125.007C93.2159 125.579 92.8894 126.699 93.0567 127.375C93.2616 128.203 93.9399 128.555 94.4864 127.724C94.7777 127.281 94.7002 126.752 94.7393 126.262C94.7951 125.556 94.8075 125.385 95.5718 125.433C96.346 125.481 97.1018 125.773 97.8956 125.809C98.6114 125.841 99.3307 125.821 100.046 125.782C101.782 125.687 103.37 125.404 104.999 124.786C106.102 124.367 107.381 123.452 108.597 123.484C110.313 123.529 109.849 125.118 110.083 126.307C110.227 127.03 111.436 129.251 111.901 127.449C112.131 126.557 111.365 125.257 111.819 124.452C112.354 123.501 114.324 124.29 115.22 124.07C115.945 123.892 117.157 122.864 116.645 121.976C116.402 121.556 115.931 121.636 115.511 121.605C114.715 121.545 113.924 121.436 113.135 121.32C112.686 121.254 111.999 121.215 111.82 120.699C111.667 120.262 112.382 119.126 112.537 118.707C113.05 117.321 113.235 116.193 113.237 114.681C113.237 113.999 113.282 113.28 113.172 112.606C113.132 112.359 112.762 111.553 112.935 111.317C113.168 110.999 113.646 111.402 113.838 111.64C114.219 112.114 114.086 112.076 113.87 112.567C113.551 113.29 112.931 114.806 113.982 115.362C115.081 115.943 115.478 113.977 116.519 114.193C117.004 114.294 117.484 114.932 117.875 115.23C118.333 115.579 118.827 115.95 119.365 116.164C120.248 116.515 121.24 116.252 120.883 115.141C120.602 114.266 119.712 113.533 119.076 112.912C118.062 111.924 118.108 111.508 118.808 110.343C119.102 109.856 120.227 107.786 118.923 107.617C118.232 107.528 117.485 108.648 117.121 109.076C116.495 109.811 116.136 110.127 115.204 109.537C114.294 108.96 113.872 108.477 112.77 108.424C111.504 108.363 110.934 106.459 110.262 105.482C108.438 102.826 105.644 101.513 103.289 99.4783C102.141 98.4867 101.366 97.1894 100.493 95.9688C100.078 95.3873 99.5412 94.9045 99.2025 94.271C98.9895 93.8726 98.4122 92.9123 98.5624 92.4422C98.7495 91.8569 99.7589 91.4958 100.179 91.0823C100.531 90.7357 100.719 90.3033 101.274 90.4357C101.767 90.5538 102.212 91.2215 102.615 91.515C103.011 91.803 103.458 92.0702 103.897 92.2856C104.691 92.6751 105.649 92.8833 105.696 91.6987C105.736 90.6738 104.802 89.5762 104.126 88.8848C103.635 88.3816 102.891 87.9443 102.988 87.1453C103.036 86.749 103.373 86.0435 103.569 85.7111C104.246 84.5672 106.313 85.2651 107.437 85.3385C108.79 85.4271 110.283 85.1997 111.358 86.1574C111.709 86.4698 112.523 87.0834 112.695 87.5182C112.895 88.0242 112.568 88.2518 112.386 88.7416C112.151 89.3744 111.989 90.6244 112.666 91.0608C113.796 91.789 114.385 89.6287 115.56 90.1012C116.674 90.5494 117.453 91.8377 118.725 92.0416C120.389 92.3083 119.441 90.2454 118.865 89.6383C118.118 88.8513 116.67 88.0376 117.144 86.8739C117.28 86.5413 117.589 85.8476 117.868 85.6411C118.413 85.2368 119.291 85.4587 119.916 85.4653C121.491 85.4822 122.978 85.3526 124.522 85.0772C124.987 84.994 125.093 84.9281 125.421 85.275C125.875 85.7545 126.114 86.3798 126.642 86.8514C125.879 87.6738 124.748 88.6448 125.278 89.9109C125.735 91.0003 126.735 90.4659 127.413 89.884C127.731 89.6107 128.059 89.0322 128.48 88.9226C129.027 88.7801 129.642 89.2772 130.09 89.5294C130.762 89.9083 132.2 91.0315 132.963 90.3684C133.973 89.4914 132.778 88.1719 132.083 87.6302C131.662 87.3026 131.101 87.0689 130.747 86.6646C130.276 86.1265 130.553 86.0475 130.838 85.5626C131.36 84.6752 131.169 83.5324 132.005 82.8393C132.468 82.455 133.131 82.2133 133.66 81.9316C134.181 81.6539 134.74 81.1033 135.251 80.8922ZM143.766 84.3429C143.563 84.2184 143.359 84.094 143.156 83.9693C143.621 83.7429 143.927 83.7698 143.766 84.3429ZM154.979 95.1244C155.061 94.7102 155.381 93.9693 155.82 94.3568C156.103 94.6057 155.794 95.5406 156.468 95.2821C156.502 95.8776 156.059 95.827 156.713 96.3569C155.887 96.2613 154.748 96.2986 154.979 95.1244ZM122.938 145.331C123.146 144.773 123.144 143.908 123.784 144.418C123.817 143.742 123.657 141.6 124.884 141.687C125.384 141.723 125.378 142.164 125.51 142.546C125.741 143.212 126.13 143.819 126.457 144.44C125.241 144.489 124.023 144.768 122.938 145.331ZM123.336 153.029C124.031 153.555 124.38 152.934 125.036 152.708C125.642 152.499 126.271 152.624 126.942 152.476C127.775 152.292 128.755 152.32 129.569 152.313C129.769 152.311 130.188 152.343 130.391 152.366C130.759 152.408 130.726 152.485 131.108 152.587C131.256 152.553 131.405 152.528 131.555 152.513C131.739 152.505 131.885 152.581 131.991 152.742C132.334 152.856 132.459 152.78 132.788 152.86C133.571 153.052 134.156 153.523 134.667 154.149C135.709 155.422 135.739 157.335 135.716 158.911C135.709 159.36 135.675 159.807 135.724 160.254C135.769 160.665 136.06 161.285 135.941 161.694C135.761 162.311 135.205 162.172 134.558 162.2C134.176 162.216 133.796 162.462 133.492 162.484C133.199 162.505 133.08 162.397 132.783 162.33C132.008 162.157 131.094 162.404 130.329 162.615C129.545 162.832 128.857 163.046 128.061 163.199C127.544 163.298 127.078 163.355 126.556 163.42C126.128 163.474 125.943 163.699 125.569 163.792C125.209 163.882 124.858 163.748 124.494 163.818C123.999 163.914 123.653 164.277 123.202 164.458C122.58 164.708 121.585 164.335 121.309 165.104C121.201 164.362 120.49 164.564 119.96 164.498C119.087 164.39 118.226 163.998 117.386 163.749C116.698 163.544 114.317 161.657 113.861 162.423C113.862 162.345 113.945 161.907 113.873 161.856C113.619 161.677 113.621 161.776 113.347 161.664C112.929 161.493 112.753 161.338 112.454 161.05C111.849 160.467 111.035 160.162 110.398 159.633C108.797 158.305 108.249 155.568 107.858 153.663C107.348 154.568 107.536 153.406 107.624 153.018C107.833 152.102 107.564 151.65 107.504 150.765C107.448 149.951 107.819 149.79 108.554 149.705C109.459 149.6 110.33 149.454 111.217 149.228C112.064 149.012 112.894 148.768 113.658 148.339C114.357 147.946 115.091 147.792 115.806 147.448C116.595 147.068 117.368 146.67 118.164 146.3C118.523 146.134 120.102 144.942 120.376 145.015C120.939 145.164 120.408 146.149 120.236 146.408C119.795 147.072 119.071 147.38 118.418 147.798C117.829 148.175 116.043 149.96 117.856 149.781C119.058 149.662 119.872 148.403 120.641 149.838C120.912 150.345 121.312 150.752 121 151.276C120.564 152.006 119.307 152.355 118.648 152.846C118.087 153.266 116.938 155.242 118.096 155.453C118.429 155.514 118.942 155.435 119.189 155.177C119.356 155.002 119.344 154.643 119.513 154.524C119.752 154.354 120.217 154.564 120.49 154.471C120.879 154.339 120.971 154.127 121.114 153.753C121.529 153.942 121.535 154.197 122.009 153.952C122.167 153.871 122.224 153.573 122.407 153.494C122.651 153.387 122.724 153.737 122.858 153.686C123.222 153.546 123.221 153.389 123.336 153.029ZM98.3956 147.217C97.6988 147.27 96.9377 147.326 96.3431 146.882C97.0655 146.925 97.7028 147.088 98.4267 146.939C98.7145 146.88 99.1753 146.608 99.4702 146.703C100.518 147.039 98.6745 147.196 98.3956 147.217ZM96.4603 85.916C96.45 85.6708 96.2421 82.3732 97.3685 83.6686C97.677 84.0229 97.3444 84.4976 97.3006 84.8894C97.2265 85.5499 97.4581 86.2118 97.8059 86.7679C98.1305 87.2866 98.7366 87.7408 98.6459 88.4172C98.5662 89.0107 97.9674 89.5174 97.6723 90.0098C96.9466 88.8661 96.5187 87.2925 96.4603 85.916ZM93.9844 51.307C91.3742 51.5817 88.777 52.0678 86.2603 52.818C83.7893 53.5544 81.4859 54.7059 79.1639 55.8091C78.6853 53.76 78.1842 51.7162 77.7115 49.6655C77.4841 48.6785 77.2669 47.689 77.0541 46.6985C76.9024 45.9944 76.3514 44.6815 76.5813 43.9889C76.7034 43.6219 76.8645 43.6202 77.127 43.3936C77.2873 43.2553 77.5667 42.9169 77.7328 42.8444C78.1376 42.6684 79.177 42.5142 79.5912 42.5393C79.9688 42.562 80.1661 42.712 80.5545 42.6035C80.8852 42.5112 81.1629 42.2566 81.4732 42.1172C82.2628 41.7621 83.2486 41.643 84.0931 41.4551C84.9059 41.2744 85.7449 41.234 86.5596 41.055C87.2731 40.8979 87.6122 40.3727 88.2209 40.3917C89.8048 40.4412 91.5563 40.2555 93.1277 39.877C94.891 39.4526 96.8091 39.5346 98.618 39.4891C99.3387 39.4711 99.8452 39.3089 99.8489 40.1114C99.8531 41.0906 99.462 42.1901 99.2625 43.1461C98.8198 45.2658 98.445 47.3262 98.2777 49.4784C98.194 50.5551 97.7527 50.4799 96.8775 50.8101C95.9037 51.1774 95.0201 51.1983 93.9844 51.307ZM80.2606 73.0542C80.9037 73.1491 80.8299 71.3899 80.877 71.0322C82.4105 73.9242 84.1374 76.7074 85.4885 79.6943C85.8042 80.3927 86.0911 81.1073 86.4249 81.7973C86.6531 82.2698 87.1641 82.904 87.1519 83.4536C87.1388 84.0272 86.6756 84.2418 86.1874 84.4544C85.6599 84.6841 85.4538 84.7987 85.0819 84.5332C84.6319 84.2114 84.2562 83.2204 83.9782 82.7428C83.5538 82.0134 83.1474 81.2737 82.7316 80.5397C81.9785 79.2086 81.0898 77.9343 80.471 76.5372C79.8914 75.2283 79.0144 74.1019 78.3895 72.8161C77.7708 71.5427 76.924 70.3354 76.2127 69.089C76.927 68.7919 77.8174 68.0491 78.6291 68.0904C79.4674 68.133 79.447 68.9423 79.4834 69.6164C79.5216 70.3322 79.282 72.9094 80.2606 73.0542ZM82.32 86.1204C81.9375 86.5741 81.075 86.8408 80.546 87.0926C79.8134 87.4411 79.0634 87.7511 78.3342 88.1067C75.942 89.2741 73.5598 90.3426 71.1227 91.4147C69.863 91.9687 68.6187 92.5577 67.3894 93.1762C66.7453 93.5001 65.3264 94.6354 64.5856 94.6643C63.7362 94.6973 63.7163 92.9822 63.5292 92.3388C63.372 91.8004 63.0802 91.3814 62.8838 90.8711C62.8038 90.6626 62.866 90.5046 62.7441 90.2981C62.6053 90.0628 62.2165 89.8732 62.0166 89.6704C61.1677 88.8082 60.4641 87.7106 59.7471 86.7394C59.0904 85.8497 57.9701 84.7357 57.6551 83.6454C57.0356 81.502 60.6345 80.3156 62.0114 79.4545C64.4222 77.9468 66.8447 76.398 69.143 74.7229C70.1897 73.9598 71.2146 73.1665 72.2667 72.4101C72.7577 72.0574 74.1183 70.6847 74.7485 71.1738C74.9831 71.3559 74.9876 71.8598 75.0856 72.124C75.2995 72.7012 75.6244 73.2051 75.9534 73.7229C76.2457 74.1813 76.6613 74.6554 76.8438 75.1671C77.0616 75.7772 77.0515 76.1226 77.4499 76.6699C78.1746 77.6651 78.5168 78.8133 79.1906 79.8279C79.8403 80.8061 80.4645 81.5278 80.8894 82.6209C81.1331 83.2474 81.5177 83.8031 81.8576 84.3792C82.0177 84.6513 82.185 84.9187 82.3284 85.2004C82.5853 85.7039 82.676 85.6973 82.32 86.1204ZM61.7569 94.492C61.297 94.8211 60.6202 94.2679 60.1742 94.2604C59.9801 94.2569 59.7874 94.4083 59.6578 94.4041C59.2681 94.3924 58.9495 94.1306 58.5907 94.0087C56.9344 93.4453 54.9595 93.4237 53.5446 92.2795C50.7338 90.0061 52.0739 85.4447 52.5858 82.4897C52.6901 81.8871 52.8778 81.0527 52.391 80.5591C51.8574 80.0182 51.0546 80.3409 50.5662 80.7787C50.0651 81.2273 49.7243 81.8559 49.3078 82.38C48.6443 83.2146 47.9201 84.0035 47.1886 84.7781C44.5896 87.5304 41.8374 90.6797 38.6222 92.6995C37.2851 93.5397 36.0748 94.6783 34.6092 95.3186C32.8463 96.0888 34.6561 93.1155 34.973 92.6325C37.0479 89.4705 40.0688 86.9676 42.6056 84.1919C43.0845 83.6681 43.7644 82.9619 43.7728 82.2072C43.7857 81.074 42.7849 81.1758 41.9935 81.4903C41.2533 81.7847 40.8825 82.5171 40.287 83.0175C39.5456 83.6407 38.6794 84.146 37.8542 84.6487C36.0743 85.7334 34.185 86.6435 32.3013 87.5308C31.4203 87.9459 30.5351 88.3521 29.6499 88.7583C29.4068 88.8698 27.9546 89.7912 28.024 89.0013C28.0334 88.8951 28.9599 87.7699 29.0742 87.7282C29.6447 87.5196 29.9276 88.1491 30.4353 87.3241C30.796 86.7382 30.8459 86.4342 31.3552 85.9896C31.4419 85.9141 31.5014 85.7229 31.5717 85.5989C31.5631 85.6455 31.95 85.2691 31.876 85.3345C31.9777 85.2447 32.1253 85.0802 32.2078 84.9724C32.606 84.4526 33.3713 84.4427 33.7172 83.8486C33.8492 83.6224 33.7744 83.3322 33.9335 83.1077C34.1564 82.7927 34.6467 82.6586 34.9083 82.3816C35.1326 82.1435 35.3175 81.9494 35.4567 81.8039C35.5526 81.7036 35.7209 81.6333 35.8343 81.5184C36.1167 81.2327 36.0945 80.9798 36.4896 80.7396C36.8445 80.5242 37.0076 80.7258 37.1304 80.1921C37.5621 80.4689 37.508 80.0639 37.6833 79.7737C37.9111 79.3964 38.2006 79.2281 38.5146 78.9551C39.2056 78.3541 39.8534 77.4595 40.4412 76.7029C41.9032 74.8216 43.0856 72.6218 43.5211 70.2614C43.6254 69.697 43.6828 69.1268 43.7243 68.5544C43.7463 68.2535 43.6481 67.5206 43.8345 67.2258C44.1239 66.7683 44.6731 66.9499 45.091 66.7497C45.233 66.6815 45.3731 66.4812 45.5063 66.4357C45.6926 66.3719 45.9206 66.434 46.114 66.3726C46.1892 66.349 46.2066 66.1279 46.3308 66.0996C46.5745 66.0438 46.8167 66.1324 47.0576 66.1357C47.5847 66.1427 48.105 66.0499 48.6106 65.8819C49.0704 65.729 49.4552 65.3787 49.9142 65.2523C49.8673 65.2654 50.6705 65.3292 50.6271 65.284C50.6656 65.0862 50.704 64.8883 50.7424 64.6905C51.0474 64.9036 52.087 65.1844 52.4095 65.1358C52.928 65.0576 52.8188 64.5902 53.2582 65.204C53.5071 64.987 53.7558 64.77 54.0045 64.5529C54.1929 65.3437 55.4909 64.9601 56.0792 65.0037C56.9081 65.0655 57.5611 64.9099 58.3165 65.1984C59.2352 65.55 60.041 65.9203 61.0306 66.0162C61.722 66.083 62.0095 66.408 62.6869 66.6087C63.5972 66.8779 63.6692 67.1751 63.3844 68.1054C63.1535 68.8596 62.9541 69.4411 63.2913 70.215C63.8897 71.5872 65.5156 72.1526 66.5639 73.1008C64.1081 74.8244 61.6835 76.5199 59.3098 78.3567C58.3151 79.1259 57.2574 79.8965 56.6909 81.0539C56.1684 82.1222 55.8722 83.4058 55.5579 84.5493C54.8367 87.1711 56.8681 88.9354 58.9547 90.0888C59.3867 90.3272 62.3606 94.0601 61.7569 94.492ZM57.7069 97.661C57.5599 97.1566 57.5792 97.0221 58.066 96.8411C58.2502 96.7727 58.9563 96.6832 59.0707 96.9361C59.3295 97.5098 57.9694 97.5026 57.7069 97.661ZM78.3999 61.1217C78.5742 62.2406 78.7458 63.3597 78.9017 64.4812C78.9874 65.1009 79.1822 65.6489 78.7207 66.1162C78.4585 66.3815 77.8224 66.4807 77.4874 66.622C77.0046 66.8259 76.534 67.0596 76.0697 67.3029C75.2416 67.7365 74.3763 67.9976 73.5591 68.3887C73.2035 68.5584 72.9928 68.8931 72.6851 69.124C72.2641 69.4399 71.752 69.5937 71.3175 69.8941C70.541 70.4315 69.8295 71.0676 69.0534 71.6086C68.1743 72.2217 67.991 72.0248 67.4972 71.119C67.054 70.3057 66.522 69.9347 65.8838 69.2972C65.6356 69.0492 64.7473 67.6362 65.5017 67.5145C65.6951 67.4831 66.3631 67.7737 66.5145 67.8668C66.7444 68.0079 67.1119 68.8101 67.2989 68.8237C67.6357 68.8483 68.067 67.8893 68.277 67.6369C69.6525 65.981 71.1656 64.3432 72.7596 62.8947C73.5858 62.144 74.4537 61.4599 75.3902 60.8538C76.0563 60.423 76.6376 59.8193 77.2943 59.4105C77.4333 59.2903 77.5906 59.2043 77.7673 59.1527C78.1099 58.9971 78.2386 59.1314 78.1533 59.5556C78.3497 59.9707 78.3284 60.6637 78.3999 61.1217ZM48.3113 59.6554C48.6455 59.3151 49.0678 59.043 49.3594 58.6631C49.5239 58.4489 49.6324 58.0657 49.8206 57.9272C50.1483 57.6858 50.617 57.7971 50.9981 57.4734C51.3661 57.1605 51.6893 56.786 52.0488 56.4614C52.8281 55.7583 53.6323 55.1119 54.3968 54.3961C54.8313 53.9892 55.287 53.4614 55.673 53.1928C55.7754 53.1215 55.89 53.0156 55.9988 52.9608C56.2313 52.8436 56.3473 52.9629 56.6867 52.8537C56.9112 52.7817 57.0715 52.4974 57.2515 52.3629C57.6797 52.0432 58.2375 51.9166 58.6495 51.6089C59.0616 51.3012 59.2599 50.8233 59.827 50.5666C60.5131 50.2563 61.0273 50.5015 61.5232 49.908C61.7255 49.6662 61.7808 49.3612 62.0984 49.2087C62.4809 49.0247 62.8167 49.2199 63.1821 49.0108C63.4284 48.8697 63.5967 48.574 63.851 48.4195C64.3062 48.1441 64.8099 48.1148 65.2355 47.7738C65.5948 47.4862 65.3953 47.5158 65.8207 47.3944C66.0077 47.3409 66.2152 47.318 66.4149 47.2497C67.0545 47.0315 68.0988 46.7644 68.4776 46.1578C68.67 46.4383 68.7359 46.4953 69.0478 46.4081C69.2117 46.2747 69.3619 46.1283 69.4988 45.9682C69.5991 46.095 69.7069 46.1027 69.8217 45.9909C70.4967 45.7589 71.116 45.3602 71.7809 45.139C71.8751 45.1898 71.9693 45.2409 72.0633 45.2915C72.1943 45.2988 72.2475 45.2348 72.2227 45.0994C72.4842 45.0515 72.7856 44.9365 73.0266 44.8315C73.4888 44.6301 73.9992 44.1515 74.5437 44.3229C75.4528 44.6088 75.4964 46.4637 75.6532 47.1987C76.0399 49.0101 76.429 50.8209 76.8174 52.6319C76.9753 53.369 77.1141 54.1115 77.322 54.836C77.4579 55.3094 77.7961 56.0076 77.674 56.5111C77.5242 57.1282 76.9221 57.329 76.4187 57.6145C75.7247 58.0078 75.0539 58.4442 74.3972 58.8972C71.6093 60.8203 69.5309 63.465 67.5541 66.1783C67.1878 65.6461 66.207 64.8989 65.5955 64.6589C65.1673 64.4911 64.782 64.6263 64.3556 64.4215C64.0517 64.2752 63.7992 63.9895 63.5117 63.8055C61.7564 62.6812 59.6379 61.7519 57.6033 61.3059C53.4288 60.3902 49.342 61.8079 45.2944 62.4808C46.1156 61.3516 47.3438 60.6396 48.3113 59.6554ZM76.2539 29.0121C76.9683 26.6836 78.1713 24.4294 79.8834 22.6827C80.7467 21.8021 81.7613 21.0324 82.8984 20.5428C83.8877 20.1172 85.0643 19.709 85.0491 21.0777C85.0156 24.049 84.3293 26.9866 84.2454 29.9627C84.1638 32.879 84.652 35.22 86.4169 37.5701C85.2987 37.8297 84.181 38.0932 83.067 38.3695C82.2209 38.5793 81.3436 38.8146 80.5432 38.9587C79.752 39.1008 79.0242 39.1936 78.2419 39.461C77.7145 39.6412 76.8884 40.1922 76.3177 40.0727C75.3692 39.874 75.5937 36.4711 75.5449 35.6536C75.4081 33.3447 75.5726 31.2342 76.2539 29.0121ZM93.5899 33.4952C94.8858 31.9221 96.2323 30.0869 98.4124 29.7949C100.52 29.5125 101.297 32.0407 101.163 33.7455C101.118 34.3223 101.032 35.8202 100.613 36.2876C100.15 36.8046 99.3267 36.4148 98.7377 36.3351C96.1953 35.9908 93.5888 36.5655 91.0392 36.5655C91.8893 35.5418 92.7438 34.522 93.5899 33.4952ZM104.022 39.7683C104.906 39.8951 105.612 40.0298 105.185 41.0365C104.331 43.0528 103.674 44.977 104.423 47.175C104.995 48.8536 106.807 50.8912 108.617 51.2276C109.251 51.3455 110.205 51.1345 110.595 51.7788C110.942 52.3528 110.566 54.0738 110.525 54.7111C110.375 57.0851 109.767 59.4408 108.23 61.3062C106.863 62.966 105.195 64.2651 103.206 62.6983C101.53 61.3779 100.54 59.0156 100.044 56.9967C99.7795 55.919 99.7474 54.8437 99.6968 53.7424C99.652 52.7683 99.4664 52.1505 100.568 51.9485C100.863 51.8946 101.601 51.9115 101.602 51.4608C101.603 50.8551 100.804 51.0822 100.498 51.0515C99.3178 50.9339 99.8705 49.5619 99.9804 48.6745C100.168 47.1635 100.471 45.6694 100.749 44.1736C100.986 42.8995 100.999 41.2298 101.514 40.0387C101.814 39.3431 103.432 39.6837 104.022 39.7683ZM106.194 44.2427C106.328 43.4215 106.399 42.3951 107.214 41.9412C108.11 41.4424 108.558 42.255 109 42.919C110.172 44.6805 111.469 46.3289 111.661 48.5156C111.684 48.7765 111.796 49.3001 111.544 49.4805C111.432 49.5612 111.164 49.3486 110.991 49.3612C110.063 49.428 109.391 49.6767 108.481 49.1526C106.7 48.1265 105.87 46.2246 106.194 44.2427ZM113.197 49.1618C113.006 47.2495 112.122 45.5538 111.136 43.9394C110.65 43.1435 109.705 42.2733 109.369 41.4323C109.189 40.9819 109.508 40.424 110.162 40.6172C110.487 40.7135 111.115 41.5774 111.333 41.8762C111.892 42.6445 112.355 43.5014 112.798 44.3402C113.271 45.2367 114.615 48.5266 113.197 49.1618ZM107.334 30.1207C107.437 28.3216 107.448 26.2556 108.613 24.7626C109.516 23.6048 111.169 23.1009 112.51 22.6534C114.317 22.0503 116.487 21.9572 118.377 22.1521C120.04 22.3238 121.296 23.4562 122.322 24.7015C123.366 25.9678 124.174 27.5983 124.892 29.0716C125.072 29.4403 126.596 31.8058 125.565 31.7508C125.156 31.7287 124.801 30.9307 124.488 30.6949C124.243 30.5104 123.952 30.5332 123.732 30.3855C123.496 30.2273 123.548 30.0808 123.365 29.8854C122.106 28.541 120.948 29.3151 119.59 30.0232C119.527 29.5542 119.638 28.683 119.246 28.3404C118.733 27.8918 118.197 28.6024 117.829 28.9507C117.494 29.2683 117.081 29.8467 116.659 30.0185C116.111 30.2414 116.297 30.0044 115.821 29.8172C114.863 29.4403 114.126 30.5559 113.641 31.2047C113.46 31.4465 113.165 32.0576 112.841 32.1229C112.528 32.186 112.487 31.9631 112.218 31.8808C111.454 31.6481 111.243 32.1923 111 32.868C110.727 33.6279 110.494 34.3601 110.089 35.0697C109.373 36.3255 109.065 36.7387 109.631 38.1255C108.804 38.2483 108.63 38.347 108.22 37.6127C107.798 36.8559 107.688 36.2283 107.715 35.3585C107.77 33.5395 107.227 31.9683 107.334 30.1207ZM126.54 38.7274C127.407 40.2919 127.957 42.469 127.948 44.2514C127.943 45.1357 127.891 46.2232 127.479 47.0254C127.083 47.7951 126.253 48.1805 125.49 48.5083C123.649 49.2991 121.575 49.29 119.64 48.9375C118.635 48.7542 117.658 48.8726 116.798 48.269C116.151 47.8144 115.371 47.373 115.181 46.5398C115.102 46.1911 115.225 45.8988 115.199 45.5566C115.231 45.3937 115.219 45.2351 115.164 45.0799C115.051 45.015 114.937 44.9517 114.823 44.8901C114.732 44.6301 114.905 44.3405 114.861 44.069C114.807 43.7414 114.536 43.4747 114.408 43.1777C114.058 42.3588 114.308 41.9008 114.964 41.3447C115.121 41.2212 115.278 41.099 115.437 40.9779C115.58 40.7524 115.737 40.7515 115.909 40.9748C116.222 40.979 116.213 41.0754 116.541 40.9797C117.26 40.7702 117.863 40.005 118.568 39.7362C118.841 39.6316 119.25 39.7204 119.472 39.5278C119.671 39.3555 119.543 38.9941 119.718 38.8251C120.275 38.2847 121.151 38.797 121.667 38.0114C122.088 37.3704 121.998 36.461 122.041 35.7333C123.333 35.9801 123.892 37.2178 124.953 37.8403C125.163 37.0268 125.194 37.0512 126.004 36.8278C125.637 37.5068 126.23 38.1675 126.54 38.7274ZM127.529 30.0914C127.767 30.3979 127.948 31.159 127.529 31.2323V30.0914ZM128.631 32.8594C130.603 32.8633 131.863 35.3562 132.439 36.9004C133.065 38.5797 133.724 40.8197 132.556 42.4551C132.108 43.0823 131.559 43.1397 130.838 43.0584C129.97 42.9605 129.525 42.8348 129.865 41.9069C130.501 40.1681 130.022 37.9575 128.894 36.5018C130.446 36.202 129.462 34.7784 128.683 34.2457C127.774 33.6237 127.039 32.8558 128.631 32.8594ZM83.6145 122.98C83.1506 124.21 82.6791 125.437 82.2898 126.705C81.9209 127.906 82.1346 129.26 81.6759 130.415C81.3938 130.275 81.3129 130.027 81.0675 129.877C80.9163 129.783 80.6529 129.746 80.5231 129.644C80.2999 129.468 79.7588 128.812 79.612 128.558C79.1053 127.679 79.4433 126.249 79.7142 125.345C80.0494 124.225 80.6222 123.15 81.3912 122.268C81.9307 121.65 82.2284 121.846 82.9495 122.151C83.3761 122.331 83.8153 122.446 83.6145 122.98ZM80.1002 132.688C79.7297 133.437 79.0449 134.055 78.638 134.811C78.2112 135.604 77.888 136.498 77.3435 137.223C76.7895 137.963 76.2914 137.839 75.5283 138.158C75.2543 138.273 75.139 138.485 74.9187 138.651C74.5052 138.96 74.052 139.151 73.6174 139.427C73.3085 138.668 72.3645 134.862 71.1631 134.943C70.1189 135.014 70.6531 137.007 70.7876 137.595C70.9015 138.092 71.0316 138.596 71.2048 139.076C71.3796 139.56 71.9245 140.285 71.723 140.816C71.4668 141.491 70.8293 141.446 70.5101 140.954C70.2431 140.542 70.1077 139.983 69.9108 139.535C69.7378 139.141 68.9473 136.986 68.2638 137.321C67.6055 137.642 68.6295 139.732 68.8008 140.142C69.2147 141.133 70.0083 142.086 68.9595 142.88C67.3674 144.085 65.4068 144.993 63.6232 145.862C62.5821 146.369 61.646 147.036 60.5531 147.448C59.5383 147.831 58.3655 147.896 57.3842 148.335C57.1427 148.444 57.3047 148.578 56.952 148.641C56.6562 148.694 56.1394 148.553 55.8223 148.556C55.2968 148.56 54.7704 148.601 54.2461 148.534C53.9506 148.497 53.2781 148.174 53.3845 148.708C52.9667 148.592 52.8049 148.17 52.5 147.907C52.2284 147.672 51.8815 147.544 51.5782 147.36C50.9513 146.978 50.4825 146.544 50.2943 145.817C49.8528 144.109 50.7863 142.333 51.9385 141.142C52.5999 140.46 53.3756 139.892 53.982 139.157C54.1948 138.899 54.3462 138.599 54.6162 138.389C54.9469 138.132 55.4006 138.101 55.7208 137.84C55.9592 137.647 56.0304 137.339 56.2802 137.161C56.6496 136.899 57.0818 137.008 57.4308 136.663C57.6298 136.466 58.313 135.54 58.2652 135.283C58.4522 135.346 58.6397 135.409 58.8265 135.471C58.9404 134.9 59.925 134.196 60.4106 133.923C60.6563 133.784 61.1349 133.791 61.3177 133.642C61.5607 133.444 61.5408 133.029 61.7337 132.78C62.287 132.068 63.4449 131.748 64.1777 131.252C65.1099 130.62 66.0152 129.905 66.8574 129.157C68.5594 127.647 70.0599 125.892 71.2856 123.974C71.7795 123.202 72.2377 122.414 72.5892 121.567C72.8058 121.046 73.0217 120.12 73.5563 119.817C74.1084 119.505 75.3764 119.928 75.9947 119.973C76.9029 120.038 78.3185 119.997 79.1325 120.444C80.0027 120.921 79.2952 121.316 78.8473 121.885C78.1917 122.717 77.7989 123.736 77.4715 124.735C77.2193 125.504 77.1722 126.247 77.0072 127.022C76.8331 127.841 76.8347 128.946 77.2383 129.699C77.6379 130.443 80.5172 131.845 80.1002 132.688ZM45.7728 147.785C43.8176 145.123 45.4362 141.226 47.3489 139.075C49.6566 136.479 52.9409 135.019 55.6388 132.908C58.7583 130.468 61.9622 128.2 64.7264 125.337C66.1275 123.886 67.3474 122.322 68.4537 120.636C69.3926 119.205 70.0744 117.297 71.9717 117.09C70.8525 118.485 70.7871 120.496 69.9218 122.049C69.0056 123.694 67.6549 125.062 66.2794 126.326C63.375 128.996 60.2381 131.442 57.101 133.828C55.4998 135.046 53.9428 136.319 52.347 137.543C50.9178 138.639 49.4166 139.577 48.593 141.247C47.172 144.129 47.0871 148.398 50.2338 150.174C48.6124 149.85 46.7888 149.168 45.7728 147.785ZM216.244 27.735C215.665 26.5776 214.581 26.1654 213.493 25.7126C212.427 25.2694 211.453 24.7235 210.272 24.5817C209.746 24.5187 208.264 24.6752 208.195 23.9137C208.137 23.2792 209.686 22.6423 210.043 22.1589C210.572 21.4423 210.931 20.2789 210.726 19.3738C210.531 18.5156 209.697 18.2444 208.917 18.0889C206.493 17.6054 203.916 17.9609 201.485 18.1596C201.783 17.7436 202.202 17.4023 202.441 16.9039L202.826 17.7051C203.045 17.2469 203.283 16.7973 203.556 16.3682C203.741 16.5756 203.926 16.7833 204.11 16.9907C203.803 15.9135 204.835 15.919 204.727 15.011C204.685 14.6578 204.445 14.5031 204.387 14.2192C204.271 13.6548 204.707 13.3019 204.211 12.7785C203.659 12.1956 202.756 12.4268 202.114 12.4812C202.033 12.4882 201.916 12.6478 201.812 12.6608C201.668 12.679 201.585 12.4801 201.406 12.4908C200.927 12.519 200.505 12.8911 200.029 13.0042C197.822 13.5282 195.615 14.4628 193.497 15.3353C191.341 16.2235 189.224 17.2578 187.344 18.6518C185.332 20.1437 183.879 22.0618 182.272 23.9515C181.517 24.8395 180.736 25.6924 180.161 26.7155C179.864 27.2442 179.595 28.905 179.061 29.1464C178.48 29.4084 177.02 28.6671 176.426 28.5302C175.028 28.2084 173.636 28.0741 172.203 28.1388C171.063 28.1899 169.86 28.1594 168.73 28.2989C168.073 28.3797 166.438 29.1079 166.333 29.9224C166.286 30.2843 166.701 30.5852 166.794 30.9244C166.935 31.4372 166.702 31.9807 166.864 32.4947C167.194 33.5428 168.727 33.9283 169.63 34.2583C172.152 35.1801 174.708 35.895 177.255 36.72C178.362 37.0788 179.309 37.6497 180.311 38.223C181.143 38.6981 181.902 39.1737 181.062 40.0659C180.266 40.9111 180.365 41.2523 180.603 42.4167C180.852 43.6455 180.939 44.8882 181.265 46.1051C181.589 47.317 182.195 48.4746 182.077 49.7569C181.959 51.0349 181.43 52.3476 180.936 53.519C180.436 54.7022 179.885 55.8715 179.342 57.0356C178.84 58.1126 178.297 59.2045 177.135 59.6641C174.917 60.5414 172.084 60.4024 169.772 60.0837C167.149 59.722 164.439 59.1089 161.958 58.1728C159.572 57.2728 156.949 55.8923 154.976 54.2613C153.922 53.3901 152.78 52.7447 151.662 51.9649C150.528 51.1748 149.667 50.1094 148.674 49.1634C146.728 47.3093 144.332 46.0317 141.866 45.0124C139.093 43.8665 136.231 43.9856 133.293 43.8616C133.755 42.953 134.351 42.0846 134.569 41.073C134.797 40.0195 134.632 38.8748 134.488 37.8222C134.208 35.7736 133.678 33.9705 132.385 32.3158C131.793 31.5593 131.103 30.9694 130.118 30.8594C129.521 30.7926 128.418 31.2511 127.988 30.7455C127.798 30.5226 127.842 30.0539 127.723 29.7794C127.617 29.5357 127.404 29.2903 127.289 29.0257C126.796 27.8939 126.181 26.8936 125.566 25.8199C125.322 25.3929 125.133 24.7626 124.799 24.4033C124.618 24.2079 124.385 24.119 124.283 23.9761C124.093 23.7084 124.006 23.2193 123.848 22.9173C123.577 22.4005 123.232 21.9202 122.835 21.4937C122.199 20.8121 121.381 20.2105 120.509 19.8709C120.025 19.6822 119.67 19.6376 119.165 19.6652C119.017 19.6733 118.852 19.7587 118.704 19.7474C118.349 19.7204 118.405 19.5934 118.121 19.5343C116.22 19.1384 113.67 19.6939 111.887 20.3758C110.009 21.094 108.483 22.0411 107.342 23.7431C104.538 27.923 105.191 33.3199 106.381 37.9237C105.661 37.7348 104.945 37.5115 104.219 37.3514C103.774 37.2532 103.167 37.2717 102.77 37.0369C101.886 36.5144 102.605 35.174 102.61 34.308C102.624 32.1072 101.585 28.6659 99.3204 27.7364C96.9605 26.7677 94.0896 29.4865 92.6309 31.0282C91.695 32.0172 90.844 33.0832 89.9484 34.1076C89.3227 34.8239 88.4963 35.9655 87.3992 35.7785C85.0064 35.3704 85.7363 30.8179 85.8424 29.2793C86.0105 26.8469 86.3686 24.3755 86.3705 21.9368C86.3717 20.4544 86.1152 18.4546 84.2949 18.2807C81.7896 18.0417 79.4163 20.3205 77.9555 22.0739C74.1026 26.6972 73.2516 32.8083 74.2821 38.61C74.4333 39.4605 74.9156 40.5098 73.9953 41.0379C72.7861 41.7316 71.2404 42.1516 69.941 42.6612C67.0352 43.7997 64.3446 45.3185 61.609 46.803C58.9006 48.273 56.2355 49.732 53.7919 51.6258C51.356 53.5137 48.9448 55.514 46.7257 57.6544C45.6199 58.7212 44.5526 59.8343 43.5457 60.9958C42.5984 62.0885 41.8308 63.3295 40.801 64.3507C40.0999 65.0461 38.8104 65.9784 38.6564 67.0392C38.532 67.8954 39.976 68.489 40.6275 68.8847C41.0742 69.1561 41.3838 69.1476 41.4162 69.6314C41.456 70.2347 40.8202 71.2015 40.5938 71.7766C40.017 73.2438 39.2632 74.4593 38.272 75.6801C36.0769 78.3848 33.4242 80.6779 30.9063 83.0805C28.5671 85.3129 26.2746 87.5102 24.5597 90.2803C24.1395 90.959 23.0939 92.3529 24.0877 92.988C24.3448 93.1525 25.1339 93.2826 25.3957 93.1061C25.7203 92.8872 25.5558 92.5575 25.9392 92.3381C25.8431 93.0757 29.1924 91.6345 29.453 91.5009C30.1568 91.1402 30.7934 90.7174 31.5129 90.3942C31.935 90.2044 31.9861 89.9402 32.3128 89.7286C32.4877 89.6154 32.4898 89.7672 32.7235 89.6969C32.9339 89.6332 33.428 89.609 33.585 89.4063C33.5892 89.4004 33.7608 88.9097 33.615 89.0111C34.1855 88.6139 34.5228 89.215 34.1803 89.7794C33.1676 91.447 31.8872 92.674 31.4904 94.6781C31.3463 95.4061 31.1004 96.7575 31.5448 97.421C31.561 97.4451 31.7105 97.3748 31.7288 97.4006C31.7456 97.425 31.9088 97.6516 31.9758 97.7161C32.3684 98.0918 32.3431 98.2591 32.9984 98.2434C33.289 98.2364 33.8686 98.1991 34.1346 98.0679C34.3348 97.9692 34.4325 97.7257 34.5865 97.6392C34.7421 97.5511 34.7238 97.5054 34.8699 97.4543C34.8999 97.4435 34.9573 97.6992 35.0142 97.6886C35.3264 97.6298 35.461 97.4433 35.7263 97.293C36.4906 96.8604 37.2399 96.3846 37.9676 95.9489C38.7002 95.5104 39.2475 94.8989 39.9771 94.3896C40.7524 93.8484 41.3864 93.4336 41.9827 92.6826C42.3954 92.1626 42.8881 91.9732 43.1651 91.7172C43.4939 91.4133 44.0609 90.24 44.5908 90.1005C44.8322 90.0368 45.0253 90.2505 45.1575 90.1629C45.3063 90.0644 45.1442 89.8758 45.2187 89.7649C45.3581 89.5579 45.3755 89.5235 45.6127 89.3336C45.9162 89.0908 46.2893 89.0257 46.5441 88.7093C46.8274 88.357 46.8663 87.9623 47.2149 87.6326C48.0535 86.839 48.7999 86.0029 49.6885 85.234C49.3453 87.1476 49.0053 89.0477 49.2713 90.994C49.5288 92.8802 50.3292 93.7249 51.9002 94.6821C52.2462 94.893 52.609 95.1996 52.9805 95.3489C53.2062 95.4398 53.5463 95.3857 53.7145 95.4525C54.2843 95.6784 54.0905 96.1408 54.1685 96.6618C54.2897 97.4695 55.032 98.0911 55.511 98.7204C55.9139 99.2496 56.6405 100.454 57.3145 100.636C57.9232 100.801 58.4974 100.089 59.0044 99.7861C59.7687 99.329 60.6014 99.0014 61.4074 98.6278C62.9817 97.8984 64.5028 97.0279 66.0595 96.2564C66.7706 95.9041 67.4888 95.7607 68.2413 95.5331C69.1453 95.2598 69.9167 94.7369 70.7836 94.3802C72.3424 93.7387 73.8361 92.9733 75.3856 92.2997C78.5925 90.9056 82.0901 89.9479 84.9438 87.8564C86.2348 86.9102 87.897 86.8094 89.1694 85.89C90.4955 84.9314 89.6822 83.4656 89.1145 82.2893C87.5632 79.0758 86.6374 75.7385 84.5018 72.8109C83.3923 71.2898 82.3671 69.7181 81.3994 68.1012C80.5434 66.6701 80.5608 65.0491 80.3461 63.4326C80.2022 62.3524 80.0674 61.2675 79.8917 60.1919C79.7803 59.5083 79.4206 58.6469 79.8558 58.0275C80.3234 57.3616 81.4341 57.0783 82.136 56.7269C83.0084 56.2905 83.8531 55.8208 84.7582 55.4512C86.8266 54.607 89.0051 54.0227 91.1749 53.5069C91.8218 53.3531 94.5914 52.2532 95.1185 52.8975C94.4709 53.3304 94.282 54.1162 93.9914 54.7901C93.559 55.7939 93.1125 56.7504 92.797 57.8022C92.145 59.9775 91.5905 62.1874 91.0589 64.3945C90.5309 66.5859 89.9018 68.7947 89.7403 71.0524C89.6576 72.2048 89.7143 73.3579 89.7122 74.5115C89.7101 75.7427 89.4549 76.9502 89.5003 78.1844C89.5308 79.0052 89.5997 79.9912 90.0804 80.6913C90.5257 81.34 91.2832 81.4125 91.9432 81.7593C92.8141 82.2171 93.1552 82.4123 93.1631 83.4084C93.1727 84.5693 93.0977 85.7093 93.2063 86.8694C93.5845 90.9093 94.9416 95.7035 97.6502 98.8226C97.8305 99.03 103.086 105.66 103.668 104.689C104.068 105.164 104.667 105.337 105.161 105.751C105.936 106.401 106.696 106.921 107.337 107.726C108.503 109.192 109.495 110.909 109.787 112.783C110.037 114.396 109.887 116.324 108.977 117.722C108.065 119.124 106.114 120.044 104.642 120.735C102.707 121.642 100.743 121.744 98.6412 121.517C97.6043 121.404 96.5756 121.229 95.5463 121.064C95.1181 120.995 94.6186 120.994 94.2131 120.833C93.7784 120.66 93.6312 120.469 93.1971 120.448C92.873 120.432 92.6958 120.503 92.3531 120.432C91.9289 120.343 91.4684 120.182 91.0453 120.073C90.5749 119.952 90.1892 119.78 89.7558 119.558C89.3545 119.352 88.9024 119.312 88.5162 119.117C87.8506 118.781 87.6452 118.219 86.7448 118.531C85.7942 118.86 85.9929 119.682 85.3861 120.246C84.8468 120.747 84.1788 120.284 83.6421 119.986C82.8523 119.547 82.032 119.182 81.191 118.85C80.2826 118.491 79.3547 118.179 78.4092 117.932C77.3752 117.662 76.2394 117.609 75.2433 117.216C74.3679 116.87 73.9913 116.202 73.357 115.578C72.69 114.922 71.7851 114.671 70.8605 114.73C69.1767 114.836 68.0267 116.657 67.1372 117.921C64.6521 121.453 61.9052 124.462 58.5835 127.237C56.9963 128.562 55.2073 129.69 53.6724 131.065C53.025 131.646 52.5549 132.19 51.7882 132.622C50.7811 133.189 49.8673 133.901 48.9045 134.541C45.1388 137.044 42.3767 140.69 43.418 145.451C43.8867 147.594 44.8231 149.098 46.5724 150.388C47.3667 150.973 48.0935 151.46 49.1053 151.426C50.0606 151.394 50.9035 151.361 50.3407 150.224C51.0537 150.445 51.6504 150.99 52.4288 151.269C53.3255 151.59 54.4922 151.79 55.4442 151.81C56.9688 151.841 58.762 151.037 60.097 150.696C60.4702 150.601 61.1895 150.445 61.6146 150.094C61.9528 149.815 61.8795 149.485 62.3913 149.353C63.0621 149.179 63.3176 149.382 63.96 148.976C64.8919 148.385 65.9025 148.035 66.8693 147.491C68.1717 146.759 69.4238 145.932 70.714 145.178C70.886 145.652 71.8969 148.47 72.5213 147.112C73.0645 145.929 71.3006 144.917 72.3729 143.719C73.3959 142.578 73.6097 143.778 74.602 144.308C75.9797 145.044 75.773 143.669 75.3724 142.855C75.2124 142.53 74.8756 142.039 74.9747 141.659C75.1659 140.926 75.7592 141.356 76.2256 141.431C76.9601 141.549 77.5538 141.347 78.1052 140.854C78.5651 140.443 79.3256 140.088 79.6036 139.546C79.7426 139.275 79.767 138.903 79.8825 138.615C80.0351 138.235 80.1438 138.327 80.1994 137.857C80.1462 137.613 80.1251 137.367 80.1359 137.117C80.2566 137.093 80.3768 137.068 80.497 137.044C80.5008 137.027 80.5092 136.552 80.4607 136.622C80.5732 136.459 80.8149 136.39 80.9538 136.163C81.0816 135.954 80.9627 135.555 81.0141 135.308C81.1181 134.81 81.4017 134.407 81.6335 133.963C82.1238 136.038 81.982 138.202 82.4506 140.278C82.8354 141.982 83.7117 143.51 84.7341 144.908C85.208 145.556 85.8354 146.015 86.3313 146.631C86.7511 147.152 86.9611 147.61 87.5806 147.918C87.9928 148.123 88.4564 148.228 88.8811 148.405C89.1527 148.518 89.771 149.038 90.0258 149.029C89.8038 149.037 90.443 149.057 90.2949 149.031C90.3059 149.033 90.2192 148.753 90.2963 148.758C91.2227 149.635 92.1907 149.637 93.263 150.183C93.7542 150.432 93.938 150.417 94.4616 150.509C95.1401 150.629 95.711 151.016 96.3607 151.057C97.3608 151.121 98.4872 151.255 99.5299 151.218C99.8135 151.208 100.347 151.025 100.569 151.273C100.716 151.437 100.437 152.621 100.42 152.893C100.237 155.737 100.616 158.722 101.816 161.324C102.811 163.482 103.872 166.035 105.631 167.682C107.582 169.509 110.314 170.796 112.923 171.288C115.811 171.834 118.674 171.425 121.571 171.256C124.51 171.084 127.23 170.667 130.065 169.815C132.701 169.022 135.198 167.989 137.721 166.9C139.436 166.159 141.611 165.093 140.712 162.844C140.495 162.3 139.651 160.788 138.905 161.535C138.245 162.195 139.349 163.443 139.848 163.863C136.083 166.488 131.515 167.357 127.11 168.287C124.691 168.798 122.307 168.776 119.846 168.783C117.761 168.789 115.676 168.849 113.605 168.558C111.73 168.295 109.548 167.8 108.153 166.43C106.694 164.996 105.314 163.284 104.318 161.496C103.225 159.532 102.96 157.41 102.872 155.196C102.825 154.031 102.773 152.851 102.895 151.688C102.983 150.844 103.414 150.744 103.628 150.077C104.122 150.769 104.447 150.513 105.053 150.109C105.445 151.203 105.27 152.34 105.203 153.469C105.138 154.568 105.284 155.683 105.419 156.775C105.647 158.631 106.536 160.567 107.664 162.061C108.174 162.736 108.938 163.022 109.63 163.488C110.511 164.083 111.425 164.637 112.346 165.171C114.078 166.176 115.969 167.035 117.923 167.187C118.607 167.24 119.104 167.596 119.919 167.546C120.403 167.517 120.891 167.351 121.374 167.364C121.858 167.377 122.274 167.532 122.771 167.496C124.837 167.347 126.967 166.67 129.012 166.298C131.227 165.896 133.455 165.462 135.57 164.668C136.486 164.323 137.243 163.879 137.754 163.014C138.119 162.395 138.023 161.287 138.704 160.917C138.258 160.342 138.424 160.24 138.809 159.726C138.989 159.486 139.569 158.852 138.865 158.863C139.079 157.937 138.721 157.041 138.569 156.134C138.503 155.743 138.521 155.15 138.279 154.813C138.138 154.617 137.902 154.613 137.776 154.468C137.646 154.465 137.543 154.411 137.47 154.305C137.462 154.151 137.534 154.056 137.687 154.022C137.652 153.716 137.879 153.826 137.652 153.347C137.343 152.693 136.756 152.124 136.201 151.679C135.728 151.301 135.379 150.628 134.833 150.426C134.122 150.163 133.376 149.877 132.629 149.633C130.936 149.079 129.257 148.867 127.48 149.174C126.666 149.315 125.865 149.487 125.079 149.739C124.619 149.886 123.915 150.284 123.508 149.855C123.368 149.708 123.076 148.459 123.094 148.324C123.167 147.782 124.274 147.563 124.677 147.374C125.294 147.085 126.436 146.776 126.828 146.203C126.992 145.962 126.806 144.941 126.833 144.923C127.092 144.749 128.178 147.228 128.474 147.397C128.902 147.642 130.104 147.319 130.546 147.27C131.865 147.125 133.206 147.043 134.498 146.728C136.976 146.125 139.409 145.191 141.82 144.366C146.407 142.797 150.836 140.729 154.96 138.16C156.885 136.96 158.799 135.426 160.264 133.684C160.925 132.898 161.392 131.966 162.067 131.195C162.846 130.306 162.6 129.505 162.949 128.391C163.656 126.138 164.514 124.09 164.899 121.728C165.295 119.297 165.458 116.814 165.348 114.352C165.131 109.487 164.895 104.873 162.757 100.403C160.798 96.3056 158.259 92.3025 155.24 88.9104C154.539 88.1222 153.797 87.371 152.935 86.7579C152.007 86.0974 150.986 85.5794 150.146 84.7994C149.457 84.1594 148.88 83.4054 148.159 82.7976C147.274 82.0523 146.221 81.7228 145.185 81.2465C144.191 80.7904 143.285 80.197 142.268 79.7817C141.65 79.5293 141.024 79.2961 140.379 79.1198C139.903 78.9895 139.27 78.9813 138.834 78.7338C138.145 78.3422 137.439 77.2026 136.989 76.5588C136.332 75.6197 135.976 74.527 135.664 73.4351C135.283 72.1066 134.93 70.77 134.558 69.439C134.431 68.9843 133.956 67.4015 134.903 67.7857C135.18 67.8979 135.44 68.3974 135.654 68.6107C136.058 69.0157 136.558 69.3776 137.059 69.653C137.869 70.0971 138.712 70.6319 139.488 70.938C140.172 71.2078 140.876 71.7365 141.514 72.1169C141.611 72.1748 141.639 72.3736 141.764 72.4291C142.058 72.5597 142.253 72.1997 142.531 72.2878C142.91 72.4083 142.973 72.7657 143.183 73.05C143.488 73.4622 143.646 73.4951 144.113 73.7072C144.631 73.9432 145.012 74.4096 145.517 74.6409C146.131 74.9215 147.483 74.7037 147.575 75.6715C148.529 75.048 149.726 76.2586 150.322 76.8867C150.921 75.9661 151.983 77.044 152.891 76.7383C152.389 77.4363 152.48 77.3669 153.272 77.4532C153.941 77.5263 154.341 77.9704 155.002 78.2285C155.46 78.4071 155.965 78.7076 156.441 78.8334C156.891 78.9525 157.232 78.6855 157.623 78.7523C157.894 78.7983 158.15 79.0319 158.407 79.0957C158.733 79.1768 159.197 79.2752 159.565 79.3626C160.013 79.469 160.459 79.3713 160.905 79.4559C161.426 79.5546 161.876 79.8651 162.406 79.9659C162.996 80.0782 163.609 80.0032 164.196 80.1464C164.731 80.2767 165.056 80.4267 165.61 80.4321C166.436 80.4403 167.358 80.5495 168.173 80.4562C168.608 80.4065 168.848 80.1862 169.34 80.4016C169.668 80.5453 169.864 80.989 170.311 80.7858C169.84 80.5966 170.254 79.8602 170.774 80.4244C170.897 80.1079 170.976 79.9315 171.319 79.8276C171.301 80.1372 171.251 80.448 171.645 80.5129C171.676 80.2973 171.706 80.0822 171.736 79.8665C172.594 80.52 172.798 80.7506 173.607 79.9533C173.586 80.2143 173.476 80.5097 173.741 80.6946C173.911 80.4122 174.081 80.13 174.251 79.8478C174.537 80.7586 175.907 80.4443 176.571 80.2828C176.828 80.2202 177.539 80.1213 177.707 79.9101C177.824 79.7639 177.81 79.6493 177.853 79.5595C177.891 79.4798 177.454 79.2839 177.826 79.1695C178.106 79.083 178.324 79.6964 178.652 79.672C178.945 79.6502 179.063 79.1543 179.274 79.0537C179.294 79.0443 179.437 79.2539 179.536 79.2079C179.69 79.1367 179.778 78.949 179.948 78.8824C180.316 78.7383 180.792 78.7741 181.205 78.6033C181.728 78.3867 182.255 78.2833 182.789 78.1047C183.466 77.8786 183.773 77.434 184.322 77.0702C184.451 76.9849 184.585 77.0346 184.712 76.9743C184.882 76.893 185.061 76.7025 185.264 76.6127C185.9 76.3305 186.443 76.1386 187.047 75.7493C187.585 75.4019 188.295 75.1455 188.774 74.7288C189.173 74.3819 189.388 73.8757 189.789 73.5227C190.365 73.016 191.853 72.3804 191.612 71.3906C192.575 71.5378 192.811 70.9141 193.164 70.2262C193.5 69.5719 194.19 69.3757 194.64 68.779C194.835 68.5212 195.149 68.1635 195.256 67.8691C195.321 67.694 195.16 67.5112 195.203 67.3917C195.403 66.8419 196.174 66.6019 196.531 66.1059C196.985 65.475 197.131 64.6772 197.509 64.0291C197.584 63.9016 197.768 63.8259 197.839 63.69C197.884 63.6026 197.789 63.386 197.844 63.3002C197.977 63.0965 198.184 63.0262 198.317 62.8376C198.638 62.3808 198.697 61.7313 198.985 61.2133C199.056 61.0858 199.304 60.7296 199.335 60.6537C199.439 60.3987 199.407 60.2311 199.461 59.9472C199.477 59.8619 199.642 59.3681 199.676 59.2976C199.782 59.0772 199.884 59.0447 200.046 58.8028C200.452 58.1974 200.703 57.2465 200.736 56.5115C200.751 56.1998 200.647 55.8776 200.76 55.5801C200.857 55.323 201.157 55.1644 201.27 54.8951C201.567 54.1889 201.518 53.1905 201.6 52.4351C201.689 51.6117 201.952 50.8001 202.025 49.9828C202.06 49.5872 201.875 49.2368 201.888 48.8641C201.904 48.4373 202.125 48.3576 202.211 48.0026C202.308 47.5971 202.166 47.13 202.252 46.6952C202.334 46.2907 202.451 45.9164 202.485 45.5015C202.572 44.4211 202.449 43.2907 202.402 42.2097C202.384 41.7902 202.328 41.3526 202.439 40.942C202.528 40.6115 202.893 40.2419 202.881 39.8836C202.844 38.7759 201.958 39.7345 201.449 39.6586C200.857 39.5702 200.748 38.2418 200.592 37.7379C200.21 36.5069 199.829 35.276 199.448 34.0453C201.265 33.5721 203.155 33.7085 205.01 33.5808C206.833 33.4554 208.613 33.0597 210.38 32.6142C211.873 32.2383 213.506 32.0201 214.847 31.2171C215.973 30.543 216.902 29.0512 216.244 27.735Z" fill="#211814"/>
<path fill-rule="evenodd" clip-rule="evenodd" d="M39.7779 51.5632C40.5047 51.1854 40.3214 50.6632 40.8553 50.178C43.8427 47.463 47.3487 45.0923 50.8625 43.1348C54.5644 41.0723 58.7183 40.199 62.502 38.3714C63.0111 38.1255 63.6722 37.7411 63.4824 37.0563C63.2604 36.2561 62.4985 36.6244 61.9554 36.8133C60.1456 37.4426 58.2195 37.6795 56.3839 38.2324C52.4656 39.4125 48.7962 41.4476 45.477 43.8295C43.546 45.2149 41.6961 46.7468 40.047 48.4676C39.4397 49.1008 38.63 49.8398 38.472 50.7522C38.2763 51.8815 38.9438 51.9968 39.7779 51.5632Z" fill="#211814"/>
<path fill-rule="evenodd" clip-rule="evenodd" d="M51.0935 122.552C51.0762 121.554 49.9894 121.916 49.4304 122.051C47.1574 122.596 45.1256 123.014 43.1142 124.277C39.3811 126.622 36.5527 130.184 34.7227 134.126C34.4789 134.651 33.4978 136.313 34.2842 136.808C34.8026 137.134 35.1171 136.184 35.3107 135.831C36.2963 134.035 37.616 132.445 38.9431 130.885C41.8892 127.42 45.4308 125.221 49.6681 123.616C50.1879 123.419 51.1067 123.277 51.0935 122.552Z" fill="#211814"/>
<path fill-rule="evenodd" clip-rule="evenodd" d="M176.714 98.0411C175.928 96.4593 174.657 94.5075 172.898 93.8559C171.924 93.4954 171.348 94.0919 171.637 95.0887C171.867 95.8814 172.634 96.2686 173.206 96.7943C174.68 98.1471 175.587 100.167 176.126 102.042C176.694 104.025 176.808 106.176 176.798 108.228C176.792 109.312 176.503 110.254 176.346 111.309C176.284 111.723 176.179 112.637 176.656 112.896C177.712 113.47 178.199 110.474 178.307 109.898C178.704 107.774 178.666 105.817 178.332 103.696C178.025 101.756 177.596 99.8154 176.714 98.0411Z" fill="#211814"/>
<path fill-rule="evenodd" clip-rule="evenodd" d="M173.694 22.0292C174.123 21.4499 173.81 20.639 173.938 19.9785C174.072 19.2863 174.471 18.5861 174.809 17.9805C175.539 16.6732 176.354 15.3894 177.221 14.1701C178.117 12.9109 179.21 11.838 180.162 10.6282C180.484 10.219 181.055 9.63398 180.916 9.1414C180.691 8.34384 180.2 8.73256 179.807 9.0668C177.658 10.8944 175.765 13.1479 174.236 15.5147C173.511 16.638 172.825 17.8682 172.585 19.2007C172.461 19.8889 172.46 20.607 172.664 21.2808C172.792 21.7043 173.178 22.7252 173.694 22.0292Z" fill="#211814"/>
<path fill-rule="evenodd" clip-rule="evenodd" d="M41.2465 119.517C42.3235 119.418 43.4065 119.382 44.486 119.327C45.285 119.286 46.1838 119.335 46.9172 118.95C47.6552 118.563 47.3344 117.983 46.7208 117.897C46.3681 117.848 45.7728 118.086 45.3947 118.103C44.9853 118.12 44.5737 118.107 44.164 118.109C42.9666 118.114 41.6763 118.104 40.5218 118.502C40.1447 118.632 39.5735 118.833 39.4184 119.264C39.0867 120.186 40.747 119.564 41.2465 119.517Z" fill="#211814"/>
<path fill-rule="evenodd" clip-rule="evenodd" d="M50.6766 35.1562C52.2405 34.9687 53.7523 34.5 55.293 34.2012C56.7581 33.9173 57.0075 32.7623 55.2731 32.8141C54.6907 32.8315 49.076 33.8967 50.6766 35.1562Z" fill="#211814"/>
<path fill-rule="evenodd" clip-rule="evenodd" d="M179.912 93.0851C178.862 92.8221 179.405 93.9877 179.73 94.3481C180.332 95.0145 180.66 95.5134 180.839 96.402C180.943 96.9192 180.845 98.0871 181.284 98.4827C181.717 98.872 181.747 98.6135 181.823 98.1328C182.04 96.7779 181.607 93.5098 179.912 93.0851Z" fill="#211814"/>
<path fill-rule="evenodd" clip-rule="evenodd" d="M168.377 19.329C168.675 19.0135 168.356 17.6414 168.391 17.2393C168.434 16.7521 168.549 16.3397 168.694 15.8825C168.765 15.6608 169.12 14.8783 168.928 14.6353C168.664 14.2985 168.223 14.8677 168.084 15.0917C167.631 15.8208 167.525 17.0365 167.6 17.8576C167.627 18.1548 167.807 19.9326 168.377 19.329Z" fill="#211814"/>
<path fill-rule="evenodd" clip-rule="evenodd" d="M106.51 135.032C106.559 134.254 107.307 133.716 107.31 132.889C107.312 131.961 106.688 131.558 105.909 132.162C105.44 132.526 105.075 133.413 104.44 133.529C103.167 133.762 102.668 131.475 101.414 131.74C100.329 131.969 100.899 133.834 101.227 134.463C101.574 135.13 102.204 135.597 101.999 136.418C101.755 137.392 100.919 137.953 101.244 139.065C101.849 141.131 103.16 139.2 103.949 138.55C104.511 138.087 104.851 138.17 105.397 138.623C106.144 139.245 106.716 139.667 107.622 140.086C108.422 140.455 109.193 140.713 109.218 139.474C109.238 138.499 108.502 137.529 107.856 136.868C107.32 136.319 106.455 135.897 106.51 135.032Z" fill="#211814"/>
<path fill-rule="evenodd" clip-rule="evenodd" d="M92.4978 131.949C91.5621 130.952 90.3804 133.496 89.6243 133.778C88.3988 134.234 88.1166 131.788 86.9883 131.865C86.1101 131.925 86.1795 133.184 86.3707 133.758C86.5765 134.376 87.1924 134.881 87.2956 135.514C87.4542 136.484 85.6184 138.424 86.8995 139.361C87.9933 140.162 88.4006 137.458 89.768 138.561C90.4392 139.102 92.3175 141.118 93.2482 140.115C94.3479 138.93 91.7323 136.906 91.2549 136.004C90.6089 134.784 93.8688 133.411 92.4978 131.949Z" fill="#211814"/>
<path fill-rule="evenodd" clip-rule="evenodd" d="M115.164 97.2907C114.896 97.1724 114.462 97.3681 114.172 97.3556C113.86 97.3425 113.536 97.2007 113.228 97.1485C112.56 97.0341 111.385 97.1993 110.911 96.6038C110.427 95.9963 110.795 94.7766 110.588 94.0376C110.476 93.6356 110.345 93.1397 109.804 93.319C109.176 93.5269 109.191 94.6803 109.116 95.186C109.006 95.9325 108.917 96.5018 108.167 96.7674C107.611 96.9638 107.027 96.8649 106.578 97.3212C106.249 97.6554 106.027 98.266 106.284 98.7028C106.671 99.3591 107.509 99.0192 108.09 99.2267C108.976 99.5431 108.765 100.991 108.947 101.822C109.063 102.356 109.319 103.852 110.086 103.828C111.132 103.795 110.726 101.694 110.668 101.081C110.609 100.458 110.469 99.9305 111.163 99.7369C111.75 99.5738 112.569 99.8768 113.175 99.8731C113.941 99.8684 114.842 99.6762 115.304 98.9904C115.568 98.5983 115.735 97.5424 115.164 97.2907Z" fill="#211814"/>
<path fill-rule="evenodd" clip-rule="evenodd" d="M153.596 123.153C155.258 123.297 154.251 125.346 155.354 126.16C156.407 126.938 156.548 124.793 156.548 124.18C156.548 122.697 158.352 123.245 159.45 122.999C160.388 122.79 161.411 121.817 160.292 120.987C159.484 120.389 158.144 120.667 157.206 120.508C155.935 120.293 156.313 119.444 156.285 118.466C156.274 118.108 156.151 116.83 155.688 116.729C154.84 116.544 154.789 118.925 154.732 119.378C154.49 121.295 153.173 120.127 152.127 121.088C150.76 122.345 152.605 123.068 153.596 123.153Z" fill="#211814"/>
<path fill-rule="evenodd" clip-rule="evenodd" d="M74.5114 87.4137C71.9136 89.543 68.9635 89.2378 66.586 86.9456C65.5805 85.9763 64.973 84.9994 65.063 83.581C65.1436 82.3046 65.5184 80.8941 66.5405 80.0321C67.4011 79.3055 69.0244 79.0449 70.1143 78.9431C71.6417 78.8011 73.0083 79.6327 74.0649 80.6719C74.985 81.5768 76.0606 82.7297 76.2024 84.0731C76.3517 85.4867 75.5464 86.565 74.5114 87.4137ZM74.9065 78.9403C72.5761 76.6962 68.4439 76.9214 66.038 78.968C63.3375 81.2651 62.8758 85.5804 65.4711 88.0971C68.206 90.7493 71.8163 90.4632 74.7113 88.2631C76.2643 87.0832 77.1068 85.5689 77.3232 83.6262C77.5273 81.7901 76.1808 80.1673 74.9065 78.9403Z" fill="#211814"/>
<path fill-rule="evenodd" clip-rule="evenodd" d="M119.966 40.3125C119.704 41.1623 119.886 42.0677 119.932 42.9335C119.193 42.4713 118.733 41.6473 117.94 41.2643C117.56 42.3152 119.455 45.3211 120.648 44.3358C121.74 43.4341 120.934 40.9181 119.966 40.3125Z" fill="#211814"/>
<path fill-rule="evenodd" clip-rule="evenodd" d="M123.842 45.4947C123.254 45.7139 122.708 45.6532 122.127 45.7654C121.745 45.8395 121.696 45.622 121.646 46.06C121.54 46.995 123.049 47.3566 123.728 47.3435C124.557 47.3273 125.466 46.7697 125.386 45.862C125.303 44.9163 124.482 45.2566 123.842 45.4947Z" fill="#211814"/>
<path fill-rule="evenodd" clip-rule="evenodd" d="M124.324 41.5654C124.057 41.3231 123.443 40.4081 122.991 40.5647C122.646 40.6847 122.89 41.0979 122.991 41.3046C123.371 42.0799 124.116 42.7397 124.712 43.3617C124.271 43.5183 123.421 43.619 123.646 44.2978C123.852 44.9212 124.786 44.8254 125.234 44.5629C126.768 43.6636 125.092 42.2622 124.324 41.5654Z" fill="#211814"/>
<path fill-rule="evenodd" clip-rule="evenodd" d="M125.873 40.0936C125.978 40.5218 126.034 40.9259 125.802 41.3274L124.525 39.0359C123.497 39.4578 125.3 42.7592 126.349 42.3938C127.076 42.1411 126.727 40.5893 126.612 40.1011C126.551 39.8398 126.405 39.0087 126.042 38.9243C125.33 38.7584 125.795 39.7779 125.873 40.0936Z" fill="#211814"/>
<path fill-rule="evenodd" clip-rule="evenodd" d="M73.1646 86.3126C72.5721 85.8757 71.5901 86.8988 70.9636 86.9025C69.6973 86.9093 70.3868 85.4241 69.5944 84.9427C69.1812 84.6914 67.451 84.9448 67.7243 83.9051C67.8886 83.2798 68.5315 83.7312 68.8838 83.3492C69.3258 82.8703 68.6958 82.4883 68.3037 82.2917C68.4757 82.0622 69.4671 81.9614 69.7163 82.1201C70.1461 82.3946 70.1213 83.2177 70.5157 83.6414C71.0276 82.988 70.7499 82.167 71.295 81.5803C71.5067 81.3523 72.1259 81.181 71.8852 80.7743C71.7455 80.5381 71.134 80.6161 70.9247 80.4284C70.7421 80.2646 70.7513 79.7363 70.4564 79.6925C69.9748 79.6207 69.9865 80.3567 69.8419 80.5693C69.4067 81.2079 67.4944 80.9876 68.2871 82.2832C67.759 82.0198 66.3185 81.8114 66.5982 82.7314C66.6696 82.9667 66.942 83.1106 67.0095 83.3787C67.0681 83.611 66.9392 83.9421 66.927 84.1753C66.904 84.6176 66.8686 85.1346 67.1958 85.4904C67.6456 85.9793 68.2465 85.6235 68.7289 85.8363C69.3863 86.1258 69.1493 86.7279 69.496 87.2546C69.9499 87.9434 70.6479 87.7317 71.2906 87.5234C72.057 87.2747 72.1781 87.2522 72.7388 87.8906C72.9952 87.5592 73.6976 86.7056 73.1646 86.3126Z" fill="#211814"/>
<path fill-rule="evenodd" clip-rule="evenodd" d="M74.1952 83.6229C73.5769 83.5085 73.8204 81.6659 73.068 82.4667C72.7859 82.7665 73.0748 83.3522 72.7601 83.6735C72.5487 83.8896 72.2805 83.7621 72.0691 83.9039C71.8788 84.0309 71.8308 84.2747 71.7188 84.4606C72.1165 84.6396 72.424 84.6628 72.8487 84.5848C72.8487 84.9047 72.6361 85.8464 73.182 85.7777C73.6896 85.7135 73.5462 84.7683 73.8047 84.4746C74.067 84.1758 75.1245 84.3143 75.2229 83.8945C75.3445 83.3747 74.4654 83.6728 74.1952 83.6229Z" fill="#211814"/>
</g>
<defs>
<clipPath id="clip0_1_1726">
<rect width="240" height="180" fill="white"/>
</clipPath>
</defs>
</svg>
