<svg width="240" height="180" viewBox="0 0 240 180" fill="none" xmlns="http://www.w3.org/2000/svg">
<path fill-rule="evenodd" clip-rule="evenodd" d="M125.615 68.9687C125.428 68.7001 125.096 69.0194 125.235 69.2134C125.361 69.132 125.488 69.0503 125.615 68.9687ZM130.748 70.4606C130.539 70.3568 130.468 70.5203 130.386 70.7088C130.362 70.764 130.337 70.8215 130.307 70.8751C130.495 70.978 130.581 70.7972 130.669 70.6141C130.694 70.561 130.72 70.5074 130.748 70.4606ZM127.133 64.0176C126.714 63.4831 126.683 63.6625 126.648 64.2716C126.729 64.2293 126.81 64.1869 126.891 64.1444C126.972 64.1023 127.052 64.0599 127.133 64.0176ZM184.413 35.1095C183.885 35.3565 183.829 35.5359 184.256 35.8382C184.306 35.6031 184.344 35.4307 184.413 35.1095ZM125.429 60.0321C125.553 60.4405 126.064 60.5285 126.064 60.0321H125.429ZM164.979 38.9855C165.283 39.0824 165.438 39.132 165.575 39.1006C165.718 39.0681 165.84 38.9479 166.091 38.7023C165.968 38.7338 165.857 38.7621 165.751 38.789C165.666 38.8108 165.583 38.8316 165.5 38.8529C165.34 38.8936 165.176 38.9352 164.979 38.9855ZM150.861 80.8491C150.681 80.5951 150.501 80.3413 150.321 80.0873C150.26 80.2739 150.199 80.4608 150.139 80.6475L150.138 80.6487L150.093 80.7865C150.349 80.8073 150.605 80.8281 150.861 80.8491ZM187.339 28.866C187.268 29.2052 187.233 29.3729 187.3 29.4688C187.365 29.5626 187.529 29.5876 187.852 29.6375L187.609 29.2723L187.579 29.2265C187.505 29.1151 187.427 28.9986 187.339 28.866ZM184.483 29.9271C184.461 29.8167 184.439 29.706 184.416 29.5956L184.413 29.5788C184.391 29.474 184.37 29.3692 184.349 29.2641C184.31 29.4328 184.164 29.4237 184.022 29.4145C183.9 29.4068 183.781 29.3993 183.735 29.5053C183.51 30.0298 184.226 29.9586 184.483 29.9271ZM130.093 69.0592C129.936 68.7488 129.902 68.7247 129.56 68.6597C129.648 68.9694 129.647 69.2113 129.647 69.5212V69.5855C130.206 69.5065 130.381 69.4658 130.392 68.8714L130.093 69.0592ZM128.463 70.1556C128.389 70.4304 128.18 70.364 128.002 70.3072C127.841 70.2557 127.704 70.2124 127.717 70.4382C127.71 70.3076 128.358 71.1652 128.321 71.1376C128.647 71.3834 128.837 71.3603 129.207 71.0782C128.68 71.0583 128.619 70.7949 128.537 70.4412C128.517 70.3511 128.494 70.255 128.463 70.1556ZM188.554 29.6702C188.439 29.9345 188.324 30.1991 188.209 30.4634L188.183 30.5219C188.077 30.7668 187.97 31.0117 187.864 31.2564C187.815 31.3675 187.778 31.4655 187.746 31.5502C187.593 31.9512 187.551 32.0599 186.992 31.8843C187.011 31.8515 187.057 31.7867 187.114 31.7055V31.7053C187.287 31.4609 187.565 31.0676 187.534 30.9486C187.505 30.8365 187.23 30.6981 186.98 30.5727C186.826 30.495 186.681 30.4225 186.611 30.3643C186.409 30.1958 186.335 30.0424 186.257 29.88C186.211 29.7846 186.164 29.6857 186.088 29.579C186.169 29.3114 186.106 29.1862 185.897 29.2043C185.837 29.3659 185.777 29.5273 185.717 29.6887L185.713 29.699L185.666 29.8244C185.677 30.073 185.801 30.168 185.946 30.2796C186.057 30.3654 186.181 30.4609 186.277 30.6436L186.295 30.6784C186.433 30.943 186.473 31.0192 186.451 31.0674C186.442 31.0868 186.423 31.1016 186.396 31.1224C186.34 31.1657 186.251 31.2347 186.15 31.4248C186.057 31.6 185.993 31.7921 185.93 31.9788C185.811 32.3341 185.698 32.6707 185.407 32.8382C185.645 32.9427 185.883 33.0473 186.121 33.1516C185.566 33.7617 186.722 33.4646 186.913 33.4054L186.912 33.4066L186.912 33.4078C186.717 33.8223 186.521 34.2365 186.326 34.651C185.893 34.4085 185.622 34.005 185.352 33.6036C185.257 33.4625 185.163 33.3214 185.061 33.1879C184.764 33.7399 184.467 34.2922 184.17 34.8445C184.305 34.8321 184.44 34.8195 184.576 34.8071C184.736 34.7923 184.896 34.7776 185.056 34.7626C185.047 34.7804 185.021 34.8213 184.986 34.8754L184.985 34.8756C184.865 35.0611 184.644 35.4017 184.669 35.4936C184.729 35.7123 184.966 35.7767 185.199 35.8396C185.481 35.9163 185.757 35.9909 185.696 36.3385C185.681 36.4197 184.78 37.3289 184.625 37.4166C184.721 37.4595 184.805 37.4894 184.877 37.5154C185.148 37.612 185.249 37.648 185.121 38.0702C184.91 37.9432 184.7 37.8159 184.49 37.6887C184.45 37.7596 184.41 37.83 184.369 37.9006L184.368 37.9009C184.224 38.1507 184.078 38.4021 183.989 38.6768C184.011 38.9072 183.97 39.1254 183.866 39.3317C183.742 39.5163 183.602 39.6885 183.447 39.848C183.324 40.172 183.284 41.9404 183.432 42.2288C183.763 41.8014 184.502 42.5558 183.255 42.5558C183.15 42.5558 183.067 42.5519 183 42.5483C182.713 42.5341 182.705 42.5336 182.536 42.9221C182.372 43.2999 182.283 43.6295 182.749 43.6658C182.467 44.2202 182.46 44.6723 182.452 45.2099C182.45 45.3413 182.448 45.4779 182.442 45.6223C182.422 46.0833 182.317 46.542 182.214 46.9968C182.183 47.1296 182.153 47.262 182.125 47.3942C182.181 47.3147 182.236 47.2351 182.292 47.1554C182.347 47.0758 182.402 46.9963 182.458 46.9165C182.703 47.4393 182.594 47.8945 182.468 48.4176C182.441 48.532 182.412 48.6499 182.387 48.7722C182.209 48.5371 182.12 48.6777 182.027 48.826C181.958 48.9359 181.887 49.0501 181.774 49.0178C181.454 48.9266 181.465 48.8496 181.481 48.7287C181.493 48.6449 181.508 48.5402 181.418 48.3949C181.376 48.328 181.345 48.2714 181.317 48.2218C181.218 48.0445 181.17 47.9584 180.895 47.8115C180.56 47.633 180.044 47.5776 179.585 47.5282C179.403 47.5086 179.23 47.4901 179.08 47.4651C178.202 47.3189 177.324 47.2807 176.437 47.2421L176.401 47.2405C173.035 47.0945 169.681 47.0571 166.315 47.2421C163.219 47.4124 160.048 47.8466 157.011 48.4347C156.795 48.4765 156.579 48.5184 156.363 48.56C153.356 49.1402 150.408 49.7088 147.486 50.6969C147.217 50.7881 146.948 50.9233 146.678 51.0583V51.0585C146.342 51.2269 146.007 51.3954 145.671 51.4784C145.435 51.5371 145.198 51.5713 144.96 51.6059C144.62 51.655 144.276 51.7046 143.924 51.8267C143.132 52.1018 142.324 52.3402 141.517 52.5785C140.864 52.771 140.212 52.9638 139.567 53.1757C139.154 53.3116 138.732 53.4414 138.307 53.5722C137.132 53.9338 135.935 54.302 134.848 54.822C134.522 54.978 134.212 55.1621 133.901 55.3462C133.598 55.5254 133.296 55.7048 132.979 55.8583C132.846 55.9228 132.693 55.986 132.532 56.0524C131.96 56.2892 131.285 56.5685 131.036 57.0976C130.911 57.3619 130.932 57.5535 131.01 57.8274C131.153 58.3345 131.268 58.3233 131.617 58.2894C131.646 58.2864 131.677 58.2835 131.71 58.2805C132.079 58.248 132.517 58.0548 132.933 57.8714C133.178 57.7633 133.415 57.6587 133.626 57.5921C135.187 57.1004 136.767 56.7067 138.354 56.3128C139.552 56.0155 140.752 55.6216 141.95 55.2286C143.601 54.6868 145.248 54.1465 146.878 53.8623C147.716 53.7163 148.532 53.4442 149.349 53.172C150.158 52.902 150.969 52.6316 151.804 52.4831C151.924 52.4618 152.117 52.3918 152.334 52.3135C152.784 52.1509 153.335 51.9518 153.539 52.0742C153.593 52.1065 153.698 52.3752 153.783 52.5909C153.825 52.6973 153.861 52.7909 153.884 52.8363C154.132 53.3313 154.416 53.8092 154.748 54.2524C155.484 55.2337 156.405 56.0749 157.317 56.9086L157.317 56.9088C157.648 57.2106 157.977 57.5114 158.296 57.8173C159.302 58.7832 160.212 59.8223 161.125 60.8651V60.8653C161.456 61.2431 161.787 61.6215 162.124 61.997C162.183 61.928 162.243 61.8587 162.302 61.7897L162.453 61.6148C162.346 62.4358 162.904 63.0461 163.419 63.6101C163.441 63.6339 163.462 63.6576 163.484 63.6814C163.507 63.7062 163.529 63.731 163.551 63.7556C164.2 64.4751 164.721 65.1514 165.232 65.9717C165.523 66.4379 165.87 66.8641 166.213 67.2856C166.365 67.4723 166.517 67.6583 166.662 67.8463C166.933 68.1972 167.151 68.5902 167.371 68.9853C167.529 69.2697 167.688 69.5551 167.867 69.8269C168.242 70.3956 168.615 70.9682 168.987 71.5408C169.593 72.4716 170.198 73.4019 170.813 74.3135C171.28 75.0066 171.649 75.7865 172.019 76.5755C172.108 76.7645 172.25 77.0129 172.405 77.2842V77.2845C172.765 77.913 173.196 78.6655 173.196 79.0896C173.175 79.1893 173.233 79.4564 173.294 79.7359C173.415 80.291 173.547 80.8945 173.088 80.3336C173.057 80.3818 173.026 80.43 172.995 80.4782L172.949 80.5488C172.919 80.5958 172.888 80.6428 172.858 80.6896C172.824 80.7413 172.791 80.793 172.757 80.8445C172.946 80.7654 173.135 80.6863 173.323 80.6073C172.962 80.9343 173.254 81.0817 173.525 81.2185C173.684 81.2987 173.835 81.3752 173.844 81.4824C173.8 81.5245 173.757 81.5663 173.713 81.6082L173.558 81.7581C173.395 82.0936 173.183 82.1371 172.923 81.8887C172.804 81.8959 172.724 81.8725 172.648 81.8503C172.543 81.819 172.445 81.7902 172.259 81.8527C172.391 82.0601 172.541 82.1205 172.681 82.1764C172.861 82.2491 173.025 82.3149 173.113 82.6873C173.222 83.1546 172.964 83.3266 172.622 83.5549C172.53 83.6162 172.432 83.6814 172.333 83.7577V83.7572L172.321 83.7551C172.346 83.389 172.168 83.1196 171.846 82.949V83.6683C171.934 83.6845 172.023 83.7006 172.111 83.7167L172.113 83.7172L172.321 83.7551C172.321 83.7593 172.32 83.7638 172.32 83.768L172.333 83.7577C172.257 84.0475 172.036 83.9942 171.771 83.9305C171.724 83.9193 171.676 83.9079 171.628 83.8978C171.056 83.7801 170.438 83.5801 169.854 83.3909C169.67 83.3315 169.49 83.2732 169.316 83.2187C167.735 82.7259 166.142 82.3104 164.508 81.9734C161.734 81.401 158.976 81.2746 156.196 81.1472H156.196C155.24 81.1032 154.281 81.0592 153.318 80.997C153.323 80.9764 153.328 80.957 153.333 80.9385C153.38 80.742 153.399 80.662 153.387 80.5869C153.379 80.5355 153.357 80.4866 153.318 80.4038C153.313 80.3918 153.307 80.3792 153.301 80.3656C153.36 80.4955 153.254 80.5067 153.146 80.5179C152.981 80.535 152.814 80.5525 153.227 80.989C152.147 81.1656 151.014 81.1511 149.887 81.1366C149.19 81.1277 148.495 81.1189 147.818 81.1551C147.836 81.1146 147.859 81.0725 147.883 81.0304C147.966 80.8817 148.051 80.7305 147.913 80.6267C147.311 81.4964 145.7 81.4758 144.325 81.458C143.781 81.4513 143.274 81.4447 142.881 81.4938C142.407 81.5535 141.935 81.6449 141.464 81.7362C141.127 81.8017 140.79 81.8672 140.451 81.9207C140.395 81.9298 140.338 81.9387 140.281 81.9474C139.939 82.0007 139.596 82.0543 139.262 82.1446C139.139 82.1776 138.99 82.2452 138.832 82.3165C138.526 82.4548 138.19 82.6068 137.966 82.546C138.31 81.8531 138.142 82.0534 137.98 82.247C137.907 82.3338 137.835 82.4192 137.811 82.4227C137.764 82.4297 137.71 82.4384 137.652 82.448C137.416 82.4861 137.101 82.5371 136.829 82.5371C136.988 81.8966 137.195 81.277 137.401 80.6576C137.696 79.7748 137.99 78.8927 138.147 77.9523C138.167 77.8311 138.192 77.7011 138.217 77.5647V77.5645C138.404 76.5778 138.652 75.2625 137.785 74.6414C137.356 74.3336 136.708 74.2173 136.147 74.1165H136.146C136.001 74.0905 135.862 74.0655 135.734 74.0384C135.52 73.9935 135.257 73.9631 134.978 73.9308C134.36 73.8597 133.664 73.7792 133.253 73.5123C133.077 73.3984 132.954 73.288 132.836 73.1822C132.64 73.0066 132.459 72.844 132.078 72.6994C131.939 72.6466 131.814 72.5939 131.699 72.5451C131.23 72.3462 130.909 72.2099 130.338 72.383C130.384 72.3252 130.433 72.2697 130.481 72.2159C130.732 71.9334 130.942 71.6971 130.465 71.386C130.372 71.3256 130.244 71.3219 130.118 71.3179C129.928 71.3121 129.743 71.3065 129.694 71.1072C129.385 71.3254 129.356 71.513 129.319 71.7582C129.305 71.8475 129.29 71.9446 129.26 72.0536C129.27 72.2262 129.315 72.3909 129.396 72.5472L129.111 72.6623L128.727 72.8166C128.812 72.5893 128.698 72.5785 128.574 72.5668C128.491 72.5591 128.403 72.5509 128.37 72.4753C128.278 72.2683 128.295 71.9806 128.309 71.7217C128.314 71.6307 128.319 71.5432 128.319 71.4641C127.859 71.6094 127.379 71.789 127.177 72.2676C126.731 72.0019 126.779 71.9322 126.961 71.6646C127.009 71.5942 127.066 71.5102 127.127 71.4054C126.654 71.2936 126.554 71.5369 126.482 71.9284C126.303 71.873 126.124 71.8178 125.944 71.7626L125.939 71.7607L125.733 71.6973C126.296 71.6934 126.431 71.2541 126.444 70.7769C126.35 70.8075 126.256 70.8382 126.162 70.8688L126.159 70.8697C126.035 70.91 125.911 70.9502 125.788 70.9904L125.653 71.6831C125.34 71.9486 124.57 71.5366 124.215 71.3465L124.214 71.3462C124.179 71.3273 124.148 71.3107 124.121 71.2969L124.03 71.2498C123.085 70.7612 122.741 70.5829 122.879 69.4248C122.929 69.0127 123.002 68.5996 123.076 68.1858C123.182 67.5951 123.288 67.0033 123.322 66.4113C123.38 65.4248 123.285 64.378 123.194 63.3799C123.182 63.2468 123.17 63.1146 123.159 62.9834C123.089 62.1858 123.003 61.3921 122.917 60.5993V60.5991C122.77 59.2489 122.624 57.9006 122.556 56.5364C122.541 56.2225 122.525 55.9086 122.509 55.5944L122.509 55.5942C122.465 54.7357 122.421 53.8772 122.388 53.0183C122.382 52.8644 122.368 52.7081 122.354 52.5537C122.285 51.7729 122.221 51.0464 123.193 50.9771C123.05 50.5257 123.476 50.0035 123.916 49.7563C124.07 49.4061 124.237 49.3748 124.42 49.6627C124.579 49.7126 124.726 49.6892 124.862 49.5921C125.254 49.5034 125.693 49.1294 126.107 48.7771C126.37 48.553 126.623 48.3378 126.846 48.2103C126.999 48.1233 127.201 48.0253 127.422 47.9182H127.423C128.016 47.6304 128.748 47.2756 129.042 46.8814C129.259 46.5888 129.171 46.4784 129.072 46.354C128.994 46.2557 128.909 46.149 128.961 45.9376C129.113 45.3238 129.642 46.1107 129.783 46.3205C129.792 46.3345 129.8 46.3462 129.806 46.3544C129.869 46.291 129.989 46.2099 130.123 46.1193C130.408 45.9266 130.756 45.6913 130.75 45.4948L130.195 45.3958C130.254 45.3617 130.335 45.3074 130.425 45.2468C130.642 45.1006 130.914 44.917 131.081 44.8845C131.166 44.8679 131.226 44.8501 131.271 44.8368C131.327 44.8204 131.359 44.8106 131.388 44.8181C131.428 44.8283 131.459 44.8735 131.535 44.9827C131.565 45.0262 131.603 45.0798 131.65 45.1453C131.682 45.0969 131.726 45.0171 131.776 44.9252V44.9249C131.906 44.6896 132.08 44.3731 132.202 44.2906C132.25 44.2583 132.436 44.2323 132.601 44.2094C132.717 44.193 132.823 44.1783 132.865 44.1635C133.156 44.0609 133.269 43.8894 133.378 43.7243C133.465 43.5921 133.549 43.4637 133.72 43.3776C133.82 43.3275 133.932 43.3453 134.039 43.3624C134.132 43.3773 134.221 43.3914 134.293 43.3596C134.425 43.3023 134.487 43.172 134.55 43.0417C134.607 42.9235 134.664 42.8054 134.772 42.7411C134.878 42.6777 135.072 42.677 135.265 42.6763C135.43 42.6758 135.593 42.6751 135.701 42.6358C135.961 42.5409 136.039 42.4503 136.15 42.3233C136.204 42.2604 136.266 42.1886 136.363 42.1025C136.596 41.8945 136.818 41.823 137.051 41.7479C137.224 41.692 137.403 41.6342 137.597 41.5165C137.827 41.3769 137.927 41.1512 138.02 40.943C138.116 40.7264 138.204 40.5287 138.421 40.466C138.666 40.3956 138.833 40.4555 138.968 40.5039C139.146 40.568 139.269 40.6122 139.445 40.309C139.473 40.2611 139.439 40.2035 139.401 40.1395C139.344 40.0438 139.279 39.9338 139.397 39.819C139.609 39.6141 139.713 39.7991 139.81 39.9717C139.825 39.9979 139.84 40.0239 139.855 40.0482L139.855 40.0468L139.856 40.0454C139.985 39.8033 140.113 39.5612 140.241 39.3191C140.62 39.5266 140.67 39.4435 140.759 39.2945C140.816 39.1998 140.889 39.0784 141.073 38.9879C141.174 38.9383 141.266 38.9596 141.36 38.9813C141.462 39.0047 141.566 39.0288 141.686 38.9638C141.787 38.909 141.838 38.8155 141.889 38.7228C141.923 38.6604 141.957 38.5984 142.005 38.5486C142.076 38.4765 142.137 38.3963 142.198 38.3163C142.339 38.1324 142.478 37.95 142.73 37.8709C142.599 37.9116 143.67 37.8807 143.575 37.8349C143.47 37.6819 143.366 37.5289 143.262 37.3759C143.375 37.3759 143.486 37.3783 143.594 37.3806H143.595C144.023 37.3893 144.422 37.3977 144.855 37.2632L144.863 37.2606C145.056 37.201 145.349 37.1102 145.506 36.99L145.52 36.9802C145.714 36.8316 145.799 36.7668 145.834 36.6814C145.861 36.615 145.858 36.5362 145.853 36.3963C145.85 36.3231 145.847 36.2333 145.847 36.1196C146.452 36.5051 147.223 36.3703 147.821 35.9233C147.954 35.8234 148.068 35.7151 148.18 35.6073C148.33 35.4632 148.48 35.3203 148.675 35.1996C148.822 35.1235 148.971 35.0524 149.123 34.9865C149.313 34.79 149.503 34.7881 149.694 34.9811C149.884 34.9301 149.939 34.8903 150.027 34.8255C150.064 34.7984 150.108 34.7668 150.169 34.7282C150.229 34.6099 150.293 34.4936 150.361 34.3797C150.585 34.3563 150.806 34.3158 151.024 34.2583C151.269 34.1926 151.486 34.0983 151.689 34.0099C152.189 33.793 152.608 33.611 153.166 33.9664L153.228 33.8412L153.23 33.8368C153.309 33.6751 153.388 33.5135 153.467 33.3519C153.704 33.7217 153.888 33.5795 154.132 33.3897C154.233 33.3116 154.344 33.2255 154.473 33.1638C154.568 33.1186 154.677 33.0908 154.784 33.0637C154.887 33.0375 154.986 33.012 155.069 32.9722C155.163 32.9944 155.258 33.0169 155.353 33.0393C155.433 32.7914 155.513 32.5434 155.593 32.2955C155.636 32.3121 155.711 32.3481 155.803 32.3919C156.061 32.5144 156.446 32.6978 156.588 32.6843C156.739 32.67 156.907 32.5231 157.072 32.3788C157.207 32.2599 157.34 32.1427 157.461 32.103C157.694 32.0265 157.746 32.051 157.822 32.0871C157.88 32.1144 157.951 32.1479 158.124 32.149C158.164 32.1493 158.201 32.1505 158.237 32.1514C158.472 32.1575 158.612 32.1612 158.843 31.9362C158.096 31.7423 158.751 31.6335 159.213 31.5568C159.307 31.5411 159.393 31.5268 159.458 31.5133C159.621 31.4793 159.763 31.4646 159.891 31.4515C160.225 31.4171 160.466 31.3923 160.763 31.055H160.337C160.648 30.7717 160.651 30.7724 160.812 30.8071C160.868 30.819 160.944 30.8354 161.058 30.845C161.089 30.8475 161.143 30.8658 161.208 30.888C161.437 30.9659 161.804 31.091 161.805 30.7453C162.377 31.0824 162.383 31.0831 162.973 30.931C163.08 30.9034 163.181 30.8503 163.282 30.797C163.427 30.72 163.574 30.6424 163.743 30.6393C163.877 30.637 163.992 30.6646 164.103 30.691C164.226 30.7203 164.343 30.7481 164.474 30.7338C164.608 30.7196 165.044 30.56 165.259 30.481C165.284 30.4719 165.306 30.4639 165.324 30.4574C165.46 30.4075 165.574 30.3303 165.686 30.2543C165.804 30.1743 165.92 30.0957 166.057 30.0524C166.214 30.0029 166.394 30.011 166.575 30.0192C166.734 30.0265 166.893 30.0337 167.038 30.0019C167.339 29.9357 167.6 29.8323 167.849 29.7334C168.363 29.5292 168.828 29.3444 169.5 29.5458C169.604 28.677 170.659 28.8405 171.269 28.935L171.321 28.943C171.432 28.9603 171.529 28.9848 171.619 29.008C171.867 29.0709 172.066 29.1217 172.382 28.9717C172.535 28.8995 172.66 28.8087 172.784 28.7184C172.945 28.6007 173.105 28.4838 173.326 28.4087C173.579 28.3231 173.905 28.2571 174.189 28.1996C174.243 28.1886 174.295 28.1781 174.345 28.1675C174.539 28.1062 174.737 28.0866 174.939 28.1088C175.156 28.1392 175.335 28.2372 175.476 28.4026C175.473 28.4117 175.476 28.4167 175.487 28.4157C175.484 28.4113 175.48 28.4071 175.476 28.4026C175.507 28.3296 175.98 27.9792 175.925 28.0225C176.036 27.9338 176.128 27.8838 176.21 27.8396C176.387 27.7432 176.512 27.6754 176.66 27.2983C176.535 27.2719 176.408 27.2452 176.282 27.2185C176.156 27.1921 176.03 27.1654 175.904 27.1388C175.949 27.1357 175.993 27.1327 176.035 27.1294C176.361 27.1048 176.626 27.0852 176.932 27.219C177.034 27.2634 177.165 27.3888 177.3 27.5184C177.484 27.6943 177.675 27.8779 177.813 27.8782C178.247 27.8786 178.398 27.2679 178.355 26.95C178.719 27.797 179.03 27.9381 179.846 27.5051C179.894 27.4796 179.942 27.4543 179.99 27.4288L179.996 27.4255C180.042 27.4012 180.088 27.3769 180.134 27.3523C180.329 27.1486 180.522 27.1523 180.714 27.3638C180.828 27.426 180.942 27.488 181.057 27.5502L181.143 27.4061C181.252 27.2258 181.36 27.0454 181.469 26.8648C181.76 27.2662 182.037 27.2859 182.512 27.1921C182.674 27.1603 182.919 26.9998 183.156 26.8452C183.399 26.6861 183.632 26.5336 183.754 26.5336C183.821 26.5336 183.897 26.6113 183.983 26.6997C184.078 26.7968 184.185 26.9069 184.307 26.9418C184.694 27.0527 185.295 26.7738 185.433 26.4038C185.506 26.5582 185.579 26.7128 185.652 26.8674C185.698 26.8251 185.743 26.7825 185.789 26.7402C185.926 26.612 186.063 26.4836 186.2 26.3544C186.248 26.7757 186.57 26.7692 186.85 26.7636C187.057 26.7593 187.241 26.7556 187.277 26.9238C187.32 27.1207 186.745 27.5481 186.402 27.8026C186.311 27.8702 186.237 27.9259 186.194 27.9614C186.736 28.288 187.402 27.7177 187.892 27.2983C187.991 27.2134 188.083 27.1345 188.165 27.0707C188.417 27.3437 188.502 27.4871 188.271 27.7993C188.059 28.0861 187.962 28.0262 187.85 27.9565C187.746 27.8922 187.63 27.8197 187.397 28.0038C187.558 28.2737 187.703 28.2059 187.884 28.121C187.931 28.099 187.98 28.0761 188.033 28.0574C187.968 28.4379 188.025 28.4562 188.124 28.4871C188.194 28.5093 188.285 28.5381 188.367 28.7102C188.487 28.964 188.505 29.1678 188.528 29.4138C188.535 29.4938 188.542 29.5783 188.554 29.6702ZM113.923 62.579C114.141 62.5603 114.203 62.6611 114.259 62.7518C114.306 62.8286 114.348 62.8978 114.477 62.881C114.586 62.8667 114.674 62.7511 114.764 62.6325C114.842 62.5296 114.922 62.4244 115.019 62.382C115.46 62.189 116.101 62.1593 116.689 62.1322C116.965 62.1196 117.229 62.1072 117.456 62.0789C117.829 62.0323 118.181 61.9228 118.529 61.8145V61.8143C118.856 61.7128 119.179 61.612 119.515 61.5649C119.801 61.5252 120.009 61.5769 120.279 61.6559C120.299 61.6618 120.318 61.6672 120.336 61.6725C120.589 61.7462 120.714 61.7825 120.789 61.8641C120.862 61.9434 120.889 62.0658 120.941 62.3069L120.943 62.3168C121.22 63.5918 121.006 64.9479 120.793 66.303C120.513 68.0782 120.234 69.8515 121.057 71.4391C116.814 71.4047 112.563 71.4894 108.346 71.9865C108.346 71.6136 108.349 71.241 108.351 70.8683C108.361 69.6386 108.37 68.4103 108.277 67.1813C108.235 66.6192 108.176 66.0587 108.117 65.498V65.4978C108.1 65.3338 108.083 65.1696 108.066 65.0054C107.978 64.1406 107.999 64.1364 108.627 64.0073C108.667 63.9991 108.71 63.9904 108.755 63.9809C108.979 63.9338 109.122 63.8328 109.272 63.7263C109.387 63.6449 109.506 63.5603 109.67 63.4941C109.86 63.4171 109.98 63.4552 110.123 63.5006C110.193 63.5228 110.268 63.5469 110.361 63.5598C110.721 63.6108 110.825 63.5813 111.027 63.5245C111.105 63.5022 111.197 63.4761 111.326 63.4487C111.565 63.3977 111.795 63.3635 112.018 63.3306C112.713 63.2276 113.335 63.1352 113.923 62.579ZM188.494 36.3774C188.433 36.3416 188.371 36.306 188.31 36.2702C187.585 37.8059 187.11 39.4064 186.629 41.0279C186.559 41.2641 186.488 41.5009 186.417 41.738C186.127 42.7053 185.839 43.6728 185.55 44.6407C185.497 44.8188 185.433 45.0033 185.367 45.1919C185.149 45.8181 184.915 46.4878 185.034 47.1004C185.95 45.6889 186.822 44.2487 187.649 42.7841C188.053 42.07 188.447 41.3502 188.831 40.6258C188.881 40.532 188.943 40.4321 189.007 40.3292C189.146 40.1055 189.294 39.8669 189.348 39.6396C189.417 39.3479 189.487 39.2616 189.467 39.2089C189.449 39.16 189.353 39.1404 189.107 39.0127C189.303 38.79 189.431 38.8515 189.537 38.9027C189.598 38.9317 189.652 38.9577 189.708 38.9254C189.844 38.8461 190.03 38.6 190.178 38.4052C190.238 38.325 190.292 38.2531 190.334 38.2057C190.22 38.1731 190.031 38.1378 189.812 38.0967C189.248 37.9907 188.482 37.8473 188.272 37.6169C187.936 37.2485 188.295 36.9273 188.648 36.6122C188.681 36.5827 188.713 36.5535 188.746 36.524C188.662 36.4751 188.578 36.4262 188.494 36.3774Z" fill="#F3F3F1"/>
<path fill-rule="evenodd" clip-rule="evenodd" d="M92.7724 98.6468C92.6732 99.1574 92.4253 99.3979 92.6851 99.8669C92.9057 100.265 93.5382 100.526 93.9628 100.425L92.7724 98.6468ZM81.2697 80.484L79.1754 81.2019C79.7478 81.7635 80.2933 82.3539 80.9244 82.8527L81.2697 80.484ZM115.814 82.3226C114.816 81.8192 113.697 81.7624 112.602 81.6978C112.768 82.5967 112.935 83.4959 113.102 84.3949C114.006 83.7041 114.91 83.0134 115.814 82.3226ZM91.8302 151.912C91.6309 151.559 90.2713 148.832 89.9888 148.972C89.8388 149.046 89.8271 150.564 89.8051 150.78C89.7272 151.549 89.6491 152.316 89.5712 153.085C90.3754 152.801 91.2344 152.565 91.8302 151.912ZM82.3312 129.864C82.5368 130.467 82.7427 131.07 82.9483 131.673C83.0461 131.959 83.1034 132.382 83.2765 132.635C83.5013 132.963 83.3317 133.156 83.6318 132.796C83.9541 132.411 84.0505 131.382 84.1904 130.909C84.403 130.192 84.6154 129.474 84.8278 128.757C83.8264 128.748 83.2194 129.573 82.3312 129.864ZM61.2875 94.3696C60.0561 95.2112 58.8096 96.0461 57.7382 97.0922C58.6807 97.0335 59.993 97.6819 60.8807 97.3773C61.2905 97.4648 61.426 97.3092 61.2875 96.9102V96.0812V94.3696ZM79.5453 100.323V105.237C80.695 104.258 81.905 103.348 83.0112 102.317C81.8559 101.653 80.7008 100.988 79.5453 100.323ZM120.645 113.056C120.282 115.243 120.262 117.495 120.163 119.708C120.145 120.101 119.994 120.693 120.255 121.037C120.518 121.382 121.266 121.573 121.647 121.757C122.717 122.276 123.78 122.81 124.847 123.335C123.446 119.909 122.046 116.482 120.645 113.056ZM147.815 99.6024C150.455 98.3046 153.095 97.0068 155.735 95.7088C153.147 94.6129 150.558 93.5172 147.97 92.4213C147.918 94.815 147.866 97.2089 147.815 99.6024ZM120.639 105.713C121.122 105.747 121.198 103.909 121.278 103.423C121.43 102.501 121.586 101.579 121.745 100.657C122.065 98.8155 122.401 96.9764 122.755 95.1408C123.462 91.4702 124.242 87.8134 125.107 84.1766C124.178 84.0091 123.324 83.8887 122.417 83.6183C121.684 83.3998 120.811 83.5186 120.157 83.0643C120.072 84.7684 120.498 86.5801 120.655 88.2842C120.837 90.2559 120.935 92.2173 120.919 94.1979C120.887 98.0363 120.742 101.876 120.639 105.713ZM59.8716 157.717C60.3291 157.595 59.7062 151.323 59.6784 150.418C59.5988 147.8 59.5834 145.179 59.6302 142.56C57.1651 144.105 54.6428 145.529 52.0388 146.813C52.7081 147.681 53.3352 148.617 54.0758 149.425C54.8388 150.257 55.7141 150.939 56.4213 151.835C57.8449 153.64 58.8201 155.689 59.8716 157.717ZM119.19 120.613C119.305 118.727 119.411 116.844 119.601 114.963C119.683 114.163 120.456 109.909 119.218 110.009C118.513 110.066 117.277 111.097 116.631 111.459C115.778 111.936 114.923 112.412 114.066 112.882C112.374 113.809 110.67 114.716 108.972 115.632C112.378 117.292 115.784 118.953 119.19 120.613ZM111.836 81.3855C110.425 81.2803 109.062 81.1755 107.67 80.9128C106.92 80.771 106.169 80.7907 105.415 80.695C104.875 80.6265 103.818 80.1827 103.315 80.328C102.683 80.5104 102.453 83.6803 102.366 84.4758C102.226 85.7572 102.131 87.3118 102.704 88.5156C103.807 90.836 106.779 89.0248 108.225 88.0515C109.465 87.2169 110.869 86.3717 111.968 85.3586C112.942 84.4611 112.068 82.5453 111.836 81.3855ZM119.153 106.619C120.215 106.189 120.199 105.65 120.245 104.538C120.301 103.186 120.334 101.834 120.372 100.482C120.441 98.073 120.506 95.6629 120.485 93.2526C120.464 90.8983 120.349 88.5476 120.079 86.2077C119.984 85.3804 120.079 83.9673 119.643 83.2615C119.245 82.6178 118.01 82.611 117.336 82.6508C116.576 82.6955 115.96 83.4171 115.4 83.8732C114.779 84.3787 113.503 85.0903 113.401 85.844C113.287 86.6856 113.749 87.8866 113.928 88.7029C114.584 91.6824 115.381 94.6325 116.221 97.5645C117.092 100.606 117.975 103.679 119.153 106.619ZM92.1471 99.4877C92.2157 98.8183 92.4648 98.2592 92.1279 97.6215C91.8386 97.0732 91.3675 96.5224 91.0136 96.0033C90.0007 94.5165 88.8648 93.0924 87.7614 91.6721C86.7509 90.3712 85.7156 89.0842 84.6564 87.8227C84.0664 87.1202 83.4582 86.433 82.8538 85.7429C82.411 85.2379 81.9913 84.5282 81.3651 84.2639C80.9036 87.1638 80.5223 90.0763 80.2248 92.9977C80.0812 94.4098 79.9572 95.8241 79.8531 97.2398C79.8236 97.6393 79.5137 98.9888 79.7118 99.361C79.9202 99.7518 81.1939 100.275 81.5839 100.514C82.6739 101.184 83.5209 102.194 84.5577 101.092C85.2713 100.334 85.8461 99.265 86.6437 98.6033C87.0594 98.2585 87.4508 98.2746 87.917 98.07C88.4589 97.8323 88.476 97.6033 89.1237 97.9268C90.215 98.4716 90.8779 99.2767 92.1471 99.4877ZM37.5158 114.408C37.5158 116.416 37.3785 118.066 38.7394 119.692C39.9286 121.112 41.1644 121.441 42.8372 122.001C43.8222 122.331 43.891 122.027 44.6891 121.47C45.4477 120.941 46.2737 120.516 47.0218 119.97C48.6341 118.793 50.2454 117.58 51.8124 116.342C52.3392 115.926 52.2615 116.068 52.1815 115.569C52.1083 115.114 51.7817 114.535 51.6033 114.102C51.2805 113.319 50.9001 112.561 50.5195 111.805C50.0875 110.947 49.7111 110.015 49.1745 109.215C48.9518 108.883 48.6875 108.583 48.4276 108.28C47.8805 107.643 47.8999 107.666 47.2456 108.187C45.8643 109.287 44.5792 110.478 43.0246 111.338C41.1853 112.356 39.3504 113.381 37.5158 114.408ZM79.1647 98.8562C79.3642 95.9738 79.5892 93.1074 79.9347 90.2382C80.1123 88.7649 80.3188 87.2957 80.5198 85.8255C80.6016 85.2269 80.9174 84.2222 80.7415 83.6407C80.5686 83.0683 79.8056 82.5235 79.3869 82.1095C79.2744 81.9982 78.9284 81.531 78.7796 81.51C78.6203 81.4877 78.0208 81.9268 77.8479 82.0257C77.2365 82.3764 76.636 82.745 76.0447 83.1287C74.9303 83.8517 73.8505 84.6276 72.7939 85.4325C70.5782 87.1203 68.4653 88.9364 66.2966 90.6833C68.2835 92.4246 70.7291 93.7769 72.9506 95.1871C74.2641 96.0211 75.5843 96.8459 76.9216 97.641C77.5998 98.0438 78.3862 98.6597 79.1647 98.8562ZM52.0035 150.398C50.3991 151.459 48.8669 152.579 47.0524 153.259C45.2461 153.937 43.4608 154.198 41.5939 154.601C40.6524 154.804 39.7675 155.026 38.8065 155.169C38.2681 155.248 37.4346 155.218 36.9436 155.445C36.5064 155.352 36.3506 155.501 36.4767 155.892C36.4814 156.014 36.4861 156.135 36.4908 156.257C36.6145 157.949 37.702 159.985 38.6505 161.36C39.2042 162.164 39.9097 162.911 40.6108 163.586C41.4023 164.349 41.8587 164.886 42.9621 164.567C44.822 164.028 46.4634 162.945 48.3485 162.467C49.8398 162.089 51.0784 161.296 52.5326 160.886C54.3261 160.381 56.1008 159.804 57.9191 159.382C57.1069 157.814 56.3806 156.182 55.3408 154.746C54.2744 153.272 53.0985 151.856 52.0035 150.398ZM61.8437 97.6454C65.1991 98.3132 68.8358 98.9315 71.8388 100.664C73.0107 101.34 74.4964 102.385 74.8395 103.783C75.2498 105.454 73.6367 106.489 72.2893 107.011C70.6716 107.637 68.9106 107.877 67.1965 108.074C66.2891 108.179 65.3775 108.236 64.466 108.287C63.7282 108.33 62.477 108.167 61.8026 108.46C61.3801 108.376 61.2337 108.547 61.3633 108.974C61.3553 109.127 61.3476 109.28 61.3399 109.434L61.2699 110.811C61.2234 111.729 61.1768 112.647 61.1301 113.564C61.0288 115.563 60.9272 117.561 60.826 119.56C62.5834 118.471 63.9998 116.912 65.7174 115.75C66.534 115.198 67.3448 114.645 68.1581 114.094C68.4992 113.864 68.7076 113.54 69.0433 113.325C69.4884 113.04 69.883 112.869 70.3006 112.495C72.0058 110.97 73.9022 109.651 75.7109 108.251C76.5324 107.615 77.4318 107.03 78.2136 106.348C79.0323 105.633 78.9191 105.045 78.8989 104.017C78.8779 102.929 79.2772 101.578 79.0919 100.529C79.2475 100.173 79.128 99.9516 78.7338 99.8646C78.4704 99.6962 78.2072 99.5277 77.9439 99.3593C77.4187 99.0234 76.8936 98.6875 76.3684 98.3518C74.2793 97.0159 72.1904 95.6798 70.1013 94.3439C69.0578 93.6765 68.0143 93.0091 66.9705 92.3418C66.6791 92.1556 65.7284 91.3135 65.4014 91.3383C65.0678 91.3635 64.4891 92.0148 64.2391 92.222C63.8554 92.5397 63.483 92.8739 63.0685 93.1521C62.862 93.2952 62.6463 93.4229 62.4217 93.5355C62.0627 93.5701 61.938 93.7673 62.0472 94.1268C61.7319 95.1383 61.9053 96.5829 61.8437 97.6454ZM108.373 145.329C107.613 141.777 106.633 137.571 103.67 135.154C100.664 132.704 96.2699 133.651 93.9188 136.528C92.7413 137.97 92.0112 139.674 91.469 141.44C90.9123 143.252 90.0919 145.614 90.2421 147.53C90.3078 148.371 91.0278 149.274 91.4393 150.007C91.8639 150.764 92.1457 151.85 93.1464 151.587C94.698 151.181 96.276 150.247 97.7279 149.578C99.1965 148.902 100.743 148.346 102.265 147.693C103.276 147.259 104.326 146.93 105.334 146.49C106.291 146.073 107.553 145.973 108.373 145.329ZM153.269 124.172C155.388 124.931 156.49 123.717 157.981 122.35C159.394 121.055 160.924 119.809 162.225 118.402C163.567 116.951 164.627 115.236 165.659 113.559C166.702 111.865 168.111 110.036 168.753 108.149C169.08 107.189 169.219 106.126 169.425 105.134C169.475 104.895 169.807 104.006 169.702 103.805C169.556 103.529 168.631 103.5 168.377 103.459C166.355 103.14 164.212 103.124 162.183 103.41C158.259 103.963 154.977 106.164 153.736 110.012C152.282 114.523 152.981 119.538 153.269 124.172ZM139.528 85.0421C139.495 85.8232 141.367 86.0403 141.853 86.2225C142.974 86.6431 144.089 87.0873 145.178 87.585C147.421 88.6101 149.812 89.2779 151.96 90.5172C156.589 93.1888 161.614 95.0721 166.29 97.6274C167.019 98.0257 168.443 98.985 169.275 98.9039C169.717 98.8608 169.388 99.2169 169.675 98.5137C169.778 98.2606 169.812 97.9315 169.87 97.6604C170.044 96.848 170.178 96.0281 170.372 95.2201C170.692 93.8903 171.019 92.6566 171.154 91.2898C171.212 90.7107 171.274 90.1322 171.281 89.5497C171.288 88.9593 171.424 87.48 171.158 86.9689C170.981 86.63 170.945 86.7462 170.504 86.6505C170.251 86.5958 169.985 86.4819 169.741 86.4059C169.168 86.2276 168.595 86.0564 167.994 86.004C167.401 85.9521 167.022 85.7715 166.466 85.6667C165.882 85.5567 165.282 85.6901 164.687 85.5366C164.045 85.3708 163.739 85.2194 163.068 85.2828C162.417 85.3441 162.23 85.2 161.593 85.0227C161.062 84.8749 160.428 84.9783 159.874 84.9333C159.203 84.8786 158.535 84.7949 157.864 84.7418C154.846 84.5029 151.793 84.8571 148.768 84.829C147.124 84.8138 145.514 85.0566 143.872 84.9815C142.436 84.916 140.953 84.9315 139.528 85.0421ZM147.378 100.946C145.91 101.505 144.549 102.413 143.188 103.195C141.619 104.097 140.117 105.055 138.664 106.136C136.222 107.955 133.373 110.135 132.73 113.308C132.071 116.565 134.899 119.233 137.55 120.566C140.574 122.085 144.092 122.871 147.404 123.451C147.05 115.954 147.133 108.445 147.378 100.946ZM103.464 118.596C102.574 118.842 101.82 119.369 100.993 119.759C100.254 120.108 99.5375 120.371 98.8463 120.821C97.72 121.554 96.4143 122.181 95.2367 122.748C92.323 124.15 89.4943 125.891 86.6096 127.444C85.8451 127.856 85.5946 128.117 85.3357 128.964C85.0545 129.885 84.7895 130.812 84.5186 131.736C84.266 132.598 83.8627 133.519 83.9689 134.429C84.0615 135.22 84.4709 135.967 84.7794 136.688C85.5565 138.505 86.3988 140.293 87.2692 142.066C88.0503 143.658 88.763 145.347 89.7656 146.811C90.5448 142.746 91.244 138.193 94.2646 135.096C97.2828 132.001 102.098 131.958 105.007 135.152C106.388 136.669 107.229 138.581 107.89 140.501C108.237 141.51 108.471 142.538 108.694 143.58C108.933 144.693 108.874 145.283 110.102 144.946C111.077 144.678 112.111 144.464 113.067 144.159C113.563 144 114.047 143.822 114.069 143.431C114.098 142.936 113.432 141.923 113.235 141.457C112.219 139.055 111.203 136.652 110.187 134.249C109.083 131.64 107.98 129.032 106.876 126.423C106.325 125.121 105.774 123.82 105.223 122.518C104.721 121.332 104.302 119.57 103.464 118.596ZM147.461 98.3072C147.477 97.121 147.497 95.9348 147.512 94.7483C147.521 94.0414 147.836 92.6744 147.221 92.1694C146.839 91.8564 145.707 91.6164 145.224 91.4021C144.271 90.9797 143.24 90.7911 142.281 90.3715C138.528 88.7273 134.622 87.3579 130.757 86.0328C129.924 85.7469 129.072 85.513 128.233 85.2316C127.78 85.0798 126.103 84.1876 125.684 84.4211C125.317 84.6253 125.04 87.058 124.923 87.5631C124.645 88.7589 124.379 89.9577 124.123 91.1586C123.131 95.8211 122.299 100.516 121.525 105.219C123.581 104.439 125.551 103.086 127.494 102.041C129.511 100.955 131.522 99.8711 133.553 98.8101C134.126 98.5104 136.143 97.1336 136.615 97.6739C137.373 98.5411 135.568 99.5581 135.095 99.9296C133.263 101.367 131.327 102.619 129.368 103.873C127.338 105.172 125.225 106.319 123.184 107.595C122.448 108.055 121.272 108.615 120.982 109.393C120.61 110.393 120.879 111.609 121.218 112.564C122.051 114.913 122.963 117.232 123.927 119.529C124.366 120.574 124.815 121.613 125.274 122.649C125.819 123.883 126.535 124.144 127.724 124.711C132.79 127.13 138.051 129.425 142.916 132.224C142.102 133.163 140.117 131.622 139.314 131.232C137.826 130.509 136.336 129.788 134.849 129.063C132.079 127.713 129.323 126.336 126.537 125.018C128.322 129.079 130.429 132.992 132.766 136.761C132.176 136.961 132.32 136.971 131.949 136.617C131.637 136.318 131.428 135.733 131.217 135.357C130.78 134.582 130.349 133.804 129.909 133.031C128.996 131.427 128.051 129.847 127.217 128.199C126.59 126.959 126.105 124.793 124.816 124.168C123.211 123.389 121.584 122.631 119.979 121.841C119.979 128.015 120.422 134.052 121.074 140.189C121.107 140.498 121.403 141.411 120.805 141.322C120.535 141.281 120.444 139.588 120.397 139.235C120.18 137.614 119.995 135.989 119.844 134.361C119.544 131.112 119.38 127.85 119.359 124.588C118.974 127.76 118.589 130.932 118.203 134.104L117.656 138.613C117.56 139.403 117.464 140.192 117.368 140.982C117.324 141.345 117.352 141.819 117.224 142.165C117.024 142.709 117.091 142.667 116.463 142.916C117.064 138.785 117.619 134.647 118.11 130.502C118.349 128.479 118.574 126.455 118.781 124.429C118.837 123.884 118.891 123.338 118.945 122.793C118.971 122.516 119.211 121.622 119.078 121.391C118.946 121.162 118.073 120.924 117.822 120.807C117.271 120.552 116.721 120.296 116.171 120.04C114.386 119.205 112.602 118.364 110.836 117.489C110.064 117.106 109.254 116.514 108.414 116.31C107.578 116.107 106.969 116.689 106.254 117.059C105.698 117.347 104.387 117.73 104.015 118.219C103.669 118.675 104.743 120.496 105.026 121.168C105.822 123.063 106.618 124.958 107.414 126.852C109.029 130.694 110.643 134.536 112.258 138.378C112.652 139.317 113.047 140.256 113.441 141.196C113.694 141.797 114.116 143.513 114.73 143.58C115.002 143.609 115.447 143.314 115.71 143.229C116.102 143.102 116.463 143.104 116.856 143.038C117.576 142.916 118.324 142.544 119.031 142.284C120.848 141.614 122.732 141.181 124.564 140.555C126.405 139.927 128.215 139.221 130.048 138.592C131.713 138.021 133.393 137.371 134.993 136.627C136.682 135.842 138.414 135.149 140.06 134.279C143.058 132.693 146.024 131.212 148.673 129.267C149.295 128.81 149.959 128.351 150.575 127.861C151.115 127.432 152.145 126.901 152.513 126.336C152.653 126.121 152.774 125.698 152.61 125.443C152.434 125.168 151.656 125.193 151.293 125.144C150.146 124.99 149 124.836 147.854 124.682C147.942 125.436 148.031 126.189 148.095 126.946C148.139 127.48 148.455 128.891 148.029 129.31C147.444 128.754 147.632 127.09 147.58 126.349C147.552 125.953 147.653 125.178 147.475 124.827C147.281 124.442 146.744 124.447 146.257 124.342C144.193 123.895 142.148 123.52 140.15 122.813C136.776 121.618 132.742 119.6 131.989 115.707C131.203 111.649 134.656 108.134 137.563 105.87C139.303 104.516 141.155 103.342 143.07 102.253C143.965 101.745 144.86 101.236 145.76 100.738C146.088 100.557 147.164 100.183 147.337 99.8667C147.514 99.5427 147.423 98.6763 147.461 98.3072ZM75.269 160.624C75.1053 160.704 74.9413 160.784 74.7778 160.864C76.5988 155.675 78.403 150.509 79.9256 145.222C80.6606 142.67 81.4051 140.12 82.1651 137.576C82.4933 136.478 83.2992 134.967 83.0753 133.83C82.833 132.599 82.2519 131.29 81.8023 130.12C78.9244 131.929 75.9862 133.645 73.0603 135.372C70.4374 136.921 67.7701 138.298 65.1286 139.831C63.7752 140.616 62.3789 141.146 60.9663 141.787C59.8185 142.309 60.2641 143.902 60.2807 144.967C60.3387 148.726 60.3359 152.498 60.564 156.251C60.647 157.618 60.5399 159.188 61.4103 160.326C62.5235 161.781 63.556 163.264 64.5712 164.796C64.9516 165.37 66.5495 168.476 67.1453 168.408C67.5343 168.364 67.8924 167.106 68.087 166.808C68.5064 166.165 69.1195 165.611 69.6777 165.094C72.088 162.858 74.7626 161.282 77.5422 159.648C80.3663 157.988 83.2564 156.442 86.1338 154.868C86.7839 154.512 87.484 154.255 88.1298 153.892C88.385 153.748 88.891 153.52 89.0517 153.263C89.2919 152.879 89.2105 151.815 89.2606 151.356C89.363 150.418 89.5471 149.444 89.557 148.498C89.5665 147.565 89.0054 146.763 88.5986 145.949C86.8129 142.375 85.0779 138.793 83.5242 135.111C82.2992 139.386 81.0131 143.642 79.8115 147.924C79.1841 150.16 78.4278 152.359 77.6915 154.56C77.3156 155.685 76.9373 156.808 76.5619 157.933C76.2695 158.809 76.1177 160.091 75.269 160.624ZM100.916 80.047C99.9693 80.0576 99.1113 79.9184 98.1855 79.7207C97.8458 79.6484 97.5474 79.6178 97.203 79.5874C96.8126 79.553 96.458 79.3415 96.1158 79.3001C95.8571 79.269 95.4054 79.3776 95.1584 79.4604C94.5857 79.6522 94.604 79.5553 94.5801 80.2201C94.5427 81.2473 94.5146 82.2746 94.4582 83.3008C94.2363 87.3404 93.8072 91.3406 93.2194 95.3411C93.1003 96.1497 92.7673 97.2103 92.9504 98.0134C93.1156 98.7373 93.7411 99.5107 94.1541 100.118C95.004 101.367 97.0054 101.984 98.4133 102.338C99.898 102.712 101.44 102.849 102.85 103.182C103.241 103.275 103.69 103.112 104.106 103.204C104.491 103.29 104.791 103.502 105.147 103.655C106.019 104.029 106.993 104.098 107.894 104.387C109.68 104.96 111.593 104.926 113.381 105.477C113.838 105.617 114.233 105.972 114.673 106.093C115.075 106.204 115.489 106.074 115.909 106.136C116.801 106.267 117.633 106.572 117.838 107.529C118.383 107.097 118.459 107.211 118.365 106.543C118.305 106.115 118.066 105.594 117.936 105.181C117.603 104.129 117.269 103.078 116.936 102.026C116.279 99.9434 115.625 97.8597 115.019 95.7621C114.476 93.8859 113.983 91.9953 113.553 90.0903C113.333 89.1217 113.15 88.1488 112.962 87.175C112.908 86.8924 112.962 86.4433 112.678 86.2552C112.42 86.0847 111.819 86.6966 111.547 86.8938C109.647 88.2702 105.289 92.3411 102.913 89.9397C101.634 88.6466 101.709 86.3731 101.848 84.7025C101.933 83.6756 102.113 82.662 102.315 81.6524C102.365 81.4005 102.673 80.5911 102.56 80.4117C102.439 80.2187 101.17 80.1036 100.916 80.047ZM167.681 102.516C168.187 102.573 168.692 102.629 169.198 102.686C169.152 102.278 169.193 101.663 169.039 101.283C168.825 100.757 168.301 100.698 167.725 100.48C166.813 100.135 165.884 99.8356 164.983 99.4646C163.027 98.6597 161.08 97.8433 159.123 97.0384C158.265 96.6854 157.257 96.1078 156.325 96.396C155.321 96.7071 154.33 97.3406 153.391 97.8045C152.327 98.3298 151.265 98.8564 150.202 99.3829C149.704 99.63 149.206 99.8767 148.707 100.124C147.924 100.512 147.82 100.551 147.759 101.437C147.444 105.968 147.467 110.676 147.604 115.213C147.675 117.529 147.596 119.857 147.762 122.168C147.775 122.346 147.762 123.349 147.873 123.486C148.03 123.679 149.133 123.744 149.397 123.793C150.425 123.98 151.46 124.043 152.498 124.136C152.254 118.865 151.355 112.634 154.062 107.813C156.78 102.97 162.592 101.92 167.681 102.516ZM120.416 50.6634C120.721 49.9692 121.246 49.383 121.695 48.7738C121.937 48.4445 122.357 48.0508 122.512 47.6655C122.733 47.1172 122.732 47.2346 122.402 46.7544C122.089 46.3006 122.096 46.2665 121.613 46.1853C121.206 46.117 120.773 46.233 120.358 46.1586C119.938 46.0833 118.784 45.7296 119.049 45.0616C119.037 45.0908 119.705 44.7617 119.757 44.7046C119.925 44.5219 119.978 44.1324 120.061 43.9116C120.327 43.2038 120.421 42.7455 120.124 41.9918C119.68 40.8665 117.925 40.5334 116.833 40.9121C116.286 41.1011 115.975 41.502 115.73 42.0059C115.574 42.3259 115.537 42.7883 115.336 43.0669C115.032 43.4863 115.013 43.4398 114.382 43.3656C113.58 43.2714 112.922 42.9631 112.161 42.7481C111.333 42.5137 110.794 42.9904 110.07 43.3748C108.764 44.069 107.502 44.31 106.038 44.4201C104.408 44.543 102.898 44.15 101.284 44.0487C101.702 45.9773 102.785 47.5432 103.651 49.2896C103.803 49.5968 104.049 49.9107 104.054 50.266C104.061 50.6007 103.576 51.0562 103.63 51.3331C103.747 51.924 105.047 52.397 105.54 52.5633C106.934 53.0332 108.52 53.9532 110.054 53.5837C110.895 53.3811 111.347 52.0534 112.138 51.9558C113.2 51.8244 112.406 53.1914 112.209 53.6615C113.715 53.8906 115.625 53.6964 117.067 53.1855C117.79 52.9296 118.402 52.5476 119.062 52.1689C119.883 51.6973 120.054 51.5677 120.416 50.6634ZM94.05 79.3675C91.364 79.4122 88.6386 79.0255 85.9464 79.3808C85.3228 79.4629 84.7074 79.5953 84.0945 79.7362C83.654 79.8374 82.255 79.9231 81.9612 80.2505C81.6936 80.5493 81.6917 81.9245 81.6365 82.3121C81.5137 83.1752 81.5464 83.4732 82.0968 84.1406C83.9078 86.3366 85.7939 88.4672 87.5785 90.6875C89.2926 92.8204 90.6996 95.2035 92.4323 97.3062C93.3577 94.6126 93.4131 91.3801 93.6671 88.5558C93.8026 87.0498 93.9258 85.5427 94.0416 84.0353C94.1518 82.5996 94.5265 80.7364 94.05 79.3675ZM59.283 107.755C59.5937 107.755 60.0891 107.852 60.3911 107.755C60.8063 107.887 60.945 107.731 60.8077 107.288C60.8143 107.133 60.8208 106.978 60.8276 106.822C60.8709 105.822 60.9186 104.822 60.9649 103.821C61.0075 102.906 61.0489 101.992 61.0849 101.077C61.1097 100.452 61.4253 98.9039 61.1729 98.3399C61.0033 97.9607 60.6016 98.0468 60.113 97.9914C59.6482 97.9387 59.182 97.8901 58.7198 97.818C58.1331 97.7266 57.4828 97.5165 56.8858 97.648C56.2861 97.7801 55.8501 98.3338 55.3794 98.6861C54.6346 99.2431 53.8737 99.7794 53.1226 100.328C51.7574 101.325 50.4061 102.34 49.0524 103.352C48.4933 103.77 48.386 103.625 48.6585 104.226C48.8271 104.597 49.2105 105.016 49.444 105.352C49.9088 106.019 50.3717 107.031 50.9679 107.573C51.8356 108.361 54.2428 107.861 55.3953 107.855C56.7095 107.848 57.9764 107.869 59.283 107.755ZM62.6847 107.69C63.8243 107.578 64.9757 107.626 66.1083 107.473C67.3396 107.306 68.5621 107.06 69.7911 106.875C71.0164 106.691 74.7439 105.946 74.3759 104.117C73.9871 102.184 71.1336 101.026 69.5546 100.376C67.0887 99.361 64.5141 98.8176 61.9202 98.2438C61.5949 99.9766 61.6416 101.837 61.5822 103.593C61.5499 104.547 61.5216 105.502 61.5221 106.456C61.5221 106.686 61.4433 107.163 61.5371 107.376C61.7574 107.879 62.0138 107.69 62.6847 107.69ZM58.9368 108.52H51.6629C52.7394 110.749 53.757 113.018 54.9174 115.205C56.0732 117.382 57.5614 119.434 58.8727 121.525C59.2049 121.163 59.7347 120.771 59.9605 120.341C60.2105 119.865 60.2035 119.165 60.2444 118.614C60.3506 117.185 60.3991 115.742 60.4351 114.309C60.4667 113.054 60.5219 111.808 60.6182 110.556C60.6393 110.281 60.9422 108.855 60.7689 108.621C60.6143 108.412 59.255 108.522 58.9368 108.52ZM88.8936 64.7687C90.1207 64.7684 91.3492 64.753 92.5761 64.7736C93.6896 64.7925 95.1403 64.5986 96.1602 65.172C98.2381 66.3397 94.0844 69.3387 93.2421 70.0936C94.604 70.5872 96.7296 69.6075 98.0629 69.1586C99.7116 68.6038 101.393 68.2311 103.074 67.7965C103.494 67.688 105.298 67.4753 105.526 67.1535C105.752 66.8342 105.246 64.9079 105.195 64.5015C105.147 64.1196 105.187 63.524 105.028 63.1647C105.126 62.7331 104.974 62.5818 104.574 62.7114C104.435 62.7109 104.297 62.7102 104.159 62.7097C103.135 62.7179 102.111 62.7654 101.089 62.7993C97.5745 62.9163 94.1455 63.0723 90.661 63.6208C89.0412 63.8758 87.407 64.1895 85.7955 64.5025C84.4391 64.7659 84.6674 64.9869 85.9343 64.9902C86.9251 64.9928 87.9076 64.8456 88.8936 64.7687ZM189.707 38.9254C189.916 38.6856 190.125 38.4456 190.334 38.2056C189.825 38.0604 189.316 37.9149 188.807 37.7696C188.266 37.6152 187.975 37.6506 188.216 37.0461C188.517 36.2889 189.894 36.2021 190.555 36.1736C192.833 36.0751 195.225 36.7998 197.389 37.4382C198.445 37.7497 199.272 38.2318 200.166 38.873C200.556 39.153 201.006 39.4159 201.347 39.7523C201.702 40.1018 201.849 40.5495 202.196 40.8999C202.765 41.4744 203.492 41.7605 203.771 42.5897C204.091 43.5416 203.709 44.6311 203.236 45.4611C202.755 46.3034 202.041 46.9404 201.462 47.7058C201.002 48.313 200.041 49.9722 201.542 49.7799C202.336 49.6782 203.366 48.3242 203.937 47.7848C204.756 47.0113 205.562 46.2199 206.429 45.4994C207.198 44.8606 208.084 44.2056 209.113 44.0934C210.197 43.975 210.738 44.6688 211.267 45.5125C211.765 46.3083 211.845 47.0852 212.196 47.8997C212.365 48.2924 212.58 48.5114 212.679 48.9394C212.832 49.5979 212.848 50.3163 212.926 50.9876C213.048 52.0419 213.164 52.8709 212.96 53.9039C212.768 54.8707 212.716 55.8976 212.555 56.8812C212.372 57.9951 212.221 59.1142 212.041 60.2286C211.888 61.1727 211.309 62.5172 211.877 63.3951C213.243 65.5048 214.881 62.3991 215.313 61.2389C216.071 59.2 216.457 56.9713 217.126 54.8906C217.485 53.7778 217.797 52.6545 218.003 51.5025C218.173 50.5497 218.089 49.389 218.611 48.5404C219.017 47.8812 219.739 47.3806 220.531 47.5818C221.523 47.8337 221.903 49.2667 222.195 50.1378C222.965 52.4354 222.682 54.5046 222.368 56.8477C222.223 57.9327 222.085 59.0192 221.836 60.0861C221.667 60.8059 220.971 62.2627 222.006 62.6541C223.474 63.2094 225.03 58.9984 225.448 58.0475C226.543 55.557 226.963 53.087 227.414 50.4185C227.518 49.8049 227.597 49.1783 227.752 48.5752C227.887 48.0503 228.291 47.5198 228.327 46.9949C228.363 46.4695 228.015 46.103 228.372 45.5872C228.668 45.1579 229.204 45.132 229.688 45.1282C230.826 45.1193 231.914 45.6187 232.972 45.9811C233.956 46.3182 235.413 47.0578 236.475 46.8197C233.144 43.4379 229.821 40.0945 225.849 37.4609C224.004 36.2377 222.158 35.0623 220.164 34.0648C218.144 33.0545 215.83 32.3722 213.667 31.761C212.491 31.4283 211.321 31.0515 210.159 30.67C209.125 30.3303 208.084 30.266 207.071 29.8807C204.871 29.044 202.413 28.7198 200.135 28.1266C199.129 27.8648 198.113 27.6403 197.104 27.3977C196.045 27.1427 194.556 26.6999 193.476 26.743C192.554 26.7797 192.243 27.8363 191.8 28.5713C191.156 29.6382 190.607 30.7467 190.1 31.8847C189.063 34.2164 187.968 36.6253 187.226 39.0613C186.819 40.3989 186.417 41.7378 186.016 43.0775C185.67 44.2372 184.804 45.9102 185.034 47.1004C186.74 44.4714 188.329 41.7411 189.707 38.9254ZM110.284 62.6644C109.379 62.7055 108.474 62.7465 107.569 62.7876C108.472 65.7537 108.346 68.9121 108.346 71.9865C112.563 71.4894 116.814 71.4047 121.057 71.4391C120.277 69.9355 120.579 67.9848 120.801 66.3748C120.931 65.4323 121.004 64.5245 120.985 63.5736C120.967 62.6817 121.224 61.9317 120.279 61.6559C119.53 61.4372 119.056 61.8017 118.342 61.968C117.486 62.167 116.554 62.1911 115.684 62.2994C113.871 62.5247 112.123 62.6569 110.284 62.6644ZM85.9829 68.4407C88.7008 67.6868 91.589 67.9647 94.3205 67.3916C93.6992 66.8246 92.5286 67.1605 91.7036 67.2077C90.7656 67.2611 89.8283 67.3001 88.8903 67.3458C87.9754 67.3904 85.4379 67.3212 85.1078 68.4852C85.3993 68.4704 85.6912 68.4555 85.9829 68.4407ZM185.431 26.4103C181.874 26.7224 178.15 26.674 174.619 27.2945C170.575 28.0052 166.36 28.451 162.439 29.7034C158.593 30.9322 154.671 31.7923 150.88 33.2351C147.194 34.6377 143.644 36.1299 140.173 38.0059C138.475 38.924 136.822 39.8973 135.202 40.9518C133.621 41.9813 131.889 42.8253 130.357 43.9165C128.993 44.888 127.817 45.779 126.627 46.9692C125.356 48.2417 124.12 49.5486 122.847 50.819C121.785 51.8789 122.458 54.4702 122.525 55.8807C122.618 57.8363 122.779 59.7642 123.019 61.7069C123.247 63.5582 123.482 65.5479 123.181 67.3951C123.054 68.1717 122.617 69.5132 122.826 70.2884C122.993 70.9093 124.1 71.3645 124.665 71.5668C125.356 71.8143 126.062 71.71 126.771 72.0248C127.562 72.3769 128.23 72.8157 129.071 73.0007C130.107 73.2288 131.273 73.4206 132.338 73.4276C133.323 73.4339 134.311 73.753 135.294 73.9495C136.891 74.2695 138.451 74.3691 138.351 76.2959C138.236 78.5191 137.354 80.4267 136.829 82.5371C137.539 82.5371 138.035 82.5825 138.685 82.3306C139.444 82.0368 140.254 81.9586 141.052 81.8318C142.815 81.5514 144.534 81.4615 146.308 81.2826C149.559 80.9546 152.865 80.9939 156.119 81.0286C157.766 81.0459 159.552 81.1731 161.177 81.4295C162.843 81.6926 164.569 81.8571 166.184 82.3617C167.546 82.7874 168.953 83.0774 170.343 83.4536C170.969 83.6229 171.719 83.7605 172.311 83.95C173.169 84.2248 173.627 84.8108 174.617 84.7974C174.338 82.9635 173.684 81.2622 173.289 79.4435C172.877 77.5441 172.055 75.8637 171.147 74.0718C170.742 73.2725 170.442 72.4244 170.052 71.6183C169.618 70.7217 169.007 69.979 168.483 69.1406C167.411 67.4258 166.266 65.7762 165.212 64.0491C164.293 62.5413 163.242 61.0959 162.235 59.6405C161.128 58.0403 159.59 56.8325 158.333 55.3645C157.803 54.7444 157.298 54.1682 156.704 53.5991C156.157 53.0751 155.381 51.9153 154.543 51.8611C154.062 51.8297 153.228 52.1006 152.768 52.2459C151.918 52.5151 151.016 52.6906 150.138 52.9275C149.178 53.1869 148.234 53.5245 147.271 53.771C146.886 53.8695 146.429 53.8227 146.064 53.9343C145.682 54.0513 145.377 54.3088 144.96 54.4269C142.9 55.0113 140.852 55.6746 138.777 56.2066C136.641 56.7544 134.472 57.2208 132.401 57.9968C132.007 58.1448 131.567 58.4948 131.264 58.2648C131.038 58.0931 130.892 57.6082 130.951 57.3252C131.15 56.383 132.657 56.0426 133.383 55.6644C135.327 54.6506 137.259 53.9357 139.349 53.2473C140.378 52.9086 141.404 52.5469 142.448 52.2543C143.32 52.0099 144.229 51.5963 145.121 51.4711C145.914 51.3598 146.478 51.0473 147.265 50.7706C148.425 50.3628 149.619 50.0281 150.798 49.6798C152.813 49.0842 154.949 48.8339 157.011 48.4347C161.788 47.5095 166.748 47.0463 171.623 47.1037C174.08 47.1327 176.651 47.0608 179.08 47.4651C179.665 47.5624 180.897 47.5437 181.3 48.0693C181.517 48.3514 181.4 48.7713 181.455 49.077C181.549 49.593 181.831 49.8335 182.075 50.3037C182.593 47.7596 183.189 45.2695 183.859 42.7626C184.464 40.4938 185.024 38.1839 185.833 35.9469C186.689 33.5802 187.727 31.0707 189.006 28.9046C189.269 28.4587 189.926 27.7504 189.982 27.2517C190.041 26.7371 189.32 26.3385 188.824 26.2812C187.713 26.1528 186.523 26.3727 185.431 26.4103ZM209.323 62.7624C209.684 59.2332 210.742 55.5418 210.151 51.9986C209.901 50.4987 209.706 49.0669 208.956 47.713C208.576 47.0283 208.424 46.5254 207.7 46.9291C206.967 47.3378 206.292 48.3472 205.684 48.9322C204.567 50.0075 203.398 51.1149 202.06 51.9135C201.007 52.5422 198.914 53.1383 198.122 51.778C197.367 50.4817 198.374 48.6725 199.096 47.6031C199.923 46.3794 201.49 45.2461 200.611 43.7364C200.232 43.0866 199.688 42.9163 199.116 42.4899C198.621 42.1207 198.206 41.6426 197.71 41.2669C196.275 40.178 194.701 39.7116 193.043 39.0894C192.278 38.8019 192.178 38.5315 191.735 39.1886C191.255 39.9023 190.993 40.9025 190.645 41.6917C189.95 43.2728 189.209 44.7708 188.312 46.2449C187.408 47.7327 186.606 49.2868 185.751 50.804C185.429 51.3764 185.125 51.9582 184.744 52.4955C184.536 52.7879 184.279 53.0484 184.11 53.3684C183.861 53.8417 183.972 54.273 183.817 54.7441C183.146 56.7769 182.168 53.9392 181.982 53.2758C181.769 52.5212 181.257 51.9329 180.924 51.229C180.65 50.6477 180.463 49.7839 179.8 49.5102C179.258 49.2861 178.558 49.5937 178.005 49.6237C176.987 49.6789 175.962 49.5965 174.94 49.6601C173.985 49.7196 173.031 49.8113 172.076 49.8697C171.12 49.9284 170.164 49.7668 169.221 49.8674C167.527 50.048 165.796 50.019 164.107 50.2693C162.124 50.5626 160.162 50.8756 158.173 51.1198C158.635 51.9935 159.593 52.3724 160.35 52.9958C161.027 53.553 161.563 54.196 162.244 54.7261C162.936 55.2641 163.347 56.0599 163.92 56.7065C164.48 57.3397 165 57.8707 165.491 58.5792C167.863 62.0005 170.309 65.2955 172.265 68.9932C173.256 70.8648 174.201 72.8672 174.878 74.8751C175.603 77.0288 175.959 79.3385 176.39 81.5654C176.605 82.6753 176.718 83.6122 176.482 84.7284C176.421 84.9942 176.356 85.2594 176.29 85.524C176.083 85.8407 176.16 86.0461 176.519 86.1404C176.729 86.4466 177.016 86.5614 177.034 86.9801C177.048 87.2983 176.871 87.6669 176.597 87.8463C176.068 88.1925 176.068 87.7249 175.523 87.8286C175.318 87.9392 175.114 88.0496 174.91 88.16C174.802 87.9958 174.691 87.8335 174.577 87.6735C174.229 87.3429 173.953 87.3731 173.498 87.2926C173.729 89.9516 173.361 92.3256 172.776 94.9193C172.494 96.1666 172.012 97.3874 171.768 98.6367C171.497 100.033 172.091 100.668 173.009 101.599C172.776 101.721 172.367 101.853 172.175 102.035C171.869 102.325 171.947 102.36 171.948 102.814C171.948 103.644 171.789 104.463 171.658 105.279C171.417 106.792 171.196 108.357 170.676 109.804C169.73 112.434 168.201 115.166 166.644 117.482C165.772 118.778 164.898 120.251 163.806 121.37C162.71 122.492 161.623 123.625 160.529 124.751C158.376 126.967 156.024 128.498 153.445 130.157C152.424 130.814 151.348 131.534 150.469 132.353C149.577 133.184 148.39 133.766 147.323 134.37C146.847 134.639 146.508 135.026 145.994 135.247C145.511 135.455 145.174 135.523 144.769 135.795C143.764 136.471 142.679 137.048 141.573 137.558C140.224 138.179 138.896 138.902 137.51 139.432C136.879 139.674 136.285 139.937 135.674 140.22C135.012 140.525 134.298 140.726 133.619 141.052C133.046 141.327 132.465 141.487 131.881 141.712C131.404 141.896 131.03 142.194 130.544 142.386C129.534 142.785 128.615 143 127.634 143.47C126.33 144.094 124.785 144.386 123.412 144.836C121.879 145.338 120.289 145.837 118.715 146.193C118.046 146.345 117.476 146.543 116.829 146.773C116.408 146.922 115.925 147.004 115.458 147.146C114.168 147.539 112.88 147.918 111.583 148.252C109.05 148.906 106.463 149.69 104.006 150.577C102.718 151.042 101.412 151.601 100.176 152.193C98.7796 152.862 97.2746 153.249 95.8727 153.911C93.1647 155.19 90.4657 156.507 87.789 157.851C86.3834 158.556 84.9974 159.283 83.625 160.05C83.127 160.328 82.5825 160.443 82.0877 160.716C81.4407 161.073 80.9097 161.598 80.247 161.952C77.6926 163.316 75.0856 164.601 72.7394 166.327C71.5116 167.23 70.1923 168.156 69.1312 169.255C68.7811 169.618 68.1743 170.18 68.1109 170.707C68.0175 171.486 68.105 170.769 68.3747 171.249C68.7483 171.295 68.8327 171.438 68.629 171.68C68.535 171.793 68.4145 171.851 68.2678 171.853C67.796 171.949 66.9134 171.449 66.5343 171.24C65.8772 170.877 65.5284 170.42 65.1064 169.812C64.1899 168.493 63.2957 167.162 62.3518 165.862C61.5029 164.692 60.672 163.405 59.7062 162.331C59.0512 161.603 59.0021 161.921 58.2737 162.331C57.7317 162.637 57.1022 162.767 56.5406 163.054C54.4005 164.151 52.0479 164.96 49.8529 165.724C49.353 165.898 49.0865 166.174 48.6472 166.415C48.0877 166.721 47.3789 166.871 46.7806 167.088C45.1322 167.687 43.4919 168.31 41.8552 168.94C40.5916 169.428 39.3773 169.811 38.3881 170.71C37.9944 171.068 37.5179 171.325 37.1113 171.687C36.6379 172.107 35.9977 172.792 35.4016 173.03L35.0386 173.314C34.793 173.143 34.5471 172.973 34.3008 172.803C34.0566 172.633 33.8122 172.465 33.5684 172.295C32.9563 171.87 32.3485 171.438 31.7401 171.007C30.3602 170.029 28.9715 169.061 27.6879 167.957C25.4079 165.996 23.042 164.141 20.6579 162.305C18.1557 160.378 15.7162 158.361 13.1281 156.549C10.7824 154.907 8.22308 153.521 5.9487 151.788C4.8039 150.916 3.66191 150.038 2.49302 149.193C2.4294 149.147 1.47829 148.563 1.4694 148.498C1.45256 148.379 1.76554 148.068 1.85794 147.968C2.29537 147.492 2.78004 147.069 3.21583 146.588C5.24694 144.348 7.89887 144.426 10.7019 144.321C11.973 144.273 13.3515 144.859 14.5588 145.258C16.035 145.746 17.4591 146.462 18.8851 147.081C21.8238 148.355 24.8568 149.444 27.8253 150.625C28.9925 151.089 30.1553 151.316 31.342 151.635C32.546 151.959 33.7862 151.65 35.0739 151.673C35.7422 151.685 36.374 151.724 37.047 151.686C37.4465 151.664 37.9069 151.588 38.3015 151.595C38.6213 151.6 38.9532 151.732 39.2475 151.699C40.5357 151.553 41.8964 151.348 43.225 151.181C44.5441 151.014 45.9053 150.932 47.207 150.671C47.8624 150.54 48.5092 150.355 49.1399 150.133C49.6872 149.94 50.6823 149.721 51.1315 149.33C51.5333 148.98 51.3577 148.975 51.1336 148.405C51.0449 148.179 50.9532 147.837 50.8218 147.62C50.4664 147.033 50.123 146.848 50.3298 146.114C50.694 144.819 51.9354 143.992 52.9981 143.354C55.392 141.918 57.5815 140.076 60.1022 138.857C65.2961 136.347 70.0297 133.086 75.095 130.329C80.6627 127.298 85.9296 123.742 91.5747 120.84C96.8295 118.138 102.06 115.421 107.358 112.804C109.945 111.527 112.872 110.358 115.219 108.684C113.918 108.522 112.614 108.314 111.309 108.198C110.704 108.145 110.091 108.194 109.489 108.098C108.816 107.99 108.179 107.718 107.508 107.605C106.352 107.41 105.313 107.014 104.157 106.868C102.917 106.711 101.703 106.347 100.458 106.245C97.8519 106.031 95.5003 105.07 93.2161 103.859C92.6508 103.559 92.1862 103.731 91.6444 103.527C91.346 103.415 91.029 102.967 90.6938 102.726C89.7705 102.063 88.978 101.28 88.1006 100.556C86.2559 104.696 82.6337 107.512 79.1771 110.289C77.4262 111.695 75.5258 112.887 73.757 114.267C72.3857 115.337 71.1404 116.295 69.6765 117.146C68.2709 117.962 66.9504 119.065 65.6103 120.045C64.702 120.71 63.6374 121.212 62.6716 121.789C61.8823 122.261 60.3415 122.964 60.1263 123.82C59.9502 124.519 60.2938 125.35 59.2271 125.029C58.272 124.742 57.5796 123.681 57.0234 122.934C55.5848 121.002 54.2428 119.004 52.9071 117C52.1897 118.4 50.9523 119.408 49.8084 120.447C49.1134 121.077 48.392 121.663 47.6414 122.226C47.2774 122.499 46.9092 122.767 46.5446 123.039C46.4009 123.147 46.0753 123.312 45.9822 123.464C45.7647 123.818 45.8968 123.658 45.9308 124.087C45.9836 124.758 46.2077 125.287 45.8276 125.93C45.4706 126.534 44.6924 126.792 44.1469 127.205C42.8491 128.187 41.4844 129.231 40.0447 129.998C39.7179 130.172 39.4089 130.323 39.1046 130.536C38.5965 130.891 38.6894 131.02 38.1773 130.68C37.3766 130.147 36.6849 129.262 35.9623 128.619C34.4484 127.272 32.9177 125.942 31.3672 124.638C28.4126 122.151 25.3708 119.788 22.4528 117.257C19.6799 114.852 16.7073 112.782 13.8446 110.495C13.0593 109.868 12.2837 109.228 11.5087 108.588C10.8186 108.018 9.69887 107.391 9.18846 106.662C8.44718 105.603 11.3468 104.156 12.2217 103.941C13.7302 103.57 15.6809 103.782 17.1917 104.086C18.7777 104.406 20.3927 105.474 21.8736 106.139C23.5429 106.889 25.243 107.537 26.9247 108.245C27.6746 108.56 28.4697 108.812 29.1658 109.237C29.9046 109.689 30.564 110.203 31.3495 110.582C32.2547 111.017 33.1953 111.424 34.1474 111.746C34.5787 111.892 35.043 112.039 35.4964 112.098C36.1382 112.181 36.0512 111.885 36.5843 111.72C37.0374 111.58 37.145 111.951 37.5525 112.054C37.9361 112.151 38.2229 112.053 38.5551 111.846C39.2957 111.387 39.9548 110.753 40.6957 110.274C41.3829 109.83 42.1406 109.415 42.7848 108.912C43.072 108.688 43.2844 108.381 43.5675 108.153C44.021 107.788 44.2009 107.933 44.7305 107.682C45.1635 107.476 45.5563 107.094 45.9682 106.84C46.2239 106.683 46.844 106.484 47.0089 106.229C47.4421 105.56 46.7027 105.096 46.0405 105.293C45.9413 104.715 45.432 103.344 45.6519 102.803C45.8465 102.324 46.3574 102.413 46.7871 102.16C48.4021 101.206 49.5939 99.4737 51.1048 98.3535C52.5291 97.2973 53.7857 96.0365 55.1967 94.961C56.4054 94.0396 57.7263 93.1399 58.8269 92.1462C60.1282 90.9715 61.7941 90.0576 63.2089 89.0089C64.6704 87.9259 66.0285 86.7207 67.4744 85.6253C68.8655 84.5715 70.2318 83.4707 71.6613 82.4674C72.946 81.5656 74.2926 80.7422 75.5506 79.8281C76.2398 79.3275 76.9932 78.8877 77.7799 78.5591C78.5621 78.2321 79.2463 77.8487 80.0101 77.4966C81.5279 76.797 83.5046 76.3135 85.1551 76.113C86.9698 75.8927 88.792 75.695 90.6241 75.6934C91.6 75.6926 92.5478 75.8784 93.5179 75.9373C94.4091 75.9911 95.3729 76.2166 96.2578 76.1869C96.6585 76.1736 97.0068 76.004 97.3949 76.0587C97.7188 76.1043 98.0007 76.2999 98.3483 76.3341C99.1223 76.4103 99.9006 76.3343 100.683 76.4344C102.481 76.6641 104.282 76.9916 106.084 77.1741C108.004 77.3684 109.907 77.4052 111.816 77.7327C113.683 78.0524 115.56 78.3839 117.416 78.7537C121.359 79.5397 125.343 80.3072 129.224 81.4742C130.131 81.7469 131.044 82.0063 131.916 82.3804C132.339 82.5617 132.745 82.7815 133.187 82.9172C133.819 83.1114 133.943 83.1851 134.269 82.6548C134.829 81.742 135.138 80.5348 135.545 79.5418C135.947 78.5591 136.436 77.5687 136.669 76.5425C135.991 76.4351 135.135 76.6438 134.436 76.6676C133.58 76.6971 132.734 76.6786 131.88 76.6735C130.157 76.6632 128.811 76.1544 127.181 75.6204C125.807 75.1701 123.978 74.9118 122.931 73.8807C122.369 73.328 122.182 73.2307 121.338 73.3298C120.486 73.4297 119.644 73.6019 118.784 73.6304C115.542 73.738 112.316 74.3036 109.059 74.4155C108.178 74.4456 105.975 74.8632 106.119 73.3691C106.149 73.059 106.387 72.79 106.433 72.4707C106.483 72.1284 106.397 71.7811 106.344 71.4466C106.216 70.6552 106.083 69.8644 105.956 69.0728C102.987 70.0258 99.9799 70.7979 96.9539 71.5528C95.6992 71.8658 93.6833 72.5855 92.3867 72.1909C91.1331 71.8094 91.8592 70.0433 92.2496 69.1979C89.7591 69.7663 87.1027 70.6959 84.563 70.9093C83.7904 70.9743 83.0384 71.1453 82.8585 70.2113C82.7153 69.4669 83.2529 68.5568 83.527 67.903C81.578 67.7289 79.5598 67.7455 79.9265 65.2473C80.2627 62.9551 82.1668 62.4987 84.1941 62.08C86.6964 61.5628 89.2519 61.3904 91.7705 60.972C93.9619 60.6077 96.3527 60.2017 98.5906 60.3855C99.7754 60.4826 100.967 60.5048 102.152 60.6145C102.71 60.6662 103.248 60.7528 103.789 60.9053C104.287 61.0456 104.985 61.481 105.497 61.4887C106.269 61.5008 107.199 60.4571 108.029 60.2159C109.058 59.917 110.166 59.8627 111.228 59.7895C112.432 59.7069 113.638 59.6608 114.842 59.5633C115.116 59.5411 116.153 59.6089 116.37 59.4482C116.685 59.2141 116.475 58.0131 116.453 57.5198C116.433 57.0634 116.52 56.2087 116.204 56.0297C115.907 55.8618 115.041 56.0922 114.749 56.139C113.537 56.3331 112.385 56.3109 111.178 56.2616C110.62 56.2389 110.084 56.3874 109.532 56.3142C108.94 56.2358 108.343 56.0365 107.753 55.9256C106.475 55.6854 105.31 55.3865 104.208 54.6702C103.241 54.0417 102.097 53.6162 101.557 52.5154C101.161 51.7093 101 50.1537 102.164 49.9245C101.371 48.7813 100.824 47.4971 100.404 46.1762C100.328 45.9366 100.277 45.5759 100.164 45.367C99.7612 44.6283 100.134 45.2835 99.5605 44.9881C98.9932 44.6964 98.5843 44.4655 98.1411 43.9582C97.4344 43.149 97.1368 42.1532 97.0475 41.099C96.9263 39.6672 96.6999 38.0527 96.909 36.6281C97.2709 34.1605 99.0744 32.3065 100.907 30.8141C101.902 30.0038 103.211 29.702 104.378 29.2103C105.505 28.7355 106.763 28.2377 107.949 28.1264C109.021 28.0258 110.065 27.6761 111.137 27.535C112.611 27.3409 114.086 27.4134 115.567 27.3544C116.249 27.3273 116.929 27.2311 117.607 27.1579C117.99 27.1165 118.638 27.1607 118.989 27.0089C119.563 26.76 119.253 27.2826 119.458 26.5214C119.849 25.0735 120.167 23.7156 120.758 22.3086C121.309 20.9977 121.978 19.7444 122.862 18.6237C123.691 17.5725 124.766 16.8036 125.742 15.9056C126.466 15.2403 127.287 14.6394 128.113 14.1013C128.585 13.7937 129.11 13.6274 129.571 13.3559C130.144 13.019 130.649 12.7636 131.294 12.5573C132.676 12.1147 134.048 11.6447 135.516 11.6679C137.099 11.6927 138.686 11.3243 140.227 11.7914C143.089 12.659 144.491 15.7603 144.443 18.6082C145.422 18.364 146.277 17.8939 147.314 17.8536C148.269 17.8167 149.403 17.8995 150.341 18.0768C152.161 18.4209 154.034 19.4328 155.119 20.9664C156.154 22.4291 156.309 24.371 155.673 26.0304C155.368 26.8248 154.885 27.5315 154.371 28.2026C153.994 28.6948 153.152 29.2396 153.112 29.899C160.158 27.7692 167.233 26.2679 174.521 25.2962C178.216 24.8038 181.917 25.0503 185.615 24.7689C187.195 24.6487 188.912 24.8169 190.545 24.8232C191.235 24.826 191.772 24.7301 192.272 24.2838C192.778 23.8323 193.182 23.2794 193.772 23.931C193.923 24.0973 193.954 24.4997 194.157 24.6248C194.403 24.7764 195.117 24.6723 195.411 24.6903C196.438 24.753 197.44 24.9273 198.448 25.128C200.299 25.4964 202.137 25.8688 203.965 26.3364C207.447 27.2269 210.882 28.0882 214.312 29.1453C217.813 30.2239 221.351 31.5547 224.579 33.3006C226.142 34.1462 227.704 35.2019 229.142 36.248C229.81 36.7345 230.409 37.2609 230.99 37.8475C231.611 38.4747 232.371 38.8978 232.987 39.5296C234.325 40.9039 235.658 42.3617 236.873 43.8506C237.506 44.6279 238.089 45.4477 238.653 46.2763C239.05 46.8576 240.094 47.9219 239.853 48.6728C239.726 49.0737 239.277 49.3542 238.868 49.2559C238.73 49.2232 238.618 49.0454 238.501 49.0286C238.103 48.9724 238.463 48.833 238.002 49.0204C237.083 49.393 236.791 50.1404 235.623 49.9703C233.64 49.681 231.775 48.7444 229.971 47.9277C229.456 49.8973 229.383 51.9392 228.932 53.9324C228.492 55.877 227.759 57.7315 226.874 59.5151C226.097 61.08 225.1 62.7479 223.725 63.8662C222.676 64.7196 220.087 65.7797 219.317 63.9628C218.99 63.1911 219.476 61.9921 219.614 61.1979C219.799 60.1322 220.003 59.0634 220.115 57.9869C220.205 57.1123 220.251 56.2325 220.335 55.357C220.407 54.6038 220.609 52.9867 220.185 52.3214C219.93 51.9205 219.908 52.3139 219.759 52.7142C219.579 53.1996 219.429 53.681 219.298 54.1808C219.017 55.2431 218.765 56.3125 218.5 57.3785C218.026 59.2831 217.505 61.146 216.518 62.8585C215.642 64.3792 214.409 66.0475 212.535 66.2966C211.657 66.4131 210.513 66.012 209.844 65.4208C209.092 64.7577 209.316 63.6639 209.323 62.7624Z" fill="#211814"/>
<path fill-rule="evenodd" clip-rule="evenodd" d="M166.528 140.535C167.558 140.332 168.424 139.51 169.266 138.893C170.338 138.105 171.356 137.247 172.398 136.419C174.361 134.86 176.142 133.15 177.835 131.291C181.177 127.622 183.692 122.899 184.836 118.074C185.414 115.633 186.13 112.772 185.802 110.249C185.687 109.373 185.513 109.212 184.654 109.113C184.266 109.068 183.281 108.956 182.931 109.109C182.026 109.504 181.537 111.188 181.268 112.035C180.475 114.533 180.008 117.121 179.291 119.641C178.588 122.11 177.456 124.615 176.336 126.924C173.843 132.062 170.38 136.36 166.528 140.535ZM186.959 112.17C186.343 119.166 184.4 125.832 180.045 131.466C177.975 134.144 175.54 136.474 172.901 138.591C170.177 140.776 167.394 142.834 164.302 144.464C163.48 144.898 162.656 145.331 161.823 145.744C161.361 145.974 160.195 146.819 159.663 146.685C159.236 146.578 159.125 146.248 159.058 145.818C158.909 144.854 159.535 144.373 160.168 143.754C162.712 141.267 165.264 138.771 167.643 136.126C172.34 130.901 175.868 124.644 177.83 117.893C178.434 115.815 178.973 113.713 179.625 111.649C180.023 110.392 180.586 108.154 181.906 107.527C182.614 107.191 183.439 107.518 184.183 107.316C184.882 107.127 185.344 106.742 185.939 107.388C186.984 108.523 187.03 110.748 186.959 112.17Z" fill="#211814"/>
<path fill-rule="evenodd" clip-rule="evenodd" d="M0.867869 152.538C0.346465 152.722 0.324711 152.906 0.0858818 152.369C-0.0343521 152.099 -0.00183753 151.728 0.0264666 151.448C0.0943029 150.775 0.448454 150.153 0.739448 149.557C3.47815 151.816 6.3219 153.852 9.2585 155.848C12.3991 157.982 15.3977 160.356 18.368 162.72C21.0279 164.838 23.7198 166.893 26.3518 169.037C27.6213 170.071 29.0685 170.873 30.2753 171.938C31.2505 172.8 32.8678 173.186 33.6992 174.199C32.3818 174.986 30.6229 175.62 29.163 174.939C27.5525 174.187 26.3172 173.208 24.884 172.19C24.1455 171.665 23.3776 171.189 22.6274 170.681C21.968 170.235 21.5022 169.583 20.8346 169.164C19.4316 168.284 17.9923 167.314 16.6611 166.309C15.2936 165.277 13.782 164.455 12.4627 163.358C11.1102 162.233 9.59628 161.488 8.18412 160.464C5.19137 158.294 2.55605 155.853 0.867869 152.538Z" fill="#211814"/>
<path fill-rule="evenodd" clip-rule="evenodd" d="M81.6124 37.3037C81.5752 37.5034 81.538 37.7032 81.5008 37.9032C81.5235 37.9083 83.3143 34.4487 83.611 34.0309C84.6173 32.6145 85.9267 31.4361 87.1892 30.2531C89.8634 27.7474 92.9932 25.7249 95.6138 23.1745C96.476 22.3355 98.0208 21.0641 97.6797 19.6454C97.3408 18.2354 94.4795 18.5219 93.4996 18.9299C91.9635 19.5696 90.7157 20.9076 89.571 22.0735C88.3223 23.3453 87.0636 24.6028 86.0053 26.0421C84.8643 27.5942 83.781 29.2751 83.0818 31.0763C82.2984 33.0941 81.9925 35.1823 81.6124 37.3037ZM82.2004 43.4941C80.9852 43.8688 82.5087 44.1219 82.0327 44.7713C81.5106 45.4833 80.6329 43.2894 80.5017 42.8751C79.7281 40.4276 80.0741 37.4543 80.4966 34.9694C80.7099 33.7158 80.8477 32.4417 81.1354 31.2017C81.4161 29.9925 82.0273 28.8435 82.592 27.7437C83.7225 25.543 85.2196 23.4927 86.9186 21.6983C88.6227 19.8981 90.5221 18.0969 92.7707 16.9886C94.6287 16.0733 97.5738 16.7083 98.4435 18.7076C99.3321 20.7507 98.1303 22.9762 96.709 24.4127C94.8549 26.2861 92.8348 28.1469 90.7522 29.7624C89.6821 30.5928 88.785 31.597 87.7452 32.4634C86.6386 33.3858 85.6811 34.3135 84.8629 35.5062C84.0704 36.662 83.2547 37.8169 82.7396 39.1289C82.1756 40.5656 82.2004 41.9741 82.2004 43.4941Z" fill="#211814"/>
<path fill-rule="evenodd" clip-rule="evenodd" d="M33.5932 131.598C30.8006 129.8 27.9988 128.221 25.567 125.928C23.1659 123.664 21.0682 121.11 18.3959 119.146C17.0625 118.166 15.6864 117.246 14.3767 116.234C13.1337 115.273 11.7049 114.45 10.5814 113.354C9.08383 111.893 6.28008 109.179 8.1933 107C10.568 109.825 13.8263 112.051 16.7968 114.195C19.929 116.456 22.8038 119.093 25.7749 121.556C28.6369 123.929 31.4893 126.324 34.282 128.759C35.0154 129.399 35.7227 130.071 36.4647 130.701C36.5555 130.778 37.3246 131.265 37.3246 131.394C37.3249 131.705 36.7286 131.9 36.5162 131.986C36.181 132.123 35.2743 132.462 34.8942 132.348C34.6949 132.287 34.6914 132.125 34.5478 132.029C34.4652 131.873 34.3688 131.726 34.2594 131.588C34.0371 131.592 33.8151 131.595 33.5932 131.598Z" fill="#211814"/>
<path fill-rule="evenodd" clip-rule="evenodd" d="M197.987 100.246C195.996 100.195 192.966 100.189 193.077 102.908C193.133 104.254 193.862 105.242 194.462 106.394C195.091 107.603 195.558 108.853 195.743 110.209C196.49 115.699 194.485 121.062 192.672 126.136C196.567 122.993 199.379 118.618 200.856 113.824C201.572 111.499 201.851 108.51 201.62 106.089C201.504 104.877 201.057 103.791 200.519 102.712C200.249 102.17 199.979 101.551 199.548 101.112C199.116 100.672 198.518 100.526 197.987 100.246ZM191.043 129.28C189.756 127.165 191.781 124.052 192.443 121.989C193.235 119.524 193.965 116.957 194.303 114.385C194.658 111.692 194.2 109.597 192.952 107.218C191.835 105.091 191.173 102.259 192.414 100.008C192.914 99.1023 193.652 98.9909 194.529 98.6295C195.606 98.1862 195.903 97.4363 197.224 97.5551C199.582 97.7668 200.673 100.003 201.551 101.909C203.596 106.351 203.04 112.084 201.296 116.544C200.292 119.111 199.147 121.776 197.442 123.961C196.606 125.033 195.624 125.962 194.604 126.856C193.501 127.823 192.513 128.988 191.043 129.28Z" fill="#211814"/>
<path fill-rule="evenodd" clip-rule="evenodd" d="M56.3813 52.1575C53.2726 52.7823 50.4356 54.1834 49.9376 57.6773C49.485 60.8525 51.6478 63.79 54.3037 65.2763C57.1762 66.8843 60.7755 67.1514 63.6377 65.3694C66.6508 63.4934 67.3343 59.7339 65.5004 56.7844C63.4541 53.4929 60.026 52.5215 56.3813 52.1575ZM58.3792 50.6342C62.0812 51.1767 65.5177 53.8113 66.7647 57.3596C68.0503 61.0174 66.8691 65.0389 63.4655 67.0431C56.5872 71.0939 47.394 64.3432 49.0541 56.5842C49.4756 54.6141 50.6726 53.0885 52.2988 51.935C54.0941 50.6613 56.2651 50.6267 58.3792 50.6342Z" fill="#211814"/>
<path fill-rule="evenodd" clip-rule="evenodd" d="M190.001 13.4889C185.54 11.472 181.079 9.45519 176.619 7.43834C176.436 9.46033 176.253 11.4821 176.07 13.5041C176.02 14.0512 175.818 14.7955 175.904 15.3354C175.996 15.9116 175.799 15.85 176.55 15.7682C177.511 15.6631 178.474 15.4259 179.425 15.2564C181.134 14.9513 182.952 14.8643 184.624 14.4157C185.478 14.1866 186.295 14.1579 187.162 14.0194C188.113 13.8673 189.04 13.5857 190.001 13.4889ZM174.912 17.3976C174.912 15.12 175.165 12.873 175.373 10.6058C175.561 8.56606 175.633 6.62174 176.299 4.67834C176.921 5.80794 178.643 6.2594 179.709 6.84068C181.177 7.64162 182.741 8.23133 184.244 8.96092C185.721 9.67741 187.143 10.5001 188.621 11.215C189.371 11.5775 190.132 11.9158 190.88 12.2811C191.348 12.5099 192.459 12.8781 192.75 13.3029C193.634 14.5923 190.607 14.7169 190.023 14.8306C188.271 15.1724 186.498 15.3649 184.749 15.7162C183.118 16.0442 181.485 16.3485 179.848 16.6458C178.229 16.9401 176.56 17.3976 174.912 17.3976Z" fill="#211814"/>
<path fill-rule="evenodd" clip-rule="evenodd" d="M37.3722 73.7834C39.1284 73.6007 40.8774 73.3378 42.6318 73.1642C44.2931 72.9998 45.7626 72.8248 47.2802 72.0636C45.2075 71.4386 43.1301 70.8468 41.0398 70.2821C40.0031 70.0021 38.9684 69.7057 37.927 69.4442C37.1214 69.2417 36.4192 69.1252 36.1095 68.2459C35.749 67.2222 36.7514 67.3773 37.3762 67.6374C38.2379 67.996 39.1766 68.219 40.0697 68.5172C42.0632 69.1827 44.0688 69.7949 46.0809 70.4C46.7064 70.5881 50.3308 71.2838 49.0248 72.4929C48.466 73.0105 47.219 73.2947 46.5357 73.6664C45.6592 74.1432 44.705 74.3331 43.7301 74.5228C41.698 74.9181 39.5893 75.0699 37.5322 75.4129C36.4817 75.5881 35.4314 75.7633 34.3811 75.9385C33.7656 76.0409 33.5287 76.0309 33.368 75.3446C33.251 74.8458 33.4035 74.3469 33.5158 73.8639C33.8007 72.6365 34.1177 71.4154 34.4314 70.1953C34.5507 69.7298 34.7619 67.6835 35.1771 67.4597C36.1191 66.9518 35.3923 69.7848 35.3224 70.1317C35.058 71.4402 34.7441 72.7397 34.6028 74.0676C35.528 73.9839 36.4505 73.8971 37.3722 73.7834Z" fill="#211814"/>
<path fill-rule="evenodd" clip-rule="evenodd" d="M62.2747 84.2012C62.6232 85.0763 62.0445 85.2721 61.3423 85.5752C60.4314 85.9684 59.5355 86.3834 58.608 86.7376C56.6569 87.4821 54.6917 88.1736 52.7872 89.0351C49.1547 90.6779 45.473 92.2555 41.8969 94.0145C41.0082 94.4517 40.1189 94.8873 39.2223 95.3083C38.295 95.7439 37.2316 96.4768 36.2396 96.7256C35.3743 96.9427 35.284 96.3266 35.7968 95.7591C36.4578 95.0272 37.4798 94.4807 38.31 93.972C41.7266 91.8777 45.4555 90.1729 49.1872 88.7322C53.5004 87.0667 57.8253 85.4688 62.2747 84.2012Z" fill="#211814"/>
<path fill-rule="evenodd" clip-rule="evenodd" d="M71.7589 34.5574C71.634 31.8968 71.9898 29.229 71.7776 26.5754C68.1294 29.8096 69.9268 34.8077 72.0255 38.317L71.7589 34.5574ZM73.3381 34.4054C73.3612 35.705 73.4349 37.004 73.3086 38.2971C73.176 39.6545 73.8127 40.3537 74.6426 41.3535C73.9378 42.0688 72.3205 40.4009 71.874 39.9092C70.9544 38.8968 70.2702 37.5518 69.6613 36.3361C68.3645 33.7464 67.4714 30.9738 68.5093 28.1305C68.8941 27.0767 69.3647 25.644 70.3834 25.0304C71.502 24.3567 72.3577 25.3069 72.8218 26.2842C73.9549 28.6688 73.091 31.8458 73.3381 34.4054Z" fill="#211814"/>
<path fill-rule="evenodd" clip-rule="evenodd" d="M111.986 166.658C113.668 166.791 115.325 166.922 117.007 167.029C116.717 164.723 116.427 162.417 116.136 160.111C115.163 160.336 114.19 160.561 113.216 160.786C112.756 160.893 112.05 160.921 111.643 161.151C111.491 161.186 111.338 161.221 111.186 161.256C111.182 161.556 111.179 161.855 111.176 162.154C111.165 163.04 111.139 163.925 111.102 164.81C111.087 165.18 110.958 165.723 111.046 166.091C110.889 166.462 110.989 166.62 111.348 166.564C111.56 166.595 111.773 166.627 111.986 166.658ZM110.828 168.325C109.509 167.668 109.87 165.662 109.872 164.385C109.873 163.573 109.931 162.766 109.952 161.955C109.967 161.397 109.839 160.707 110.031 160.168C110.372 159.21 112.042 159.236 112.901 159.303C113.538 159.353 114.071 159.32 114.723 159.279C115.045 159.258 115.404 159.319 115.72 159.224C115.788 159.204 116.431 158.755 116.403 158.754C117.556 158.798 117.571 161.564 117.646 162.266C117.831 163.996 117.999 165.728 118.149 167.462C118.189 167.92 118.36 168.439 117.924 168.701C117.531 168.937 116.49 168.704 116.055 168.69C114.303 168.637 112.561 168.364 110.828 168.325Z" fill="#211814"/>
<path fill-rule="evenodd" clip-rule="evenodd" d="M193.14 65.5612C193.902 66.2473 193.536 66.9551 193.286 67.8122C193.136 68.3266 192.311 70.0155 192.539 70.4967C192.802 71.0529 194.037 71.1898 194.566 71.3654C195.486 71.6714 196.411 71.9788 197.281 72.4101C197.668 72.6017 199.062 73.0419 199.323 73.3994C199.473 73.6043 199.527 73.7647 199.415 74.0288C199.217 74.4924 198.935 74.2471 198.454 74.1477C196.253 73.6929 194.07 73.1114 192.029 72.1523C191.46 73.4733 190.978 74.8223 190.497 76.1776C190.356 76.5748 190.221 77.4772 189.685 77.5416C189.032 77.6197 189.023 76.7444 189.066 76.2721C189.129 75.5825 189.487 74.8473 189.702 74.1944C189.88 73.6555 190.505 72.5334 190.428 71.9781C190.375 71.5958 190.142 71.6225 189.727 71.4723C189.335 71.3306 188.942 71.1895 188.55 71.0461C187.922 70.8162 187.296 70.5856 186.684 70.3128C186.348 70.1631 185.646 69.9881 185.403 69.6775C185.262 69.4974 185.105 68.8482 185.283 68.6686C185.699 68.2478 188.466 69.3804 189.036 69.535C189.413 69.6377 189.793 69.7161 190.159 69.8506C190.298 69.9018 190.462 70.1095 190.612 70.1172C191.248 70.1495 191.299 69.6599 191.496 69.1348C191.955 67.9144 192.453 66.6695 193.14 65.5612Z" fill="#211814"/>
<path fill-rule="evenodd" clip-rule="evenodd" d="M34.454 89.8407C34.1146 89.0087 37.7172 88.0035 38.386 87.7233C40.0182 87.04 41.767 86.6267 43.4571 86.1048C45.1191 85.5916 46.7738 85.0391 48.4084 84.4452C48.9139 84.2613 52.5541 82.4889 52.7445 82.7481C53.3754 83.6057 45.7366 86.2995 44.9923 86.5675C41.5359 87.812 37.967 88.7675 34.454 89.8407Z" fill="#211814"/>
<path fill-rule="evenodd" clip-rule="evenodd" d="M189.401 24.7726C188.467 24.782 187.12 25.0468 186.263 24.6678C187.309 24.7027 188.355 24.7378 189.401 24.7726Z" fill="#211814"/>
<path fill-rule="evenodd" clip-rule="evenodd" d="M58.3792 50.6342L56.3027 50.6267C56.9956 50.466 57.688 50.3689 58.3792 50.6342Z" fill="#211814"/>
<path fill-rule="evenodd" clip-rule="evenodd" d="M166.513 50.0795C167.003 50.077 167.493 50.0744 167.979 50.0716C167.488 50.0744 167.001 50.077 166.513 50.0795Z" fill="#211814"/>
<path fill-rule="evenodd" clip-rule="evenodd" d="M209.323 62.7624C209.319 63.2861 209.316 63.8099 209.311 64.3315C209.314 63.8071 209.318 63.2847 209.323 62.7624Z" fill="#211814"/>
<path fill-rule="evenodd" clip-rule="evenodd" d="M112.901 159.303C112.381 159.341 111.861 159.378 111.342 159.415C111.862 159.378 112.382 159.34 112.901 159.303Z" fill="#211814"/>
<path fill-rule="evenodd" clip-rule="evenodd" d="M115.832 59.4828C115.303 59.5257 114.775 59.5687 114.248 59.6115C114.776 59.5685 115.304 59.5257 115.832 59.4828Z" fill="#211814"/>
<path fill-rule="evenodd" clip-rule="evenodd" d="M170.481 49.9071C170.855 49.9064 171.228 49.9057 171.599 49.905C171.224 49.906 170.853 49.9067 170.481 49.9071Z" fill="#211814"/>
<path fill-rule="evenodd" clip-rule="evenodd" d="M95.2858 60.5048C94.8215 60.5467 94.3567 60.5886 93.8926 60.6304C94.3569 60.5886 94.8215 60.5467 95.2858 60.5048Z" fill="#211814"/>
<path fill-rule="evenodd" clip-rule="evenodd" d="M115.799 27.353C115.335 27.3558 114.87 27.3586 114.406 27.3614C114.869 27.1158 115.334 27.1792 115.799 27.353Z" fill="#211814"/>
<path fill-rule="evenodd" clip-rule="evenodd" d="M31.011 107.692C30.6245 107.671 30.3097 107.859 30.0917 107.49C30.4484 107.212 30.6542 107.533 31.011 107.692Z" fill="#211814"/>
<path fill-rule="evenodd" clip-rule="evenodd" d="M102.68 76.6712L101.474 76.5355L102.68 76.6712Z" fill="#211814"/>
<path fill-rule="evenodd" clip-rule="evenodd" d="M110.828 168.325C111.094 168.331 111.361 168.337 111.624 168.343C111.357 168.337 111.092 168.331 110.828 168.325Z" fill="#211814"/>
<path fill-rule="evenodd" clip-rule="evenodd" d="M172.717 25.531C172.302 25.5682 171.887 25.6054 171.472 25.6426C171.887 25.6052 172.302 25.5682 172.717 25.531Z" fill="#211814"/>
<path fill-rule="evenodd" clip-rule="evenodd" d="M41.1389 151.482C40.7401 151.484 40.3415 151.486 39.9429 151.487C40.3417 151.485 40.7403 151.484 41.1389 151.482Z" fill="#211814"/>
<path fill-rule="evenodd" clip-rule="evenodd" d="M9.08286 144.413C8.68029 144.414 8.27795 144.414 7.87561 144.415C8.27818 144.414 8.68029 144.414 9.08286 144.413Z" fill="#211814"/>
<path fill-rule="evenodd" clip-rule="evenodd" d="M110.797 59.815C110.388 59.8552 109.979 59.8952 109.571 59.9355C109.979 59.8952 110.388 59.8552 110.797 59.815Z" fill="#211814"/>
<path fill-rule="evenodd" clip-rule="evenodd" d="M99.3943 60.4782C98.9922 60.4319 98.5904 60.3855 98.1885 60.3392C98.5868 60.4171 99.0294 60.1095 99.3943 60.4782Z" fill="#211814"/>
<path fill-rule="evenodd" clip-rule="evenodd" d="M135.809 76.6178C136.059 76.5895 136.411 76.5018 136.669 76.5427C136.635 76.6901 135.905 76.6173 135.809 76.6178Z" fill="#211814"/>
<path fill-rule="evenodd" clip-rule="evenodd" d="M110.304 108.159C110.574 108.164 110.844 108.169 111.111 108.173C110.84 108.168 110.572 108.164 110.304 108.159Z" fill="#211814"/>
<path fill-rule="evenodd" clip-rule="evenodd" d="M85.9427 76.0367C85.5488 76.0749 85.1551 76.113 84.7612 76.1509C85.1554 76.1128 85.5488 76.0749 85.9427 76.0367Z" fill="#211814"/>
<path fill-rule="evenodd" clip-rule="evenodd" d="M41.8407 74.6943C42.0554 74.7001 42.2702 74.706 42.4821 74.7118C42.2664 74.706 42.0536 74.7001 41.8407 74.6943Z" fill="#211814"/>
<path fill-rule="evenodd" clip-rule="evenodd" d="M99.8924 76.3334C99.5555 76.3266 99.2184 76.3198 98.8818 76.3132C99.2187 76.3198 99.5555 76.3266 99.8924 76.3334Z" fill="#211814"/>
<path fill-rule="evenodd" clip-rule="evenodd" d="M37.3721 73.7834C37.0315 73.8256 36.6909 73.8674 36.3508 73.9093C36.6916 73.8672 37.0318 73.8253 37.3721 73.7834Z" fill="#211814"/>
<path fill-rule="evenodd" clip-rule="evenodd" d="M84.0914 70.8901C84.3017 70.8985 84.512 70.907 84.7197 70.9161C84.5083 70.9081 84.2999 70.8992 84.0914 70.8901Z" fill="#211814"/>
<path fill-rule="evenodd" clip-rule="evenodd" d="M100.138 106.265C100.351 106.251 100.565 106.238 100.775 106.223C100.561 106.237 100.35 106.251 100.138 106.265Z" fill="#211814"/>
<path fill-rule="evenodd" clip-rule="evenodd" d="M116.475 78.5647C116.132 78.5219 115.788 78.4791 115.445 78.4363C115.788 78.4791 116.132 78.5219 116.475 78.5647Z" fill="#211814"/>
<path fill-rule="evenodd" clip-rule="evenodd" d="M33.5933 131.598C33.8162 131.595 34.0391 131.592 34.2595 131.588C34.0358 131.591 33.8143 131.594 33.5933 131.598Z" fill="#211814"/>
<path fill-rule="evenodd" clip-rule="evenodd" d="M15.2899 103.897C14.9348 103.862 14.5797 103.826 14.2244 103.79C14.5795 103.826 14.9345 103.862 15.2899 103.897Z" fill="#211814"/>
<path fill-rule="evenodd" clip-rule="evenodd" d="M7.71315 144.462C7.36414 144.502 7.01513 144.542 6.66589 144.583C7.01537 144.542 7.36414 144.502 7.71315 144.462Z" fill="#211814"/>
<path fill-rule="evenodd" clip-rule="evenodd" d="M197.969 50.0227C197.942 50.3245 197.914 50.6262 197.886 50.9268C197.913 50.6246 197.941 50.3238 197.969 50.0227Z" fill="#211814"/>
<path fill-rule="evenodd" clip-rule="evenodd" d="M43.2248 151.181C42.8737 151.221 42.5226 151.261 42.1718 151.302C42.5229 151.261 42.874 151.221 43.2248 151.181Z" fill="#211814"/>
<path fill-rule="evenodd" clip-rule="evenodd" d="M39.7801 151.529C39.4248 151.777 39.0697 151.791 38.7141 151.53C39.0694 151.529 39.4248 151.529 39.7801 151.529Z" fill="#211814"/>
<path fill-rule="evenodd" clip-rule="evenodd" d="M33.0432 151.826C32.6987 151.826 32.3543 151.826 32.01 151.826C32.3546 151.826 32.6989 151.826 33.0432 151.826Z" fill="#211814"/>
<path fill-rule="evenodd" clip-rule="evenodd" d="M73.3381 34.4054C73.3086 34.0997 73.2791 33.7942 73.2496 33.4896C73.2791 33.7958 73.3086 34.1006 73.3381 34.4054Z" fill="#211814"/>
<path fill-rule="evenodd" clip-rule="evenodd" d="M110.965 27.5785C110.619 27.6213 110.273 27.6639 109.927 27.7064C110.273 27.6639 110.619 27.6213 110.965 27.5785Z" fill="#211814"/>
<path fill-rule="evenodd" clip-rule="evenodd" d="M112.192 27.4166C111.84 27.4559 111.488 27.4955 111.137 27.535C111.489 27.4955 111.84 27.4559 112.192 27.4166Z" fill="#211814"/>
<path fill-rule="evenodd" clip-rule="evenodd" d="M57.5492 68.1547C57.7658 68.1514 57.9824 68.1481 58.196 68.1448C57.9784 68.1481 57.7639 68.1514 57.5492 68.1547Z" fill="#211814"/>
<path fill-rule="evenodd" clip-rule="evenodd" d="M88.8936 64.7687C90.0426 64.5793 91.1913 64.5161 92.3399 64.768L88.8936 64.7687Z" fill="#211814"/>
<path fill-rule="evenodd" clip-rule="evenodd" d="M119.534 51.8454C119.773 51.2209 119.832 50.9865 120.416 50.6632C120.173 51.2702 120.135 51.5949 119.534 51.8454Z" fill="#211814"/>
<path fill-rule="evenodd" clip-rule="evenodd" d="M147.549 113.656C147.573 114.305 147.596 114.955 147.618 115.603C147.595 114.954 147.572 114.305 147.549 113.656Z" fill="#211814"/>
<path fill-rule="evenodd" clip-rule="evenodd" d="M189.213 26.2725C188.693 26.2842 188.174 26.2961 187.656 26.3078C188.177 26.2961 188.695 26.2842 189.213 26.2725Z" fill="#211814"/>
<path fill-rule="evenodd" clip-rule="evenodd" d="M119.979 125.197C119.997 125.738 120.015 126.28 120.033 126.821C120.015 126.279 119.997 125.738 119.979 125.197Z" fill="#211814"/>
<path fill-rule="evenodd" clip-rule="evenodd" d="M56.2919 107.854C56.8168 107.857 57.3419 107.861 57.8668 107.865C57.3417 107.861 56.8168 107.857 56.2919 107.854Z" fill="#211814"/>
<path fill-rule="evenodd" clip-rule="evenodd" d="M100.916 80.0471C100.6 80.0501 100.284 80.0529 99.9703 80.0569C100.288 80.0541 100.602 80.0506 100.916 80.0471Z" fill="#211814"/>
<path fill-rule="evenodd" clip-rule="evenodd" d="M99.8856 62.8393C99.6254 62.8304 99.3651 62.8216 99.1078 62.8136C99.3691 62.8227 99.6273 62.8309 99.8856 62.8393Z" fill="#211814"/>
<path fill-rule="evenodd" clip-rule="evenodd" d="M62.6847 107.69C63.0952 107.65 63.5055 107.61 63.916 107.569C63.5055 107.61 63.0952 107.65 62.6847 107.69Z" fill="#211814"/>
<path fill-rule="evenodd" clip-rule="evenodd" d="M53.7408 107.874C54.143 107.868 54.5451 107.862 54.9469 107.855C54.5451 107.862 54.143 107.868 53.7408 107.874Z" fill="#211814"/>
<path fill-rule="evenodd" clip-rule="evenodd" d="M58.0337 107.864C58.4501 107.828 58.8664 107.791 59.2831 107.755C58.8667 107.791 58.4501 107.828 58.0337 107.864Z" fill="#211814"/>
<path fill-rule="evenodd" clip-rule="evenodd" d="M59.5521 108.524C59.3451 108.523 59.138 108.521 58.9338 108.52C59.1418 108.522 59.3469 108.523 59.5521 108.524Z" fill="#211814"/>
<path fill-rule="evenodd" clip-rule="evenodd" d="M147.368 99.2206C147.399 98.9154 147.43 98.6104 147.46 98.3063C147.43 98.6118 147.399 98.9161 147.368 99.2206Z" fill="#211814"/>
<path fill-rule="evenodd" clip-rule="evenodd" d="M85.199 68.3738C85.4601 68.3961 85.7214 68.4183 85.9829 68.4407C85.6912 68.4557 85.3993 68.4704 85.1078 68.4854C85.1094 68.4255 85.1398 68.3883 85.199 68.3738Z" fill="#211814"/>
<path fill-rule="evenodd" clip-rule="evenodd" d="M152.292 119.699C152.276 119.422 152.259 119.143 152.243 118.867C152.259 119.146 152.276 119.423 152.292 119.699Z" fill="#211814"/>
<path fill-rule="evenodd" clip-rule="evenodd" d="M89.8866 67.3135C89.677 67.3177 89.4671 67.3216 89.2601 67.3256C89.4709 67.3214 89.6786 67.3174 89.8866 67.3135Z" fill="#211814"/>
<path fill-rule="evenodd" clip-rule="evenodd" d="M166.633 102.393C166.982 102.434 167.332 102.475 167.681 102.516C167.331 102.475 166.982 102.434 166.633 102.393Z" fill="#211814"/>
<path fill-rule="evenodd" clip-rule="evenodd" d="M94.05 79.3675C93.8348 79.3708 93.6199 79.3738 93.4075 79.3776C93.6234 79.3745 93.8367 79.371 94.05 79.3675Z" fill="#211814"/>
<path fill-rule="evenodd" clip-rule="evenodd" d="M81.6124 37.3036C81.8382 37.4241 81.721 37.9537 81.5009 37.9032C81.538 37.7032 81.5752 37.5034 81.6124 37.3036Z" fill="#211814"/>
<path fill-rule="evenodd" clip-rule="evenodd" d="M197.987 100.246C197.779 100.241 197.572 100.236 197.367 100.23C197.575 100.236 197.781 100.241 197.987 100.246Z" fill="#211814"/>
<path fill-rule="evenodd" clip-rule="evenodd" d="M71.7589 34.5575C71.7369 34.0908 71.7151 33.6244 71.6934 33.1591C71.7151 33.6263 71.7371 34.0917 71.7589 34.5575Z" fill="#211814"/>
<path fill-rule="evenodd" clip-rule="evenodd" d="M111.028 166.518C111.348 166.564 111.667 166.611 111.986 166.658C111.667 166.611 111.348 166.564 111.028 166.518Z" fill="#211814"/>
<path fill-rule="evenodd" clip-rule="evenodd" d="M108.917 46.3806C107.79 46.6124 106.634 46.7336 105.534 47.0749C105.259 47.16 104.359 47.6831 104.03 47.5453C103.531 47.3355 103.783 46.7972 103.994 46.51C104.557 45.7418 105.563 45.3114 106.487 45.321C107.408 45.3308 108.673 45.2971 108.917 46.3806Z" fill="#211814"/>
<path fill-rule="evenodd" clip-rule="evenodd" d="M105.787 48.4417C107.028 49.3098 107.975 49.7374 108.08 47.7863C109.424 47.9694 108.822 50.1341 107.805 50.2974C106.698 50.4749 105.959 49.3692 105.787 48.4417Z" fill="#211814"/>
</svg>
