<svg width="240" height="180" viewBox="0 0 240 180" fill="none" xmlns="http://www.w3.org/2000/svg">
<path fill-rule="evenodd" clip-rule="evenodd" d="M51.0938 107.451L51.7062 115.132L63.3441 117.898L72.2257 121.892L79.2696 128.037L82.6385 125.272L86.9262 115.747L91.8262 114.825L109.589 116.669L115.715 118.512L113.571 128.959L111.427 136.641L146.953 134.49L145.728 116.669L138.378 100.384L109.283 86.25L87.5386 89.0154L72.2257 105.915L65.4879 109.602L53.5439 108.987" fill="#F3F3F1"/>
<path fill-rule="evenodd" clip-rule="evenodd" d="M34.1473 122.75C34.1473 124.004 34.9233 123.924 35.8631 123.828C36.1835 123.795 36.5231 123.76 36.8576 123.776C37.0615 123.786 37.4056 123.846 37.8136 123.917L37.8138 123.918C39.008 124.127 40.751 124.432 41.1389 123.842C41.5099 123.276 40.9929 123.199 40.4656 123.121C40.11 123.068 39.75 123.014 39.6546 122.81C39.4013 122.265 39.8981 121.888 40.3812 121.521C40.8096 121.195 41.2275 120.877 41.1014 120.459C40.9744 120.037 40.407 120.277 39.7943 120.535C39.1144 120.822 38.3787 121.133 38.1274 120.589C37.8879 120.071 38.4389 119.591 38.9391 119.155C39.3621 118.786 39.7491 118.448 39.5909 118.147C39.2977 117.588 36.3258 119.002 35.9463 119.245C34.8727 119.932 34.0985 121.477 34.1473 122.75ZM166.869 92.9578C167.325 93.4495 167.673 94.0289 168.017 94.6035C168.362 95.1789 168.704 95.7496 169.15 96.2235C169.534 96.6314 169.974 96.7898 170.43 96.9536V96.9539C170.637 97.0279 170.847 97.1034 171.056 97.2037C171.46 97.3975 171.878 97.6078 172.308 97.8229C173.96 98.6519 175.767 99.5587 177.484 99.9154C176.217 98.433 175.414 97.0917 174.661 95.2903C174.584 95.1065 174.502 94.9197 174.419 94.731C174.21 94.2583 173.997 93.7741 173.853 93.296C173.701 92.7925 173.672 92.2736 173.643 91.7573C173.617 91.2911 173.591 90.8271 173.475 90.3782C173.41 90.1251 173.383 89.9296 173.363 89.7848L173.363 89.7841V89.7839C173.339 89.6125 173.326 89.5125 173.269 89.4717C173.189 89.414 173.025 89.4743 172.627 89.6193L172.595 89.6308L172.547 89.6486L172.495 89.6674C172.151 89.7925 171.831 90.059 171.519 90.3187C171.324 90.4816 171.132 90.6417 170.939 90.7629C170.342 91.1367 169.721 91.4322 169.101 91.7266C168.336 92.0901 167.575 92.452 166.869 92.9578ZM224.867 66.3426C224.911 66.8081 231.182 64.5698 231.801 64.1592C232.959 63.3911 234.315 59.8568 233.084 58.8091C231.975 57.8662 229.538 59.0151 227.775 59.8469C227.174 60.1303 226.651 60.3768 226.286 60.4912C223.864 61.248 221.074 61.6741 218.55 61.4163C217.406 61.2991 216.279 61.2018 215.124 61.1304C214.93 61.1184 214.705 61.0879 214.465 61.0551C213.638 60.9426 212.629 60.8051 212.053 61.3218C211.349 61.9518 211.434 63.206 211.792 63.9893C211.916 64.2595 212.065 64.4088 212.209 64.5529C212.336 64.679 212.458 64.8011 212.555 64.9966C212.582 65.0489 212.568 65.1159 212.551 65.1968C212.524 65.325 212.49 65.4881 212.597 65.6826C213.075 66.5568 214.704 68.0177 215.581 68.4628C216.422 68.8896 216.728 68.6268 217.195 68.2265C217.354 68.0911 217.53 67.9397 217.752 67.7941C219.279 66.7926 221.664 66.604 223.668 66.4455C224.088 66.4122 224.492 66.3804 224.867 66.3426ZM210.347 66.6133C208.531 68.8298 206.396 70.3708 204.157 71.9866L204.156 71.9871C203.714 72.3065 203.267 72.6286 202.818 72.9597C202.211 73.4072 201.611 73.864 201.012 74.3203L201.012 74.3205H201.012L201.011 74.3207L201.011 74.321L201.011 74.3212V74.3215C199.231 75.6764 197.455 77.0285 195.503 78.1319C195.293 78.251 195.045 78.3564 194.795 78.4633C194.132 78.7455 193.444 79.0385 193.344 79.6223C193.256 80.1302 193.86 81.2118 194.364 82.1168C194.612 82.5609 194.836 82.9624 194.943 83.2326C195.905 85.6612 196.646 88.1456 197.392 90.6475C197.496 90.9968 197.6 91.346 197.705 91.6957L197.886 91.413C200.381 87.5236 202.909 83.5828 205.965 80.0688C208.727 76.8923 211.561 73.5686 213.976 70.1458C212.514 69.2554 211.303 68.0275 210.347 66.6133ZM189.166 37.4794C186.607 37.3767 185.827 39.4657 185.08 41.4658C184.786 42.2515 184.498 43.0235 184.109 43.6434C183.347 44.8582 182.333 46.1625 181.207 47.0714C180.354 47.7597 179.331 48.1657 178.31 48.5704C177.81 48.769 177.31 48.9675 176.831 49.1986C175.514 49.8344 174.344 50.4717 173.522 51.6986C173.444 51.8154 173.356 51.9389 173.265 52.0676C172.695 52.8733 171.976 53.8889 172.386 54.8322C172.67 55.4868 173.444 56.0273 174.204 56.5579C174.743 56.9339 175.274 57.3049 175.619 57.7083C176.605 58.86 176.744 58.8267 177.855 58.5593C178.036 58.5157 178.243 58.4662 178.483 58.4144C179.34 58.2295 180.154 58.1718 181.03 58.2025C181.136 58.2061 181.319 58.24 181.53 58.2792C182.023 58.3708 182.675 58.492 182.895 58.3289C183.161 58.1315 183.078 57.5226 183.006 56.9934C182.97 56.722 182.935 56.4715 182.953 56.3079C183.03 55.574 183.291 54.8168 183.538 54.1249C184.376 51.7788 185.857 50.1152 187.401 48.382L187.402 48.3806L187.404 48.379L187.406 48.3771L187.407 48.3754C187.669 48.0815 187.933 47.7853 188.195 47.4836C189.155 46.3809 190.289 45.4404 191.423 44.5008C192.586 43.5361 193.749 42.5723 194.72 41.4349C195.778 40.1953 195.296 39.319 193.844 38.7386C193.435 38.5751 192.986 38.5026 192.539 38.4304C192.18 38.3726 191.822 38.3147 191.485 38.2101C191.219 38.1276 190.964 38.0182 190.709 37.909C190.213 37.6964 189.72 37.4857 189.166 37.4794ZM50.5746 125.002C51.0736 125.002 51.5693 124.799 52.0589 124.597C52.5874 124.38 53.1089 124.165 53.6206 124.213C53.8676 124.236 54.1453 124.47 54.4081 124.692C54.5773 124.834 54.7404 124.972 54.885 125.044C55.4095 125.307 55.9758 125.437 56.554 125.509C56.9356 125.556 57.2712 125.557 57.582 125.557C58.2973 125.558 58.8795 125.558 59.5795 126.13C60.3124 126.729 61.069 127.483 61.7726 128.185C61.9343 128.347 62.0934 128.505 62.2486 128.658C63.5356 129.929 64.657 131.448 65.757 132.937C66.172 133.499 66.5841 134.057 67.0006 134.596C68.8777 137.024 70.8272 138.951 73.3245 140.769C75.2974 142.206 77.2962 143.151 79.5181 144.201L79.7208 144.297C81.9802 145.366 84.822 146.606 87.3853 146.665C89.43 146.712 91.9859 146.056 93.8466 145.183C94.7391 144.764 95.1631 144.691 95.8915 144.566C96.0466 144.539 96.2154 144.51 96.4052 144.475C98.0269 144.174 99.8951 143.324 101.422 142.628L101.588 142.553C106.474 140.33 109.57 135.485 111.773 130.742C113.027 128.043 113.811 125.406 114.333 122.485C114.36 122.333 114.387 122.192 114.413 122.061C114.649 120.82 114.718 120.458 113.316 119.863C112.076 119.337 110.757 118.97 109.453 118.607C109.11 118.511 108.769 118.416 108.429 118.319C103.65 116.942 98.2024 116.639 93.2672 116.849C92.9731 116.861 92.678 116.882 92.3829 116.902H92.3824H92.3822H92.3817H92.3815H92.381C91.898 116.936 91.4142 116.969 90.9319 116.969C90.7739 116.968 90.5459 116.939 90.2963 116.908C89.7991 116.846 89.217 116.773 88.9331 116.892C88.2607 117.177 87.6895 118.466 87.2829 119.384L87.2827 119.384L87.2824 119.385L87.2822 119.385C87.1739 119.629 87.0774 119.847 86.9937 120.013C86.3117 121.362 85.7063 122.747 85.1011 124.13V124.131C84.5618 125.363 84.023 126.596 83.43 127.803C82.7756 129.135 81.7983 130.012 80.2538 130.033C78.7221 130.054 77.9084 129.188 76.9798 128.2C76.8595 128.072 76.737 127.941 76.6109 127.811C74.4211 125.541 71.4736 123.591 68.7553 122.012C65.8193 120.308 62.3184 118.656 58.9758 118.054C58.6299 117.992 58.2145 117.897 57.7547 117.793C55.2551 117.225 51.439 116.359 50.2952 118.717C50.3184 118.714 50.3442 118.71 50.3719 118.707L50.3777 118.706H50.378C51.1756 118.597 53.633 118.263 53.741 119.391C53.7799 119.798 53.1056 120.048 52.3299 120.336C51.4282 120.671 50.3897 121.057 50.1741 121.797C50.3417 121.784 50.5908 121.742 50.8838 121.692C52.0756 121.489 53.9974 121.162 54.1629 122.175C54.2508 122.713 53.4827 123.037 52.9516 123.261C52.8195 123.317 52.7018 123.366 52.6158 123.411C51.7615 123.861 51.247 124.327 50.5746 125.002ZM143.366 84.8859C142.701 84.4174 141.513 84.3499 140.495 84.292C140.118 84.2707 139.765 84.2505 139.47 84.2121L139.462 84.2111H139.462V84.2109C138.07 84.0288 136.716 83.8516 135.31 83.9285C134.801 83.9564 134.285 83.973 133.764 83.9899C132.27 84.0384 130.747 84.0879 129.313 84.4033C126.891 84.9356 124.598 85.7531 122.409 86.9001C122.367 86.9224 122.323 86.9449 122.279 86.9678L122.277 86.9688C121.561 87.34 120.651 87.8116 120.658 88.8159C120.663 89.6296 120.927 89.6749 121.548 89.7818C121.692 89.8066 121.856 89.8347 122.04 89.8767C124.086 90.3424 126.014 91.5009 127.873 92.6179C128.403 92.9369 128.928 93.2524 129.449 93.5475C131.941 94.9593 134.423 96.546 136.735 98.2382C141.168 101.482 143.698 106.149 145.667 111.223C146.685 113.847 147.424 116.911 147.73 119.707C147.915 121.395 147.916 123.087 147.917 124.778V124.779C147.918 126.207 147.919 127.634 148.03 129.056C148.038 129.154 148.046 129.29 148.056 129.455V129.455C148.121 130.527 148.259 132.783 148.74 133.178C149.033 133.42 150.138 133.192 150.979 133.018C151.343 132.942 151.657 132.877 151.835 132.865C153.168 132.773 154.505 132.736 155.835 132.699H155.835C156.958 132.668 158.075 132.637 159.179 132.573C161.711 132.427 164.276 132.455 166.845 132.483C169.449 132.511 172.058 132.539 174.647 132.387C177.234 132.235 179.739 131.871 182.277 131.349C182.99 131.202 183.757 131.095 184.538 130.985H184.538C186.341 130.731 188.225 130.467 189.726 129.685C193.868 127.527 196.393 122.324 196.574 117.919C196.771 113.144 196.445 107.948 195.442 103.192C195.318 102.598 195.196 102.012 195.076 101.43C194.691 99.5632 194.314 97.7371 193.842 95.8584C193.228 93.411 192.547 90.9731 191.871 88.5518L191.865 88.5311C191.78 88.229 191.696 87.9274 191.612 87.626C191.077 85.7079 190.42 83.8436 189.763 81.9811V81.9808V81.9806H189.763V81.9804V81.9801C188.814 79.2872 187.866 76.5977 187.289 73.7554C186.753 71.1105 185.992 68.3451 185.198 65.7635C184.906 64.8122 184.329 63.0047 183.648 62.2818C183.107 61.7074 182.631 61.8168 181.971 61.969C181.758 62.0179 181.526 62.0711 181.268 62.1075C180.82 62.1705 180.275 62.1625 179.71 62.1546C178.022 62.1307 176.152 62.1042 176.154 63.9454C176.154 64.7339 176.307 65.545 176.46 66.3522V66.3525V66.3527V66.3529L176.46 66.3532V66.3534V66.3539V66.3541V66.3543C176.568 66.9267 176.676 67.4972 176.729 68.0566C176.792 68.7288 176.81 69.4029 176.828 70.0767V70.0769V70.0772V70.0774V70.0776V70.0779V70.0781V70.0783V70.0786C176.853 70.9997 176.877 71.9207 177.017 72.8362C177.1 73.3753 177.19 73.9057 177.28 74.4318L177.28 74.4337C177.618 76.4118 177.945 78.3281 177.793 80.4107C177.714 81.4823 177.582 82.5379 177.449 83.5919C177.227 85.3579 177.006 87.1188 177.041 88.9399C177.047 89.2732 177.051 89.605 177.054 89.9353C177.079 92.3479 177.103 94.6811 178.26 96.9145C178.485 97.3504 178.693 97.8175 178.902 98.2856V98.2858C179.207 98.9688 179.513 99.6541 179.875 100.249C180.59 101.425 181.21 101.769 182.489 102.243C182.676 102.312 182.926 102.386 183.208 102.469C184.131 102.742 185.382 103.112 185.78 103.724C186.529 104.878 185.529 105.344 184.544 105.305C182.053 105.206 179.507 104.278 177.101 103.401L177.1 103.4L177.099 103.4L177.099 103.4L177.097 103.399L177.093 103.398C176.563 103.205 176.04 103.014 175.526 102.835C174.704 102.549 173.9 102.218 173.098 101.887L173.098 101.887C172.591 101.677 172.084 101.468 171.573 101.271C171.279 101.158 171 101.065 170.73 100.975C170.032 100.743 169.392 100.53 168.702 100.029C167.495 99.1549 166.43 98.1079 165.366 97.0607C164.37 96.0811 163.373 95.1009 162.26 94.2621C157.902 90.978 152.678 89.0175 147.205 88.4357C145.796 88.286 144.706 88.3532 143.296 88.4728C143.088 88.4904 142.88 88.5049 142.673 88.5194C142.103 88.559 141.537 88.5984 140.97 88.7034C140.814 88.7325 140.507 88.8489 140.159 88.9811C139.513 89.2265 138.724 89.5258 138.498 89.418C136.234 88.3418 142.645 85.0652 143.366 84.8859ZM51.0877 107.613C51.0884 107.602 51.0891 107.591 51.09 107.58C51.0942 107.595 51.0984 107.61 51.1024 107.625L51.0877 107.613ZM51.1788 107.881C51.1528 107.798 51.1275 107.713 51.1024 107.625C51.5641 107.992 51.9823 108.393 52.3988 108.792H52.399L52.3992 108.793C52.957 109.328 53.512 109.861 54.1655 110.305C55.5246 111.228 57.1409 111.716 58.7515 112.062C61.714 112.697 65.7631 112.538 68.5877 111.289C71.1991 110.134 72.8496 108.05 74.3023 105.631C74.5191 105.27 74.6466 104.876 74.7694 104.497C75.0338 103.68 75.2773 102.929 76.347 102.702C77.0752 102.547 77.9456 102.835 78.8288 103.126C79.5459 103.363 80.2713 103.602 80.9356 103.61C82.373 103.626 84.2372 102.971 85.4114 102.086C85.807 101.788 86.0883 101.203 86.3559 100.647V100.647C86.6313 100.074 86.8924 99.5313 87.2492 99.3614C87.5299 99.2278 87.9914 99.4256 88.3908 99.5969C88.5792 99.6775 88.7538 99.7525 88.8891 99.7837C89.6288 99.9553 90.3649 100.009 91.1072 99.8142C92.0686 99.5618 93.6305 98.868 94.3802 98.2115C94.7824 97.8595 95.0191 97.1514 95.2472 96.4699C95.4809 95.7717 95.7049 95.1016 96.0879 94.8714C96.4085 94.679 96.9607 94.8267 97.5225 94.9767C97.9517 95.0913 98.3864 95.2073 98.7279 95.1747C101.268 94.9321 103.001 93.4778 103.977 91.1472C104.05 90.9724 104.128 90.5939 104.217 90.1591V90.1589C104.395 89.294 104.618 88.207 104.943 88.0607C105.134 87.9747 106.149 88.3441 106.886 88.612C107.213 88.7308 107.484 88.8297 107.605 88.86C110.077 89.4799 113.176 90.8001 115.319 92.1389C116.962 93.1652 118.84 93.8435 120.706 94.5173L120.707 94.5175H120.707L120.707 94.5178C121.767 94.9 122.822 95.2811 123.828 95.7236C126.143 96.7417 128.401 97.964 130.538 99.2655C133.052 100.797 135.331 102.348 137.381 104.483L137.466 104.572L137.579 104.69C139.529 106.72 141.805 109.089 142.65 111.804C142.967 112.821 143.075 113.914 143.181 115V115V115V115C143.241 115.603 143.3 116.204 143.395 116.788C143.565 117.836 143.83 118.852 144.096 119.871C144.244 120.439 144.393 121.009 144.525 121.585C145.226 124.633 145.505 128.241 145.484 131.376C145.482 131.638 145.496 131.883 145.509 132.108C145.56 132.995 145.594 133.585 144.577 133.816C143.757 134.002 142.637 133.77 141.6 133.555C141.062 133.444 140.546 133.337 140.105 133.296C138.994 133.19 137.911 133.221 136.822 133.251H136.822H136.821H136.821H136.821H136.82C136.246 133.267 135.669 133.283 135.086 133.28C134.6 133.276 134.105 133.247 133.605 133.218C132.533 133.154 131.443 133.09 130.398 133.282C128.533 133.626 126.598 133.702 124.651 133.78C123.915 133.809 123.178 133.838 122.442 133.882C121.624 133.93 120.806 133.935 119.988 133.94C118.99 133.946 117.992 133.952 116.995 134.037C116.871 134.048 116.582 134.1 116.211 134.167C115.057 134.375 113.12 134.725 112.956 134.399C112.769 134.029 113.64 132.461 114.306 131.261C114.606 130.723 114.863 130.258 114.967 130.009C115.598 128.482 116.16 126.918 116.467 125.29C116.985 122.533 117.169 119.868 117.192 117.095C117.218 113.888 116.661 110.867 115.796 107.8C115.775 107.725 115.748 107.609 115.714 107.463C115.477 106.435 114.907 103.968 113.745 104.713C113.045 105.163 113.447 107.124 113.673 108.223C113.726 108.484 113.77 108.696 113.786 108.828C113.865 109.459 113.973 110.085 114.081 110.711C114.247 111.676 114.413 112.64 114.473 113.62C114.484 113.802 114.507 114.018 114.533 114.249C114.606 114.923 114.694 115.731 114.532 116.238C114.476 116.414 114.45 116.542 114.432 116.633C114.413 116.733 114.401 116.789 114.368 116.816C114.325 116.851 114.248 116.842 114.072 116.822C113.987 116.812 113.878 116.8 113.739 116.789C113.022 116.731 112.199 116.249 111.413 115.789C110.899 115.488 110.402 115.196 109.961 115.04C108.545 114.538 107.147 114.236 105.678 113.97C102.506 113.395 99.3284 113.185 96.102 113.195C95.325 113.197 94.5113 113.335 93.6994 113.472H93.6992C92.7525 113.632 91.8089 113.792 90.93 113.736C90.866 113.732 90.8032 113.728 90.7411 113.724C89.6431 113.654 88.8284 113.601 87.5705 113.836C87.7723 112.732 88.2635 111.679 88.7552 110.624C89.3142 109.426 89.8739 108.226 90.0096 106.949C90.3551 103.698 87.6506 105.897 86.7469 107.189C85.4447 109.05 84.4059 111.012 84.0769 113.314C84.0148 113.748 84.0696 114.187 84.1235 114.618C84.1828 115.091 84.2409 115.555 84.1434 115.999C84.0227 116.546 83.6281 117.15 83.2502 117.729C83.018 118.084 82.792 118.43 82.6399 118.747C81.7071 120.69 81.0577 122.726 80.4455 124.788C80.3974 124.949 80.3595 125.101 80.3248 125.239V125.239C80.1448 125.957 80.0564 126.31 79.1098 125.879C78.672 125.679 78.3284 125.291 77.9902 124.909C77.7942 124.688 77.6004 124.469 77.3909 124.29C74.6102 121.908 71.6768 119.698 68.4649 117.871C65.1094 115.963 61.8382 115.072 58.0345 114.671C57.8234 114.649 57.5784 114.629 57.3115 114.607H57.311H57.3108C55.7836 114.48 53.5402 114.294 52.8176 113.348C52.1803 112.514 51.8754 111.022 51.5993 109.67C51.4641 109.009 51.3359 108.381 51.1788 107.881ZM53.3419 106.961C52.3458 106.481 51.2126 105.935 51.09 107.58C50.9574 107.107 50.8369 106.569 50.7108 106.007C50.3623 104.452 49.9734 102.717 49.1803 101.693C48.9581 101.406 48.6856 101.319 48.4336 101.238C48.2353 101.174 48.0497 101.114 47.9114 100.964C47.5835 100.609 47.542 99.8521 47.509 99.2517V99.2514V99.2512C47.4973 99.0356 47.4865 98.8403 47.464 98.6908C47.4106 98.3348 47.3545 97.9846 47.299 97.638L47.2988 97.6368V97.6366V97.6361C47.0231 95.9149 46.7616 94.2834 46.9127 92.4768C46.9174 92.4208 46.9209 92.3236 46.9256 92.2003C46.9477 91.623 46.9913 90.4757 47.2596 90.314C47.52 90.1572 48.2569 90.3653 48.8658 90.5371V90.5374C49.1777 90.6253 49.4562 90.704 49.6198 90.7193C50.5938 90.81 51.5747 90.9354 52.5577 91.0607H52.5579C55.343 91.4163 58.1456 91.7742 60.8616 91.357C64.1597 90.8507 67.3233 89.7803 70.3641 88.4107C70.4295 88.7721 70.5996 89.0622 70.8741 89.2809C70.9699 89.14 71.0541 89.0069 71.1333 88.882C71.5507 88.2232 71.8254 87.7891 72.9066 87.6196C73.7271 87.491 74.8622 87.746 75.5426 88.2583C78.1758 90.2395 75.1734 92.1928 73.4421 93.0815C75.582 95.4354 76.2563 100.419 73.793 102.824C73.4417 103.167 73.0891 103.481 72.7399 103.793L72.7395 103.793C72.1167 104.349 71.5034 104.896 70.9231 105.581C69.9745 106.701 69.2161 107.571 67.842 107.973C67.6791 108.021 67.5113 108.071 67.3397 108.122C65.9841 108.524 64.3915 108.996 63.0689 109.065C62.097 109.116 61.0542 108.914 60.0492 108.72H60.049C59.5875 108.631 59.134 108.543 58.6988 108.482C56.9791 108.241 55.3132 107.858 53.7237 107.141C53.6004 107.085 53.4724 107.024 53.3419 106.961ZM49.2237 127.234C49.3235 127.357 49.512 127.564 49.7545 127.832C51.2065 129.431 54.6084 133.179 52.7489 133.724C51.9527 133.958 50.6909 132.651 49.8 131.728C49.5183 131.436 49.2736 131.183 49.0922 131.028C47.9231 130.034 46.6985 129.381 45.2728 128.832C41.7933 127.493 38.6452 126.29 34.856 126.846C34.313 126.925 33.7308 127.059 33.1357 127.195C31.9502 127.467 30.7125 127.75 29.6262 127.645C27.9839 127.486 28.4093 126.021 29.4363 125.203C29.7844 124.926 30.1845 124.784 30.5688 124.647C31.1981 124.422 31.7855 124.213 32.0358 123.452C32.2134 122.911 32.2301 122.308 32.247 121.697C32.2688 120.909 32.291 120.108 32.6583 119.409C33.2156 118.349 34.5293 117.25 35.5434 116.636C35.6906 116.547 35.873 116.467 36.0593 116.385C36.4322 116.221 36.8206 116.05 36.9745 115.788C37.1173 115.544 36.7092 114.431 36.4531 113.733V113.732C36.3692 113.504 36.3017 113.32 36.2749 113.225C36.1371 112.733 35.9958 112.242 35.8547 111.75C35.453 110.352 35.0506 108.95 34.7185 107.538C34.3022 105.769 34.1939 104.853 36.0572 104.211C37.5884 103.683 39.1596 103.306 40.7278 102.93C42.072 102.608 43.414 102.287 44.727 101.871C44.3871 100.986 43.5602 101.199 42.7109 101.418C42.2998 101.524 41.8835 101.632 41.5144 101.617C40.1276 101.561 38.5228 101.105 37.2021 100.679C34.204 99.711 32.164 97.2986 31.7006 94.1878C31.6577 93.9011 31.6896 93.4933 31.7227 93.0719C31.7679 92.4904 31.8152 91.8834 31.6713 91.5335C31.5073 91.1343 31.1332 90.8789 30.7573 90.622C30.5963 90.5121 30.435 90.4019 30.2897 90.28C29.0412 89.2336 27.9354 87.7971 27.2618 86.3102C26.5868 84.82 26.5397 83.1461 26.932 81.5735C26.9637 81.4462 26.9935 81.3351 27.0199 81.2355C27.1746 80.6568 27.2252 80.4675 26.9646 79.7686C26.8001 79.3275 26.587 78.9089 26.3735 78.4891C26.1284 78.007 25.8823 77.5235 25.7079 77.0029C25.1738 75.4075 24.8824 73.6877 24.9115 72.003C24.9333 70.7571 25.2701 69.9642 25.6411 69.0909C25.8328 68.6395 26.0334 68.1668 26.2045 67.5989C26.4417 66.8121 26.3433 65.8453 26.2456 64.8829C26.1799 64.2368 26.1143 63.5925 26.1509 63.0063C26.2667 61.1388 26.7448 59.6383 27.57 57.9761C28.838 55.4222 30.8459 52.6844 33.4596 51.3452C33.6975 51.2231 34.0064 51.154 34.3153 51.0848C34.6767 51.0037 35.0386 50.9229 35.2875 50.7567C35.7443 50.4522 35.8659 50.0327 36.0099 49.5361C36.0469 49.4088 36.0851 49.2766 36.1308 49.14C36.6666 47.5418 37.3355 46.2471 38.494 45.0251C42.2515 41.0625 48.8356 39.659 54.1158 39.9935C54.4561 40.0151 54.7906 40.0868 55.121 40.1576C55.7119 40.2841 56.2903 40.4079 56.8669 40.2389C57.206 40.1393 57.5564 39.9011 57.9089 39.6619C58.2033 39.4617 58.4991 39.2608 58.7911 39.1385C59.6037 38.7986 60.4177 38.5997 61.2919 38.5127C63.0183 38.3407 64.4224 38.5226 66.0136 39.1054C66.4852 39.2784 66.9408 39.4636 67.4013 39.6508L67.4018 39.6511C67.5279 39.7024 67.6545 39.7537 67.7817 39.8051C68.4959 40.0936 68.6332 40.0568 69.0504 39.9452C69.1793 39.9108 69.3349 39.869 69.5423 39.8278C71.2945 39.4788 72.3012 39.7371 73.8537 40.4847C74.0051 40.5576 74.1886 40.6237 74.378 40.6917H74.3782C74.7063 40.8098 75.052 40.934 75.2775 41.1108C75.506 41.2903 75.6731 41.636 75.84 41.981C76.0406 42.3958 76.2408 42.8097 76.5469 42.9321C76.7466 43.0122 77.2137 42.8519 77.629 42.7097C77.8608 42.6302 78.0764 42.5564 78.2201 42.5329C78.6905 42.4563 79.1543 42.4755 79.6193 42.4947C79.8537 42.5044 80.0883 42.5142 80.3243 42.5116C81.5705 42.498 82.8879 42.5444 84.0258 43.1336C84.7392 43.503 85.5736 44.1579 86.2589 44.6958C86.397 44.804 86.5289 44.9076 86.6524 45.003C87.0474 45.3079 87.3851 45.7179 87.7242 46.1299C88.2624 46.7833 88.8047 47.4419 89.5868 47.6953C89.846 47.7792 90.116 47.7754 90.3874 47.7717C90.6387 47.7684 90.8911 47.7649 91.1363 47.8312C91.8009 48.0108 92.4392 48.4922 92.9775 48.9173C93.364 49.2227 93.7256 49.6966 94.0845 50.167C94.5853 50.8233 95.0803 51.4722 95.6299 51.6454C95.9419 51.7436 96.3394 51.7425 96.7488 51.7413C97.1658 51.7399 97.5949 51.7387 97.9582 51.8423C98.8622 52.1001 99.6115 52.474 100.282 53.1579C101.56 54.4626 101.921 56.3915 101.976 58.1608C101.98 58.3083 101.955 58.5384 101.927 58.7988C101.864 59.381 101.785 60.1132 101.982 60.4057C102.116 60.6044 102.447 60.7586 102.786 60.9168C103.089 61.0577 103.398 61.2016 103.581 61.383C104.798 62.5877 105.347 64.5954 105.47 66.2458C105.575 67.6486 105.332 68.7429 105.063 69.9548C104.97 70.3699 104.875 70.7986 104.79 71.2582C104.723 71.6165 104.651 71.7872 104.613 71.875C104.593 71.9229 104.583 71.9461 104.59 71.9618C104.597 71.9768 104.619 71.9847 104.663 72.0002C104.753 72.0323 104.935 72.0968 105.26 72.3234C105.911 72.7776 106.36 73.0954 106.782 73.8084C107.664 75.2993 107.886 77.0568 107.741 78.7558C107.633 80.0128 107.211 81.0796 106.785 82.1582C106.492 82.8989 106.197 83.6449 106 84.4614C107.796 84.4614 109.704 84.8442 111.517 85.2077C111.952 85.2951 112.382 85.3814 112.804 85.4608C113.397 85.5731 113.892 85.8438 114.398 86.1203H114.398H114.399C114.577 86.2178 114.756 86.3158 114.941 86.4079C115.328 86.6001 115.653 86.6854 115.986 86.7726C116.182 86.8242 116.38 86.8762 116.595 86.9514L116.635 86.9653C117.294 87.195 117.573 87.2925 117.796 87.2189C117.96 87.1647 118.094 87.0182 118.325 86.7635C118.429 86.65 118.552 86.515 118.706 86.3571C122.597 82.3647 128.137 79.9544 133.724 80.0329C136.84 80.0763 139.854 80.4876 142.767 81.6093L142.927 81.671C144.092 82.1186 145.364 82.6073 146.388 83.3041C147.609 84.1352 147.807 84.1392 149.374 84.1718L149.454 84.1734C155.394 84.2967 161.158 87.4872 165.481 91.3542C165.804 89.1862 168.8 87.7436 170.966 86.7007C171.392 86.4958 171.785 86.3064 172.12 86.13C172.251 86.0611 172.38 85.9982 172.505 85.9373C173.047 85.6732 173.522 85.4421 173.801 84.8829C173.988 84.5071 174.06 83.8999 174.129 83.3083V83.3081C174.179 82.8855 174.228 82.4711 174.317 82.155C174.711 80.7616 175.166 79.0568 175.131 77.5872C175.079 75.4303 174.801 73.2785 174.522 71.1253C174.251 69.0316 173.98 66.9365 173.917 64.8342C173.909 64.5729 173.896 64.3038 173.882 64.0307C173.841 63.1851 173.798 62.3027 173.906 61.5011C173.935 61.2804 173.983 61.0811 174.028 60.8936C174.158 60.3543 174.265 59.9097 173.85 59.3231C173.412 58.706 172.822 58.2792 172.234 57.8531C171.392 57.243 170.552 56.6346 170.163 55.4709C169.1 52.2862 170.926 49.0296 173.42 47.1354C173.951 46.7322 174.478 46.4465 174.988 46.1693C175.859 45.6968 176.685 45.2486 177.41 44.2851C177.794 43.7744 178.157 43.229 178.52 42.6813C179.138 41.7515 179.761 40.8145 180.504 40.0265C180.863 39.6464 181.21 39.2193 181.561 38.7879H181.561V38.7876C182.179 38.0278 182.809 37.2539 183.533 36.6968C184.697 35.801 186.406 35.1956 187.796 34.77C191.133 33.7481 195.231 33.9921 197.58 36.8461C199.973 39.7558 196.447 43.8703 194.447 45.9007C193.924 46.4315 193.45 47.0069 192.975 47.5828C192.568 48.0759 192.161 48.5695 191.724 49.0357C191.28 49.5082 190.783 49.9331 190.293 50.3517H190.293C189.748 50.8176 189.212 51.2756 188.768 51.7833C188.641 51.9293 188.51 52.0774 188.378 52.2274H188.378C187.596 53.1157 186.758 54.0672 186.126 55.0413C186.006 55.2262 185.872 55.4163 185.734 55.6113C185.333 56.1773 184.905 56.7827 184.732 57.4054C184.524 58.1554 184.554 58.1683 184.713 58.2361C184.809 58.2768 184.952 58.338 185.119 58.5944C185.206 58.729 185.282 58.8391 185.349 58.9359C185.628 59.3397 185.751 59.5172 185.874 60.2986C186.023 61.2403 186.234 61.9296 186.743 62.7342C186.915 63.0061 187.089 63.2747 187.264 63.5425L187.264 63.5428L187.264 63.5437L187.265 63.5451L187.266 63.5468C187.941 64.5829 188.608 65.6079 189.077 66.7711C189.701 68.3179 190.18 69.8838 190.664 71.4665L190.664 71.4668V71.467V71.4672L190.664 71.4675V71.4677C190.79 71.8788 190.916 72.2908 191.045 72.7038C191.115 72.9267 191.178 73.1587 191.241 73.3933L191.242 73.394L191.242 73.395L191.242 73.3959C191.402 73.9837 191.566 74.5875 191.847 75.1019C192.397 76.1079 192.483 76.0422 193.276 75.4333L193.318 75.4012C193.943 74.9217 194.571 74.4354 195.2 73.9472L195.202 73.946C197.075 72.4943 198.97 71.0247 200.909 69.6663C202.393 68.6261 203.935 67.6075 205.501 66.6963C205.673 66.5965 205.876 66.4844 206.098 66.3616C207.268 65.7145 208.972 64.7725 209.425 63.7968C209.717 63.1671 209.703 62.5586 209.69 61.9624C209.671 61.1008 209.653 60.2648 210.557 59.4272C211.552 58.504 213.175 57.9921 214.472 57.7678C215.826 57.5339 217.284 57.7195 218.692 57.8983C219.191 57.9618 219.683 58.0244 220.162 58.0673C222.014 58.2328 223.825 58.0525 225.641 57.6738C226.277 57.5409 227.048 57.2702 227.88 56.9779H227.881C230.681 55.9945 234.173 54.7685 235.561 57.7399C236.177 59.0554 235.987 60.4818 235.805 61.8661C235.753 62.2565 235.702 62.6437 235.669 63.0241C235.54 64.5307 235.097 66.1303 234.159 67.3697C233.266 68.5488 232.034 68.7975 230.708 69.0649H230.708C230.442 69.1186 230.172 69.1729 229.901 69.236C228.923 69.4622 227.932 69.615 226.941 69.768C225.988 69.9152 225.035 70.0622 224.093 70.2745C223.147 70.4878 222.214 70.5916 221.242 70.6364C220.843 70.6549 220.362 70.5902 219.886 70.526C219.33 70.4512 218.78 70.3772 218.372 70.4367C217.953 70.4976 217.861 70.6769 217.758 70.878C217.684 71.0229 217.604 71.1787 217.393 71.3104C217.285 71.3775 217.119 71.3843 216.967 71.3901C216.829 71.3957 216.703 71.4007 216.642 71.4496C216.322 71.7068 216.21 71.9339 215.998 72.359L215.995 72.3654L215.993 72.3693L215.99 72.3757L215.958 72.4411L215.933 72.4893C215.287 73.7793 214.379 75.0431 213.508 76.2541C213.282 76.5689 213.059 76.8799 212.843 77.1869C212.776 77.2814 212.709 77.3775 212.641 77.475L212.585 77.5561C212.531 77.6325 212.478 77.7096 212.424 77.7874C211.645 78.9068 210.78 80.1499 209.905 81.0954C208.492 82.6204 207.106 84.2451 205.72 85.8698L205.719 85.8705C204.949 86.7733 204.179 87.6761 203.404 88.5616C202.301 89.823 200.978 91.165 199.695 92.2493C199.559 92.3646 199.375 92.4759 199.184 92.5914V92.5917C198.82 92.8115 198.43 93.0466 198.298 93.3539C198.089 93.8378 198.443 94.7428 198.724 95.46C198.831 95.7328 198.927 95.9786 198.977 96.1635C199.187 96.9314 199.309 97.7114 199.431 98.489C199.563 99.3283 199.694 100.165 199.934 100.981C200.376 102.485 200.537 104.124 200.635 105.692C200.704 106.796 200.798 107.883 200.893 108.963V108.964V108.965C201.1 111.349 201.305 113.7 201.227 116.14C201.129 119.197 201.017 122.128 199.955 125.13C198.989 127.862 196.094 130.836 193.402 131.842C191.8 132.442 190.311 132.986 188.698 133.311L188.398 133.372C186.896 133.674 185.329 133.989 183.846 134.413C180.912 135.251 177.82 135.836 174.773 136.123C170.873 136.491 166.804 136.526 162.914 136.391C161.141 136.329 159.317 136.325 157.567 136.331C156.354 136.334 155.188 136.495 154.006 136.659C153.421 136.739 152.831 136.821 152.23 136.884C149.011 137.221 145.7 137.253 142.389 137.284C139.119 137.315 135.85 137.346 132.671 137.672C131.61 137.781 130.55 137.924 129.488 138.066H129.487H129.487C127.384 138.35 125.274 138.633 123.138 138.658C121.525 138.677 119.899 138.625 118.286 138.574C117.02 138.534 115.761 138.494 114.523 138.489C114.329 138.488 114.141 138.491 113.956 138.493C113.287 138.503 112.658 138.512 111.96 138.351C111.824 138.32 111.672 138.263 111.514 138.203L111.514 138.203C111.123 138.055 110.69 137.892 110.352 138.065C110.068 138.21 109.831 138.676 109.627 139.077C109.534 139.261 109.448 139.43 109.367 139.55C108.805 140.381 108.12 141.049 107.396 141.738C104.525 144.475 101.679 145.397 97.9109 146.4C96.1807 146.86 95.3266 147.101 93.874 148.155C92.6909 149.013 91.4934 149.63 90.1315 150.136C87.4601 151.128 84.3099 150.361 81.7992 149.5C81.4191 149.369 81.0331 149.243 80.644 149.115C79.7881 148.834 78.9176 148.549 78.0638 148.209C77.1975 147.864 76.4088 147.402 75.6213 146.941C74.8711 146.501 74.122 146.063 73.3083 145.727C73.429 146.849 72.7055 147.501 72.008 148.13C71.5997 148.498 71.2006 148.857 70.9845 149.299C70.7979 149.68 70.7592 150.168 70.7194 150.67C70.6786 151.186 70.6367 151.715 70.4323 152.157C70.0582 152.967 69.48 153.733 68.5781 153.945C67.3493 154.234 65.1525 152.867 64.2893 152.069C64.0985 151.893 63.9159 151.6 63.7282 151.298C63.4444 150.843 63.1488 150.369 62.7954 150.25C62.2774 150.077 61.4674 150.539 60.7734 150.936C60.442 151.125 60.1369 151.299 59.903 151.382C56.4363 152.605 52.9233 153.183 49.2012 152.695C45.7795 152.247 42.6166 151.103 39.4184 149.946H39.4181C39.0912 149.828 38.764 149.71 38.4359 149.592C31.5094 147.105 25.4803 143.011 20.0565 138.082C19.9612 137.995 19.8524 137.911 19.7415 137.826C19.5012 137.641 19.2512 137.449 19.1089 137.203C19.0093 137.031 18.969 136.731 18.9335 136.466C18.9041 136.247 18.878 136.052 18.8243 135.973C18.5348 135.545 18.1273 135.53 17.6251 135.511H17.6248C17.514 135.507 17.3985 135.502 17.2787 135.493C15.2309 135.339 13.6043 134.844 12.0171 133.472C9.5189 131.312 8.59478 126.276 12.4243 124.938C13.4032 124.596 14.4806 124.528 15.4926 124.739C15.6612 124.774 16.015 124.949 16.4031 125.14H16.4032C16.9757 125.422 17.6228 125.741 17.8592 125.704C18.2875 125.635 18.3514 125.223 18.4104 124.842C18.4343 124.688 18.4573 124.54 18.5033 124.42C18.9084 123.373 19.4785 122.45 20.1658 121.561C21.3081 120.083 22.7 118.597 24.1284 117.394C25.5209 116.221 27.0399 115.633 28.672 115.002C28.8586 114.929 29.0466 114.857 29.2362 114.783C30.4807 114.295 32.91 113.458 34.2281 113.894C35.9449 114.462 35.1045 116.338 34.0228 116.995C33.2522 117.462 32.4045 117.792 31.5542 118.123C30.6999 118.456 29.8427 118.789 29.0583 119.265C27.7774 120.041 26.5791 121.03 25.4004 122.002C24.9893 122.341 24.5806 122.678 24.1716 123.004C23.5805 123.474 23.0262 123.996 22.4724 124.517C21.834 125.117 21.1963 125.717 20.5042 126.237C20.1615 126.494 19.6018 126.945 19.4953 127.087C19.4836 127.102 19.4802 127.153 19.4756 127.221C19.4656 127.367 19.4503 127.593 19.3344 127.715C19.3099 127.74 19.2864 127.765 19.2638 127.789L19.2052 127.851C18.9339 128.138 18.802 128.278 18.6437 128.321C18.4938 128.362 18.3203 128.317 17.9825 128.229C17.8802 128.202 17.7627 128.171 17.6263 128.138C16.2915 127.811 13.1052 127.073 12.2053 128.728C11.4122 130.186 14.5733 131.503 15.7276 131.984L15.7989 132.013C17.1279 132.568 17.6098 133.124 18.3913 134.027C18.5494 134.209 18.7197 134.406 18.9118 134.62C19.7351 135.536 20.9415 136.246 22.0948 136.925C22.5798 137.21 23.0554 137.49 23.4893 137.777C25.8804 139.361 28.4956 140.598 31.0934 141.826L31.0941 141.826L31.0952 141.827C31.9371 142.225 32.7771 142.622 33.607 143.03C36.8878 144.642 40.4131 145.805 43.8331 146.933L43.8938 146.953C45.9699 147.638 48.458 148.373 50.637 148.584C52.8326 148.797 54.8916 148.439 57.0457 148.02C57.907 147.852 58.5574 147.724 59.4584 147.406C59.6058 147.354 59.7879 147.318 59.9747 147.282C60.2958 147.219 60.6312 147.153 60.8325 146.996C61.1808 146.726 61.1813 146.493 61.1822 146.15C61.1824 146.007 61.1827 145.844 61.2084 145.651C61.5244 143.278 62.9384 145.051 63.9188 146.28C64.1257 146.54 64.3134 146.775 64.4674 146.942C64.6078 147.094 64.7475 147.254 64.8891 147.415L64.8895 147.415C65.4345 148.036 66.0035 148.685 66.7151 149.056C67.8382 149.642 68.0332 149.366 68.4014 148.4C68.4984 148.145 68.5868 147.885 68.6747 147.627C69.21 146.056 69.7165 144.57 71.9536 144.798C71.5648 144.466 71.1792 144.142 70.7979 143.823C69.1636 142.452 67.6055 141.145 66.1786 139.431C65.022 138.042 63.9155 136.584 62.8134 135.131L62.8132 135.131L62.812 135.13C62.2603 134.402 61.7095 133.676 61.1541 132.962C60.7074 132.387 60.2796 131.74 59.8442 131.082C58.9488 129.729 58.0212 128.327 56.8294 127.395C56.2695 126.957 54.5672 125.948 53.9191 125.969C53.4293 125.985 52.9671 126.397 52.4951 126.818C52.0327 127.23 51.5606 127.652 51.0436 127.717C49.8898 127.863 49.3584 127.46 49.0289 126.523C48.847 126.006 48.9933 125.447 49.1283 124.931C49.2471 124.477 49.3573 124.056 49.2281 123.726C49.1916 123.632 49.0615 123.53 48.9188 123.418C48.7613 123.294 48.5881 123.158 48.5084 123.008C48.2801 122.579 48.2637 122.015 48.3319 121.54C48.3715 121.265 48.4334 121.053 48.4913 120.855V120.855C48.5824 120.543 48.6635 120.265 48.6309 119.829C48.6103 119.555 48.5566 119.305 48.5046 119.062C48.3994 118.571 48.3002 118.108 48.4917 117.528C48.6919 116.921 49.1695 116.497 49.6364 116.082C49.8696 115.875 50.1 115.671 50.2922 115.447C51.0288 114.588 50.8259 113.907 50.5341 112.929V112.929C50.4802 112.748 50.4234 112.558 50.3688 112.355C49.9772 110.893 49.5518 109.441 49.1259 107.988C48.7369 106.66 48.3476 105.332 47.9843 103.996C47.2756 104.221 46.5731 104.457 45.8714 104.693L45.8707 104.693L45.8702 104.694H45.87L45.8684 104.694C44.839 105.041 43.8108 105.387 42.7657 105.693C42.3429 105.817 41.895 105.938 41.4366 106.062C40.0606 106.434 38.5887 106.831 37.4114 107.418C37.1897 107.529 37.0345 107.59 36.9279 107.631C36.8086 107.678 36.75 107.701 36.7266 107.743C36.7036 107.784 36.7139 107.844 36.7343 107.961C36.7538 108.075 36.7828 108.243 36.8002 108.501C36.8283 108.927 36.952 109.385 37.0732 109.832C37.1442 110.095 37.2143 110.354 37.2633 110.6C37.3231 110.9 37.3746 111.316 37.4323 111.781V111.781C37.6113 113.227 37.8502 115.154 38.58 115.6C38.8217 115.747 39.1242 115.745 39.4416 115.743C39.8911 115.739 40.3699 115.736 40.7466 116.158C41.0653 116.515 41.1399 116.967 41.2141 117.416C41.2657 117.729 41.3173 118.04 41.4509 118.317C41.5613 118.545 41.7277 118.696 41.8959 118.849C42.0361 118.976 42.1774 119.104 42.2881 119.279C42.7015 119.932 42.7432 120.501 42.7924 121.175C42.8037 121.33 42.8154 121.491 42.8323 121.659C42.8487 121.825 42.8529 122.089 42.8576 122.389C42.8691 123.114 42.8841 124.054 43.0835 124.366C43.3512 124.784 43.8056 124.853 44.272 124.924C44.4614 124.953 44.6527 124.982 44.8343 125.035C46.4187 125.496 47.8781 126.299 49.2237 127.234ZM55.5846 101.774C55.2912 102.693 53.9445 103.732 52.864 103.179C51.5203 102.492 51.3952 99.7837 51.7636 98.6278C52.3877 96.6686 52.9125 99.2383 53.0227 100.012C53.037 100.112 53.0456 100.205 53.0538 100.291C53.0876 100.65 53.1101 100.887 53.4731 101.023C53.632 101.083 53.8566 101.058 54.0935 101.032C54.3694 101.002 54.6626 100.97 54.8899 101.066C55.253 101.22 55.3137 101.322 55.4885 101.615C55.5169 101.663 55.5483 101.716 55.5846 101.774ZM47.8306 95.9451C47.7694 97.2342 49.7815 101.206 50.3827 98.3275C50.3341 97.4685 49.8963 95.9526 49.3266 95.28C48.5117 94.3188 47.8875 94.7559 47.8306 95.9451ZM53.0735 94.3907C53.0735 93.1441 53.832 92.8975 54.7781 93.7047C55.7545 94.5375 56.0735 95.9285 56.1748 97.0776C56.2849 98.3235 56.0004 98.853 54.7596 98.0524C53.6733 97.3514 53.1298 95.4846 53.0735 94.3907ZM59.5254 103.451C57.8496 103.325 55.902 106.474 57.9612 106.227C58.7379 106.178 60.2918 105.618 60.5189 104.724C60.6984 104.017 60.2079 103.503 59.5254 103.451ZM72.2569 90.7394C72.1627 89.4403 74.1628 88.7618 74.4218 90.1389C74.6658 91.439 71.787 92.7752 72.2569 90.7394ZM40.609 110.486C40.6209 108.854 38.6271 106.223 37.9146 108.884C38.0163 109.692 38.3534 111.827 39.4657 112.01C40.3566 112.156 40.6034 111.203 40.609 110.486Z" fill="#211814"/>
</svg>
