<svg width="240" height="180" viewBox="0 0 240 180" fill="none" xmlns="http://www.w3.org/2000/svg">
<path fill-rule="evenodd" clip-rule="evenodd" d="M82.0312 82.9957C82.7672 90.4258 83.5031 97.8562 84.2388 105.286C88.2455 103 92.2521 100.714 96.2585 98.4277V115.355V119.804C96.2585 120.198 96.0248 121.55 96.2585 121.891C96.4568 122.18 97.9249 122.188 98.272 122.237C100.537 122.554 102.808 122.836 105.082 123.087C111.075 123.749 117.49 124.698 123.506 123.937C128.735 123.276 133.805 121.416 138.583 119.252C140.26 118.492 141.914 117.679 143.537 116.809C143.881 116.625 145.131 116.19 145.318 115.815C145.471 115.509 145.112 114.432 145.064 114.11C144.863 112.752 144.66 111.395 144.459 110.037L141.639 91.0791L146.966 96.3982C147.383 96.8149 148.175 97.998 148.753 98.1827C149.176 98.3182 150.224 97.8989 150.643 97.8185C153.659 97.2373 156.675 96.6558 159.691 96.0748C160.394 95.9393 161.978 95.9444 162.57 95.52C162.889 95.2912 162.904 94.826 163.016 94.3851C163.752 91.503 164.488 88.6212 165.223 85.7395C165.356 85.2204 166.095 83.5837 165.907 83.0608C165.84 82.8736 165.513 82.7454 165.314 82.6233C160.762 79.8429 156.209 77.0625 151.657 74.2821C149.164 72.7591 146.67 71.2359 144.176 69.7129C143.132 69.0747 141.848 67.9251 140.665 67.5682C139.93 67.3467 138.861 67.5126 138.101 67.4908C136.556 67.4468 135.011 67.4027 133.466 67.3586C133.224 67.3519 132.376 67.1793 132.173 67.3218C132.003 67.4404 132.074 67.6057 132.018 67.8883C131.882 68.5788 131.881 69.3232 131.814 70.024C131.76 70.5862 131.867 71.6175 131.614 72.1265C131.452 72.4519 131.657 72.3222 131.438 72.4795C131.177 72.6668 130.345 72.6065 130.035 72.6424C128.52 72.8184 127.006 72.9942 125.492 73.17C123.692 73.379 121.872 73.7714 120.064 73.5907C117.322 73.3169 114.366 73.3305 111.674 72.753C110.974 72.6028 110.722 72.2086 110.182 71.6697C109.129 70.6179 108.086 69.5538 107.021 68.5132C106.499 68.0032 106.723 68.0897 106.185 68.283C105.51 68.5254 104.827 69.1104 104.216 69.4821C101.878 70.9064 99.5395 72.3309 97.2009 73.7552L82.9247 82.4515C82.6268 82.6329 82.3291 82.8143 82.0312 82.9957Z" fill="#F3F3F1"/>
<path fill-rule="evenodd" clip-rule="evenodd" d="M218.582 83.9193C215.639 95.0922 209.72 107.275 197.795 110.836C194.896 111.702 192.076 112.356 189.065 112.026C188.778 111.994 188.538 112.035 188.266 112.04C187.777 112.049 188.199 112.225 187.651 112.056C187.224 111.924 186.824 111.594 186.379 111.448C185.196 111.061 183.935 110.986 182.732 110.673C179.777 109.904 176.732 108.956 173.869 107.895C172.521 107.396 171.282 106.701 170.014 106.033C168.725 105.353 167.358 104.931 166.055 104.308C165.024 103.815 163.26 103.173 162.535 102.249C161.763 101.264 162.831 99.1657 163.137 98.118C164.176 94.5532 165.412 91.0406 166.193 87.4047C168.888 90.5285 172.629 92.463 176.502 93.7106C178.604 94.3877 180.765 94.8771 182.951 95.1834C184.935 95.4614 187.076 95.7979 189.065 95.4032C190.567 95.1051 192.452 94.4149 193.524 93.2688C193.907 92.8596 194.366 92.1096 194.152 91.5152C193.879 90.7607 193.086 91.1158 192.657 90.5528C192.283 90.0623 192.342 88.9153 192.223 88.3181C192.012 87.261 191.722 86.2331 191.369 85.2157C190.683 83.2401 189.828 81.2601 189.623 79.158C189.445 77.3343 189.86 75.6096 190.77 74.0271C191.2 73.2789 192.279 71.2436 193.333 71.3282C194.49 71.421 192.93 76.2979 192.879 77.2928C192.676 81.2364 193.206 85.4386 195.229 88.8951C196.004 90.2186 197.125 91.7596 198.779 91.9237C200.531 92.0971 201.945 90.7186 202.779 89.3235C204.814 85.9202 203.788 81.25 202.757 77.6831C201.493 73.3066 198.193 70.2902 196.106 66.3597C199.222 66.6728 200.89 68.6519 202.489 71.1628C204.249 73.927 205.619 77.2457 206.295 80.4621C206.636 82.0872 206.401 83.7189 206.403 85.36C206.403 85.9052 206.403 87.9164 207.292 87.8371C208.242 87.7525 208.568 85.4843 208.708 84.7921C209.028 83.205 209.374 81.6175 209.652 80.0226C210.144 77.2005 210.363 74.3102 210.953 71.5075C211.052 71.0339 211.25 69.7195 211.96 70.0743C212.507 70.3476 212.419 72.3806 212.439 72.8531C212.488 74.0174 212.557 75.1818 212.566 76.3474C212.58 78.075 212.236 79.8632 212.405 81.5803C212.515 82.7022 213.117 83.9418 213.864 82.4289C214.604 80.9282 214.755 79.057 215.168 77.4433C215.601 75.749 216.049 74.0299 216.969 72.525C217.224 72.1075 217.499 71.4447 218.066 71.6411C218.478 71.7841 218.782 72.761 218.91 73.1057C219.485 74.6641 219.387 76.3966 219.351 78.0278C219.307 80.0268 219.092 81.9813 218.582 83.9193ZM161.195 86.8188C161.038 86.7679 160.37 86.7046 160.204 86.6901C160.01 86.6732 160.23 86.3153 159.76 86.4171C159.851 86.6421 160.012 86.7921 160.244 86.8673C159.537 87.1064 159.016 86.516 158.533 86.44C158.071 86.3674 158.051 86.44 157.595 86.9282C157.1 86.3254 157.193 86.7014 156.786 86.7016C156.639 86.7018 156.632 86.9252 156.391 86.8985C156.181 86.875 156.159 86.5563 156.035 86.5188C155.36 86.3146 154.667 87.3417 153.902 86.4508C153.716 87.3778 151.593 86.2167 150.776 86.3796C149.919 86.55 150.289 86.857 149.597 86.3322C148.937 85.8323 149.121 86.1644 148.354 86.5736C148.372 86.564 147.921 86.8685 147.963 86.8734C147.432 86.8113 147.462 86.2624 146.79 86.2914C146.078 86.3224 145.774 86.8804 145.122 86.1937C144.981 86.7079 144.951 86.4864 144.618 86.6161C144.434 86.6596 144.273 86.6114 144.136 86.4714C144.094 86.6128 144.002 86.6995 143.86 86.7314C143.497 86.7639 142.814 86.8146 142.484 86.6395C141.988 86.3767 142.387 86.2757 142.043 85.9802C141.889 86.7951 141.552 86.6219 140.84 86.6981C140.296 86.7562 140.177 86.5896 139.658 86.5085C139.147 86.4288 138.487 86.6271 137.988 86.7114C137.783 86.7466 137.507 86.89 137.298 86.8396C137.109 86.7942 137.028 86.6477 136.915 86.6092C136.779 86.5633 136.808 86.4436 136.571 86.3854C136.408 86.3458 136.116 86.4986 135.953 86.5251C134.791 86.7138 133.675 86.7157 132.567 86.2586C133.113 87.2179 131.291 86.7 130.966 86.3027C130.56 86.9388 130.069 86.4897 129.251 86.5394C128.463 86.5872 127.277 86.8286 126.958 85.8473C126.895 86.0465 126.448 86.6257 126.27 86.714C125.754 86.97 125.692 86.5912 125.212 86.437C124.558 86.227 124.695 86.6257 124.289 86.7065C123.605 86.8436 123.235 86.3617 122.63 86.1056C122.605 86.5038 122.592 86.7487 122.247 86.9967C121.943 85.8864 120.854 87.0876 121.041 85.6038C120.627 85.8733 120.045 86.0805 119.927 86.6257C120.619 86.4351 120.001 86.8877 119.971 86.9027C119.88 86.9505 119.571 86.5167 119.499 86.4555C119.48 86.6601 119.46 86.865 119.441 87.0696C119.165 86.9318 118.906 86.6847 118.682 86.561C118.48 86.4496 118.769 86.2176 118.428 86.2017C118.249 86.193 118.061 86.5821 117.873 86.6153C117.585 86.6657 117.723 86.2523 117.602 86.2661C117.419 86.2872 117.119 86.556 116.98 86.5509C116.525 86.534 116.833 86.3219 116.485 86.2246C115.864 86.0507 115.904 86.4571 115.457 86.6036C114.435 86.9393 114.537 85.3952 113.498 86.425C113.249 86.6714 113.089 87.052 112.748 87.0307C112.042 86.9864 112.29 86.1499 112.434 85.7402C112.582 85.8133 109.855 87.2139 109.877 87.1591C109.894 86.8232 110.323 86.5642 109.94 86.2659C109.626 86.9383 109.296 86.95 108.574 87.0752C108.222 87.1361 108.153 87.2175 107.777 87.0714C107.538 86.9786 107.377 86.5966 107.139 86.5755C107.171 86.5786 106.734 86.9111 106.667 86.9409C106.273 87.1188 106.023 86.9172 105.64 86.9903C105.313 87.0527 105.184 87.3307 104.859 87.2545C104.425 87.153 104.68 86.6348 104.083 86.7794C103.879 86.8289 103.756 87.2221 103.435 87.3032C102.934 87.4303 102.319 87.1936 101.79 87.3171C101.369 87.4153 101.057 87.4567 100.689 87.4771C100.392 87.4938 100.515 87.2627 99.9678 87.5355L99.736 86.951C99.4622 87.1973 99.1885 87.4432 98.9147 87.6895C98.863 87.4687 98.8299 87.2453 98.8161 87.0189C98.4078 87.4279 97.8938 87.4978 97.3449 87.5346C96.7508 87.5744 96.308 87.7038 95.7298 87.8125C95.547 87.8467 95.0762 87.9016 94.9259 87.8376C94.948 87.847 94.6447 87.7209 94.7361 87.7448C94.6967 87.6646 94.6601 87.5831 94.6264 87.5001C94.5753 87.2695 94.4094 87.2594 94.129 87.4696C93.984 87.4474 93.7027 87.2571 93.5581 87.3039C93.1852 87.4249 93.2358 87.7141 92.8644 87.6717C92.6232 87.644 92.5001 87.2878 92.2491 87.2636C91.865 87.2268 91.5319 87.6567 91.1858 87.7504C92.2383 87.4647 89.8208 87.6864 90.5724 87.7061C90.0795 87.6932 89.5679 87.6689 89.1125 87.8896C88.8608 87.7176 89.1664 87.3717 88.9121 87.2294C88.6815 87.1003 88.6637 87.4413 88.6367 87.4488C88.7822 87.4075 88.7096 87.6977 88.564 87.7493C88.1105 87.91 87.7475 87.5013 87.724 87.0958C87.3387 87.6759 87.2305 87.4427 86.6637 87.4785C86.1048 87.5139 85.6226 87.8069 85.0634 87.8015C83.9574 87.791 83.2069 87.4066 82.8378 86.4192C84.0162 86.5628 85.2024 85.8049 86.3548 85.9835C86.7336 86.0421 86.9701 86.3266 87.3019 86.276C87.7107 86.2139 87.9962 85.7678 88.5205 85.7198C89.6766 85.6141 90.8164 85.717 91.9805 85.5398C93.3711 85.3279 94.8221 85.2025 96.226 85.3057C97.3109 85.3856 98.1894 84.9707 99.2895 84.8908C100.712 84.7872 102.146 84.7689 103.571 84.6942C105.035 84.6173 106.61 84.3836 108.07 84.4586C108.526 84.4818 108.919 84.5266 109.371 84.4994C109.562 84.4879 109.743 84.3578 109.944 84.3773C110.206 84.4026 110.318 84.6703 110.589 84.6609C111.05 84.6452 111.542 84.2655 112.09 84.2552C112.991 84.2381 113.888 84.2402 114.791 84.1889C115.586 84.1436 116.437 83.958 117.229 83.9681C117.787 83.9751 117.925 84.4507 118.25 84.4999C118.835 84.588 121.794 82.904 122.05 84.4155C123.591 83.361 125.657 84.2538 127.372 84.0557C129.575 83.8012 131.818 84.0281 134.036 83.9374C136.293 83.8453 138.614 83.9306 140.862 84.1434C141.793 84.2315 142.693 84.3142 143.627 84.2608C144.043 84.2369 144.524 84.1307 144.94 84.2266C145.041 84.25 145.813 84.7889 145.717 84.8043C146.139 84.4258 145.854 84.3703 146.596 84.3508C147.167 84.3358 147.708 84.4593 148.277 84.4931C149.297 84.5533 150.326 84.412 151.344 84.4432C152.194 84.4692 153.026 84.5946 153.88 84.6007C154.802 84.6075 155.89 84.6335 156.556 85.3762C156.486 85.143 156.416 84.9098 156.345 84.6766C157.374 84.757 158.39 85.124 159.43 84.9525C159.167 85.2044 158.9 85.4102 158.799 85.7798C159.36 85.7085 159.74 85.3171 160.33 85.3141C160.826 85.311 160.929 85.5597 161.452 85.2384C161.517 85.6321 161.581 86.0259 161.645 86.4194C162.37 86.2488 161.895 85.7083 161.948 85.221C162.537 85.398 163.036 85.1948 162.804 86.0423C162.624 86.6957 161.809 87.0178 161.195 86.8188ZM160.176 94.0975C159.924 94.8077 157.737 94.402 157.22 94.3268C156.552 94.2302 155.788 94.0767 155.173 94.0005C155.099 93.9021 155.01 93.8186 154.907 93.75C154.83 93.8578 154.732 93.9344 154.614 93.9792C154.331 94.041 154.33 94.3326 153.959 94.2682C153.942 94.6996 154.242 94.4545 154.471 94.6111C153.893 94.9989 154.157 94.5525 153.833 94.5595C153.752 94.4454 153.64 94.4006 153.496 94.4252C153.313 94.4725 153.145 94.5508 152.991 94.66C152.846 94.8128 152.722 94.8206 152.619 94.6839C152.52 94.5846 152.4 94.5232 152.257 94.5C151.687 94.5925 151.528 94.8454 150.886 94.8042C149.969 94.7451 148.977 94.9868 148.074 94.8595C147.514 94.7807 146.579 93.9016 146.325 94.7585C145.939 94.1233 145.322 93.6911 144.952 93.0421C146.677 92.9423 148.402 92.8235 150.129 92.7611C151.64 92.7068 153.294 92.8769 154.707 92.8057C156.03 92.7389 157.431 92.5926 158.783 92.4719C160.215 92.3439 160.689 92.6582 160.176 94.0975ZM115.17 94.2023C115.797 94.3757 116.393 93.9827 117.001 94.1069C117.202 94.1479 117.617 94.5135 117.709 94.5208C117.876 94.5342 118.368 94.1751 118.579 94.1271C119.913 93.8233 121.53 93.8557 122.864 94.0422C123.571 94.1409 123.679 93.8175 124.296 93.6604C124.937 93.4968 125.849 93.6227 126.524 93.5777C128.113 93.4713 129.701 93.547 131.279 93.4307C132.899 93.3114 134.511 93.247 136.132 93.1635C137.236 93.1068 139.889 92.4771 140.804 93.2967C141.559 93.9724 140.587 95.1457 139.832 95.4135C139.268 95.6132 138.997 95.1921 138.578 95.2324C138.101 95.2781 138.267 95.8418 137.842 95.3189C137.578 95.8389 135.919 95.6172 135.444 95.6517C134.408 95.7264 133.531 95.9343 132.826 94.968C132.874 95.2464 132.922 95.5253 132.969 95.804C132.035 95.3043 131.031 95.4642 130.219 95.6385C129.817 95.7248 128.584 96.3208 128.148 96.0637C127.849 95.887 128.377 95.5846 127.871 95.4337C127.606 95.3545 127.149 95.7944 126.825 95.7724C125.93 95.7107 126.184 95.1084 125.304 95.875C125.006 95.6172 124.906 95.1789 124.946 94.8032C124.307 95.3484 124.36 96.2571 123.217 96.0907C122.791 96.0288 122.713 95.5945 122.491 95.5143C122.018 95.3435 121.965 95.6505 121.555 95.8935C121.4 95.9852 121.212 96.1326 121.029 96.1511C120.655 96.1884 120.596 96.0166 120.545 96.0222C120.296 96.0496 119.982 96.1762 119.687 96.0857C119.422 96.0046 119.344 95.5368 118.877 95.6463C118.43 95.7511 118.427 96.0546 118.508 96.509C118.067 96.4633 117.8 96.2179 117.471 95.9519C117.138 96.7284 116.437 96.0853 116.049 96.7403C115.545 96.1375 115.221 96.3035 114.594 95.7147C114.625 95.9603 114.656 96.206 114.686 96.4518C114.198 96.3576 113.98 96.0128 113.563 96.4689C113.158 95.715 111.931 96.7893 111.301 96.0611C111.02 96.9834 109.16 96.7628 108.375 96.7788C107.679 96.7931 107.164 96.7361 106.484 96.8976C105.884 97.0403 105.051 97.1885 104.486 97.1231C104.117 97.0804 103.713 97.0127 103.253 97.0629C102.59 97.1346 102.017 97.4779 101.33 97.3155C100.296 97.0711 99.6619 95.7124 100.814 95.1157C101.602 94.7074 103.023 94.8585 103.89 94.7831C105.328 94.6582 106.94 94.3964 108.38 94.5154C109.503 94.6082 110.526 94.3403 111.672 94.2271C112.535 94.1421 113.949 93.9885 114.512 94.8435C114.728 94.5939 114.705 94.0736 115.17 94.2023ZM99.4292 105.906C99.2747 105.137 105.849 104.714 106.501 104.663C107.871 104.558 109.245 104.482 110.618 104.448C111.747 104.419 112.8 104.634 113.929 104.461C114.984 104.299 116.256 103.968 117.174 104.714C117.309 103.693 121.266 104.191 122.019 104.193C125.296 104.205 128.432 104.213 131.602 104.01C133.414 103.894 135.338 103.738 137.15 103.829C137.967 103.87 138.625 104.087 139.438 103.898C139.968 103.775 140.539 103.518 141.046 103.881C141.639 104.306 141.893 105.747 141.484 106.349C141.187 106.787 140.923 106.739 140.447 106.663C139.716 106.546 139.173 106.377 138.428 106.674C138.548 106.626 137.928 106.765 137.979 106.761C137.135 106.824 135.977 107.414 135.249 106.734C135.541 106.785 135.964 106.264 135.597 106.221C135.321 106.189 135.146 106.485 134.93 106.584C134.193 106.923 133.816 106.817 133.376 106.106C132.489 106.874 132.393 106.662 132.004 105.716C131.704 105.947 131.639 106.493 131.403 106.672C131.368 106.699 131.513 107.031 131.343 107.017C131.185 107.005 131.133 106.745 131.011 106.725C130.934 106.712 130.893 106.484 130.819 106.471C130.738 106.456 130.656 106.601 130.564 106.597C130.321 106.585 129.623 107.104 129.873 106.376C129.504 106.846 129.345 106.546 129.211 106.118C128.785 106.443 128.359 106.767 127.932 107.091C127.733 106.54 127.392 106.69 126.963 106.882C127.092 106.499 127.011 106.137 126.686 106.403C126.498 106.558 126.372 107.047 126.18 107.255C125.401 106.466 125.118 106.683 124.042 106.785C123.631 106.824 123.121 106.9 122.754 106.652C122.431 106.434 122.249 105.634 121.697 106.28C121.82 106.136 121.627 107.241 121.593 107.416C121.35 107.252 121.143 107.051 120.973 106.811C120.656 107.44 119.822 106.876 119.14 107.004C118.065 107.207 116.956 107.547 116.006 106.747C115.939 107.005 115.161 107.334 115.16 107.344C115.206 106.887 115.495 107.048 114.905 106.961C114.797 106.945 114.674 107.14 114.571 107.161C114.22 107.234 113.81 107.165 113.456 107.155C111.983 107.113 110.634 107.439 109.18 107.557C108.689 107.597 108.108 107.675 107.647 107.491C107.173 107.3 107.186 107.084 106.706 107.206C106.858 107.168 106.407 107.642 106.431 107.624C106.366 107.671 106.097 107.44 106.002 107.457C105.974 107.558 105.946 107.659 105.918 107.76C105.802 107.746 105.687 107.732 105.571 107.718C105.255 107.76 104.97 107.44 104.672 107.429C104.727 107.431 103.87 107.75 103.91 107.77C103.311 107.471 103.483 107.558 102.725 107.739C102.007 107.911 101.293 107.871 100.558 107.978C98.4176 108.289 99.6926 107.216 99.4292 105.906ZM97.5392 116.606C97.1368 116.035 98.2074 115.837 98.5496 115.787C99.1119 115.704 99.8581 115.869 100.233 115.78C100.804 115.644 101.355 115.32 101.997 115.232C102.808 115.121 103.625 115.103 104.439 115.034C104.711 115.01 105.046 114.917 105.31 114.933C105.703 114.956 105.867 115.164 106.184 115.166C106.724 115.169 107.391 114.827 107.945 114.765C108.654 114.684 109.371 114.647 110.083 114.611C111.585 114.537 113.071 114.568 114.572 114.566C115.257 114.565 117.08 113.855 117.421 114.651C117.896 114.048 119.113 114.13 119.791 114.112C120.987 114.082 122.17 113.966 123.364 113.911C124.387 113.863 125.529 114.082 126.533 113.929C127.087 113.844 127.27 113.667 127.898 113.747C128.364 113.806 129.075 113.56 129.475 113.669C129.455 113.663 129.975 113.985 129.812 113.996C129.991 113.984 129.981 114.109 130.178 114.053C130.437 113.981 130.318 113.655 130.854 113.539C131.691 113.359 132.807 113.568 133.676 113.521C134.519 113.477 135.361 113.457 136.206 113.461C136.594 113.463 137.075 113.37 137.453 113.446C137.638 113.483 138.032 113.725 138.189 113.7C138.634 113.631 138.86 113.322 139.462 113.341C140.144 113.363 140.757 113.353 141.435 113.301C142.092 113.251 142.197 113.157 142.522 113.703C142.845 114.245 142.934 114.951 142.34 115.319C142.726 115.294 143.2 115.81 142.746 116.096C142.465 116.272 141.902 115.874 141.566 115.902C141.152 115.938 140.827 116.157 140.376 116.171C139.902 116.185 139.421 116.304 138.954 116.313C138.467 116.323 138.099 116.105 137.637 116.198C137.231 116.28 137.188 116.613 136.699 116.32C136.456 116.175 136.415 115.636 136.084 115.631C135.639 115.624 135.816 116.198 135.561 116.464C135.492 115.643 134.858 117.002 134.607 116.005C134.374 116.336 133.514 116.799 133.098 116.533C132.718 116.291 132.844 115.743 132.686 115.348C132.422 116.058 131.716 116.794 131.78 115.502C131.437 115.924 130.509 115.857 130.742 116.597C130.462 116.591 130.396 116.192 130.161 116.162C129.957 116.136 129.796 116.292 129.765 116.29C129.876 116.299 129.432 116.447 129.425 116.448C129.726 116.387 128.559 116.283 128.757 116.285C128.486 116.283 128.155 116.504 127.838 116.504C127.549 116.503 127.262 116.389 126.977 116.357C126.239 116.272 126.392 116.435 125.929 116.667C125.757 116.752 125.714 116.898 125.47 116.88C125.29 116.866 125.222 116.632 125.202 116.63C124.949 116.604 125.136 116.519 124.743 116.558C124.698 116.636 124.653 116.713 124.608 116.791C124.466 116.973 124.282 117.018 124.056 116.927C123.474 117.052 121.545 117.593 121.734 116.591C121.438 116.736 121.143 116.88 120.847 117.025C120.721 116.218 119.115 117.288 118.756 117.342C118.296 117.411 118.253 117.235 117.818 117.141C117.74 117.124 117.582 117.382 117.399 117.345C116.921 117.249 116.836 117.202 116.754 116.683C116.414 117.32 116.131 117.035 115.514 117.14C115.377 117.163 115.29 117.432 115.094 117.385C114.953 117.352 114.949 117.094 114.851 117.06C114.764 117.03 114.777 116.826 114.648 116.797C114.5 116.764 113.994 117.178 113.85 117.242C113.523 117.386 112.986 117.624 112.667 117.553C112.273 117.465 112.448 117.172 111.891 117.206C111.012 117.257 110.645 118.005 110.098 116.826C109.851 117.298 109.883 117.427 109.486 117.582C109.193 117.697 108.451 117.577 108.065 117.563C106.418 117.502 104.798 118.064 103.164 117.917C102.446 117.852 101.84 117.708 101.116 117.826C100.354 117.949 99.6094 118.131 98.8369 118.204C98.4441 118.241 97.6233 118.354 97.4305 117.852C97.261 117.41 97.8936 117.108 97.5392 116.606ZM100.77 134.732C98.6333 136.161 96.8635 138.113 94.9013 139.766C92.9342 141.424 91.373 143.266 89.604 145.101C87.9683 146.798 86.4654 148.403 84.488 149.685C83.2367 150.496 82.1204 151.495 80.8351 152.26C79.8722 152.833 78.4137 153.586 78.8834 151.834C79.3648 150.038 80.2536 148.223 81.0254 146.545C82.1227 144.161 83.2283 141.799 84.4154 139.46C84.8616 138.581 85.1112 137.707 85.8188 137.006C86.5887 136.244 87.1278 135.25 87.9708 134.53C91.5174 131.502 96.8621 133.841 100.77 134.732ZM107.474 135.758C106.504 136.266 105.419 136.392 104.392 136.728C103.517 137.014 102.703 137.523 101.761 137.561C102.618 136.918 103.355 136.043 104.321 135.555C105.408 135.005 106.394 135.405 107.474 135.758ZM150.02 139.993C146.455 138.79 143.135 137.017 139.662 135.59C139.063 135.344 134.374 133.8 134.469 133.065C137.755 132.463 141.139 131.43 144.432 132.556C147.428 133.581 149.865 136.038 152.184 138.095C152.789 138.632 156.532 141.075 156.197 141.854C155.965 142.393 154.162 142.246 153.736 142.135C153.186 141.993 152.869 141.659 152.438 141.292C151.716 140.679 150.918 140.296 150.02 139.993ZM143.438 119.893C143.98 119.395 144.304 118.639 144.821 118.179C145.486 117.588 146.558 117.876 147.285 118.183C149.465 119.104 151.329 120.653 153.495 121.614C155.897 122.679 157.975 124.103 160.141 125.57C162.121 126.911 164.262 128.021 166.282 129.301C168.342 130.606 170.647 131.453 172.734 132.712C174.858 133.992 176.975 135.278 179.016 136.689C182.656 139.205 186.447 141.789 189.14 145.366C190.524 147.205 191.82 149.291 192.835 151.356C193.759 153.233 194.76 155.838 193.564 157.791C192.415 159.666 190.456 161.143 188.798 162.542C188.17 163.072 187.573 163.716 186.759 163.945C185.77 164.224 184.615 164.148 183.597 164.23C178.154 164.671 173.083 164.255 167.72 163.281C162.548 162.343 157.354 161.817 152.142 161.165C149.202 160.797 146.263 160.368 143.363 159.755C142.123 159.493 140.862 159.191 139.648 158.834C138.589 158.523 137.698 157.836 136.609 157.564C131.986 156.41 126.696 155.969 122.12 154.027C126.17 152.343 130.474 151.327 134.625 149.928C138.994 148.456 143.261 147.221 147.866 146.803C150.235 146.587 152.356 145.982 154.636 145.349C156.808 144.745 159.076 144.56 161.307 144.29C162.299 144.169 165.131 144.35 165.459 143.053C165.949 141.122 163.167 140.899 161.981 141.072C160.298 141.317 158.911 141.737 157.623 140.357C156.308 138.947 155.031 137.504 153.692 136.112C151.21 133.532 148.651 130.547 145.143 129.389C140.862 127.977 135.899 129.317 131.628 130.121C127.117 130.969 122.613 131.781 118.186 133.014C116.353 133.525 113.989 134.65 112.087 134.469C110.212 134.291 108.088 133.984 106.276 133.443C105.456 133.199 104.783 132.745 104.049 132.323C103.095 131.773 102.05 131.421 101.037 130.993C98.9904 130.129 96.9947 129.333 94.7862 128.994C92.9262 128.708 90.9512 128.538 89.1488 129.19C87.3805 129.83 85.8137 131.132 84.5799 132.523C83.2397 134.035 82.1321 135.729 81.0338 137.418C80.5065 138.228 79.8629 138.936 79.3165 139.728C78.8581 140.394 78.5905 141.133 78.1053 141.78C77.0194 143.227 76.2821 145.078 75.6242 146.761C74.893 148.631 74.0808 150.854 74.2555 152.888C74.3213 153.657 74.3902 154.676 74.6876 155.388C75.0659 156.295 75.6052 156.272 76.3826 156.614C77.7183 157.201 78.0929 158.825 79.819 158.509C81.4381 158.212 82.8422 156.878 84.0235 155.814C85.5631 154.428 87.0366 152.967 88.5099 151.511C90.0216 150.017 91.5113 148.36 92.7139 146.602C93.1873 145.91 93.5565 145.129 94.1159 144.499C94.8284 143.696 95.6283 143.6 96.5961 143.28C105.057 140.485 113.558 137.788 122.283 135.942C124.373 135.5 126.48 134.93 128.534 134.341C130.711 133.717 131.839 134.377 133.637 135.565C137.392 138.048 141.83 139.796 146.011 141.416C147.328 141.926 149.424 141.959 150.453 142.964C144.353 143.894 138.539 145.684 132.655 147.466C129.754 148.344 126.819 149.106 123.907 149.946C120.994 150.786 118.192 151.875 115.318 152.822C112.459 153.765 109.437 154.15 106.55 155.02C103.603 155.907 100.668 156.518 97.6426 157.058C94.588 157.603 91.5547 158.232 88.4895 158.72C87.0861 158.943 85.6829 159.175 84.2951 159.482C82.9372 159.783 81.6251 160.503 80.2604 160.67C74.1654 161.416 68.1901 163.077 62.1188 164.017C57.5858 164.718 49.6993 165.696 46.7597 161.148C43.8038 156.574 47.4303 151.239 50.6661 147.969C52.677 145.936 54.9366 144.148 57.3073 142.556C59.8447 140.853 62.2859 139.014 64.8237 137.314C70.5669 133.465 76.7944 130.327 82.9646 127.234C85.9261 125.75 88.7876 124.158 91.6686 122.529C93.0985 121.721 93.8897 123.025 95.0201 123.912C95.9091 124.609 97.5415 126.329 98.7854 125.534C98.8332 125.82 98.8812 126.106 98.929 126.393C99.2933 126.227 99.658 126.061 100.022 125.895C100.267 126.536 100.238 126.935 100.922 127.272C101.342 127.479 102.238 127.728 102.638 127.364C102.72 127.617 102.801 127.87 102.883 128.124C103.233 128.097 103.3 127.096 103.366 126.862C103.966 127.737 104.795 128.469 105.849 128.717C105.855 128.66 105.678 127.94 105.686 127.936C106.019 127.732 106.44 128.606 106.617 128.793C107.203 129.413 107.552 129.317 108.2 128.816C108.247 128.868 108.466 129.439 108.498 129.429C108.638 129.385 108.904 128.878 108.934 128.832C108.893 129.498 110.18 129.633 110.634 129.49C110.532 129.294 110.431 129.099 110.329 128.904C111.912 128.692 112.533 130.374 114.053 130.289C115.176 130.225 114.275 129.98 114.911 129.499C115.466 129.078 115.565 129.998 115.62 129.969C115.726 129.858 115.808 129.73 115.866 129.586C116.072 130.374 117.708 131.08 117.539 129.785C118.183 130.043 118.64 130.47 119.352 130.56C120.218 130.67 121.143 130.486 122.007 130.415C123.868 130.26 125.623 129.88 127.301 129.027C128.296 128.522 129.355 128.063 130.29 127.453C131.073 126.942 132.557 125.392 133.599 126.06C133.332 125.273 134.589 126.002 134.629 124.988C134.831 125.14 135.032 125.292 135.234 125.444C135.355 125.179 135.321 124.761 135.484 124.53C135.706 124.212 135.815 124.399 136.004 124.221C136.217 124.021 136.402 123.485 136.657 123.333C136.919 123.176 137.228 123.363 137.51 123.226C137.94 123.017 139.788 120.979 139.475 122.726C140.27 122.456 139.657 122.208 139.756 121.679C139.956 120.617 140.441 121.381 140.925 121.474C141.717 121.626 141.701 120.971 142.142 120.495C142.545 120.061 143.303 119.867 143.042 119.112C143.34 119.273 143.403 119.587 143.438 119.893ZM95.7153 97.2222C95.0916 97.9169 94.6245 97.62 93.9312 97.518C93.8569 97.2693 93.7301 97.2351 93.5511 97.4146C93.3455 97.5328 93.1247 97.6106 92.888 97.6476C92.3194 97.7878 91.7288 97.7282 91.1726 97.9406C91.1886 97.7543 91.3843 97.4231 91.2589 97.2339C90.6739 97.6385 90.3113 97.8958 89.5929 97.9035C89.011 97.9096 87.9894 97.465 87.5061 97.9966C87.4911 97.7896 87.4761 97.5829 87.4615 97.376C87.2248 97.4939 87.0188 97.6516 86.8437 97.8494C86.8104 97.5428 86.7922 97.3111 86.5894 97.0633C86.2048 97.8541 85.7837 97.8728 85.0367 97.5707C85.1415 97.6129 84.289 97.1132 84.3216 97.2518C84.0521 96.1162 88.3062 96.21 88.7529 96.1652C89.8683 96.0525 90.9835 95.9871 92.1005 95.8842C93.1599 95.7869 93.9507 95.6217 94.6838 96.5055C94.3571 95.2289 97.4483 95.2921 95.7153 97.2222ZM46.9386 77.4234C47.0558 79.3535 47.4854 81.405 46.7349 83.2626C46.1316 84.7558 44.9281 86.4421 43.6315 87.4167C40.9768 89.4119 38.7268 86.9704 38.3572 84.2873C37.9721 81.4886 38.7354 78.0691 41.1453 76.3436C42.5853 75.3126 43.9796 75.3841 45.6373 75.723C46.0266 75.8027 46.6587 75.772 46.8814 76.1589C46.9336 76.2494 46.8868 77.4215 46.9386 77.4234ZM82.1972 103.139C81.7386 103.371 81.2588 103.506 80.8545 103.821C80.7141 103.93 80.6663 104.18 80.5172 104.272C80.2461 104.439 79.8584 104.328 79.5758 104.467C79.108 104.695 78.7726 105.022 78.2166 105.233C77.3909 105.546 76.6669 105.975 75.8865 106.382C74.5862 107.06 73.1905 107.642 71.8311 108.194C71.1448 108.472 69.2471 109.016 69.3127 110.02C69.1592 110.062 69.0024 109.726 68.6818 109.753C68.2419 109.789 67.6606 110.298 67.2038 110.423C66.3493 110.657 65.6879 110.678 65.6879 111.767C65.416 111.582 65.3469 111.13 64.985 111.07C64.5776 111.003 64.4063 111.442 64.0805 111.579C63.6969 111.74 63.2197 111.585 62.8397 111.757C62.6736 111.933 62.4889 112.086 62.2857 112.217C62.079 112.241 61.8732 112.234 61.6686 112.198C60.8619 112.369 60.1196 112.672 59.311 112.83C58.523 112.984 57.9833 113.039 58.3147 113.971C57.4716 114.136 57.2658 113.242 56.3147 113.569C55.149 113.97 54.0594 114.259 52.8425 114.503C52.2219 114.628 51.5733 114.906 50.9483 114.972C50.5022 115.018 50.086 114.859 49.6468 114.908C49.1176 114.968 48.6922 115.213 48.1444 115.222C47.6248 115.231 47.0794 115.138 46.5692 115.046C46.6414 115.252 46.7316 115.449 46.8399 115.638C46.4872 115.564 46.3243 115.139 46.0252 115.077C45.7114 115.011 45.4301 115.335 45.1688 115.263C45.0575 115.232 45.1315 114.889 44.9326 114.824C44.7509 114.764 44.6745 114.834 44.4945 114.806C44.4345 114.797 43.6819 114.756 43.5619 114.82C43.3524 114.931 43.5645 115.139 43.5228 115.17C42.815 115.694 42.8063 115.411 42.4908 114.864C42.0275 114.06 41.4687 114.567 40.6266 114.427C39.6879 114.27 38.9485 114.684 38.0248 114.625C37.0285 114.562 35.8576 113.816 34.9765 113.381C33.0744 112.441 31.2193 111.551 29.6218 110.127C26.4987 107.343 23.9581 103.92 22.4601 100.001C20.8506 95.7907 20.5456 91.3996 20.6748 86.9329C20.7525 84.2465 20.9675 81.5618 21.3909 78.907C21.6824 77.0807 21.7435 73.8353 23.8025 73.0038C24.1564 77.2797 23.0395 81.637 23.7439 85.8853C23.956 87.165 24.4733 88.8698 25.4522 89.8176C26.9016 91.2203 27.2408 89.1925 27.3718 88.0725C27.6158 85.9919 28.069 83.9231 28.3901 81.8524C28.7108 79.7828 28.9374 77.6899 29.3832 75.6419C29.5458 74.8952 30.8569 69.427 31.8193 69.686C31.6245 73.664 31.1075 77.5736 31.0871 81.5662C31.0791 83.1677 30.9357 84.8592 31.1668 86.4501C31.2858 87.2688 32.0314 89.6711 33.3136 89.4707C34.5003 89.2853 33.1958 87.5932 33.0849 86.9407C32.7915 85.2133 33.1655 83.0643 33.439 81.3499C33.957 78.1052 35.1122 74.7822 37.0004 72.0707C38.6916 69.6428 41.2955 67.3314 44.4326 67.7596C45.7728 67.9427 46.8186 68.2755 47.4919 69.4994C48.0204 70.4599 50.1019 71.5514 48.8956 72.7539C47.7976 73.8487 46.0215 72.9724 44.8008 72.7113C43.3062 72.3918 41.7045 72.7762 40.4546 73.6521C38.3101 75.1542 37.088 77.8401 36.6891 80.3592C36.1515 83.7555 37.5886 92.6458 42.882 90.6534C46.3986 89.3296 49.0472 84.5681 48.7519 80.9226C48.6336 79.4634 48.0631 76.6931 50.082 76.2991C52.6686 75.7945 53.034 78.6457 52.7719 80.4986C52.3913 83.1937 50.9668 85.6999 49.3372 87.8308C47.9169 89.688 46.265 90.8493 44.5559 92.3833C44.0499 92.8373 42.7592 93.8582 42.976 94.7029C43.2136 95.6285 45.2419 95.8917 46.054 96.0438C50.0719 96.7959 54.6029 96.104 58.614 95.579C66.8579 94.4993 74.9933 91.8405 81.7531 86.9521C82.0261 89.9768 82.3704 92.9913 82.4972 96.0269C82.5587 97.5004 82.5744 98.9953 82.7429 100.461C82.8467 101.362 83.2215 102.622 82.1972 103.139ZM59.3384 113.678C59.0147 113.847 59.3647 112.824 59.2747 113.162C59.7582 113.336 59.7795 113.508 59.3384 113.678ZM93.5363 77.0742C94.0501 76.5079 95.4537 75.161 95.8993 76.4392C96.065 75.8943 96.0865 75.0871 96.7264 75.8231C96.9812 74.9191 99.7915 75.0037 100.488 74.9639C102.717 74.8364 104.954 74.7682 107.175 74.5467C111.739 74.0918 116.383 74.3266 120.963 74.3116C121.955 74.3083 122.945 74.2546 123.929 74.3985C124.879 74.5373 125.878 74.9268 126.846 74.7846C127.707 74.658 128.272 74.4206 129.158 74.5221C130.219 74.6437 131.248 74.7302 132.318 74.7262C137.051 74.7089 141.781 74.9006 146.514 74.9081C147.437 74.9095 148.542 74.7292 149.408 75.1211C149.728 75.2664 150.079 75.7497 150.324 75.8027C150.604 75.8634 150.438 75.4256 150.813 75.6234C151.317 75.888 150.927 76.702 150.594 76.8309C150.794 76.7538 150.235 76.6776 150.291 76.6746C150.026 76.6889 149.8 76.8921 149.515 76.8794C149.082 76.8604 148.719 76.596 148.37 76.3633C148.364 76.4585 148.556 77.092 148.336 77.1239C148.148 77.1515 147.971 76.5269 147.952 76.3816C146.893 77.3156 145.771 76.795 144.458 76.9132C143.525 76.9973 141.582 77.6189 140.932 76.646C140.905 76.8529 140.822 77.0341 140.683 77.1895C140.497 77.4724 140.337 77.4485 140.201 77.1166C140.155 77.1187 139.702 77.2171 139.693 77.2164C139.375 77.1911 138.961 77.0768 138.637 77.0491C138.136 77.0062 138.228 77.3714 137.828 77.3772C137.61 77.3803 137.054 77.0653 136.673 77.0456C136.014 77.0111 135.341 77.2907 134.691 77.2061C134.243 77.148 133.839 76.7835 133.4 76.7695C132.852 76.7512 132.675 77.1686 132.241 76.5825C132.152 76.5583 132.097 76.9031 132.062 76.9092C132.071 76.9075 131.649 76.9699 131.6 76.9893C131.513 77.0224 131.176 77.1766 131.074 77.1782C130.853 77.1825 130.733 77.024 130.498 77.0203C130.11 77.0137 128.871 77.3554 128.905 76.6373C127.52 77.1506 126.338 76.9507 124.917 77.0718C124.264 77.1278 123.855 77.0404 123.234 76.9207C122.457 76.7707 121.941 76.9591 121.166 76.9973C120.421 77.0339 120.186 76.7186 119.557 76.4341C119.309 76.3218 119.145 76.1739 118.841 76.2363C118.668 76.2719 118.791 76.5639 118.74 76.5839C118.473 76.687 118.286 76.5778 117.92 76.6028C117.243 76.6488 116.974 77.2141 116.279 76.6835C116.51 76.6556 116.741 76.627 116.972 76.5991C116.307 76.3171 115.43 76.1735 115.591 77.1998C115.024 77.1201 115.515 76.7341 115.236 76.5958C114.957 76.458 114.645 76.6889 114.294 76.803C113.367 77.1037 112.594 76.9544 111.627 76.9005C110.529 76.8391 107.959 77.7353 107.173 76.5719C107.149 76.8171 106.886 77.5 106.535 77.4679C106.421 77.4574 106.74 76.7322 106.776 76.6556C106.595 77.0397 105.772 77.1126 105.366 77.3118C105.412 77.1053 105.457 76.8991 105.503 76.6928C105.126 77.0939 104.943 76.8492 104.5 76.9832C104.306 77.0418 104.025 77.4414 103.86 77.4656C103.667 77.2417 103.424 77.1454 103.132 77.1766C102.937 77.1281 102.743 77.1185 102.549 77.1482C101.771 77.2047 101.062 77.6369 100.288 77.3425C99.6179 77.0873 99.3589 76.431 98.9595 77.4752C98.8543 77.2896 98.7493 77.1039 98.6443 76.9183C98.5147 77.1199 98.3851 77.3212 98.2552 77.5225C97.7485 77.1907 97.7173 76.9985 97.1342 77.1203C96.9973 77.1749 96.8569 77.1672 96.7133 77.0974C96.6788 77.1998 96.6446 77.3017 96.6101 77.4039C96.5965 77.6608 96.5201 77.7459 96.3814 77.6585C96.2647 77.6165 96.1594 77.553 96.0655 77.4675C95.6797 77.497 95.1868 77.5985 94.7726 77.5424C94.6128 77.5211 93.6108 76.9921 93.5363 77.0742ZM105.344 70.1641C105.389 70.2339 105.435 70.3035 105.48 70.3734C104.854 70.7041 104.706 70.5142 104.641 69.85C104.948 69.8559 105 70.3942 105.344 70.1641ZM105.732 69.7743C106.033 69.9075 106.379 70.1688 106.663 69.8186C106.855 70.3746 105.434 71.1332 105.732 69.7743ZM107.68 70.02C108.313 70.4479 106.794 70.1039 106.797 70.1046C107.07 69.8524 107.364 69.8242 107.68 70.02ZM113.127 67.6331C113.344 68.729 113.943 68.6978 114.91 68.1883C116.32 67.4453 116.558 66.2287 116.656 64.7758C116.751 63.3827 116.921 62.8434 118.358 63.1342C119.36 63.3372 120.208 63.1666 121.219 63.1387C122.298 63.1089 122.678 63.2737 122.765 64.3837C122.852 65.4951 123.05 66.3391 123.856 67.185C124.676 68.0449 125.77 68.5584 126.835 69.0396C127.383 69.2866 127.898 69.5526 128.504 69.6063C128.739 69.6271 129.961 69.4724 129.987 69.8594C130.006 70.1503 128.313 70.9706 128.133 71.0683C127.348 71.4953 126.565 71.8785 125.707 72.1373C123.734 72.7326 121.641 72.7678 119.597 72.7317C116.301 72.6738 111.747 71.2797 109.776 68.3559C110.893 68.115 112.01 67.874 113.127 67.6331ZM112.831 58.1432C112.31 57.7057 111.972 57.0445 111.539 56.5263C111.32 56.2649 111.16 56.1817 110.952 56.051C110.734 55.9132 110.61 56.1082 110.427 55.7842C109.956 54.9475 111.412 53.77 109.867 53.448C109.345 53.3388 108.087 53.7529 107.935 53.0041C107.719 51.9454 109.74 51.8763 110.215 51.3389C111.16 50.2706 110.519 48.4596 111.095 47.2272C111.639 46.0598 113.046 45.8524 114.157 45.5015C115.704 45.0131 117.27 44.7297 118.841 44.3388C119.94 44.0655 121.765 42.9677 122.783 43.9378C121.211 44.2867 122.125 44.8347 123.173 45.1439C124.36 45.4945 125.618 45.6311 126.848 45.7289C128.114 45.8292 129.404 45.8484 130.655 45.596C131.811 45.3625 133.103 44.3571 134.316 44.6146C133.643 45.7849 131.638 46.424 130.42 46.7306C129.8 46.8867 129.402 46.8379 129.485 47.6118C129.566 48.3618 130.218 49.1139 130.366 49.8953C130.56 50.9294 130.39 51.8798 130.022 52.8522C129.66 53.8092 129.575 53.9341 129.892 54.8484C130.385 56.272 129.325 57.8456 128.346 58.8794C124.384 63.0597 116.803 61.4763 112.831 58.1432ZM122.897 33.1593C122.899 33.1858 122.913 33.202 122.897 33.1593V33.1593ZM124.131 43.709C123.966 43.8316 123.02 44.0889 123.06 43.7193C123.113 43.2239 123.965 43.4029 124.131 43.709ZM126.287 33.7026C126.065 33.5371 125.443 33.6051 125.898 32.9779C126.046 33.2538 126.166 33.4781 126.287 33.7026ZM111.367 29.7379C111.65 29.0029 111.963 28.319 112.091 27.5364C112.17 27.0543 112.013 26.5038 112.687 26.4281C111.828 26.0535 111.819 24.5751 111.769 23.8087C111.699 22.7533 111.365 21.3401 111.83 20.3578C112.306 19.3487 112.948 19.3654 113.142 20.5672C113.218 21.0377 112.927 21.1899 112.873 21.5176C112.765 22.1659 112.98 22.0238 113.398 21.5299C113.57 22.0318 113.637 22.7862 114.339 22.7543C114.292 22.6185 114.023 22.319 114.113 22.1504C114.251 21.8915 114.926 22.2871 115.012 22.347C115.628 22.7781 115.762 23.1715 115.322 23.7152C115.931 23.7808 115.42 24.3135 115.813 24.4523C116.412 24.6642 116.01 23.6606 115.945 23.4841C116.31 23.6263 116.432 23.789 116.663 24.077C116.799 24.2758 116.922 24.4823 117.034 24.6958C117.158 25.0858 117.413 25.1833 117.8 24.989C118.577 25.2325 119.648 25.1943 120.344 25.6202C120.662 25.8145 120.776 26.2399 121.042 26.4013C121.34 26.5832 121.741 26.5007 122.062 26.6149C121.944 26.8816 122.039 27.026 122.346 27.0485C122.585 27.0703 122.816 27.1239 123.039 27.2095C123.206 27.0836 123.388 26.984 123.584 26.9118C123.716 27.1441 123.902 27.2015 124.144 27.0845C124.859 27.2186 125.203 27.4893 125.658 27.8941C126.066 28.2574 125.734 28.2869 126.181 28.2546C126.361 28.2417 126.676 27.9367 127.087 27.9963C127.324 28.0422 127.552 28.1153 127.772 28.2149C128.009 28.4181 128.262 28.4437 128.529 28.2918C128.962 28.5035 129.005 28.8789 129.533 28.9303C130.117 28.9872 129.929 28.2585 130.331 29.286C130.871 28.1967 131.069 29.9322 131.627 30.0724C132.205 30.2177 132.267 29.7489 132.762 30.261C132.911 30.4146 132.902 30.6681 133.069 30.8308C133.342 31.0971 133.711 31.0438 133.948 31.4071C133.816 31.2044 133.979 32.1257 133.976 32.0953C134.013 32.5017 133.652 32.9571 134.392 32.9224C134.384 32.965 134.028 33.4832 133.959 33.4246C133.942 33.3656 133.927 33.3056 133.916 33.2449C133.837 33.2791 133.801 33.7727 133.816 33.8599C133.879 33.8697 133.905 33.8231 133.893 33.7199C133.771 34.1006 133.955 34.3424 133.721 34.7039C133.572 34.9347 133.162 35.1084 132.945 35.2509C132.42 35.5949 131.907 35.9402 131.394 36.3065C130.201 37.1606 128.864 38.1906 127.361 38.3688C128.116 37.6274 132.46 34.822 130.281 34.0167C129.877 33.8674 129.141 33.726 128.719 33.6946C128.193 33.6557 127.649 33.9567 127.07 33.7687C126.37 33.5425 126.634 32.8849 126.206 32.6488C125.299 32.1485 125.513 33.3255 125.228 33.6337C124.927 33.3189 124.992 33.1656 124.518 33.1373C124.037 33.1082 123.923 33.5528 123.361 33.2758C122.588 32.8942 122.997 32.1339 121.9 32.1161C121.919 31.9492 122.078 31.4828 121.868 31.3528C121.586 31.7186 121.805 32.1278 121.543 32.4801C121.412 32.6568 121.127 32.7977 120.92 32.8549C120.433 32.9885 120.364 33.2442 120.443 32.512C120.083 33.1612 118.978 32.8942 118.32 32.8289C117.252 32.7227 116.116 32.5204 115.091 32.1778C114.144 31.8606 113.637 31.316 112.856 30.8203C112.561 30.6328 112.419 30.7045 111.996 30.588C111.578 30.4731 111.17 30.2505 111.367 29.7379ZM113.622 18.2421C113.783 18.1449 113.899 19.5954 113.704 19.8664C113.346 19.3001 112.711 18.4694 113.622 18.2421ZM114.137 17.6635C114.656 17.194 114.296 18.4068 114.201 18.6103C114.008 18.4871 113.816 18.3639 113.624 18.2406C113.869 18.0902 113.93 17.8508 114.137 17.6635ZM133.712 15.7089C138.506 16.7148 143.256 18.5951 147.1 21.6894C150.602 24.5078 153.074 28.5067 154.46 32.7604C155.898 37.1756 155.415 42.074 151.992 45.4532C150.19 47.2331 147.809 48.307 145.54 49.3549C144.453 49.8569 143.334 50.275 142.242 50.7656C141.459 51.1178 140.502 51.6813 139.607 51.5838C140.064 51.1035 140.726 51.0937 141.278 50.8003C141.945 50.4452 142.49 49.7641 143.065 49.2775C143.636 48.7945 144.903 47.2734 145.78 47.6416C145.659 46.8311 146.582 46.4549 146.998 45.9206C147.438 45.3553 147.47 44.6941 148.28 44.5092C147.41 43.8276 147.676 42.5425 147.866 41.6149C148.108 40.4285 148.22 39.3393 148.316 38.1321C148.488 35.9556 148.627 33.183 147.424 31.2698C147.034 30.6485 146.537 30.0775 146.189 29.4321C145.769 28.6544 145.862 27.97 145.862 27.1174C145.095 27.633 144.933 26.5818 144.609 26.0695C144.365 25.6851 144.046 25.4704 143.967 24.9867C143.911 24.6349 144.293 24.5753 144.083 24.2064C143.826 24.4003 143.724 24.7007 143.594 24.9796C143.357 24.8849 143.636 24.5549 143.501 24.4478C143.497 24.4448 143.039 24.2463 143.062 24.2749C142.768 23.902 142.673 23.2832 142.529 22.8394C141.99 23.1124 142.091 23.0802 141.49 22.6242C141.384 22.5439 140.855 22.1752 140.805 22.0547C140.573 21.4911 140.98 21.8249 140.866 21.4751C140.539 20.4704 138.702 20.6604 138.556 19.155C137.66 19.7237 137.319 18.9179 136.789 18.3447C136.246 17.7576 135.336 17.5317 135.385 16.6004C135.103 16.6969 134.821 16.7931 134.539 16.8891C134.686 16.0297 133.409 16.0845 132.947 15.6485C133.203 15.6517 133.459 15.6718 133.712 15.7089ZM134.442 68.9353C134.887 68.538 134.752 69.0667 135.038 69.0063C135.282 68.9545 135.331 68.7698 135.565 68.7131C136.531 68.4796 137.975 68.7728 138.99 68.7225C140.167 68.6643 142.183 68.9085 142.744 70.285C143.082 71.1138 142.566 70.8318 141.998 70.7702C141.558 70.7226 141.167 70.8117 140.731 70.8072C140.516 70.8405 140.301 70.8372 140.087 70.7971C139.983 70.7285 139.921 70.6317 139.902 70.507C139.296 70.4153 138.652 70.7739 137.981 70.7918C137.085 70.8157 136.289 70.6439 135.608 70.0389C135.338 70.4423 135.153 70.6425 134.667 70.6875C134.654 70.6886 134.178 70.4974 134.105 70.4782C134.007 70.4528 133.761 70.6572 133.573 70.5989C133.906 70.0682 133.955 69.371 134.442 68.9353ZM195.63 73.7252C195.788 73.1751 195.92 72.6178 196.064 72.0642C198.275 74.5816 200.211 77.9517 201.082 81.1802C201.647 83.2781 202.528 87.0796 199.831 88.1618C197.634 89.0432 196.409 85.8836 195.853 84.3274C194.626 80.8919 194.626 77.2207 195.63 73.7252ZM96.6912 34.2785C96.7196 34.2726 95.2597 35.1217 95.7406 34.4343C95.9337 34.1578 96.6666 33.9635 96.9917 33.9635L96.6912 34.2785ZM95.2869 34.6382C95.1179 34.7803 94.9472 34.9206 94.7752 35.0592C94.61 34.7981 94.4443 34.5367 94.279 34.2756C94.6051 34.1383 95.9886 34.0352 95.2869 34.6382ZM94.2577 61.0375C93.9523 60.8306 93.7102 60.9405 93.6183 61.2878C93.6183 60.9424 93.7983 60.1394 94.0749 60.0459C94.2537 59.9852 93.4808 59.0709 93.698 58.8316C94.2505 59.148 93.9197 59.451 94.0815 59.8596C94.1546 60.0438 94.374 60.2182 94.422 60.3597C94.5036 60.6002 94.8333 61.4266 94.2577 61.0375ZM92.7612 58.9799C92.4483 59.0601 92.9961 59.5764 92.9956 59.8047C92.9951 59.9775 92.7879 60.1099 92.7024 60.3461C92.517 60.8578 92.836 61.2035 92.311 61.5939C92.311 60.4727 91.5584 57.5015 93.0045 56.9552C92.299 56.3997 92.8784 55.7585 93.4313 56.4234C93.9629 57.0625 93.6242 58.7592 92.7612 58.9799ZM92.0079 54.5552C91.7236 53.5474 90.8682 53.1949 89.8904 53.2546C89.9276 52.7385 90.3186 51.9946 90.601 52.9246C90.7172 52.6497 90.7976 52.2911 91.0625 52.109C91.5085 53.5071 93.7318 54.2796 92.3476 55.7946C92.2344 55.3816 92.1244 54.9677 92.0079 54.5552ZM89.4242 53.3296C84.2757 53.703 77.0476 54.7713 72.9275 50.8249C70.2411 48.2517 70.3845 44.2446 72.5555 41.3856C73.7944 39.7542 75.4857 38.6055 77.1842 37.5112C77.8395 37.0886 78.3947 36.8099 79.1143 36.5671C79.2308 36.5545 79.3404 36.5805 79.4429 36.6452C79.4834 36.4713 79.5812 36.3428 79.737 36.2587C80.015 36.1101 80.4108 36.0569 80.5709 35.7482C80.4001 36.3281 80.3122 36.925 80.2496 37.5248C80.1108 37.3633 79.9723 37.2018 79.8338 37.0403C79.718 38.133 78.5797 37.4716 77.9 37.608C78.3476 38.2277 78.6678 38.4527 78.7065 39.2716C78.373 38.6559 77.6757 38.2511 77.0274 38.0528C77.3794 39.0942 77.6283 39.7122 77.274 40.8541C76.8458 40.6096 76.8169 40.0225 76.2976 39.8819C76.1605 40.5628 76.1363 41.3184 75.9608 41.9791C74.6309 41.3725 74.7605 43.0061 75.2947 43.8145C75.5785 44.2446 75.718 44.7424 75.9713 45.1551C76.5929 46.1678 76.1206 44.6535 76.8115 44.7253C76.6564 45.7933 76.6022 45.8997 77.3839 46.6818C78.1468 47.4445 78.5424 48.5027 79.3583 49.2192C79.5945 48.9173 79.223 48.6014 79.1904 48.3124C79.9496 48.4396 80.3051 49.2009 81.035 48.5266C81.3533 49.147 81.6978 49.8302 82.46 49.9574C81.9561 48.9996 83.4277 49.6492 83.8051 49.7852C84.0912 49.8883 84.604 49.9703 84.7144 50.0099C85.3362 50.2345 84.9099 49.8316 85.2872 50.5678C85.8413 50.4004 86.0504 49.9408 86.7132 50.3292C87.252 50.6451 87.2532 51.186 87.3765 51.7403C87.5049 51.3778 87.6345 51.0154 87.7765 50.6578C87.9212 50.7187 88.528 51.3864 88.4616 51.3895C89.8817 51.3199 89.8315 52.2016 89.4242 53.3296ZM82.1954 35.2549C82.4806 35.0547 82.8287 35.3212 83.1488 35.2495C83.5922 35.1506 83.844 34.7709 84.3392 34.7301C84.2014 35.1705 83.9429 35.1292 83.724 35.4749C83.6494 35.5928 83.6883 35.8755 83.622 35.9435C83.067 36.5118 82.8753 36.048 82.3088 35.6177C82.358 36.1366 82.4579 36.3004 81.969 36.4396C81.5265 36.566 80.7959 36.1012 80.5728 35.7447C80.761 35.3683 81.8541 35.4944 82.1954 35.2549ZM85.7281 34.4437C86.2088 34.4896 85.6297 35.9081 84.9408 34.5323C85.2003 34.4758 85.4628 34.4463 85.7281 34.4437ZM88.2001 34.1697C88.9583 34.015 91.4872 33.2943 91.7687 34.4744C91.819 34.4451 92.0072 33.7788 92.0947 33.8601C92.4448 34.1859 92.484 34.6176 92.4573 35.0699C92.034 34.1882 92.1844 34.9628 91.8976 34.9024C91.8228 34.8864 91.7082 35.0264 91.5186 34.9687C91.2699 34.8928 91.0918 34.3638 90.9347 34.1847C90.6734 34.5576 90.3495 35.0381 89.8261 35.0057C89.4556 34.9828 88.8587 34.0291 89.3384 35.0732C89.0567 34.9802 88.7307 34.7695 88.4169 34.8117C88.0655 34.8592 87.8829 35.2059 87.5537 35.2619C86.8236 35.3856 86.7134 34.6832 86.2395 34.3017C86.8932 34.2637 87.5546 34.3012 88.2001 34.1697ZM92.787 34.1582C92.8404 33.9164 93.504 33.8186 93.673 33.8955C94.0852 34.0828 93.9326 34.33 93.8569 34.7413C93.5511 34.5965 93.245 34.4519 92.9391 34.3071C93.3957 35.0425 92.5683 35.1492 92.787 34.1582ZM221.21 77.2354C221.156 75.4732 221.105 73.6802 220.658 71.9643C220.345 70.7636 219.577 68.6104 218.124 68.4021C215.933 68.0875 214.72 72.4181 214.106 73.9045C213.983 72.1544 214.091 70.2916 213.429 68.6306C212.9 67.2993 211.563 66.0386 210.411 67.5335C209.387 68.864 209.19 70.8278 208.92 72.4286C208.571 74.5028 208.361 76.593 208.105 78.6796C207.105 76.7456 206.93 74.5317 206.139 72.5217C205.392 70.6249 204.218 68.8134 203.086 67.1264C202.163 65.7482 201.038 64.4526 199.591 63.6103C198.331 62.8771 196.128 62.084 194.927 63.3016C193.925 64.3176 194.082 65.6772 194.134 66.9595C194.158 67.5304 194.247 67.9218 193.745 68.2096C193.498 68.351 193.112 68.2778 192.841 68.3533C192.404 68.4754 192.069 68.6821 191.7 68.9568C189.109 70.8827 187.914 74.3533 187.545 77.4475C187.077 81.3682 188.605 84.7291 189.92 88.3164C190.13 88.8881 190.795 90.101 190.704 90.7392C190.603 91.4383 189.725 91.4566 189.133 91.4711C187.344 91.5152 185.474 91.3821 183.695 91.2152C179.457 90.8189 175.223 88.7789 171.429 86.9575C170.737 86.6252 169.757 86.4349 169.192 85.9115C168.661 85.4196 168.521 84.6311 168.062 84.0667C166.937 82.6821 166.22 81.5006 164.563 80.6639C162.876 79.8121 161.154 79.0249 159.508 78.0921C157.472 76.9378 155.591 75.4757 153.64 74.1834C150.014 71.7822 146.413 69.15 142.569 67.1081C140.783 66.1591 138.787 66.0056 136.932 65.2286C135.126 64.4721 132.909 64.4711 131.025 64.9488C130.107 65.1817 129.482 65.7335 128.638 66.0937C127.648 66.5158 126.841 66.0499 125.971 65.546C124.64 64.7763 123.322 63.5219 125.216 62.6915C125.859 62.4096 126.664 62.3029 127.225 61.86C127.824 61.3879 128.304 60.517 128.791 59.9257C129.872 58.611 130.518 57.0979 132.102 56.2804C133.852 55.3764 135.928 55.1303 137.795 54.5395C139.817 53.8996 141.798 53.1386 143.783 52.3914C147.359 51.0454 151.077 49.5921 153.647 46.6286C155.863 44.0723 156.829 40.7723 156.74 37.4207C156.557 30.5692 152.887 23.6156 147.621 19.3317C141.163 14.0788 132.949 12.3271 124.792 12.4189C120.964 12.4621 116.396 12.9631 113.202 15.2889C110.443 17.2978 109.984 20.8114 110.394 23.9831C110.561 25.2703 111.13 26.969 110.222 28.1031C109.714 28.7378 108.802 28.8949 108.118 29.2905C107.258 29.7876 106.499 30.2641 105.525 30.5268C101.388 31.6443 97.0297 31.2553 92.7992 31.1934C85.752 31.0903 78.5286 32.9983 73.2715 37.964C69.0261 41.9737 67.7529 49.5349 72.9308 53.4438C77.1141 56.6017 83.6757 56.2544 88.6083 55.7036C90.1379 55.5325 91.1898 55.2841 91.1933 57.1556C91.197 59.1998 90.8586 61.3364 91.3801 63.3431C92.2015 66.5039 95.2386 66.5791 97.9236 65.8985C99.3404 65.5394 100.71 64.9994 102.055 64.4339C104.029 63.6044 105.838 62.3847 107.787 61.5567C109.108 60.9956 110.097 62.8103 111.269 61.5522C111.485 61.3197 111.526 60.9733 111.852 60.8542C112.364 60.6679 113.222 61.3214 113.671 61.5281C114.344 61.8374 115.021 62.065 115.29 62.8103C115.541 63.5074 115.431 64.616 115.19 65.3036C114.667 66.7987 113.259 66.5032 111.974 66.4031C109.731 66.2287 107.504 65.8586 105.263 65.7032C103.252 65.564 101.369 66.1647 99.6345 67.1566C95.9914 69.2392 93.0108 72.5521 89.8522 75.2765C88.2263 76.6785 86.6548 78.1931 84.8869 79.4139C84.1182 79.945 83.2857 80.433 82.6177 81.0928C81.9547 81.7471 81.8818 82.3422 81.6551 83.2132C81.2513 84.7638 79.246 85.5218 77.9926 86.34C76.22 87.4968 74.3408 88.3129 72.3535 89.0228C68.1453 90.5261 63.9038 91.5757 59.5041 92.3514C57.35 92.7316 55.2139 92.9812 53.0389 93.1863C51.1639 93.363 49.1703 93.9405 47.2976 93.4793C47.8369 92.6043 48.7927 92.0791 49.5371 91.4029C50.4966 90.5313 51.3127 89.4982 52.039 88.428C53.4526 86.3439 54.4442 84.1078 54.6718 81.58C54.8771 79.305 54.6418 76.5836 53.269 74.6618C52.7949 73.9978 51.8567 73.8173 51.4325 73.2192C51.0104 72.6248 51.1714 71.6013 50.9403 70.9082C50.3522 69.1453 48.6069 66.9607 47.0708 65.9367C45.4044 64.8255 42.9666 64.4174 41.0417 64.9964C37.4754 66.0691 35.2847 69.8803 33.6528 72.9604C32.7615 71.0847 34.2542 68.3017 32.5128 66.7657C31.044 65.4698 29.8782 67.9799 29.3869 69.0539C27.0809 74.095 26.5571 79.4418 25.591 84.8357C25.1972 84.4476 25.399 83.4515 25.4361 82.9886C25.505 82.1266 25.4984 81.2812 25.5003 80.4159C25.505 78.2294 25.9114 76.0331 25.7251 73.8487C25.6175 72.5859 25.2148 69.9234 23.3802 70.3429C21.8244 70.6987 20.8498 72.8866 20.361 74.2242C19.6559 76.1535 19.4931 78.0635 19.537 80.1016C19.5855 82.3535 19.1565 84.5685 19.0525 86.8174C18.8505 91.1854 19.0501 95.5155 20.3034 99.7312C22.3557 106.634 27.0746 112.37 33.3725 115.834C36.8424 117.742 40.6918 118.95 44.6494 119.209C46.7942 119.35 48.8647 119.095 50.9911 118.873C53.0895 118.654 55.1989 118.553 57.2937 118.296C61.9587 117.724 66.5044 116.247 70.7447 114.26C72.9767 113.214 75.0758 111.929 77.2712 110.814C78.1522 110.367 78.7472 109.807 79.4991 109.184C80.2444 108.568 80.4507 108.52 81.2984 108.52C81.0497 107.854 81.7754 107.649 82.0983 107.228C82.0803 107.433 82.062 107.637 82.044 107.841C82.2901 107.307 82.5193 107.312 82.7314 107.856C82.9409 107.247 83.0961 106.62 83.3492 106.026C84.3169 106.516 84.2354 107.68 85.5296 106.83C86.5953 106.13 87.5752 105.305 88.6615 104.619C91.1363 103.057 93.2701 101.025 95.7519 99.4807C95.7519 100.985 95.858 102.502 95.6569 103.998C95.4657 105.421 94.9346 106.751 94.512 108.113C93.7329 110.626 93.679 113.311 92.8156 115.799C92.4584 116.829 91.5282 117.691 91.2612 118.694C90.9894 119.717 91.6175 120.537 90.5647 121.209C89.8222 121.682 88.8943 121.882 88.0721 122.169C86.8182 122.606 85.6276 123.223 84.4069 123.746C78.6811 126.199 73.0962 128.698 67.7914 131.997C62.757 135.127 57.6458 138.36 53.0211 142.078C49.0074 145.304 44.9501 149.476 43.973 154.74C43.025 159.845 45.5511 165.326 50.6232 167.007C53.2604 167.881 56.2419 167.773 58.9883 167.811C61.9435 167.852 65.0752 167.139 67.9808 166.624C71.0492 166.08 74.0651 165.228 77.1425 164.742C80.0951 164.275 82.8031 163.233 85.7075 162.591C88.8008 161.907 91.9735 161.536 95.0839 160.92C96.4843 160.643 97.8561 160.234 99.2602 159.978C100.797 159.697 102.352 159.592 103.874 159.22C106.827 158.498 109.654 157.335 112.619 156.664C113.952 156.362 115.265 155.958 116.599 155.675C117.827 155.416 118.784 154.725 120.014 155.292C121.009 155.75 121.802 156.536 122.743 157.083C123.963 157.792 125.25 158.428 126.522 159.038C129.079 160.265 131.73 161.113 134.404 162.034C137.211 163.001 139.969 164.105 142.878 164.744C145.86 165.399 148.902 165.581 151.905 166.099C158.055 167.16 164.153 167.636 170.395 167.675C173.551 167.695 176.705 167.321 179.853 167.365C182.64 167.404 185.063 168.032 187.611 166.551C191.683 164.183 196.406 160.617 196.306 155.438C196.215 150.747 193.401 146.265 190.762 142.565C187.557 138.072 182.986 134.908 178.508 131.808C173.734 128.505 168.372 126.223 163.355 123.34C160.789 121.865 158.422 120.279 155.636 119.231C154.306 118.731 153.009 118.151 151.694 117.613C150.637 117.179 149.11 116.94 148.204 116.221C147.639 115.773 147.585 115.093 147.436 114.427C147.106 112.951 146.587 111.551 146.084 110.128C145.112 107.38 144.467 104.581 144.049 101.698C143.651 98.9507 142.768 96.0932 143.225 93.3007C146.235 96.2116 149.327 99.0096 152.406 101.843C153.56 102.905 154.692 103.989 155.852 105.045C156.722 105.837 157.811 107.014 159.025 107.249C160.575 107.55 160.009 105.835 161.073 105.569C161.724 105.407 163.686 107.06 164.2 107.386C167.46 109.456 171.069 110.767 174.655 112.176C178.415 113.653 182.281 114.965 186.327 115.337C190.064 115.681 193.885 115.24 197.491 114.221C204.673 112.194 209.957 107.383 213.836 101.148C218.255 94.0417 221.47 85.7179 221.21 77.2354Z" fill="#211814"/>
<path fill-rule="evenodd" clip-rule="evenodd" d="M111.45 61.7449C111.449 61.747 111.438 61.7704 111.438 61.7704C111.452 61.761 111.456 61.7526 111.45 61.7449Z" fill="#211814"/>
<path fill-rule="evenodd" clip-rule="evenodd" d="M111.797 61.8368C111.77 61.6104 111.712 61.3889 111.623 61.1719C111.385 61.5488 111.172 61.7102 111.485 62.1094C111.589 62.0184 111.693 61.9277 111.797 61.8368Z" fill="#211814"/>
<path fill-rule="evenodd" clip-rule="evenodd" d="M128.357 115.706C128.623 115.423 128.158 115.316 127.981 115.312C127.999 115.616 127.849 116.344 128.264 116.484C128.164 116.21 128.195 115.95 128.357 115.706Z" fill="#211814"/>
<path fill-rule="evenodd" clip-rule="evenodd" d="M121.342 56.4943C120.885 57.377 121.895 57.6508 122.479 57.2244C122.919 56.9038 123.179 56.0865 123.251 55.5622C123.485 53.8658 122.298 52.251 121.706 50.7456C121.553 50.3565 121.343 49.022 120.851 48.9854C120.285 48.9432 120.243 50.1723 120.236 50.4894C120.214 51.4457 120.467 52.4197 120.764 53.3223C121.084 54.2954 121.876 55.4636 121.342 56.4943Z" fill="#211814"/>
<path fill-rule="evenodd" clip-rule="evenodd" d="M123.516 52.9546C125.273 54.5188 126.678 51.9135 126.555 50.3725C126.525 49.9907 126.267 48.5828 125.543 49.0951C125.179 49.3525 125.489 50.189 125.315 50.5562C124.475 52.3366 123.666 49.5749 123.1 49.3581C122.412 49.094 122.343 49.9984 122.344 50.4819C122.345 51.4417 122.802 52.319 123.516 52.9546Z" fill="#211814"/>
<path fill-rule="evenodd" clip-rule="evenodd" d="M117.139 53.1977C117.553 52.5462 118.062 51.6722 118.118 50.8915C118.205 49.6781 117.498 49.7794 116.916 50.6259C116.505 51.2241 116.197 52.2384 115.289 51.9862C114.169 51.6755 114.511 50.1689 113.884 49.4531C112.3 51.5803 115.297 56.0969 117.139 53.1977Z" fill="#211814"/>
<path fill-rule="evenodd" clip-rule="evenodd" d="M119.513 59.7075C120.168 59.8491 121.876 59.797 121.284 58.7939C120.538 57.5306 118.056 59.3925 119.513 59.7075Z" fill="#211814"/>
<path fill-rule="evenodd" clip-rule="evenodd" d="M142.46 22.0312C142.58 21.6742 142.416 21.6093 142.13 21.3281C141.859 21.578 142.206 21.8409 142.46 22.0312Z" fill="#211814"/>
<path fill-rule="evenodd" clip-rule="evenodd" d="M154.678 86.7067C155.111 86.7754 155.25 86.5469 155.095 86.021C154.414 85.9769 154.275 86.2054 154.678 86.7067Z" fill="#211814"/>
<path fill-rule="evenodd" clip-rule="evenodd" d="M131.08 31.5351C131.557 31.7531 131.375 32.2003 131.366 32.5781C131.612 32.3114 132.108 31.8234 131.906 31.4402C131.595 30.8493 130.782 31.3987 131.08 31.5351Z" fill="#211814"/>
<path fill-rule="evenodd" clip-rule="evenodd" d="M114.844 24.0973C114.771 23.9555 114.698 23.8137 114.626 23.6719C114.33 23.9095 113.873 24.5377 114.343 24.8438C114.536 24.6096 114.703 24.3609 114.844 24.0973Z" fill="#211814"/>
<path fill-rule="evenodd" clip-rule="evenodd" d="M120.563 28.2666C121.156 28.7316 120.872 27.304 120.854 27.1875C120.766 27.3548 120.263 28.0315 120.563 28.2666Z" fill="#211814"/>
<path fill-rule="evenodd" clip-rule="evenodd" d="M120.234 27.5416C120.189 27.4238 120.143 27.3056 120.098 27.1875C119.858 27.4102 119.563 27.8646 119.96 28.125C120.069 27.9427 120.161 27.7481 120.234 27.5416Z" fill="#211814"/>
<path fill-rule="evenodd" clip-rule="evenodd" d="M124.001 32.4438C124.05 32.4884 124.098 32.5331 124.146 32.5781C124.342 32.1834 124.119 31.8872 123.75 31.875C123.776 32.0965 123.86 32.2861 124.001 32.4438Z" fill="#211814"/>
<path fill-rule="evenodd" clip-rule="evenodd" d="M108.109 76.836C108.344 76.6759 108.558 76.4931 108.75 76.288C108.054 75.8624 108.471 76.7849 107.633 76.2184C107.452 76.4681 107.747 77.0268 108.109 76.836Z" fill="#211814"/>
<path fill-rule="evenodd" clip-rule="evenodd" d="M137.368 115.547C137.633 115.14 137.68 115.152 137.319 114.844C137.017 115.346 137.048 115.217 137.368 115.547Z" fill="#211814"/>
<path fill-rule="evenodd" clip-rule="evenodd" d="M82.0312 50.8773C82.1754 51.0275 82.3195 51.178 82.4637 51.328C82.5309 51.1314 82.898 50.5754 82.6486 50.3905C82.4431 50.5527 82.237 50.7149 82.0312 50.8773Z" fill="#211814"/>
<path fill-rule="evenodd" clip-rule="evenodd" d="M87.158 52.3645C86.9278 52.3261 86.3773 52.1583 86.25 52.3722C86.5868 52.6481 87.3464 52.3961 87.158 52.3645Z" fill="#211814"/>
</svg>
