<svg width="240" height="181" viewBox="0 0 240 181" fill="none" xmlns="http://www.w3.org/2000/svg">
<path fill-rule="evenodd" clip-rule="evenodd" d="M87.2149 46.2283C87.0495 48.9311 86.884 51.6335 86.7188 54.3363C87.7826 54.03 94.5495 52.0389 94.1316 54.0576C93.8316 55.5056 91.9291 57.0719 90.9598 58.0799C90.0677 59.0081 89.149 59.9121 88.207 60.7896C89.9384 60.1267 91.6842 59.4991 93.4425 58.912C94.773 58.4676 96.1134 58.034 97.4768 57.701C97.9828 57.5772 99.3492 57.0726 99.8273 57.4167C101.084 58.3209 94.2673 64.9802 93.3335 65.9189C94.6537 65.3048 96.0059 64.747 97.3807 64.2684C98.3735 63.9229 101.441 62.6022 102.319 63.73C103.259 64.9366 100.93 67.7071 100.284 68.5856C99.3581 69.8444 98.355 71.0519 97.3024 72.2067C101.677 76.1357 106.818 79.6331 112.289 81.8067C116.3 83.4007 120.241 83.8064 124.474 82.9317C128.822 82.0331 132.993 80.3097 136.957 78.3393C139.285 77.182 141.583 75.9297 143.772 74.523C142.869 73.4254 141.993 72.3049 141.142 71.1672C139.927 69.543 138.434 67.7683 137.741 65.8347C137.063 63.9424 139.607 64.3117 140.827 64.4146C142.594 64.5635 144.356 64.8792 146.087 65.257C144.863 64.4055 143.661 63.52 142.483 62.6057C140.948 61.4142 138.9 60.067 137.895 58.3528C137.012 56.8455 138.951 57.2261 139.848 57.4235C141.986 57.8946 144.066 58.6971 146.105 59.4799C147.598 60.0532 149.082 60.6536 150.552 61.286C149.64 60.4928 148.758 59.6617 147.911 58.8002C146.771 57.6421 145.236 56.2277 144.725 54.633C143.685 51.385 150.681 53.835 151.875 54.3363C151.654 50.9718 151.434 47.6074 151.213 44.2429C141.95 46.7076 132.687 49.1728 123.424 51.6377C122.423 51.9042 121.17 52.4842 120.126 52.5152C119.181 52.5435 118.039 52.1177 117.117 51.9417L100.354 48.7389C95.9745 47.902 91.5947 47.0653 87.2149 46.2283Z" fill="#F3F3F1"/>
<path fill-rule="evenodd" clip-rule="evenodd" d="M186.772 161.95C185.772 162.522 184.601 162.964 183.49 163.26C182.838 163.434 181.759 163.972 181.186 163.479C180.911 163.243 180.848 162.705 180.685 162.393C180.429 161.9 180.063 161.474 179.721 161.038C178.892 159.982 178.029 158.963 177.126 157.969C176.698 157.498 175.916 156.398 175.162 156.471C174.222 156.561 174.245 157.862 174.48 158.526C175.23 160.642 177.5 162.487 178.983 164.081C178.606 164.661 176.535 164.592 175.96 164.456C175.083 164.249 174.994 163.624 174.593 162.909C173.656 161.238 171.755 160.303 170.193 159.321C169.623 158.962 168.412 157.97 167.669 158.219C166.966 158.456 166.996 159.355 167.22 159.942C167.559 160.829 168.522 161.444 169.234 162.005C170.184 162.752 171.052 163.566 171.843 164.48C170.703 164.573 169.566 164.734 168.429 164.828C167.053 164.941 165.906 164.186 164.639 163.758C163.462 163.361 162.289 163.024 161.132 162.566C159.832 162.052 158.471 161.872 157.16 161.421C152.016 159.649 146.976 157.421 142.018 155.175C139.656 154.104 137.343 153.033 134.881 152.196C133.088 151.585 130.269 150.368 129.84 148.232C129.614 147.103 130.439 145.889 130.56 144.761C130.703 143.434 130.59 141.974 130.186 140.701C129.83 139.579 129.239 138.54 128.774 137.464C128.232 136.209 128.718 136.229 129.771 136.086C131.031 135.915 132.502 135.206 133.687 134.744C135.051 134.211 136.405 133.467 137.654 132.702C138.785 132.01 139.769 131.118 140.669 130.149C141.584 129.164 142.177 127.996 143.062 126.987C146.329 131.005 149.435 135.084 152.906 138.928C154.544 140.742 156.326 142.243 158.345 143.622C159.188 144.199 160.025 144.857 160.943 145.312C162.092 145.882 163.376 146.236 164.557 146.756C169.083 148.751 173.404 150.931 177.627 153.505C179.67 154.75 181.384 156.177 183.183 157.739C183.743 158.225 188.33 161.058 186.772 161.95ZM133.671 129.034C132.939 129.365 132.242 129.796 131.462 130.008C131.683 128.662 132.939 126.632 134.55 126.855C135.165 126.94 135.629 127.418 135.359 128.077C135.113 128.676 134.192 128.798 133.671 129.034ZM82.7521 92.52C81.9229 92.9779 81.1502 93.2444 80.6638 92.2617C81.0241 92.1895 82.6603 91.9713 82.7521 92.52ZM81.3714 89.7414C80.7304 89.5471 81.243 89.3428 81.4635 89.1084C81.6353 88.9258 82.2042 88.2855 82.4031 88.1798C83.2823 87.7141 83.9617 89.4468 84.3822 90.0093C83.3871 89.9207 82.3401 90.0353 81.3714 89.7414ZM88.2238 95.741C87.0091 95.947 87.1438 94.4271 87.1802 93.6571C87.4363 93.9698 89.171 95.5807 88.2238 95.741ZM92.2495 93.116C90.7685 93.3658 89.7899 90.8071 90.0555 89.688C90.2889 88.702 91.4367 88.1514 92.3505 88.0061C93.236 87.865 94.469 88.0574 94.732 89.0788C94.9645 89.9814 93.2364 92.9493 92.2495 93.116ZM127.306 131.742C126.241 132.069 125.199 132.11 124.129 132.431C122.915 132.795 121.792 132.763 120.576 133.011C120.081 133.111 118.747 133.832 118.264 133.671C117.786 133.512 117.094 132.028 116.819 131.643C118.971 130.748 120.806 129.593 122.225 127.709C123.352 126.21 124.562 123.965 123.852 122.031C123.052 119.85 120.294 119.377 118.455 120.288C117.585 120.718 116.723 121.254 116.005 121.91C115.185 122.661 114.863 123.48 114.331 124.406C113.794 125.342 113.417 124.821 112.88 124.026C112.421 123.347 112.481 122.661 111.908 121.99C111.615 121.648 111.162 121.318 111.01 120.876C110.913 120.596 111.117 120.099 110.933 119.879C110.675 119.569 110.361 119.933 110.145 119.656C109.988 119.455 110.039 118.997 109.877 118.746C109.736 118.603 109.58 118.481 109.407 118.379C109.197 118.276 109.158 118.146 109.292 117.99C109.125 117.681 109.285 117.577 108.928 117.201C108.371 116.615 107.863 116.053 107.466 115.361C107.285 115.045 107.302 114.575 107.077 114.301C106.768 113.925 106.253 113.981 105.987 113.515C105.751 113.1 105.909 112.375 105.519 111.998C105.313 111.939 105.107 111.881 104.901 111.824C104.746 111.674 104.655 111.491 104.63 111.276C104.413 110.942 104.37 110.55 104.096 110.197C103.572 109.523 102.867 108.9 102.404 108.189C101.918 107.441 102.176 107.315 103.021 107.048C103.783 106.806 104.479 106.582 105.186 106.171C108.452 104.27 111.549 99.2273 106.364 97.6868C104.44 97.1151 102.86 95.5776 100.726 96.1818C99.8013 96.4441 98.924 97.0017 98.234 97.6635C97.7573 98.1213 97.3157 99.3449 96.7305 99.5793C95.6782 100.001 96.123 98.9479 95.8244 98.4642C95.6817 98.2333 95.1077 97.9673 94.8949 97.7571C94.6453 97.5107 94.4038 97.1997 94.2304 96.895C93.9086 96.3295 93.7117 96.0142 93.2477 95.5537C93.0728 95.3798 92.1993 94.4817 92.9871 94.5991C92.6681 93.6267 93.1335 93.4804 93.7771 92.77C94.5328 91.9359 95.313 90.7767 95.3174 89.6078C95.3261 87.3637 92.6669 86.3582 90.9967 87.6902C90.6569 87.9614 88.6469 90.5779 89.0582 88.9092C89.2799 88.0094 91.3331 85.6598 92.2849 86.2678C91.2182 84.7132 88.7678 88.488 88.196 89.2603C87.7089 88.3638 87.6745 87.6623 86.8687 86.9681C86.2127 88.0202 86.5591 86.8703 86.4145 86.6367C86.1021 86.1318 86.2736 86.7091 86.1042 86.5298C85.8932 86.3064 85.5611 86.1304 85.3366 85.8346C84.952 86.3564 85.1057 85.795 84.9878 85.6003C84.7124 85.1444 84.8189 84.8805 84.3468 84.4842C84.0032 84.1961 83.3264 83.7487 82.8639 83.7077C82.3307 83.6603 82.1831 83.8647 81.6398 83.7135C80.9486 83.5214 80.0788 83.226 80.4133 84.3822C80.6563 85.2222 81.644 85.6996 81.8603 86.5579C82.0781 87.4218 81.2238 88.2925 80.8094 89.0008C80.2771 89.9095 79.8419 89.8354 78.8777 90.0403C78.2615 90.1713 77.4391 90.4514 77.9676 91.1988C78.3449 91.7329 79.2295 91.6204 79.7275 91.9368C80.426 92.3803 80.4164 93.4739 81.3081 93.6642C82.2902 93.8737 82.8527 92.7803 83.6807 92.5162C84.2695 92.3285 86.0934 92.3493 86.5567 92.7916C87.1881 93.3937 86.6425 94.5447 86.8014 95.2928C87.0379 96.4026 87.7886 96.4703 88.7381 96.506C89.9069 96.5496 90.3178 97.6717 90.9463 98.5621C92.4187 100.647 93.6984 102.87 95.2066 104.927C95.8743 105.838 96.851 106.649 97.3975 107.637C98.0725 108.858 97.1355 109.563 96.3267 110.439C95.2699 111.584 94.481 112.887 93.5643 114.139C92.7499 115.251 91.7376 114.974 90.4361 114.974C90.726 114.376 91.075 114.003 91.7887 114.076C91.0424 113.165 90.4457 114.207 89.9617 114.784C89.2614 115.619 88.3485 115.821 87.449 116.37C87.1307 116.564 85.3975 117.823 85.9242 118.253C85.9839 118.301 88.8531 116.414 89.1799 116.241C89.1799 116.938 89.0275 117.662 89.1253 118.354C89.1967 118.863 89.5539 119.392 89.4778 119.921C89.3336 120.918 88.0448 121.704 87.4917 122.481C87.0752 123.065 87.1757 123.527 86.9638 124.154C86.7705 124.727 86.872 124.554 86.3903 124.731C85.4097 125.091 83.759 124.897 82.871 124.384C82.3197 124.066 81.8971 123.564 81.4492 123.121C81.112 122.787 80.2635 122.217 80.1698 121.75C80.009 120.945 81.6058 119.451 81.9217 118.621C82.8142 116.28 81.2838 114.46 78.902 114.327C79.6361 113.761 80.546 114.187 81.3196 114.404C79.997 112.571 77.7379 114.079 76.616 115.324C75.8493 113.387 75.4797 111.342 75.0114 109.321C74.6924 107.945 73.4781 105.489 74.0198 104.073C74.2816 103.388 75.0208 103.006 75.532 102.531C76.113 101.991 76.6106 101.346 77.0353 100.678C78.0358 99.104 78.6138 97.1174 77.2359 95.5666C77.6545 95.4977 78.0733 95.429 78.4919 95.3601C77.811 94.7203 76.7367 95.032 75.8531 94.8424C75.2924 94.7219 73.679 94.7999 73.3047 94.4826C72.8545 94.101 73.143 92.3456 73.1592 91.826C73.1962 90.6119 73.2977 89.4445 73.4317 88.2374C73.5588 87.0975 73.5332 85.8656 73.7688 84.7455C73.96 83.8366 74.5713 83.5596 75.2765 83.024C76.9621 81.7432 78.3358 80.1853 77.7602 77.9779C77.9641 77.9456 78.168 77.9132 78.3719 77.8809C77.7124 77.4039 76.859 77.5774 76.1254 77.3252C76.799 75.4291 78.2889 72.0958 80.7081 71.9163C80.7914 72.764 80.7344 73.7721 81.3063 74.4738C81.9574 75.2725 83.1002 75.3531 83.9821 74.9306C84.7825 74.5467 85.5337 73.7334 85.9026 72.93C86.1522 72.386 86.1072 71.4663 86.5453 71.0353C87.1326 70.4568 91.1828 70.8058 91.0588 71.7817C90.9857 72.3555 89.9027 73.32 89.6001 73.8285C89.046 74.7592 88.6026 75.7659 88.3992 76.8349C88.0905 78.4582 88.2693 80.601 89.9177 81.4544C91.7924 82.4252 94.0771 81.191 95.6146 80.1246C96.4588 79.5391 97.2766 78.8929 98.0477 78.2142C98.4585 77.8532 98.8713 77.481 99.2334 77.0704C99.5008 76.7674 99.7143 76.2785 100.043 76.0514C100.821 75.5151 101.583 76.4249 102.241 76.8846C103.312 77.6334 104.378 78.3442 105.529 78.9674C107.863 80.2317 109.997 81.9065 112.06 83.5694C114.136 85.2421 116.276 86.9629 117.958 89.047C116.939 89.6732 117.121 89.8361 116.668 90.9536C116.346 91.7465 115.903 92.4215 115.852 93.3028C115.764 94.8234 116.74 96.1192 118.222 96.456C119.05 96.6442 119.84 96.4935 120.607 96.1546C121.204 95.8914 121.799 95.2432 122.422 95.0821C123.581 94.7833 124.508 96.9724 125.158 97.7435C128.042 101.168 131.092 104.457 133.808 108.022C134.109 108.416 135.002 109.187 135.075 109.71C135.179 110.461 133.998 111.176 133.509 111.606C133.252 111.832 130.524 114.397 131.44 114.805C131.701 114.922 132.465 113.347 132.656 113.213C133.372 112.709 132.831 113.697 132.788 114.196C132.681 115.437 133.534 116.114 134.732 115.956C136.011 115.788 137.15 114.779 137.941 113.825C138.933 114.974 140.483 116.71 140.77 118.245C140.953 119.225 140.105 121.624 141.688 121.824C141.93 121.855 142.805 121.206 142.968 121.574C143.104 121.882 142.158 122.407 142.022 122.509C141.439 122.944 141.087 123.41 140.617 123.937C140.065 124.556 139.31 125.077 138.689 125.669C138.034 126.293 136.739 127.989 135.875 127.17C135.441 126.758 135.555 126.22 134.86 125.978C134.227 125.758 133.424 126.037 132.836 126.281C132.174 126.556 129.992 127.558 129.75 128.383C129.416 129.521 131.219 128.153 131.54 127.953C131.174 128.881 130.972 130.225 130.041 130.766C129.267 131.216 128.154 131.481 127.306 131.742ZM114.938 124.721C115.557 122.731 119.209 119.183 121.517 120.292C118.827 120.856 116.692 122.697 114.938 124.721ZM116.303 130.421C115.403 129.919 115.452 128.462 115.138 127.61C114.957 127.121 114.597 126.763 114.703 126.221C114.827 125.584 115.638 124.877 116.07 124.418C117.43 122.974 119.822 121 122.01 121.331C124.795 121.753 122.907 125.492 121.959 126.78C121.151 127.878 118.036 131.386 116.303 130.421ZM109.806 127.987C106.794 127.785 103.792 127.516 100.822 126.963C99.7682 126.767 98.8858 126.796 99.4884 125.585C99.6874 125.185 100.887 122.681 101.158 122.752C101.319 122.795 101.282 124.517 101.329 124.714C101.542 125.6 102.139 126.426 103.146 126.37C104.793 126.278 105.855 124.148 106.723 123.005C107.418 123.939 107.92 124.977 108.619 125.896C108.953 126.335 110.115 127.357 109.806 127.987ZM92.1478 116.163C91.6424 117.323 90.6262 118.426 89.9193 119.476C89.5197 118.631 89.2387 116.688 90.1865 116.063C90.5453 115.826 92.4672 115.43 92.1478 116.163ZM102.594 119.616C102.733 119.17 102.887 118.727 103.059 118.292C103.353 119.22 103.504 119.247 102.594 119.616ZM105.172 120.566C105.538 121.186 106.147 121.795 106.052 122.574C105.979 123.163 105.446 123.768 105.066 124.178C104.436 124.858 103.04 126.163 102.127 125.26C101.365 124.506 101.631 122.433 101.985 121.585C102.491 120.372 104.301 119.09 105.172 120.566ZM103.383 119.296C103.593 119.213 103.153 117.861 103.561 117.726C103.918 118.538 104.253 118.758 103.383 119.296ZM97.6281 101.094C97.4924 100.595 97.1812 100.616 97.2932 99.9991C97.3668 99.5946 97.6879 99.1626 97.9314 98.8422C98.4168 98.2033 99.0571 97.6767 99.7495 97.278C101.211 96.4366 103.218 96.0871 104.527 97.4043C103.304 97.5975 99.5531 98.8052 99.5292 100.479C100.89 100.217 101.96 98.85 103.324 98.4194C104.444 98.0657 105.659 98.0906 106.773 98.4639C109.823 99.4853 108.555 102.122 106.833 103.834C105.811 104.85 104.586 105.609 103.247 106.133C102.627 106.375 102.246 106.402 101.637 106.28C101.523 106.258 101.389 106.046 101.253 106C100.912 105.888 101.011 106.27 100.731 106.098C100.487 105.949 99.9653 104.984 99.7992 104.708C99.5345 104.268 99.4113 103.841 99.0864 103.44C98.7614 103.038 98.6031 102.501 98.3024 102.137C98.1581 101.962 97.7622 101.969 97.656 101.799C97.4964 101.543 97.6996 101.356 97.6281 101.094ZM92.9442 120.754C93.6374 119.549 94.8234 118.527 95.741 117.474C95.7972 119.204 94.5567 120.389 92.9442 120.754ZM93.881 121.31C95.3125 120.806 96.1012 119.601 96.2472 118.14C96.4326 116.289 97.5946 115.318 98.2942 113.655C98.5626 113.018 98.8753 110.921 99.9152 111.521C100.272 111.727 100.484 112.501 100.669 112.851C101.119 113.697 101.631 114.518 102.108 115.348C102.496 116.025 103.078 116.705 102.907 117.52C102.757 118.229 102.277 118.986 101.995 119.656C101.33 121.237 100.456 122.694 99.7265 124.24C99.4321 124.864 99.0836 126.341 98.1846 126.334C97.473 126.328 97.5524 125.55 97.0839 125.283C96.4926 124.947 95.8202 125.587 95.3343 125.853C95.8938 124.908 96.8718 124.373 97.971 124.551C96.6548 123.24 95.7653 125.009 94.6356 125.403C93.5653 125.776 91.6664 124.016 90.7652 123.517C91.1099 122.933 91.4214 122.219 92.0144 121.835C92.5767 121.47 93.2669 121.526 93.881 121.31ZM82.2424 133.29C82.3992 132.535 82.8421 132.089 83.1229 131.403C83.4485 132.234 82.686 132.725 82.2424 133.29ZM104.987 137.921C104.91 140.463 104.702 142.998 104.627 145.541C104.593 146.713 104.385 147.832 104.247 148.991C104.131 149.971 104.19 150.933 103.573 151.771C102.6 153.091 100.709 153.47 99.2411 153.959C98.163 154.319 97.0724 154.644 96.0077 155.043C95.0496 155.402 94.2775 155.946 93.3665 156.373C92.5516 156.755 91.672 156.981 90.8608 157.388C90.0217 157.809 89.3587 158.321 88.4969 158.696C87.4652 159.145 86.6151 159.942 85.6975 160.576C84.8899 161.133 84.0353 161.564 83.3404 162.265C82.6889 162.923 81.8641 163.211 81.1258 163.796C80.3451 164.413 79.5278 164.815 78.6653 165.299C76.8984 166.293 74.5145 167.988 72.3881 167.024C72.9963 166.247 74.241 165.5 74.3357 164.43C74.4588 163.036 73.2454 163.549 72.5428 163.994C71.4785 164.669 70.8897 165.483 70.0795 166.381C69.1324 167.432 67.9359 166.725 66.7769 166.43C67.5693 165.716 68.3554 164.996 69.1464 164.282C69.8142 163.679 70.836 163.026 71.2427 162.192C71.5333 161.596 71.519 160.778 70.8178 160.469C70.0331 160.123 69.1457 160.853 68.5645 161.287C67.0218 162.442 66.0058 163.905 64.9928 165.512C64.454 166.366 64.2058 166.301 63.2144 166.13C62.1639 165.949 61.1135 165.756 60.0543 165.629C61.4573 164.188 63.0253 162.627 64.1334 160.941C64.4924 160.395 64.9607 158.955 63.8669 158.823C63.4162 158.768 62.5188 159.69 62.1712 159.938C60.6517 161.024 59.1909 162.394 58.184 163.979C57.8514 164.503 57.7471 165.085 57.1033 165.128C56.2617 165.185 54.6979 164.382 53.886 164.134C55.4376 162.178 56.9784 160.208 58.7913 158.483C60.457 156.898 62.1185 155.746 64.0666 154.53C66.1544 153.227 68.0992 151.727 70.016 150.187C71.8509 148.713 73.7676 147.323 75.4565 145.678C78.8303 142.391 81.8353 138.611 84.3236 134.614C84.9058 133.679 85.454 132.719 85.9277 131.724C86.3728 130.789 86.5778 129.671 87.1785 128.821C87.386 128.527 87.6785 128.309 87.8634 128.003C88.0378 127.714 87.9787 127.365 88.2447 127.11C88.8599 126.519 89.9803 126.875 90.5552 127.289C91.48 127.955 92.2281 128.763 93.2446 129.321C94.267 129.881 95.3728 130.289 96.5048 130.564C99.1504 131.207 101.773 131.735 104.469 132.126C104.191 133.154 104.872 133.316 105.098 134.242C105.372 135.365 105.021 136.778 104.987 137.921ZM79.5114 120.769C78.9117 119.878 78.3764 118.946 77.7867 118.049C77.4276 117.503 76.9825 116.916 77.2896 116.248C77.8064 115.121 79.63 114.921 80.6195 115.412C82.8693 116.528 80.7794 119.721 79.5114 120.769ZM73.5567 100.386C73.3495 98.6442 74.0156 97.4083 75.5915 96.4949C76.7146 95.8438 77.6191 96.7335 77.4656 97.9202C77.2324 99.7282 75.3004 101.739 73.826 102.682C73.7296 101.918 73.6478 101.152 73.5567 100.386ZM73.3164 95.4021C73.7812 95.0329 75.0262 95.5038 75.5648 95.5359C74.8242 96.1832 74.0833 96.8303 73.3424 97.4774C73.2939 97.0333 72.8875 95.7426 73.3164 95.4021ZM75.8158 78.5791C79.5639 78.0918 75.2493 82.1142 74.163 82.7446C74.3397 81.8887 74.774 78.7148 75.8158 78.5791ZM85.7941 71.5368C85.2909 73.5984 81.3782 75.8475 81.3372 72.4706C81.3222 71.2122 82.0288 71.3142 83.0606 71.1932C83.6491 71.1246 86.0819 70.3584 85.7941 71.5368ZM72.2793 74.7295C71.8401 75.8824 71.4878 77.065 71.0573 78.2193C70.8665 78.7305 70.6422 79.0816 70.2869 79.4866C69.9895 79.8253 69.6356 79.9108 69.6473 80.4459C70.0199 80.3739 70.3115 80.1517 70.6124 79.9378C70.5396 80.9988 70.1645 82.1407 69.9829 83.1982C69.7654 84.4664 69.5842 85.735 69.517 87.021C69.3712 89.8176 69.37 92.6039 69.4314 95.4021C69.4628 96.8278 69.4769 98.2544 69.5538 99.6785C69.5922 100.387 69.6356 101.099 69.7232 101.803C69.7588 102.087 69.9651 102.692 69.8376 102.959C69.337 104.005 67.1193 101.132 66.1563 101.553C66.2948 100.757 65.9753 100.931 65.4417 100.54C65.1831 100.35 65.0149 100.028 64.7453 99.8585C64.6638 99.7706 64.574 99.6925 64.476 99.6239C64.3647 99.4717 64.247 99.4882 64.1235 99.6721C63.0384 99.0236 62.7581 97.6413 62.1756 96.7115C61.8761 96.2334 61.5867 96.1589 61.5356 95.4977C61.4913 94.9216 61.578 94.3347 61.5545 93.7563C61.5281 93.1038 61.4899 92.3842 61.3068 91.7524C61.0945 91.0188 60.8022 91.0788 60.2329 90.6878C60.4082 90.611 60.524 90.4823 60.58 90.3014C60.3981 90.3337 59.8457 90.5589 59.7084 90.397C59.4384 90.0789 60.0754 90.0365 60.2428 89.9095C59.5286 89.5924 59.6824 89.3317 59.9402 88.7507C60.0131 88.5862 60.0827 88.3406 60.1448 88.2021C60.2803 87.899 60.3583 88.091 60.4031 87.7146C60.4455 87.3557 60.1274 86.6503 60.0337 86.268C59.8767 85.6267 59.7897 85.0727 59.9308 84.4045C60.0452 83.8635 60.3529 83.3737 60.3742 82.8175C60.3803 82.6612 60.1424 82.6094 60.1392 82.4587C60.1345 82.2382 60.3403 82.1414 60.3937 81.9377C60.5303 81.4164 60.4687 80.8652 60.7024 80.3707C60.9126 79.9263 61.3373 79.3516 61.6378 78.9637C61.8461 78.6951 62.3573 78.3923 62.4133 78.0377C62.4503 77.8026 62.0845 77.8298 62.1006 77.6526C62.1229 77.4128 62.324 77.3353 62.3791 77.1571C62.5312 76.6685 62.5694 76.1985 62.9624 75.824C63.4577 75.3524 63.6726 75.55 63.6932 74.7721C63.7031 74.3927 63.3996 74.3343 63.5622 73.8967C63.6506 73.6593 63.9112 73.5192 64.0778 73.3507C64.5728 72.8514 64.9066 72.408 65.2591 71.7909C65.5708 71.246 66.0679 70.9286 66.3874 70.458C66.8031 69.8444 66.1813 69.5402 67.0253 69.367C66.9053 68.9861 66.7778 68.6782 67.0935 68.3557C67.2928 68.1522 67.7978 68.2767 67.9741 68.0416C68.1761 67.7714 67.8775 67.1313 68.182 66.956C68.4295 66.8137 68.8 67.2527 69.1891 67.0354C69.4853 66.8697 69.933 65.9552 69.8376 65.6191C70.604 66.0501 70.413 65.7532 70.7798 65.2C70.862 65.076 71.1112 65.0486 71.182 64.9235C71.3235 64.6732 71.2912 64.4182 71.4953 64.2147C71.8352 63.8763 72.3913 63.9632 72.7654 63.7214C73.0746 63.5217 73.0581 63.3063 73.3047 63.1178C73.5154 62.9568 73.8616 62.9259 74.0664 62.759C74.4677 62.4321 74.4717 62.0871 74.9737 61.8056C75.5683 61.4723 76.0949 61.1887 76.6359 60.7469C76.9884 60.4591 77.3231 59.9486 77.7356 59.7585C78.306 59.4958 78.7504 59.4773 79.3085 59.1023C79.7118 58.8314 80.0931 58.3842 80.489 58.1557C80.7878 57.9836 80.9974 58.0207 81.3738 57.914C82.0514 57.7218 82.2164 57.0834 82.769 56.8235C83.1485 56.6451 83.7009 56.8085 84.1176 56.7147C85.4142 56.4236 86.695 55.7957 87.9963 55.4479C89.5844 55.0237 91.184 54.652 92.7843 54.2768C91.3136 56.2701 89.4405 58.0687 87.5406 59.6519C86.917 60.1715 83.4998 62.5408 85.3417 63.5526C86.0812 63.9585 87.6874 62.647 88.2843 62.3264C89.4864 61.6807 90.7314 61.1639 91.9905 60.6417C94.0263 59.7972 96.6775 58.2953 98.9399 58.4163C97.5628 60.1059 95.8436 61.4622 94.2684 62.955C92.8209 64.3265 90.6398 65.6132 91.3223 67.8583C89.2891 67.341 87.4628 66.7296 85.3488 66.865C84.4019 66.9257 83.4543 66.8118 82.5117 66.9445C81.4867 67.0893 80.5216 67.4325 79.5365 67.7334C78.7572 67.9713 77.8961 67.99 77.1792 68.3859C76.8328 68.5774 76.4043 68.8507 76.0931 69.0881C75.678 69.4047 75.5838 69.6145 75.2578 70.0317C74.0953 71.5204 72.9703 72.9159 72.2793 74.7295ZM65.92 102.906C65.8565 102.648 65.7988 102.413 65.726 102.119C66.3731 102.517 66.3731 102.517 65.92 102.906ZM61.0293 94.6996C60.9496 94.8098 60.6145 94.8452 60.5172 94.75C60.396 94.6317 60.7146 94.1709 60.7656 94.0729C60.892 94.1697 61.1826 94.4873 61.0293 94.6996ZM59.6439 91.713C59.7295 91.3982 59.8155 91.0839 59.901 90.7692C60.0063 91.0607 60.4806 91.3832 60.4912 91.6612C60.4978 91.8452 59.7377 91.7535 59.6439 91.713ZM59.9188 92.1445C60.6613 92.6334 60.7392 93.2102 60.7612 94.0539C59.8727 93.7596 60.0002 92.8994 59.9188 92.1445ZM72.8317 58.8494C72.757 59.0521 72.4387 59.6842 72.2057 59.2422C72.1312 59.1007 72.6768 58.9075 72.8317 58.8494ZM72.6187 58.1603C72.8022 57.9949 73.1721 58.2007 73.3797 58.0671C73.5253 57.9733 73.477 57.8782 73.5454 57.8226C73.559 57.8116 73.7568 57.411 73.8379 57.3201C73.9811 57.1605 74.2933 57.0609 74.4672 56.9165C74.9535 56.5136 75.228 55.9835 75.5341 55.4444C75.899 54.8008 76.0155 54.7263 76.6042 54.4314C77.0102 54.2285 77.3247 53.9798 77.6549 53.6343C78.0356 53.2366 78.0077 52.9518 78.3201 52.5171C78.4745 52.3026 78.6967 52.2759 78.8765 52.1029C79.0921 51.896 79.2016 51.6063 79.401 51.3975C79.4871 51.307 79.7636 51.3072 79.8156 51.2299C79.8822 51.1319 79.934 50.7403 79.9963 50.6681C80.1152 50.8289 80.2345 50.9896 80.3533 51.1504C80.8225 50.3252 81.1649 49.6434 81.9496 49.0942C82.7737 48.5175 83.485 47.6737 84.3367 47.1574C84.5282 47.0414 84.9182 46.9926 85.0645 46.8215C85.3117 46.5321 85.0975 46.2747 85.278 46.0289C85.4826 45.7504 85.8792 45.9759 86.1393 45.8559C86.4686 45.7038 86.5628 45.2599 86.9866 45.3086C85.5928 46.9579 85.6101 49.5239 85.5363 51.5838C85.5042 52.4714 86.0631 52.9188 85.2379 53.5701C84.536 54.1242 83.5462 53.9596 82.7163 54.3243C81.674 54.7823 80.5593 55.0258 79.4962 55.425C78.3963 55.8377 77.512 56.5603 76.4535 57.0384C75.52 57.4598 74.8828 58.0589 74.0289 58.5792C73.7116 58.7725 73.2201 59.0533 72.8416 58.8222C72.6046 58.6774 72.3093 58.4395 72.6187 58.1603ZM88.3628 44.3322C88.4233 44.0981 89.6132 43.4821 89.906 43.2813C90.3452 42.9792 90.9956 42.2418 91.4859 42.5348C91.6558 41.8542 92.3189 41.0969 92.9046 40.9528C93.5545 40.7925 94.6692 40.2353 95.3085 39.7488C95.4953 39.6067 95.5567 39.3991 95.7766 39.266C96.1593 39.0337 96.5388 39.1605 96.9074 38.8441C96.9637 38.7958 97.4737 37.9537 97.4939 37.9619C97.5199 38.0521 97.5438 38.1435 97.5644 38.2354C97.9513 38.0207 98.2961 37.8501 98.5373 37.5764C98.5919 37.5142 98.2373 37.3528 98.3493 37.2297C98.4864 37.079 98.7923 37.2475 98.9308 37.1046C98.5 39.243 98.8206 41.9955 100.99 43.0797C98.4103 43.3584 95.8903 42.5828 93.2784 43.0591C92.0282 43.2874 90.7572 43.6617 89.62 44.2368C88.9232 44.5893 88.0321 45.8514 87.3386 45.2385C87.6138 44.8715 88.0338 44.6435 88.3628 44.3322ZM100.881 38.1801C101.846 37 103.31 36.5332 104.783 36.9557C106.509 37.4505 105.781 38.6561 105.52 39.9949C105.023 39.2648 103.944 38.5408 103.026 38.5188C101.723 38.4878 102.216 39.5728 102.997 39.9616C103.708 40.3146 104.928 40.413 105.436 41.0554C105.932 41.6803 105.742 42.7024 105.822 43.4395C105.437 43.3821 105.052 43.3249 104.666 43.2677C104.99 41.5476 103.567 41.4644 102.241 40.9792C100.901 40.4896 99.7835 39.5231 100.881 38.1801ZM105.203 33.9445V35.5408C104.667 35.235 104.13 34.9291 103.593 34.6232C104.13 34.3971 104.667 34.1707 105.203 33.9445ZM109.516 46.6996C111.307 47.1853 113.086 47.6988 114.808 48.3686C115.434 48.6119 116.119 48.6979 116.732 48.9726C117.315 49.2339 117.403 49.2067 117.195 49.7182C116.614 51.1511 115.236 50.9036 114.029 50.6845C112.14 50.3414 110.29 49.8656 108.425 49.4179C106.602 48.9808 104.74 48.6942 102.944 48.146C101.101 47.5839 99.3053 47.0514 97.4097 46.6802C96.8566 46.5719 92.4803 46.1704 92.5136 45.7132C95.2696 45.355 98.1072 45.7078 100.876 45.745C103.753 45.7837 106.725 45.9433 109.516 46.6996ZM107.084 41.1569C107.118 40.1716 107.132 39.1832 107.254 38.204C108.074 39.216 108.814 39.5189 109.848 38.5703C110.837 37.6621 111.058 37.1887 112.313 38.0425C113.4 38.7829 114.429 38.7487 115.584 38.1007C116.289 37.7053 117.421 36.09 118.162 36.4225C118.514 36.581 118.773 37.2199 119.129 37.455C119.577 37.7493 120.264 37.9537 120.785 38.0681C122.016 38.3376 122.749 37.5461 123.522 36.6993C124.642 35.4717 124.609 36.1846 125.648 37.0361C126.806 37.9856 127.775 37.5217 128.824 36.7113C129.463 38.5837 129.702 40.6284 129.883 42.5913C129.943 43.2541 130.171 44.1951 129.576 44.6639C129.156 44.9943 128.266 45.0072 127.76 45.1898C125.954 45.8428 124.219 46.7693 122.709 47.9552C122.12 48.4171 121.607 48.9829 120.803 48.8777C120.037 48.7774 119.292 48.1359 118.675 47.7121C118.007 47.253 117.33 46.7313 116.548 46.4751C116.09 46.3251 115.357 46.3795 114.956 46.1046C114.212 45.5932 115.088 44.2521 114.903 43.3518C114.762 42.6684 114.369 41.2434 113.428 41.6439C112.027 42.24 112.842 44.5668 113.612 45.2932C112.036 45.0133 110.292 44.6046 108.772 44.0854C107.598 43.6842 107.042 42.3588 107.084 41.1569ZM133.513 45.9557C136.748 45.0473 139.775 44.4349 143.142 44.2694C144.632 44.196 146.075 44.2425 147.549 44.2558C148.397 44.2635 149.043 43.5794 148.366 42.7924C147.428 41.7028 144.566 42.1176 143.299 42.0686C139.901 41.9374 136.785 42.3236 133.567 43.4437C133.907 42.8167 134.725 42.7354 135.285 42.4113C135.972 42.0133 136.44 41.3578 136.733 40.6303C137.497 38.7384 136.728 36.9555 135.929 35.227C137.499 35.6493 139.123 36.5742 140.701 36.809C141.033 36.8582 141.245 36.8266 141.537 36.9471C141.717 37.0209 141.774 37.2764 141.997 37.3321C142.104 37.3593 142.362 37.116 142.484 37.1505C142.965 37.2864 142.585 37.3225 142.889 37.5192C143.13 37.6753 143.11 37.8764 143.553 37.8025C143.749 37.7702 143.962 37.4667 144.065 37.4585C144.197 37.4477 144.166 37.2874 144.368 37.3342C144.734 37.4193 144.702 37.8916 144.824 38.1241C144.955 38.3716 144.769 38.7007 145.165 38.8359C145.461 38.9374 145.535 38.625 145.786 38.6475C145.939 38.661 146.256 38.8811 146.391 39.015C146.825 39.4467 147.42 39.9232 148.004 40.2042C147.946 40.1463 148.279 40.0073 148.199 39.9747C148.146 39.9529 148.495 40.0373 148.49 40.0361C148.827 40.1128 149.006 40.6305 149.176 40.8194C149.489 41.1653 149.977 41.5307 150.416 41.6835C151.175 41.9477 151.152 41.6318 151.429 42.5346C151.969 41.6854 152.177 43.1074 152.846 43.2639C153.193 43.345 153.153 43.1964 153.468 43.3781C153.684 43.5025 153.828 43.8836 153.992 44.0676C154.062 43.8023 154.132 43.5368 154.201 43.2719C154.684 44.1857 155.725 45.6349 156.867 45.3728C156.867 45.6222 156.764 45.9203 156.957 46.1332C157.092 46.282 157.31 46.113 157.416 46.1995C157.508 46.275 157.728 46.5754 157.799 46.6249C157.938 46.7224 158.19 46.7936 158.311 46.8907C158.417 46.9762 158.47 47.3847 158.588 47.5321C158.809 47.8096 159.193 47.8647 159.374 48.1975C159.415 47.8694 159.457 47.541 159.498 47.2129C159.858 47.4909 159.888 47.7067 159.977 48.1132C160.103 48.6921 159.936 48.5564 160.335 48.8008C160.728 49.041 160.932 49.0141 161.292 49.431C161.644 49.8398 161.648 50.0918 162.157 49.6659C162.251 49.9809 162.282 50.3882 162.534 50.6296C162.725 50.8122 163.515 50.82 163.591 51.2507C162.106 49.9982 163.083 51.9007 163.592 51.254C163.699 51.9461 164.205 52.1697 164.784 52.6628C165.324 53.122 165.412 53.0887 165.596 53.8605C165.592 53.8436 165.867 54.0143 165.887 54.0485C165.362 54.1235 166.176 54.7108 166.314 54.8184C166.415 54.8967 166.546 54.7094 166.713 54.8362C166.904 54.9815 167.059 55.3115 167.215 55.5105C167.636 56.05 167.948 56.5136 168.391 56.9521C168.87 57.4256 169.102 58.0242 169.562 58.5775C170.072 59.1921 170.347 59.8987 170.774 60.5657C171.179 61.2002 171.717 61.7095 172.186 62.2905C172.934 63.2151 173.188 65.2511 174.582 65.3048C174.501 65.3894 174.614 66.0203 174.628 66.1368C174.694 66.7099 174.65 67.2614 174.989 67.7805C175.067 67.1882 175.376 67.4165 175.645 67.7275C176.093 68.245 175.7 68.1147 175.724 68.6393C175.752 69.2749 175.825 68.7832 176.067 69.3382C176.257 69.7729 176.36 70.0551 176.462 70.5374C175.675 70.6 175.314 69.9564 175.023 69.333C174.901 69.0721 174.859 68.6435 174.644 68.4396C174.414 68.2225 174.099 68.2054 173.864 67.9633C173.412 67.4981 173.216 66.7727 172.683 66.3199C172.081 65.8085 171.947 65.5668 171.449 64.9553C170.899 64.2789 170.139 63.8039 169.561 63.1497C168.983 62.4942 169.03 62.8521 168.303 62.6149C167.53 62.3622 166.281 59.9327 165.307 60.8685C165.346 60.2564 164.429 59.6805 163.966 59.4588C163.765 59.3629 163.532 59.4496 163.332 59.306C163.114 59.1501 163.099 58.8496 162.879 58.6626C162.88 58.6628 162.543 58.7442 162.475 58.7097C162.336 58.6394 162.335 58.3905 162.213 58.3087C161.873 58.0818 161.469 57.8442 161.109 57.651C160.234 57.1816 159.46 56.6036 158.616 56.0385C157.892 55.5543 157.017 54.6799 156.18 54.4246C155.45 54.2018 154.991 54.3154 154.393 53.8689C154.067 53.6259 154.163 53.5441 153.64 53.3929C153.141 53.249 152.861 53.3231 152.597 52.7946C152.135 51.8697 152.427 50.0646 152.337 49.0275C152.242 47.9268 152.13 46.7988 151.843 45.7286C151.503 44.4637 151.055 43.8025 149.698 44.1004C147.01 44.6913 144.354 45.2535 141.654 45.7722C136.273 46.806 130.984 48.4928 125.721 49.9905C125.32 50.1049 123.084 50.6167 123.54 49.4603C123.751 48.9269 125.167 48.7282 125.64 48.5606C128.242 47.64 130.855 46.702 133.513 45.9557ZM132.609 43.6019C132.216 43.7517 131.823 43.9014 131.43 44.0514V42.9585C131.823 43.173 132.216 43.3872 132.609 43.6019ZM130.976 37.8232C131.317 38.1023 132.012 37.4306 132.302 37.2944C132.798 37.0621 133.43 36.8627 133.984 36.9103C135.006 36.9989 135.753 38.005 135.566 39.025C135.249 40.751 132.79 41.5671 131.434 42.2418C131.391 41.6301 131.193 40.8949 131.622 40.3659C131.994 39.9065 132.716 39.9398 133.06 39.4511C133.924 38.2232 131.581 38.1119 131.057 39.0883C130.851 38.4642 130.644 37.8403 130.437 37.2164C130.936 37.1336 130.717 37.6117 130.976 37.8232ZM133.395 34.4449C132.907 34.7603 132.419 35.0758 131.931 35.3913C131.689 34.2993 132.513 34.1557 133.395 34.4449ZM177.853 72.449C177.214 72.7539 177.054 72.0257 176.595 71.9943C177.138 71.6606 177.138 71.6606 177.853 72.449ZM180.451 88.35C180.531 89.3967 180.469 90.4553 180.608 91.4978C180.714 92.291 181.036 93.029 181.07 93.831C181.145 95.5877 180.552 97.3764 179.354 98.6641C178.221 99.8821 176.599 100.93 175.07 101.443C174.381 101.673 173.661 102.184 172.992 102.373C172.251 102.583 171.547 102.127 170.936 102.944C170.529 99.4417 170.827 95.7824 170.795 92.2584C170.763 88.7266 170.8 85.1936 170.203 81.7C169.671 78.5885 168.622 75.0885 166.689 72.543C165.903 71.5094 164.936 70.6628 163.917 69.8702C163.387 69.4591 162.858 69.0194 162.269 68.6948C161.362 68.1949 160.589 68.264 159.603 68.1217C158.191 67.9178 156.879 67.7456 155.462 68.1431C154.143 68.5134 152.69 68.9348 151.509 69.5779C150.332 70.2187 148.965 70.4828 147.743 71.0566C146.912 71.4471 145.186 72.7514 144.263 72.5165C143.371 72.2889 142.049 70.7742 141.479 70.0954C140.751 69.2282 140.148 68.223 139.502 67.29C139.275 66.9623 138.813 66.4558 138.754 66.0353C138.652 65.305 138.944 65.5436 139.642 65.6254C141.435 65.8357 143.122 66.1685 144.841 66.7331C145.696 67.0139 147.369 68.1503 148.225 67.4692C149.531 66.4296 147.546 64.6425 146.819 64.0422C145.581 63.0192 144.141 62.2596 142.82 61.3504C141.418 60.3846 139.563 59.3561 138.66 57.8688C141.296 58.6469 143.93 59.5382 146.489 60.5414C147.659 61.0003 148.817 61.4852 149.916 62.0955C150.534 62.4382 151.782 63.3653 152.526 62.9212C154.143 61.956 150.429 59.1527 149.893 58.5799C149.061 57.6897 148.245 56.808 147.33 56.0003C146.712 55.4554 145.743 55.0722 145.455 54.2685C146.48 54.6396 147.309 55.3661 148.268 55.8597C148.77 56.1185 149.229 56.2673 149.784 56.3465C150.375 56.4311 150.446 56.5253 150.912 56.7604C151.274 56.9439 151.647 57.1889 152.055 57.3135C152.345 57.4026 152.852 57.4178 153.106 57.5826C153.236 57.7675 153.37 57.9496 153.508 58.1285C153.663 58.1739 153.815 58.2262 153.966 58.286C154.191 58.4866 154.324 58.7634 154.543 58.9703C156.132 60.4732 158.258 61.5487 160.04 62.8078C161.725 63.9989 163.514 65.0763 165.133 66.3761C166.996 67.8724 168.93 69.4804 170.514 71.2746C171.41 72.2885 172.146 73.4381 172.898 74.5593C173.443 75.3712 174.235 76.0446 174.706 76.8817C175.732 78.7068 176.584 80.6796 177.689 82.4753C178.815 84.3049 180.282 86.1229 180.451 88.35ZM165.307 98.9392C165.614 97.6727 167.346 96.1938 168.453 95.6353C167.895 97.0155 166.409 97.9565 165.307 98.9392ZM168.163 103.358C167.219 105.316 163.068 105.54 163.631 102.642C163.907 101.222 165.078 100.35 166.084 99.4206C166.549 98.9913 167.687 97.4547 168.407 97.7022C168.373 98.8068 168.308 99.9164 168.31 101.021C168.312 101.759 168.498 102.664 168.163 103.358ZM166.964 80.7815C167.347 81.6417 167.728 82.3582 167.017 83.1278C166.697 83.4752 165.652 84.235 165.179 84.0663C163.662 83.5251 166.555 81.1685 166.964 80.7815ZM157.786 73.1271C158.151 73.1071 158.506 73.1615 158.867 73.1392C159.227 73.117 159.265 73.0532 159.598 73.0987C159.633 73.1498 159.669 73.2009 159.704 73.2522C159.749 73.5953 159.93 73.6326 160.244 73.3643C160.682 73.4615 160.967 73.5267 161.386 73.7632C160.256 74.5778 158.88 75.5252 157.495 75.7987C155.306 76.2307 155.911 73.2304 157.786 73.1271ZM124.221 91.4486C123.994 91.9054 123.341 90.7643 123.179 90.5517C123.48 90.5507 124.45 90.9878 124.221 91.4486ZM141.813 79.4266C143.514 78.434 145.534 77.5624 147.361 76.8234C147.682 78.3712 146.116 80.3692 145.15 81.4284C144.37 82.285 143.429 83.1733 142.372 83.6662C141.228 84.1992 139.977 83.965 140.033 82.4697C140.053 81.9232 140.178 81.0438 140.4 80.5443C140.687 79.9003 141.229 79.7664 141.813 79.4266ZM118.818 51.2711C119.071 51.2564 121.822 50.9008 121.807 51.243C121.764 52.2717 119.094 51.464 118.818 51.2711ZM99.3691 71.1316C100.822 69.3393 103.167 67.4046 103.201 64.8996C103.252 61.2133 99.161 63.0525 97.1043 63.2057C98.1918 62.1372 103.657 57.6543 100.424 56.0622C99.4952 55.6045 98.1745 56.0517 97.2421 56.2914C95.5879 56.7168 94.0499 57.4537 92.4248 57.9663C93.5861 56.7302 95.5924 55.3253 95.5267 53.4534C95.4463 51.1746 93.5758 51.7256 91.9584 52.0598C91.3368 52.1885 88.5602 53.2931 88.0385 52.5431C87.8474 52.2684 88.1566 51.9194 88.222 51.6747C88.3378 51.2421 88.3019 51.0909 88.3059 50.6489C88.3139 49.7571 88.9063 48.6117 88.4231 47.7822C88.3127 47.9707 88.218 48.1668 88.1392 48.3705C87.9799 47.8879 88.087 47.3758 87.9276 46.8932C91.9656 47.9259 96.0735 48.4912 100.137 49.3727C102.194 49.8189 104.13 50.5872 106.215 50.9332C108.318 51.2817 110.385 51.8153 112.492 52.1479C114.414 52.451 116.256 52.956 118.159 53.3432C120.015 53.7208 121.918 52.8935 123.729 52.4744C127.786 51.5362 131.842 50.575 135.904 49.6647C140.591 48.6138 145.467 47.7152 149.954 45.9625C150.041 48.2985 150.228 50.6301 150.513 52.9502C148.532 52.0134 145.591 50.7918 143.588 52.4681C142.786 53.1386 142.539 54.2967 142.856 55.2813C143.201 56.3533 144.258 56.8511 144.955 57.6581C142.833 57.1141 137.36 53.2797 136.386 57.1556C135.698 59.8931 139.054 61.6612 140.695 63.202C139.066 62.883 136.883 61.5801 135.926 63.674C135.1 65.4843 136.096 67.454 137.116 68.947C137.669 69.756 138.291 70.5173 138.878 71.301C139.189 71.7157 139.493 72.1361 139.819 72.5385C140.147 72.9421 140.765 73.3647 140.994 73.799C141.457 74.6749 140.524 74.7283 139.799 75.0447C138.893 75.4399 138.115 76.1034 137.287 76.6321C135.391 77.8429 133.733 78.9674 131.493 79.3544C129.185 79.7526 126.964 80.1686 124.687 80.7243C122.417 81.2782 120.565 81.8102 118.244 81.0944C117.187 80.7682 116.325 80.478 115.203 80.5394C114.025 80.6039 113.336 80.5427 112.367 79.8128C108.198 76.6727 103.672 74.096 99.3691 71.1316ZM91.8527 67.9792C93.464 67.1707 95.0861 66.3583 96.7506 65.6636C98.1283 65.0882 100.22 64.4182 101.729 64.6703C101.303 65.7625 100.528 66.6586 99.6953 67.4627C98.9594 68.174 98.0399 69.2475 97.1496 69.7439C96.3407 70.1943 95.3999 69.4807 94.6024 69.1816C93.726 68.8532 92.5199 68.7002 91.8527 67.9792ZM92.2577 72.0578C93.0606 71.7243 94.7863 72.8439 95.5167 73.135C96.952 73.7074 98.395 74.305 99.6599 75.2078C98.1154 76.9928 96.3663 78.6248 94.2878 79.7711C92.9205 80.5256 90.6156 81.3907 89.3256 80.021C87.7052 78.2999 89.6533 74.7932 90.8006 73.3183C90.8385 73.5707 90.8767 73.8227 90.9149 74.0751C91.281 73.4892 91.5604 72.3478 92.2577 72.0578ZM121.736 87.3344C120.734 87.5453 120.394 87.3548 119.733 86.5865C119.286 86.0674 118.847 85.5281 118.342 85.0612C117.828 84.5847 116.558 83.4358 118.176 84.0975C119.652 84.7003 120.915 85.0017 122.539 84.7654C124.395 84.4957 126.125 83.7107 127.955 83.3137C126.952 84.1914 125.956 85.0781 124.951 85.9535C123.889 86.8781 123.085 87.0501 121.736 87.3344ZM121.965 94.3945C119.77 96.0466 115.35 95.8678 116.838 92.2328C117.064 91.6806 117.38 91.161 117.746 90.6907C117.868 90.5336 118.085 90.2083 118.259 90.1028C118.744 89.8082 118.61 89.7726 119.077 90.2636C119.479 90.6874 122.627 94.1482 121.965 94.3945ZM121.315 88.0783C121.516 88.0129 122.363 87.5217 122.556 87.7935C122.752 88.0687 121.09 89.0207 121.315 88.0783ZM137.296 113.274C136.803 114.456 132.852 116.165 133.588 113.785C133.914 112.73 134.222 111.931 135.451 111.851C136.161 111.805 137.731 112.234 137.296 113.274ZM144.383 97.2689C145.033 96.322 147.181 95.0416 148.098 96.4537C148.539 97.1341 147.467 97.4826 146.819 97.3078C146.471 97.2133 146.186 97.0054 145.808 96.9897C145.321 96.9698 144.846 97.3516 144.383 97.2689ZM146.107 98.2089C145.664 98.6566 142.998 100.901 142.566 100.555C143.437 99.3096 144.437 97.919 146.107 98.2089ZM141.751 120.919C140.825 120.972 141.287 119.576 141.377 119.018C141.601 119.407 142.78 120.861 141.751 120.919ZM144.104 118.418C143.804 117.885 142.997 117.091 143.18 116.405C143.319 115.881 144.579 115.176 145.107 115.477C145.808 115.876 144.792 118.506 144.104 118.418ZM166.079 112.827C165.683 114.192 165.273 113.84 164.031 114.105C162.784 114.37 161.923 115.428 160.825 115.996C161.207 115.19 161.443 114.208 162.081 113.554C162.229 113.403 163.133 113.105 162.618 112.756C162.167 112.45 161.52 113.442 161.326 113.712C160.376 115.043 159.711 116.668 159.163 118.199C158.893 118.951 158.676 119.717 158.549 120.506C158.435 121.21 158.558 121.946 158.442 122.632C158.255 123.736 156.756 123.741 155.854 124.026C155.038 124.283 154.225 124.563 153.378 124.702C152.643 124.822 151.881 124.603 151.169 124.747C150.398 124.904 150.052 125.361 149.176 125.258C148.462 125.174 147.793 124.845 147.069 124.812C146.392 124.782 145.716 125.016 145.042 124.825C144.363 124.633 144.396 124.558 144.55 123.891C144.647 124.071 144.744 124.251 144.84 124.431C145.111 124.218 145.299 123.571 145.465 123.267C145.722 122.796 145.932 122.633 145.837 122.046C145.696 121.179 144.915 120.563 144.738 119.739C144.553 118.879 145.188 118.175 145.564 117.457C146.078 116.475 146.071 115.746 145.641 114.73C145.965 114.815 146.29 114.901 146.615 114.987C146.17 114.021 144.66 114.412 143.904 114.699C143.523 114.842 142.92 115.408 142.511 115.393C141.948 115.373 141.655 114.634 141.414 114.227C140.714 113.049 139.915 111.885 139.088 110.791C138.861 110.49 138.562 110.297 138.641 109.954C138.708 109.663 139.36 109.251 139.572 109.072C140.365 108.4 141.376 108.029 142.121 107.322C143.248 106.255 144.547 105.49 145.698 104.444C146.898 103.354 148.135 102.353 149.385 101.323C150.652 100.279 151.749 99.0501 153.006 97.9964C153.332 98.5867 153.963 100.701 154.685 100.864C155.527 101.055 155.501 100.059 155.46 99.4598C155.4 98.606 154.926 97.7763 154.873 96.9614C154.816 96.0897 155.655 95.6999 156.288 95.1958C157.266 94.4167 159.43 92.6428 158.266 91.1824C157.264 89.9247 154.006 92.3362 153.108 93.0614C152.345 93.6775 151.755 94.2349 150.896 94.721C150.292 95.0624 149.278 96.3764 148.562 96.255C147.71 96.1108 147.377 95.1803 146.335 95.211C145.316 95.2408 144.451 95.9744 143.819 96.711C142.391 98.3758 141.901 100.603 140.6 102.339C139.958 103.194 139.126 103.901 138.43 104.71C137.666 105.599 137.504 106.623 136.75 107.492C134.594 104.62 132.245 101.9 129.971 99.1214C128.835 97.7339 127.723 96.3299 126.612 94.9232C126.196 94.3959 125.726 93.9011 125.345 93.3473C124.822 92.5889 124.916 91.9797 124.711 91.1339C124.62 90.7589 124.195 90.3098 124.308 89.9514C124.462 89.47 125.538 89.092 125.927 88.8951C127.512 88.0905 128.949 87.0848 130.428 86.1016C133.165 84.2814 135.933 82.5747 138.845 81.0199C138.794 81.6897 138.359 82.3839 138.651 83.0559C138.788 82.6694 139.004 80.947 139.52 80.8732C139.421 80.8872 139.502 83.0817 139.582 83.395C139.82 84.33 140.511 84.9693 141.5 84.963C143.384 84.9508 145.072 82.9019 146.118 81.5446C146.826 80.6256 147.505 79.5569 147.755 78.4066C147.979 77.3739 147.732 76.6558 148.806 76.1313C151.008 75.0555 153.229 74.1789 155.585 73.6085C155.479 74.6235 155.185 75.8735 156.108 76.6035C157.126 77.4096 158.459 76.6912 159.418 76.158C160.368 75.6299 161.832 74.1794 162.948 74.6008C164.045 75.0152 164.809 76.3914 165.423 77.3053C165.964 78.1108 166.554 78.6916 165.927 79.5895C165.224 80.5957 164.767 81.5777 164.204 82.6706C163.987 83.0908 163.781 83.3648 163.934 83.7951C163.983 83.935 164.548 84.7666 164.701 84.8859C165.678 85.6464 166.998 84.1996 167.696 83.6505C167.942 86.0156 167.997 88.3701 168.096 90.7425C168.169 92.4799 168.842 94.1906 167.416 95.4606C165.99 96.7305 164.8 98.0341 163.931 99.7532C163.467 100.672 163.051 101.614 162.549 102.514C162.214 103.115 161.506 103.996 161.939 104.703C162.396 104.27 162.532 103.611 162.913 103.122C163.141 104.136 163.37 105.262 164.443 105.692C165.678 106.186 166.905 105.33 167.999 104.854C167.606 107.566 166.842 110.202 166.079 112.827ZM164.817 115.945C163.97 117.756 163.205 119.939 161.64 121.273C161.297 121.566 159.837 122.709 159.281 122.517C158.81 122.354 159.069 121.402 159.151 120.993C159.568 118.921 160.289 117.617 161.97 116.295C162.665 115.748 163.558 115.048 164.455 114.913C165.421 114.768 165.143 115.249 164.817 115.945ZM188.718 158.931C186.521 155.943 183.416 153.622 180.481 151.377C179.152 150.361 177.688 149.598 176.345 148.582C174.827 147.432 173.285 146.323 171.584 145.457C168.36 143.814 164.843 142.668 161.8 140.726C160.316 139.778 158.693 138.863 157.298 137.799C156.685 137.332 156.144 136.734 155.59 136.199C155.076 135.702 153.971 134.98 153.766 134.252C154.623 134.112 155.109 133.281 155.874 133.196C156.125 133.168 157.703 133.586 157.487 132.821C158.059 132.806 158.126 132.798 158.605 132.673C158.804 132.621 159.039 132.702 159.24 132.631C159.547 132.522 159.756 132.209 160.066 132.089C160.287 132.004 161.106 132.099 161.23 131.993C161.569 131.703 161.209 131.729 161.007 131.367C161.665 131.35 162.118 131.683 162.778 131.329C162.979 131.221 163.15 130.973 163.345 130.844C163.69 130.616 163.815 130.97 164.052 130.496C164.273 131.15 164.267 130.969 164.801 130.777C165.333 130.585 165.717 130.447 166.323 130.398C167.77 130.284 169.222 130.46 170.662 130.357C171.189 130.319 171.639 130.199 172.163 130.269C172.623 130.329 172.485 130.65 172.868 130.218C172.957 130.117 172.669 129.843 172.807 129.699C172.868 129.635 173.066 129.68 173.141 129.647C173.815 129.353 173.818 129.764 173.937 130.299C174.332 130.206 174.735 130.122 175.078 129.891C174.905 129.736 174.615 129.565 174.782 129.283C175.352 129.499 175.724 129.399 175.439 130.024C176.013 130.214 176.12 129.967 176.634 129.913C176.939 129.881 177.364 130.07 177.617 129.827C177.894 129.561 177.457 129.273 177.966 129.044C178.071 129.098 178.148 129.178 178.198 129.285C178.473 129.368 178.424 129.476 178.05 129.609C179.05 130.128 178.815 129.548 179.236 128.935C179.333 128.793 179.767 128.354 179.965 128.567C180.265 128.888 179.652 128.99 179.784 129.31C180.012 129.864 180.806 129.154 181.05 128.873C181.235 128.661 181.31 128.254 181.509 128.096C181.786 127.875 182.183 128.216 182.529 128.155C184.11 127.878 185.603 125.752 184.412 124.33C184.092 123.947 183.821 124.023 183.44 123.782C183.063 123.543 182.851 123.131 182.549 122.79C181.858 122.012 181.012 121.43 180.047 121.057C177.807 120.193 175.393 119.563 173.041 119.099C171.951 118.884 170.792 118.556 169.677 118.558C169.019 118.559 168.03 119.07 167.416 118.825C166.221 118.35 167.975 115.913 168.264 115.127C169.114 112.815 169.755 110.35 170.176 107.923C170.258 107.448 170.226 106.833 170.397 106.38C170.594 105.86 170.636 105.933 171.056 105.891C171.816 105.814 172.646 106.213 173.437 106.075C174.313 105.923 175.26 105.993 176.145 105.722C176.552 105.598 176.929 105.463 177.196 105.119C177.281 105.012 177.187 104.918 177.24 104.843C177.257 104.819 177.559 104.493 177.569 104.474C177.566 104.305 177.58 104.137 177.613 103.972C177.92 104.226 177.768 104.76 178.285 104.773C178.377 104.203 178.378 104.088 178.752 103.768C178.724 103.793 179.033 103.529 178.994 103.558C179.012 103.456 179.05 103.361 179.105 103.274C179.28 103.19 179.464 103.145 179.658 103.14C180.062 102.724 179.895 102.503 179.895 101.944C180.22 102.113 180.546 102.283 180.872 102.452C180.951 100.796 181.959 99.8889 182.629 98.5469C182.915 97.975 183.206 97.5281 183.274 96.8383C183.313 96.4403 183.211 96.0892 183.375 95.7142C183.525 95.3739 183.859 95.1907 183.999 94.8199C184.274 94.0905 184.069 93.1593 184.084 92.4018C184.105 91.3514 184.21 90.3042 184.244 89.2542C184.311 87.1928 184.104 85.0746 183.796 83.0371C183.648 82.0626 183.401 81.1171 183.208 80.1529C183.048 79.3603 182.667 78.6168 182.53 77.8797C182.474 77.5732 182.561 77.2982 182.469 76.9593C182.347 76.514 182.144 76.076 181.992 75.6386C181.639 74.6167 181.29 73.5965 180.892 72.5906C180.122 70.641 179.22 68.7501 178.364 66.8381C177.539 64.9994 176.857 63.1038 175.79 61.3867C174.738 59.6957 173.606 58.0331 172.448 56.4145C171.241 54.7286 169.715 53.2802 168.544 51.5789C166.347 48.3846 163.282 45.7523 160.075 43.5787C153.457 39.0932 146.306 34.6148 138.37 33.0768C137.174 32.8453 135.963 32.6845 134.744 32.6545C133.988 32.6357 132.735 33.0014 132.019 32.7454C131.217 32.4588 131.29 31.5581 131.09 30.8514C130.832 29.9432 130.249 29.3482 129.588 28.706C128.892 28.0303 128.26 27.2407 127.392 26.781C126.512 26.3156 125.474 26.1414 124.5 26.0008C123.629 25.875 122.329 25.9924 121.534 25.6132C120.81 25.2677 121.168 24.9079 121.846 25.2037C121.895 24.9046 121.935 24.7115 122.127 24.4804C122.223 24.3642 122.678 24.2013 122.689 24.093C122.702 23.966 122.32 23.6046 122.266 23.4409C122.149 23.0884 122.215 22.6003 122.354 22.2696C123.038 22.8773 123.236 23.1464 124 22.5655C124.322 22.3202 124.421 22.2121 124.794 22.0884C124.895 22.0547 125.122 22.1585 125.211 22.1003C125.548 21.8782 125.238 21.9305 125.398 21.668C125.358 21.7342 125.641 21.0364 125.628 21.1823C125.662 20.8106 125.772 20.9248 125.548 20.4682C125.108 19.5748 123.989 19.5382 124.559 18.5186C124.784 18.1175 124.981 18.1575 125.044 17.5758C125.078 17.2631 125.036 16.9045 125.035 16.5864C125.032 15.9359 125.155 15.4804 124.545 15.1492C123.959 14.8306 123.419 15.1801 123.181 14.39C122.932 13.5609 123.183 12.4979 122.284 11.9302C121.628 11.5154 120.68 11.87 119.955 11.6671C119.228 11.464 118.56 10.7204 117.822 11.2913C117.298 11.6971 117.02 12.6947 116.033 12.1552C115.587 11.9119 115.342 11.095 115.061 10.6369C114.613 9.90663 114.254 9.64287 113.565 10.3541C113.14 10.7927 112.245 11.8605 112.19 12.4677C112.13 13.138 112.715 13.4181 111.98 13.8146C111.25 14.2092 110.84 13.9199 110.247 14.7207C109.659 15.5152 110.114 15.9541 109.433 16.7143C108.582 17.6645 108.129 18.0746 108.141 19.3548C108.149 20.2329 107.373 20.9913 107.826 21.8243C108.333 22.7579 109.813 23.1462 110.71 23.5261C110.411 24.0798 110 24.4347 110.35 25.0045C110.666 25.5206 111.562 25.6279 112.117 25.5342C112.491 25.4714 112.504 25.5278 112.798 25.2651C112.99 25.0933 112.726 24.8786 113.123 24.7835C113.545 24.6815 114.219 25.5089 114.493 25.7156C113.88 26.5103 112.199 26.6589 111.309 27.0618C110.767 27.3075 110.268 27.671 109.716 27.8906C109.215 28.0898 108.605 28.0436 108.151 28.3518C107.367 28.8843 107.04 30.2034 106.56 30.9789C106.015 31.8569 105.488 32.2645 104.444 32.4468C103.141 32.6739 102.093 32.7653 100.878 33.3325C99.3944 34.0253 97.9321 34.7568 96.4753 35.5035C94.1254 36.708 91.9424 37.9443 89.7604 39.401C87.4776 40.9253 85.2571 42.5163 83.0545 44.1089C80.8757 45.6841 79.0467 47.6219 77.1541 49.5269C75.6243 51.0667 74.2818 52.7287 72.7579 54.2681C70.9588 56.0859 69.6356 58.38 67.9675 60.3084C67.0549 61.3631 66.1816 62.4004 65.609 63.6431C65.1449 64.6507 64.3378 65.639 63.7989 66.6958C63.1106 68.047 62.459 69.3768 61.686 70.6832C61.3689 71.2192 60.992 71.6793 60.6574 72.1912C60.2285 72.8465 60.2538 73.4796 60.1385 74.2352C60.018 74.0507 59.8978 73.8663 59.7773 73.6823C59.5588 74.1592 59.2949 74.6282 59.1058 75.1167C58.9851 75.4282 59.0041 75.8704 58.8829 76.143C58.7308 76.4852 58.5456 76.4397 58.356 76.7247C58.1533 77.0294 58.0879 77.4389 57.8744 77.7656C56.9507 79.1784 56.5954 80.9709 56.1208 82.5829C55.4842 84.7455 55.5846 87.231 55.6192 89.4609C55.656 91.8161 55.7847 94.1716 56.1388 96.502C56.4597 98.6125 57.1455 100.637 58.2192 102.487C59.1548 104.1 60.4448 105.039 62.0974 105.865C62.8563 106.245 63.5606 106.128 64.357 106.188C65.2295 106.254 65.8246 106.491 66.7478 106.283C67.1906 106.183 67.4003 105.86 67.7521 105.753C67.9699 105.686 68.0873 105.795 68.2964 105.77C68.5954 105.733 69.2174 105.587 69.5418 105.622C70.5513 105.732 70.3818 107.258 70.4812 108.037C70.634 109.237 70.7458 110.45 70.9521 111.643C71.3854 114.151 72.3213 116.494 72.8742 118.959C70.311 119.272 68.1124 119.75 65.71 120.72C63.2999 121.693 60.8631 122.024 58.3267 122.507C55.9539 122.96 53.6716 123.806 51.7722 125.338C50.8821 126.055 49.9572 126.895 50.6109 128.077C51.029 128.833 51.7825 129.025 52.4329 129.465C52.5644 129.299 52.1842 128.946 52.1146 128.849C52.6614 128.961 52.6448 129.216 53.0442 129.438C53.3931 129.632 53.6788 129.625 54.0609 129.763C54.9937 130.098 55.4521 130.934 56.3742 131.169C56.6643 131.242 57.0438 131.419 57.3403 131.469C57.6967 131.53 57.9635 131.374 58.3246 131.44C58.5194 131.568 58.7303 131.66 58.9567 131.715C59.1053 131.646 59.252 131.573 59.3967 131.496C59.9156 131.55 60.236 131.876 60.6576 132.145C60.6857 131.807 60.6452 131.456 60.9649 131.235C61.0898 131.564 60.888 131.772 61.2288 131.998C61.6605 132.285 62.2274 131.927 62.6139 131.746C62.7234 132.838 65.2516 132.773 66.0529 132.758C67.1627 132.736 68.2713 132.296 69.3909 132.542C69.962 132.667 70.5717 132.798 71.1403 132.96C71.8249 133.156 72.6524 133.331 73.3263 133.578C73.5944 133.676 73.9225 133.99 74.2078 133.969C74.4349 133.952 74.4958 133.617 74.7602 133.627C75.0592 133.638 75.1598 133.971 75.4185 134.071C75.8062 134.221 76.1624 133.936 76.5306 134.08C76.6631 134.132 76.8424 134.353 77.0118 134.426C77.2689 134.535 77.778 134.537 78.0642 134.59C78.4699 134.665 78.8331 134.614 79.1807 134.639C79.461 134.659 79.4549 134.848 79.589 134.86C79.743 134.874 80.0109 134.345 80.2176 134.267C80.5185 134.154 81.0649 134.424 81.3719 134.471C79.1479 137.485 76.4664 140.15 73.5597 142.483C70.4245 144.999 67.2138 147.513 63.8517 149.72C60.7989 151.724 57.8439 153.458 55.4772 156.287C53.4815 158.673 50.3048 161.226 50.7944 164.684C51.2838 168.138 55.0354 169.544 58.0415 170.204C61.8224 171.034 65.7145 170.7 69.5055 171.166C71.1222 171.365 72.9185 171.259 74.546 171.089C76.4681 170.889 78.1155 169.635 79.7681 168.728C82.7404 167.096 85.2815 164.913 88.2093 163.231C91.8752 161.124 95.5024 158.891 99.5212 157.48C101.391 156.824 103.315 156.075 104.824 154.725C105.048 154.524 105.215 154.221 105.469 154.055C105.9 153.774 106.015 154.059 106.266 153.974C106.458 153.908 106.645 153.7 106.811 153.638C107.233 153.48 107.421 153.545 107.893 153.545C107.488 153.311 107.117 152.709 107.538 152.218C108.258 151.377 108.382 152.721 108.652 153.032C108.882 152.737 108.794 152.475 108.735 152.14C108.929 152.268 109.123 152.396 109.317 152.524C109.183 151.876 109.31 151.279 109.654 150.714C109.97 150.194 110.049 150.267 110.136 149.546C111.119 150.443 111.312 148.264 111.4 147.47C111.486 146.699 111.401 146.146 111.908 145.472C112.452 144.749 113.279 144.292 113.969 143.73C115.06 142.842 116.26 141.72 117.769 142.572C118.96 143.245 119.608 144.893 120.725 145.739C121.402 146.253 122.118 146.306 122.55 147.102C122.899 147.746 123.012 148.517 123.342 149.178C124.141 150.781 125.291 152.616 126.603 153.845C127.824 154.99 129.391 154.984 130.82 155.693C132.235 156.396 133.704 157.158 135.202 157.667C136.837 158.223 138.6 158.46 140.193 159.134C141.011 159.481 141.744 160.003 142.57 160.334C143.461 160.692 144.4 160.945 145.303 161.272C148.88 162.572 152.381 164.165 156.139 164.886C157.806 165.205 159.349 166.073 161.028 166.255C161.748 166.334 162.336 166.433 163.041 166.613C164.146 166.896 163.912 167.046 164.32 167.968C164.99 169.486 166.626 168.587 167.887 168.625C169.907 168.686 171.895 168.359 173.911 168.344C177.436 168.317 180.831 167.92 184.241 166.762C187.665 165.6 191.563 162.8 188.718 158.931Z" fill="#211814"/>
<path fill-rule="evenodd" clip-rule="evenodd" d="M147.966 40.3518C148.014 40.4001 148.127 40.4294 147.966 40.3518V40.3518Z" fill="#211814"/>
<path fill-rule="evenodd" clip-rule="evenodd" d="M85.8663 104.992C86.632 104.216 89.8898 104.373 90.1361 105.761C90.4106 107.31 87.4996 109.65 86.4341 110.306C85.0633 111.151 83.3899 111.309 83.6329 109.189C83.8166 107.588 84.7759 106.097 85.8663 104.992ZM88.5567 103.394C88.656 103.824 87.9238 103.678 87.7223 103.576C87.6271 103.381 88.4573 102.964 88.5567 103.394ZM82.9387 106.236C83.5884 106.294 84.333 105.252 84.8233 104.897C85.0398 105.231 83.6111 107.072 83.4538 107.492C83.0613 108.542 82.8428 109.868 83.3781 110.915C84.9424 113.974 88.9455 109.606 89.9467 108.08C90.6473 107.012 91.1322 105.689 90.1427 104.643C89.7904 104.271 89.2084 104.167 88.8813 103.813C88.4505 103.348 88.7894 102.746 87.9234 102.848C87.3257 102.918 86.6083 103.457 86.0273 103.652C85.327 103.887 84.6974 104.131 84.0862 104.567C83.9484 104.665 82.1359 106.164 82.9387 106.236Z" fill="#211814"/>
<path fill-rule="evenodd" clip-rule="evenodd" d="M128.864 107.263C128.456 109.364 126.373 111.521 124.181 111.604C121.999 111.688 121.292 109.401 121.677 107.579C122.006 106.024 123.349 103.324 125.266 103.621C126.773 103.855 129.214 105.461 128.864 107.263ZM127.474 103.75C126.09 102.679 124.179 102.183 122.575 103.033C122.049 103.312 119.95 104.54 120.588 105.372C121.45 104.704 122.193 103.778 123.312 103.556C123.124 104.424 122.049 105.204 121.671 106.049C121.228 107.036 120.986 108.166 121.058 109.251C121.187 111.181 122.48 112.681 124.482 112.416C126.315 112.173 127.917 110.768 128.791 109.189C129.959 107.08 129.301 105.163 127.474 103.75Z" fill="#211814"/>
<path fill-rule="evenodd" clip-rule="evenodd" d="M114.624 112.041C113.639 113.499 112.136 114.872 110.399 115.322C108.15 115.905 108.782 114.047 109.454 112.713C110.048 111.534 111.068 109.506 112.62 109.517C113.147 109.52 114.128 109.775 114.59 110.057C115.5 110.612 115.143 111.273 114.624 112.041ZM112.525 108.834C112.879 108.441 114.444 106.752 114.654 108.068C115.104 107.547 114.749 107.115 114.173 107.059C113.479 106.993 112.72 107.766 112.219 108.15C111.188 108.941 110.394 109.75 109.71 110.858C108.957 112.08 107.036 114.84 108.717 116.053C110.534 117.363 113.18 114.943 114.318 113.695C115.045 112.897 116.009 111.725 115.733 110.554C115.393 109.117 113.721 108.966 112.525 108.834Z" fill="#211814"/>
<path fill-rule="evenodd" clip-rule="evenodd" d="M104.771 85.3239C103.754 86.4843 101.688 88.1749 99.9855 87.9756C98.433 87.794 99.0391 86.0514 99.5885 85.2081C100.414 83.9406 101.52 82.7507 103.117 82.6813C103.807 82.6516 104.701 82.6656 105.235 83.1878C105.965 83.9013 105.308 84.711 104.771 85.3239ZM104.662 82.1001C103.471 81.6885 103.003 81.5317 101.845 82.1861C100.916 82.7116 100.091 83.4543 99.453 84.2976C98.4982 85.5599 97.5351 88.3994 99.9869 88.7545C102.676 89.1442 109.074 83.6254 104.662 82.1001Z" fill="#211814"/>
<path fill-rule="evenodd" clip-rule="evenodd" d="M108.328 89.3447C107.554 90.135 106.589 90.7797 105.486 90.9998C105.952 89.9594 106.994 87.6858 108.228 87.3691C108.797 87.2229 109.446 87.4144 109.399 88.0624C109.365 88.5309 108.633 89.0327 108.328 89.3447ZM109.324 86.594C108.683 86.273 108.885 86.0536 108.14 86.3055C107.553 86.5038 106.812 86.8481 106.323 87.2447C106.056 87.4612 105.225 88.2286 105.327 88.619C105.511 89.3287 106.131 88.2412 106.294 88.0322C106.573 88.2597 105.145 90.3023 105.06 90.6386C104.744 91.8904 105.726 92.0228 106.69 91.6132C107.988 91.0612 111.834 87.8517 109.324 86.594Z" fill="#211814"/>
<path fill-rule="evenodd" clip-rule="evenodd" d="M128.365 120.281C128.461 119.451 128.598 118.573 129.359 118.107C130.045 117.687 130.756 117.748 130.858 118.61C130.953 119.41 130.169 120.831 129.534 121.267C128.651 121.875 128.481 121.117 128.365 120.281ZM129.5 122.169C131.313 121.109 132.455 116.244 129.114 117.607C127.215 118.382 127.913 123.098 129.5 122.169Z" fill="#211814"/>
<path fill-rule="evenodd" clip-rule="evenodd" d="M114.017 101.995C114.303 101.41 114.63 101.215 115.21 100.959C114.823 101.324 114.428 101.661 114.017 101.995ZM114.435 100.551C114.025 100.964 113.084 101.592 113.216 102.299C113.336 102.945 113.829 102.908 114.277 102.707C115.215 102.285 115.737 100.438 116.719 100.265C115.63 99.5753 115.376 99.6074 114.435 100.551Z" fill="#211814"/>
<path fill-rule="evenodd" clip-rule="evenodd" d="M114.579 63.8763C114.632 65.843 114.678 67.8094 114.721 69.776C114.736 70.4672 114.571 71.4525 114.779 72.1146C114.87 72.4062 115.699 73.6704 115.993 73.7522C117.021 74.0384 116.653 71.4605 116.661 70.8258C116.686 68.6843 116.654 66.5405 116.646 64.399C116.641 63.2953 116.952 54.0417 115.52 54.087C115.274 54.0947 114.666 55.1527 114.575 55.3648C114.287 56.0309 114.393 57.0183 114.399 57.7284C114.419 59.7769 114.525 61.8281 114.579 63.8763Z" fill="#211814"/>
<path fill-rule="evenodd" clip-rule="evenodd" d="M123.25 69.6092C123.33 70.1529 123.288 71.0595 123.9 71.3414C124.433 71.5866 124.637 71.295 124.836 70.8394C125.294 69.7913 125.129 68.1888 125.12 67.1051C125.103 64.9573 124.862 62.8186 124.694 60.679C124.621 59.7401 124.773 58.7972 124.656 57.8147C124.605 57.3837 124.553 55.6493 123.754 55.7302C123.032 55.803 123.097 57.6206 123.057 58.0889C122.73 61.9875 122.673 65.7176 123.25 69.6092Z" fill="#211814"/>
<path fill-rule="evenodd" clip-rule="evenodd" d="M157.356 114.377C157.05 115.943 152.053 121.395 150.795 118.346C150.048 116.536 151.667 114.567 152.928 113.52C153.709 112.871 154.685 112.235 155.749 112.432C156.652 112.599 157.55 113.383 157.356 114.377ZM154.776 111.569C154.423 111.652 151.473 113.723 151.446 113.696C151.19 113.439 153.05 110.666 153.242 110.423C154.819 108.425 155.866 109.938 156.853 111.509C156.643 110.571 156.065 109.208 155.099 108.812C153.879 108.311 152.928 109.547 152.342 110.436C151.512 111.693 151.055 113.057 150.595 114.475C150.375 115.151 150.124 115.764 149.752 116.374C149.385 116.975 148.743 117.639 148.837 118.4C149.36 118.109 149.637 117.541 149.966 117.073C150.333 117.222 150.207 118.392 150.281 118.69C150.468 119.438 150.98 120.024 151.771 120.153C153.245 120.392 154.836 119.029 155.821 118.102C156.86 117.126 157.978 115.789 157.969 114.287C157.959 112.717 156.416 111.18 154.776 111.569Z" fill="#211814"/>
<path fill-rule="evenodd" clip-rule="evenodd" d="M158.772 86.4101C157.936 87.69 156.468 89.2242 154.916 89.5216C153.776 89.7398 153.024 88.8951 153.482 87.7549C153.869 86.7911 155.186 86.1825 156.05 85.7585C156.735 85.4222 159.929 84.6389 158.772 86.4101ZM158.157 84.3166C156.444 84.2519 155.062 85.4904 153.784 86.479C154.073 85.3434 154.725 84.108 155.644 83.369C156.895 82.3631 158.08 82.9877 159.397 83.4907C159.072 82.4658 157.614 82.0971 156.685 82.2419C155.511 82.4252 154.667 83.4276 154.073 84.3975C153.365 85.5543 153.122 86.9177 152.289 88.0029C151.907 88.4995 149.543 90.3583 150.079 91.118C150.961 90.1807 151.844 89.2437 152.727 88.3064C152.956 89.414 153.208 90.6755 154.623 90.5676C155.752 90.4814 157.04 89.5214 157.866 88.7876C158.932 87.8397 161.032 84.4254 158.157 84.3166Z" fill="#211814"/>
<path fill-rule="evenodd" clip-rule="evenodd" d="M134.159 95.2455C133.434 95.579 131.836 96.0325 131.431 95.0301C130.867 93.6376 132.681 91.1954 133.544 90.2676C134.075 89.6968 134.435 89.4015 135.176 89.7709C135.767 90.066 136.635 90.9041 136.862 91.5487C137.349 92.9322 135.295 94.7233 134.159 95.2455ZM135.824 88.558C136.415 88.6914 136.488 89.4418 135.749 89.1536C135.195 88.9377 135.067 88.3872 135.824 88.558ZM136.566 89.6151C136.346 88.9419 136.795 87.8861 135.708 87.8375C135.092 87.8101 133.964 88.4361 133.426 88.6907C132.681 89.0432 131.98 89.5815 131.591 90.3397C131.23 91.0422 131.488 91.2273 132.037 90.6444C132.104 90.6901 130.794 94.0684 130.783 94.4069C130.732 95.9537 131.827 96.9726 133.365 96.6984C134.778 96.4462 136.052 95.2902 136.83 94.1237C137.223 93.5331 137.547 92.8572 137.576 92.1339C137.621 91.0246 136.882 90.5786 136.566 89.6151Z" fill="#211814"/>
<path fill-rule="evenodd" clip-rule="evenodd" d="M145.369 86.5316C144.132 85.9663 142.75 87.8992 143.346 89.0476C144.129 90.5535 147.945 87.7089 145.369 86.5316ZM143.894 88.6923C143.636 88.2346 145.384 87.5596 145.661 87.5483C145.522 87.801 144.247 89.3202 143.894 88.6923Z" fill="#211814"/>
<path fill-rule="evenodd" clip-rule="evenodd" d="M61.1591 85.4257C61.09 84.9363 59.9936 85.6467 59.9999 85.9617C60.1813 85.5989 61.303 86.4449 61.1591 85.4257Z" fill="#211814"/>
<path fill-rule="evenodd" clip-rule="evenodd" d="M121.126 48.4605C122.522 48.3578 120.744 41.3153 119.726 41.938C118.623 42.613 119.845 48.5544 121.126 48.4605Z" fill="#211814"/>
<path fill-rule="evenodd" clip-rule="evenodd" d="M123.733 45.172C125.041 45.3592 124.833 42.3562 124.13 41.8188C122.831 40.8267 122.145 44.9446 123.733 45.172Z" fill="#211814"/>
</svg>
