<svg width="240" height="180" viewBox="0 0 240 180" fill="none" xmlns="http://www.w3.org/2000/svg">
<path fill-rule="evenodd" clip-rule="evenodd" d="M173.044 132.663C171.985 133.887 170.422 134.796 169.223 135.915C167.963 137.091 166.596 138.118 165.341 139.28C159.807 132.516 152.225 128.368 145.657 122.755C142.544 120.093 140.25 116.484 138.571 112.779C137.71 110.88 137.074 108.925 136.577 106.902C136.353 105.991 136.133 105.083 135.987 104.159C135.81 103.041 135.764 102.945 135.009 102.072C134.684 101.696 134.055 100.599 133.418 100.72C132.883 100.822 131.903 102.452 131.565 102.854C129.938 104.791 128.36 106.786 126.646 108.648C124.025 111.497 121.638 114.3 119.204 117.319C114.225 123.496 108.854 129.31 103.434 135.123C103.032 135.554 102.095 136.818 101.518 136.988C100.816 137.194 99.6744 136.333 98.9672 135.851C97.2603 134.689 95.915 133.251 94.4558 131.811C91.6083 129 89.6801 125.055 88.3831 121.301C87.6066 119.054 87.1018 116.725 86.3004 114.486C85.9665 113.553 85.2094 112.405 85.5938 111.593C85.7082 111.35 86.4366 110.707 86.6935 110.657C86.9972 110.599 87.5037 111.015 87.6092 110.987C88.617 110.711 88.0578 109.656 88.6573 109.088C88.9972 108.766 90.7257 108.813 91.2418 108.636C93.1287 107.989 94.8216 106.754 96.6054 106.017C104.073 102.932 111.632 99.9306 118.079 94.8923C119.751 93.5859 120.862 92.6041 122.857 91.7596C124.873 90.9063 126.9 90.145 128.957 89.4004C130.772 88.7435 132.597 88.1275 134.472 87.6567C136.499 87.1474 139.375 86.5017 141.401 87.1577C145.379 88.4456 146.663 91.7233 148.248 95.181C150.391 99.8592 152.982 104.286 155.792 108.592C161.197 116.877 167.77 124.311 173.044 132.663Z" fill="#F3F3F1"/>
<path fill-rule="evenodd" clip-rule="evenodd" d="M53.2406 59.4211C53.0217 59.31 51.3127 60.0056 51.0258 60.112C49.8799 60.5372 48.8006 61.2436 47.7211 61.8183C48.5484 62.8251 49.376 63.8322 50.2031 64.8394C51.0141 62.8502 52.0563 61.2089 53.2406 59.4211ZM53.8048 71.7972C53.5233 71.8289 55.8998 77.5399 56.1773 78.1812C57.1873 80.5134 58.2476 82.8229 59.2709 85.1494C60.2623 87.4038 61.5199 89.4778 62.787 91.5839C63.8707 93.3851 64.9854 96.1802 66.6202 97.5143C65.588 92.9351 65.7239 87.6698 62.7633 83.8249C59.6944 79.8389 56.6602 75.9466 53.8048 71.7972ZM173.044 132.866C168.458 125.604 162.717 119.179 157.935 112.047C155.257 108.053 152.651 104.008 150.397 99.7573C148.758 96.6649 147.739 92.2528 145.206 89.8887C144.09 88.8471 142.898 87.8276 141.401 87.3609C139.352 86.7225 136.53 87.3553 134.472 87.8601C130.636 88.8007 126.888 90.2613 123.255 91.7953C119.569 93.3511 116.425 96.1458 113.095 98.3911C109.523 100.8 105.656 102.555 101.654 104.091C98.1691 105.428 95.0691 107.349 91.6029 108.695C90.9122 108.963 89.5027 108.924 88.9233 109.274C88.2989 109.65 88.5448 110.763 87.7868 111.173C87.4448 111.358 87.3309 110.687 87.0684 110.698C86.7473 110.711 86.4546 111.088 86.1452 111.327C84.8855 112.299 85.6573 112.947 86.156 114.284C87.7819 118.642 88.6556 123.075 90.9384 127.189C92.8153 130.57 95.5015 133.6 98.6641 135.839C99.1453 136.18 100.714 137.5 101.278 137.412C101.786 137.333 102.821 135.982 103.172 135.615C104.764 133.949 106.22 132.157 107.812 130.489C110.271 127.912 112.639 125.265 115.026 122.651C117.797 119.618 120.249 116.181 122.745 112.94C123.893 111.449 125.37 110.234 126.646 108.851C128.362 106.992 129.937 104.994 131.565 103.058C132.057 102.472 132.882 100.973 133.648 100.991C134.184 101.003 135.129 102.266 135.41 102.661C136.452 104.132 136.448 106.788 136.966 108.624C138.231 113.1 140.512 117.472 143.641 120.927C146.752 124.362 150.738 126.805 154.417 129.566C158.404 132.558 162.18 135.619 165.341 139.483C166.596 138.322 167.963 137.294 169.222 136.118C170.422 134.999 171.986 134.09 173.044 132.866ZM114.012 153.411C114.904 153.42 116.414 153.969 117.211 153.639C114.845 151.021 112.673 148.775 109.68 146.857C106.573 144.866 103.478 142.893 100.461 140.769C94.3807 136.49 89.9088 131.415 87.3691 124.289C86.7152 122.454 86.2772 120.529 85.7979 118.642C85.5401 117.626 85.0268 112.873 84.1552 112.463C83.6388 112.22 79.7529 114.951 79.1372 115.291C77.6977 116.087 76.2527 116.705 74.7645 117.328C71.5655 118.667 68.2676 119.689 64.8752 120.542C60.8081 121.564 58.0378 119.872 55.5183 116.676C52.6598 113.049 50.2845 108.957 47.6709 105.148C46.4824 103.416 45.4978 101.687 44.6201 99.776C44.0456 98.5258 41.7673 95.153 42.5545 93.821C44.8005 95.531 45.6087 98.9311 47.1387 101.221C49.0455 104.074 51.1945 106.765 53.1113 109.616C54.723 112.013 56.3674 114.918 58.7487 116.641C60.8433 118.157 62.8331 117.691 65.0873 117.01C67.8195 116.184 70.6514 115.777 73.3289 114.753C76.2265 113.645 78.968 112.074 81.795 110.792C83.1129 110.194 84.6909 109.855 85.9329 109.11C87.0033 108.468 86.8437 108.129 86.9222 106.762C87.0141 105.168 87.1198 103.572 87.1903 101.977C87.2377 100.904 86.6578 99.4505 87.0513 98.6501C83.8418 99.2065 80.7049 99.9518 77.5179 100.611C75.773 100.972 74.0904 101.418 72.3277 101.702C71.6557 101.81 70.7372 101.807 70.1355 102.1C69.6555 101.962 69.4109 102.049 69.4015 102.362C69.3785 102.532 69.3422 102.7 69.2923 102.865C68.3081 103.312 67.7358 102.352 66.8822 101.431C65.8289 100.294 65.0402 99.014 64.2675 97.6783C62.5397 94.6919 60.5482 91.8832 58.9493 88.8126C57.3197 85.6826 55.9962 82.3312 54.6145 79.0837C53.347 76.1044 52.5354 72.8822 51.1348 69.9733C50.5097 68.6749 49.7175 67.6012 48.7924 66.5044C48.0291 65.5992 46.8546 63.6466 45.7146 63.2308C45.4132 63.1209 44.6238 63.3056 44.2814 63.2812C43.5989 63.2325 42.9907 62.9819 42.2923 63.0368C40.7801 63.1551 39.1315 64.1114 37.923 64.9521C38.704 65.6482 40.6575 66.4943 39.2543 67.7482C37.8926 68.9655 37.1405 66.7819 36.6209 65.8251C34.174 67.8344 34.5277 70.605 34.245 73.444C34.0973 74.9262 33.709 76.3858 33.4584 77.8458C33.278 78.8965 33.4045 79.9833 33.353 81.056C33.2215 83.782 32.9475 86.3913 32.9609 89.0791C32.9749 91.9521 33.1706 94.7266 33.4006 97.5787C33.7875 102.381 34.6741 107.184 35.4345 111.948C35.8622 114.626 36.4477 117.227 37.016 119.861C37.661 122.851 38.8542 125.683 39.5234 128.666C40.2052 127.799 40.718 127.795 41.8207 127.909C42.6689 127.998 43.2387 127.796 43.189 128.973C43.1569 129.737 42.4833 130.32 41.738 130.453C40.766 130.627 40.4358 130.142 39.9349 129.406C39.8177 130.8 40.7552 132.258 41.126 133.619C41.4769 134.909 41.7094 136.174 42.2991 137.409C42.8745 138.614 43.3671 139.802 43.9493 140.995C44.2174 141.544 44.4682 142.102 44.7394 142.649C44.8765 142.926 45.038 143.308 45.2426 143.542C45.7226 144.09 45.6462 143.824 46.208 144.136C47.4319 144.816 46.9723 144.647 47.0009 146.051C47.0288 147.436 47.7389 148.453 48.8777 149.231C51.2939 150.883 53.677 151.343 56.4239 152.177C58.9833 152.955 61.6791 153.622 64.3891 153.607C67.7084 153.589 70.9835 153.153 74.3027 153.109C77.9646 153.061 81.6616 153.081 85.316 153.207C86.8214 153.259 88.2195 153.326 89.6728 153.711C91.3605 154.157 92.9932 153.98 94.7327 153.912C98.4438 153.768 102.283 153.481 105.945 153.455C108.583 153.436 111.365 153.252 114.012 153.411ZM210.244 154.85C210.904 155.198 212.382 155.055 213.046 154.959C214.214 154.788 214.339 154.325 215.081 153.283C216.356 151.489 217.392 149.771 218.143 147.693C219.58 143.715 220.166 139.646 220.797 135.485C221.498 130.862 220.218 126.07 219.76 121.478C219.655 120.424 219.511 119.38 219.345 118.335C219.245 117.71 219.219 115.583 218.808 115.042C218.017 114.002 214.342 114.841 212.897 114.935C208.864 115.199 204.805 115.26 200.773 115.306C198.624 115.33 196.462 115.42 194.334 115.437C193.357 115.445 192.401 115.396 191.421 115.301C191.092 115.269 190.772 115.194 190.442 115.176C189.31 115.113 189.395 114.949 189.103 115.951C188.59 117.706 188.985 119.94 188.85 121.762C188.67 124.196 188.573 126.666 188.617 129.105C188.659 131.36 188.582 133.61 188.666 135.869C188.701 136.805 188.803 137.568 189.05 138.462C189.329 139.472 189.636 141.833 190.331 142.532C190.41 142.612 191.001 142.426 191.158 142.624C191.4 142.93 191.355 143.576 191.521 143.773C192.058 144.412 193.168 144.463 193.973 144.75C196.182 145.537 198.208 146.393 200.29 147.455C202.151 148.404 205.15 149.212 206.268 151.084C206.781 151.942 206.85 153.074 207.322 153.959C207.859 154.968 206.784 154.441 208.1 154.85C208.692 155.034 209.636 154.85 210.244 154.85ZM14.1293 143.441C13.962 145.77 12.6497 147.989 12.1929 150.28C11.9791 151.352 11.6166 152.406 11.3653 153.473C11.1244 154.495 10.2539 155.707 10.342 156.719C13.5548 155.574 16.8091 155.286 20.167 154.977C23.3496 154.685 26.7117 154.568 29.8676 154.567C33.0834 154.565 36.522 154.251 39.8332 154.202C43.2961 154.151 46.8113 154.062 50.224 153.703C48.4395 152.381 46.2066 151.14 44.8889 149.301C43.4564 147.302 42.7125 144.797 41.452 142.688C38.9227 138.455 37.3146 133.202 35.9888 128.447C33.312 118.846 30.3206 109.423 29.5997 99.4648C28.2277 100.167 27.1385 102.893 26.4516 104.251C25.5748 105.984 25.1156 107.863 24.5456 109.705C23.3719 113.499 22.5595 117.434 21.1223 121.192C18.3755 128.376 16.6099 136.117 14.1293 143.441ZM188.531 87.487C189.125 91.7808 190.371 96.1301 190.418 100.476C190.429 101.432 190.267 102.493 190.466 103.436C190.679 104.442 191.371 105.332 191.771 106.289C192.405 107.807 194.011 110.919 192.462 112.205C192.431 110.985 191.314 109.434 190.751 108.367C189.903 106.758 188.788 105.287 187.869 103.719C185.944 100.435 183.787 97.2223 181.307 94.3277C178.891 91.5082 176.107 89.0072 173.545 86.3224C172.775 85.5157 166.6 77.7515 166.355 77.8601C168.27 85.2462 171.526 91.6727 175.982 97.8569C178.166 100.889 180.788 102.884 183.448 105.452C185.662 107.591 189.836 109.878 189.071 113.382C192.532 113.05 195.972 112.518 199.465 112.518C198.891 108.096 198.451 103.745 197.425 99.3961C196.261 94.458 195.472 89.3723 194.487 84.3905C193.481 79.3045 191.776 74.3808 190.715 69.3044C189.699 64.4435 188.826 59.5912 188.081 54.6762C187.466 57.3996 187.693 60.3909 187.474 63.1697C187.251 66.0087 187.273 68.7954 187.347 71.651C187.485 76.9551 188.05 82.1953 188.531 87.487ZM203.532 62.1984C203.551 59.928 203.991 57.6883 204.127 55.4233C204.169 54.7284 204.861 49.9872 204.215 49.7397C203.685 50.8971 203.561 52.3781 203.079 53.5924C202.597 54.8055 201.953 55.9612 201.491 57.1828C200.489 59.8291 200.144 62.8235 200.036 65.6369C199.792 72.0007 199.666 78.3501 200.094 84.7139C200.277 87.4416 200.418 90.1739 200.367 92.9069C200.312 95.9142 199.852 98.5244 200.411 101.507C200.965 104.461 201.312 107.402 201.497 110.399C201.626 112.502 201.678 112.353 203.685 112.205C205.134 112.099 206.597 112.213 208.047 112.146C207.369 103.949 207.258 95.7344 206.175 87.5683C205.622 83.4023 205.607 79.1761 204.92 75.0255C204.579 72.9637 204.007 70.9434 203.677 68.8793C203.324 66.663 203.498 64.4318 203.532 62.1984ZM56.7879 57.0396C60.6511 57.3743 64.7604 58.5293 68.7202 57.7666C68.0674 57.5022 66.3593 57.1376 67.128 56.0941C67.9097 55.0331 69.2269 56.3789 70.0064 56.2399C70.4871 56.1541 71.5493 54.1448 71.8455 53.7288C72.518 52.7833 72.5991 52.6186 73.8082 52.3762C74.9796 52.1419 75.2452 52.3957 75.3935 51.2311C75.5639 49.8919 75.1005 48.3862 75.1465 47.0168C75.2452 44.0686 76.1963 41.4832 77.0815 38.7094C73.3205 39.5276 69.6429 40.4979 65.7973 41.0252C64.1534 41.2507 61.5959 41.7708 60.1024 40.6533C59.7141 40.3626 59.7762 39.9703 59.4584 39.6335C58.9254 39.0684 57.9368 38.4839 57.1809 38.3229C52.5293 37.3326 52.0755 43.9638 54.4066 46.4451C54.9905 47.0669 55.8028 47.374 56.4007 47.9437C57.1988 48.7036 57.2641 49.504 57.3806 50.6639C57.5991 52.8389 57.3023 55.0223 56.3745 57.0119L56.7879 57.0396ZM113.236 88.3451C114.609 88.6057 116.042 88.5462 117.419 88.7686C117.908 88.8476 119.375 89.1232 119.805 88.8372C120.461 88.4006 120.695 86.7991 121.005 86.0533C121.552 84.7415 122.324 83.5973 122.845 82.2616C124.973 76.8058 126.958 71.3283 129.532 66.0588C128.545 65.8024 127.788 65.7923 126.793 65.6599C125.758 65.5219 124.819 64.9094 123.831 64.6462C122.891 64.3962 121.908 64.4599 120.977 64.169C120.465 64.009 120.025 63.653 119.519 63.5285C118.714 63.3304 117.774 63.2147 117.295 63.7434C116.804 64.2858 116.631 65.7729 116.364 66.4734C115.653 68.3397 114.826 70.1409 114.23 72.0501C113.692 73.7721 113.181 75.4758 112.708 77.2134C112.207 79.0479 111.222 80.5598 110.621 82.3122C110.164 83.6461 109.733 85.0097 109.665 86.4319C109.599 87.8196 109.397 87.908 110.785 88.1297C111.485 88.2415 112.577 88.6577 113.236 88.3451ZM203.585 153.294C203.943 153.461 204.28 153.439 204.596 153.228C201.496 151.918 198.48 150.101 195.245 149.203C192.21 148.36 189.261 147.353 186.337 146.316C183.962 145.472 181.826 144.816 179.679 143.332C178.375 142.431 177.217 141.418 176.321 140.101C175.324 138.636 175.102 136.55 174.022 135.23C172.564 136.831 170.852 138.043 169.127 139.315C168.53 139.755 167.099 140.715 166.895 141.396C166.637 142.256 167.327 143.078 167.669 143.948C168.543 146.175 168.97 148.401 169.444 150.717C169.634 151.645 170.044 153.041 170.807 153.429C171.501 153.783 173.511 153.526 174.375 153.46C178.882 153.119 183.309 152.769 187.844 153.08C192.975 153.432 198.468 153.675 203.585 153.294ZM212.587 112.018C213.406 112.021 214.207 111.918 215.023 111.918C214.552 109.719 215.653 106.872 216.043 104.677C216.48 102.221 216.813 99.6811 217.104 97.2054C217.718 91.9908 217.996 86.8394 218.004 81.5866C218.012 76.5037 218.937 71.8589 220.233 66.9726C221.625 61.725 223.904 57.0058 225.788 51.945C223.721 53.0376 222.577 55.5944 221.491 57.5491C220.118 60.0206 219.204 62.7572 218.643 65.5317C217.561 70.8841 216.375 76.2527 215.127 81.5962C213.827 87.1601 213.063 92.775 211.575 98.2933C210.848 100.984 209.861 104.295 209.806 107.07C209.784 108.218 209.438 110.623 209.958 111.62C210.445 112.552 211.52 112.113 212.587 112.018ZM88.9425 105.115C88.8994 105.686 88.8586 106.23 88.7571 106.794C89.8917 106.783 91.3287 105.606 92.3018 105.077C93.4873 104.433 94.6741 103.723 95.8336 103.076C98.0719 101.827 100.613 101.003 103.003 99.9766C105.748 98.7972 108.272 97.3723 110.897 95.9524C111.814 95.4565 118.406 92.5994 118.295 91.819C116.848 91.7707 115.401 91.7226 113.954 91.6746C112.713 91.6333 110.792 91.9137 109.604 91.5302C108.953 91.32 108.222 90.5463 107.977 89.9405C107.734 89.3409 108.28 86.5835 107.963 86.4077C106.343 88.0612 105.325 90.259 103.877 92.0428C102.277 94.0144 100.209 95.1656 97.9301 96.2133C95.4136 97.3704 92.809 98.2664 90.2372 99.258C89.1525 99.6762 89.1741 99.9155 89.0796 101.105C88.9739 102.434 88.9854 103.782 88.9425 105.115ZM219.711 155.121C222.439 155.414 225.235 155.247 227.984 155.475C228.984 155.558 230.371 155.682 229.365 157.024C228.731 157.87 226.701 157.599 225.78 157.657C223.308 157.815 220.69 157.73 218.212 157.693C217.69 157.686 217.114 157.531 216.586 157.566C215.977 157.606 215.249 158.044 214.694 158.04C214.352 158.038 214.229 157.677 213.934 157.644C213.292 157.572 212.65 157.519 212.002 157.52C202.207 157.522 192.547 157.325 182.777 157.314C178.106 157.309 173.359 157.229 168.689 157.009C167.708 156.963 162.124 157.164 162.278 155.398C162.358 154.489 164.18 154.361 164.846 154.264C165.338 154.193 165.85 154.204 166.344 154.177C167.656 154.107 168.23 154.423 167.954 152.987C166.904 147.542 165.023 143.042 161.004 139.127C157.717 135.926 153.76 133.022 150.038 130.349C145.518 127.102 141.851 123.689 139.168 118.721C137.601 115.821 136.289 112.855 135.484 109.648C135.195 108.494 135.188 107.182 134.833 106.07C134.56 105.213 133.937 104.614 133.571 103.727C129.074 111.238 123.114 117.521 117.649 124.293C115.038 127.529 112.059 130.602 108.94 133.416C108.014 134.252 107.15 135.124 106.286 136.023C105.563 136.775 104.415 137.444 103.805 138.278C103.22 139.079 103.364 139.041 104.255 139.676C105.433 140.517 106.731 141.215 107.928 142.034C109.84 143.344 111.928 144.451 113.638 146.027C115.487 147.732 117.103 149.707 118.719 151.629C119.797 152.911 121.211 154.555 121.481 156.175C121.571 156.711 121.912 158.036 121.462 158.429C121.078 158.764 121.117 158.637 120.639 158.433C120.014 158.164 119.83 157.549 119.066 157.256C117.112 156.506 114.747 156.764 112.713 156.754C110.679 156.745 108.627 156.974 106.594 156.965C101.951 156.946 97.406 157.322 92.764 157.524C87.8337 157.738 82.8429 157.224 77.929 157.297C74.2882 157.351 70.5504 157.079 66.8091 157.281C64.8846 157.385 62.9946 157.144 61.1182 157.117C58.6615 157.082 56.1384 157.416 53.6606 157.464C49.5938 157.542 45.5766 157.542 41.4848 157.639C32.6836 157.85 23.9299 158.068 15.1235 158.207C13.9488 158.226 12.6628 158.186 11.502 158.318C10.2698 158.459 10.9059 158.72 10.0606 159.164C7.69383 160.406 8.2404 155.803 8.29711 154.898C8.60133 150.048 9.83274 145.29 11.3126 140.685C12.7165 136.318 13.8563 131.746 15.0452 127.284C16.3467 122.401 18.0424 117.717 19.5823 112.881C21.1601 107.926 22.4447 102.778 25.3104 98.3855C25.9631 97.3851 26.6377 96.3087 27.6877 95.678C28.8647 94.9708 28.9153 95.3838 28.9144 94.0898C28.9137 92.8711 28.9887 91.2429 28.7011 90.0799C28.4412 89.0292 28.4813 89.6522 27.896 88.8975C27.4198 88.2837 26.9215 87.8641 26.5798 87.1188C24.4807 89.2472 19.6758 88.124 17.6477 86.5915C15.1655 84.7155 13.2748 81.5508 12.582 78.5367C12.0256 76.1163 12.7083 71.5026 15.3872 70.3387C16.6931 69.7713 21.4898 69.3424 21.6818 67.4932C21.7807 66.5386 20.0925 65.1963 19.703 64.3755C18.9811 62.8549 18.2878 60.8322 18.0872 59.1654C17.6953 55.9118 19.1723 52.2736 21.5252 50.0758C25.8415 46.0441 33.4359 43.9751 38.988 46.533C37.8148 42.0511 37.1065 38.1846 37.6973 33.5224C38.2064 29.5059 40.5762 27.2587 43.837 25.2581C49.4016 21.8437 56.9686 20.496 63.3312 21.4888C64.777 21.7145 66.1645 22.1985 67.5033 22.5836C69.4481 23.143 71.7764 22.9567 73.6127 23.8657C74.9442 24.5245 75.9553 25.837 77.1246 26.7133C78.4898 27.7364 79.6242 29.2633 80.5727 30.6754C82.6013 33.6951 81.8086 39.2995 80.1108 42.3307C79.7468 42.9808 79.297 43.5281 78.6947 43.9718C78.0675 44.4335 77.1115 44.5772 76.7883 45.176C75.9605 46.71 76.759 50.0308 76.8694 51.6888C76.9981 53.614 76.0247 55.0601 73.8417 55.2136C72.5789 55.3026 72.5386 54.57 71.9339 56.0775C71.542 57.0546 71.186 58.1191 70.6205 59.0149C69.4545 60.8611 67.3188 60.6808 65.3735 60.6309C63.1216 60.5728 60.9035 60.217 58.6505 59.9925C59.2455 61.8991 60.8745 63.379 61.8916 65.0775C63.267 67.3748 64.0948 69.2791 64.3184 71.9557C64.4899 74.0121 64.1196 75.6361 62.7124 77.1665C62.13 77.8001 61.6137 77.8312 61.7583 78.562C61.8464 79.0078 62.6173 79.7433 62.8901 80.099C63.6117 81.0403 64.4496 81.9042 65.0848 82.9094C67.5288 86.7771 68.2507 92.673 68.2568 97.1754C68.257 97.3819 68.3672 97.8208 68.276 98.0344C68.2085 98.1921 67.6957 98.6915 67.6882 98.7344C67.5879 99.3133 68.1523 100.306 69.038 100.404C69.9682 100.507 71.6719 99.7305 72.5372 99.4755C73.9219 99.0672 75.3333 98.7658 76.7149 98.3465C78.9464 97.6694 81.1676 97.1294 83.4361 96.5988C84.4613 96.3593 85.492 96.1596 86.5205 95.9355C87.6919 95.6805 88.2361 95.1876 88.8408 96.3794C89.3595 97.4023 89.037 97.5876 90.2934 97.0723C91.541 96.5601 92.76 95.9255 93.9781 95.3475C96.1263 94.3284 98.6848 93.42 100.538 91.9155C103.629 89.4056 104.774 85.4086 107.732 82.7454C108.556 82.0038 109.048 81.9907 109.568 80.9634C110.126 79.864 110.414 78.454 110.707 77.2713C111.22 75.2004 111.585 73.1222 112.051 71.0531C112.631 68.4755 113.885 66.1411 114.8 63.6825C115.156 62.7246 115.341 61.507 115.916 60.6461C116.068 60.4179 116.359 60.2892 116.478 60.1003C116.887 59.4518 116.883 59.2737 116.989 58.4934C117.484 54.8477 119.661 56.7656 122.039 57.6016C123.041 57.9539 127.798 60.2383 125.981 61.7576C128.147 62.3859 131.616 62.0444 131.587 65.148C131.572 66.7383 130.62 68.4394 130.11 69.9279C129.656 71.2495 129.218 72.5763 128.758 73.8958C127.749 76.7864 126.525 79.5905 125.54 82.4899C125.091 83.8113 124.721 85.1637 124.096 86.4108C123.545 87.5109 122.211 88.7236 121.991 89.9266C127.762 87.4645 133.101 83.9048 139.56 84.1317C142.389 84.2308 144.956 85.4198 146.518 87.9068C148.476 91.024 149.765 94.5141 151.679 97.6601C158.642 109.104 166.948 119.501 174.592 130.472C175.179 131.315 175.934 132.112 176.138 133.154C176.271 133.834 176.013 134.513 176.172 135.166C176.503 136.523 178.174 138.218 179.307 138.997C181.479 140.492 185.009 142.601 187.719 142.414C186.018 138.327 186.041 133.848 186.12 129.488C186.195 125.346 186.643 121.238 187.174 117.139C187.294 116.212 187.399 115.352 187.666 114.453C187.972 113.422 188.392 113.52 187.475 112.593C186.065 111.165 184.388 109.991 182.967 108.546C179.892 105.42 176.741 102.971 174.322 99.2391C172.021 95.6894 169.593 92.0372 167.89 88.1501C166.136 84.1486 165.435 79.8752 164.565 75.6375C164.211 73.9179 162.923 71.9981 163.182 70.2023C163.509 67.9329 164.561 69.5855 164.99 70.8068C166.297 74.535 169.358 77.8718 171.894 80.8701C174.633 84.1092 177.984 86.8193 180.843 89.9641C183.957 93.3893 186.09 97.3256 188.858 100.982C188.858 96.4444 187.309 91.8239 186.675 87.3351C186.118 83.3843 185.943 79.421 185.59 75.453C184.79 66.4394 185.482 57.1603 186.605 48.2111C187.139 43.961 186.836 39.8109 186.852 35.5462C186.857 34.189 186.296 31.0608 187.012 29.8563C188.383 27.5493 189.183 32.5938 189.252 33.3459C189.667 37.8262 188.923 42.2566 189.303 46.7177C189.7 51.3764 190.562 55.9043 191.295 60.509C192.089 65.4949 193.382 70.3683 194.62 75.2585C195.92 80.393 197.013 85.6345 198.458 90.728C198.848 89.1269 198.301 87.1601 198.193 85.5295C198.039 83.1961 197.738 80.8622 197.712 78.5226C197.67 74.794 197.641 70.9962 197.852 67.2848C198.06 63.6267 197.997 59.7935 199.119 56.2692C199.651 54.5965 200.432 52.9645 201.196 51.3888C202.139 49.4458 202.472 47.5619 202.994 45.4954C203.441 43.7257 204.096 42.0026 204.394 40.1974C204.579 39.0747 205.096 35.7607 206.381 38.2715C207.127 39.7289 206.805 41.8894 206.826 43.455C206.852 45.4622 206.545 47.4138 206.498 49.4126C206.406 53.3341 206.34 57.251 206.048 61.166C205.741 65.2734 206.009 68.9545 206.79 73.0017C207.646 77.4319 207.896 81.8716 208.339 86.3559C208.568 88.6713 208.953 90.9738 209.139 93.2925C209.238 94.5204 208.733 98.0414 209.613 98.9158C209.698 96.7891 210.307 94.6605 210.769 92.5882C211.316 90.1331 211.537 87.5522 211.941 85.0619C212.594 81.0274 213.861 77.1745 214.7 73.1852C216.428 64.9617 217.865 54.3926 225.109 49.0099C226.057 48.3056 227.098 47.7858 228.123 47.2061C228.703 46.878 229.565 46.0291 230.228 45.881C230.953 45.7193 231.255 45.8449 231.549 46.6854C231.958 47.857 231.209 48.4043 230.51 49.2553C228.091 52.2 227.057 55.9748 225.563 59.4283C222.142 67.3364 220.629 75.6773 220.611 84.2255C220.602 88.7004 220.294 93.0164 219.816 97.4641C219.303 102.251 218.627 107.313 217.172 111.918C218.631 112.245 220.213 111.757 220.609 113.453C220.706 113.869 220.531 114.362 220.638 114.904C220.743 115.431 220.994 115.955 221.143 116.473C221.451 117.545 221.613 118.602 221.763 119.703C222.341 123.956 223.334 128.002 223.44 132.315C223.537 136.301 222.756 140.34 222.037 144.25C221.313 148.188 219.235 151.545 217.599 155.106C218.303 155.106 219.007 155.114 219.711 155.121Z" fill="#211814"/>
<path fill-rule="evenodd" clip-rule="evenodd" d="M127.133 146.068C126.357 146.288 122.612 146.702 122.613 147.877C122.613 148.581 126.353 148.568 127.015 148.644C127.055 147.786 127.094 146.927 127.133 146.068ZM135.4 154.177C137.558 154.588 140.487 154.011 141.867 152.108C142.512 151.219 142.817 149.867 143.027 148.806C143.228 147.795 143.846 145.272 143.426 144.324C142.909 143.16 137.95 144.377 136.506 144.51C133.987 144.743 131.382 144.77 128.861 144.606C128.861 147.209 128.728 149.746 130.259 151.986C131.363 153.603 133.437 153.984 135.4 154.177ZM134.966 157.393C132.621 156.534 130.159 157.092 128.632 154.575C128.245 153.936 127.918 153.249 127.684 152.54C127.569 152.229 127.48 151.911 127.417 151.585C127.536 150.883 127.279 150.685 126.646 150.991C125.403 150.749 124.04 151.603 122.731 151.351C119.556 150.741 120.132 146.193 122.263 144.618C122.684 144.307 123.105 144.22 123.587 144.067C124.649 143.728 125.224 144.106 126.195 144.01C126.98 143.933 127.196 143.109 128.04 142.747C128.592 142.51 129.359 142.528 129.94 142.504C132.979 142.379 136.028 142.38 139.087 142.182C140.514 142.09 142.054 142.316 143.452 142.072C144.106 141.958 144.012 141.522 144.632 141.904C145.273 142.3 144.996 143.763 144.964 144.346C144.777 147.719 144.576 151.337 142.769 154.286C141.116 156.985 137.862 157.261 134.966 157.393Z" fill="#211814"/>
<path fill-rule="evenodd" clip-rule="evenodd" d="M11.125 158.322C11.8795 158.314 12.6337 158.306 13.3855 158.298C12.6302 158.307 11.8776 158.314 11.125 158.322Z" fill="#211814"/>
<path fill-rule="evenodd" clip-rule="evenodd" d="M220.616 86.3979C220.615 85.6732 220.613 84.9485 220.611 84.2252C220.613 84.9504 220.614 85.6742 220.616 86.3979Z" fill="#211814"/>
<path fill-rule="evenodd" clip-rule="evenodd" d="M28.7034 89.374C28.7011 90.08 28.6988 90.7859 28.6964 91.4902C28.6985 90.7838 28.7009 90.0788 28.7034 89.374Z" fill="#211814"/>
<path fill-rule="evenodd" clip-rule="evenodd" d="M91.4149 157.522C92.0152 157.523 92.6154 157.523 93.2128 157.525C92.6116 157.524 92.0135 157.523 91.4149 157.522Z" fill="#211814"/>
<path fill-rule="evenodd" clip-rule="evenodd" d="M54.9703 157.378C55.5706 157.38 56.1706 157.382 56.768 157.384C56.1668 157.382 55.5687 157.38 54.9703 157.378Z" fill="#211814"/>
<path fill-rule="evenodd" clip-rule="evenodd" d="M186.199 128.059C186.173 128.536 186.146 129.012 186.12 129.488C186.146 129.011 186.173 128.535 186.199 128.059Z" fill="#211814"/>
<path fill-rule="evenodd" clip-rule="evenodd" d="M219.712 155.121C219.248 155.116 218.784 155.111 218.32 155.106C218.786 154.912 219.25 154.92 219.712 155.121Z" fill="#211814"/>
<path fill-rule="evenodd" clip-rule="evenodd" d="M178.53 157.23C178.863 157.225 179.196 157.22 179.526 157.214C179.192 157.219 178.861 157.225 178.53 157.23Z" fill="#211814"/>
<path fill-rule="evenodd" clip-rule="evenodd" d="M220.435 92.2779C220.444 91.9177 220.452 91.5577 220.46 91.1989C220.452 91.5593 220.444 91.9186 220.435 92.2779Z" fill="#211814"/>
<path fill-rule="evenodd" clip-rule="evenodd" d="M189.303 46.7176C189.276 46.3462 189.248 45.9749 189.221 45.6044C189.248 45.9761 189.276 46.3469 189.303 46.7176Z" fill="#211814"/>
<path fill-rule="evenodd" clip-rule="evenodd" d="M220.6 87.8166C220.604 87.4441 220.609 87.0719 220.613 86.7009C220.609 87.0736 220.604 87.4451 220.6 87.8166Z" fill="#211814"/>
<path fill-rule="evenodd" clip-rule="evenodd" d="M115.908 156.769C116.204 156.773 116.5 156.777 116.794 156.781C116.497 156.777 116.202 156.773 115.908 156.769Z" fill="#211814"/>
<path fill-rule="evenodd" clip-rule="evenodd" d="M192.152 157.376C192.441 157.382 192.73 157.387 193.017 157.394C192.727 157.388 192.439 157.382 192.152 157.376Z" fill="#211814"/>
<path fill-rule="evenodd" clip-rule="evenodd" d="M223.406 131.194C223.385 130.867 223.365 130.541 223.344 130.215C223.365 130.541 223.386 130.868 223.406 131.194Z" fill="#211814"/>
<path fill-rule="evenodd" clip-rule="evenodd" d="M218.212 157.693C218.447 157.692 218.683 157.691 218.916 157.69C218.679 157.692 218.445 157.693 218.212 157.693Z" fill="#211814"/>
<path fill-rule="evenodd" clip-rule="evenodd" d="M186.122 157.391C186.355 157.385 186.588 157.379 186.819 157.374C186.585 157.38 186.353 157.385 186.122 157.391Z" fill="#211814"/>
<path fill-rule="evenodd" clip-rule="evenodd" d="M133.695 157.213C133.952 157.211 134.208 157.21 134.463 157.208C134.205 157.209 133.95 157.211 133.695 157.213Z" fill="#211814"/>
<path fill-rule="evenodd" clip-rule="evenodd" d="M74.4895 157.212C74.7335 157.213 74.9777 157.215 75.2191 157.217C74.9742 157.216 74.7318 157.214 74.4895 157.212Z" fill="#211814"/>
<path fill-rule="evenodd" clip-rule="evenodd" d="M60.0869 157.251C60.3358 157.237 60.5843 157.223 60.8308 157.21C60.5812 157.224 60.3342 157.237 60.0869 157.251Z" fill="#211814"/>
<path fill-rule="evenodd" clip-rule="evenodd" d="M129.041 62.4187C128.671 62.3868 128.301 62.3549 127.93 62.3228C128.301 62.3488 128.693 62.1295 129.041 62.4187Z" fill="#211814"/>
<path fill-rule="evenodd" clip-rule="evenodd" d="M223.441 155.261C223.076 155.225 222.711 155.188 222.346 155.151C222.711 155.188 223.076 155.225 223.441 155.261Z" fill="#211814"/>
<path fill-rule="evenodd" clip-rule="evenodd" d="M197.971 64.6671C197.947 64.987 197.922 65.3072 197.898 65.6262C197.922 65.3058 197.947 64.9863 197.971 64.6671Z" fill="#211814"/>
<path fill-rule="evenodd" clip-rule="evenodd" d="M220.691 78.0058C220.716 77.7026 220.741 77.3993 220.766 77.0972C220.741 77.4009 220.716 77.7033 220.691 78.0058Z" fill="#211814"/>
<path fill-rule="evenodd" clip-rule="evenodd" d="M197.826 69.6298C197.8 69.9492 197.773 70.2684 197.747 70.5867C197.774 70.267 197.8 69.9483 197.826 69.6298Z" fill="#211814"/>
<path fill-rule="evenodd" clip-rule="evenodd" d="M220.537 90.2491C220.534 89.9404 220.532 89.6317 220.53 89.324C220.729 89.6317 220.721 89.9397 220.537 90.2491Z" fill="#211814"/>
<path fill-rule="evenodd" clip-rule="evenodd" d="M186.204 134.577C186.202 134.886 186.199 135.196 186.196 135.504C185.991 135.192 186.032 134.884 186.204 134.577Z" fill="#211814"/>
<path fill-rule="evenodd" clip-rule="evenodd" d="M209.478 98.7824C209.443 98.4693 209.407 98.1559 209.371 97.8438C209.407 98.1573 209.443 98.47 209.478 98.7824Z" fill="#211814"/>
<path fill-rule="evenodd" clip-rule="evenodd" d="M16.7601 70.0413C16.518 70.3612 16.1882 70.142 15.9004 70.181C16.1873 70.1343 16.4737 70.0879 16.7601 70.0413Z" fill="#211814"/>
<path fill-rule="evenodd" clip-rule="evenodd" d="M136.477 142.404C136.171 142.405 135.865 142.405 135.559 142.405C135.866 142.405 136.171 142.404 136.477 142.404Z" fill="#211814"/>
<path fill-rule="evenodd" clip-rule="evenodd" d="M185.344 71.3557C185.372 71.6159 185.4 71.876 185.429 72.1353C185.4 71.8746 185.372 71.6152 185.344 71.3557Z" fill="#211814"/>
<path fill-rule="evenodd" clip-rule="evenodd" d="M34.1841 45.5179C33.8766 45.524 33.5691 45.5301 33.2616 45.5362C33.5658 45.3571 33.8724 45.3053 34.1841 45.5179Z" fill="#211814"/>
<path fill-rule="evenodd" clip-rule="evenodd" d="M197.818 74.13C197.798 74.4028 197.778 74.6754 197.759 74.947C197.779 74.6742 197.798 74.4021 197.818 74.13Z" fill="#211814"/>
<path fill-rule="evenodd" clip-rule="evenodd" d="M189.386 40.6419C189.41 40.3933 189.433 40.1446 189.457 39.8973C189.433 40.1465 189.41 40.3942 189.386 40.6419Z" fill="#211814"/>
<path fill-rule="evenodd" clip-rule="evenodd" d="M186.969 39.8629C186.945 40.1327 186.921 40.4027 186.897 40.6715C186.921 40.4013 186.945 40.132 186.969 39.8629Z" fill="#211814"/>
<path fill-rule="evenodd" clip-rule="evenodd" d="M53.4007 21.8414C53.0878 21.8794 52.7749 21.9174 52.4623 21.9551C52.7752 21.9171 53.0878 21.8794 53.4007 21.8414Z" fill="#211814"/>
<path fill-rule="evenodd" clip-rule="evenodd" d="M30.8013 45.7327C30.4802 45.7655 30.1591 45.7983 29.8383 45.8311C30.1594 45.7983 30.4804 45.7655 30.8013 45.7327Z" fill="#211814"/>
<path fill-rule="evenodd" clip-rule="evenodd" d="M206.754 46.5234C206.774 46.2723 206.794 46.0211 206.813 45.7715C206.794 46.0227 206.774 46.273 206.754 46.5234Z" fill="#211814"/>
<path fill-rule="evenodd" clip-rule="evenodd" d="M20.2625 87.9506C20.4474 87.9534 20.6321 87.9559 20.8142 87.9588C20.6285 87.9559 20.4455 87.9534 20.2625 87.9506Z" fill="#211814"/>
<path fill-rule="evenodd" clip-rule="evenodd" d="M186.979 118.932C186.96 119.21 186.942 119.487 186.923 119.765C186.942 119.487 186.96 119.209 186.979 118.932Z" fill="#211814"/>
<path fill-rule="evenodd" clip-rule="evenodd" d="M205.843 64.8374C205.835 64.5695 205.828 64.3019 205.82 64.0347C205.828 64.3028 205.835 64.57 205.843 64.8374Z" fill="#211814"/>
<path fill-rule="evenodd" clip-rule="evenodd" d="M61.2771 21.2075C60.9919 21.2075 60.7066 21.2078 60.4219 21.2078C60.7071 21.0118 60.9921 21.0167 61.2771 21.2075Z" fill="#211814"/>
<path fill-rule="evenodd" clip-rule="evenodd" d="M137.428 84.2599C137.116 84.2679 136.803 84.2759 136.491 84.2838C136.798 84.0668 137.111 84.0614 137.428 84.2599Z" fill="#211814"/>
<path fill-rule="evenodd" clip-rule="evenodd" d="M164.73 156.758C164.916 156.761 165.101 156.765 165.284 156.77C165.098 156.766 164.914 156.762 164.73 156.758Z" fill="#211814"/>
<path fill-rule="evenodd" clip-rule="evenodd" d="M171.704 157.083C171.889 157.077 172.074 157.07 172.257 157.064C172.071 157.07 171.888 157.077 171.704 157.083Z" fill="#211814"/>
<path fill-rule="evenodd" clip-rule="evenodd" d="M62.5573 157.212C62.7501 157.217 62.943 157.222 63.1333 157.226C62.9397 157.222 62.7485 157.217 62.5573 157.212Z" fill="#211814"/>
<path fill-rule="evenodd" clip-rule="evenodd" d="M223.246 128.094C223.219 127.83 223.191 127.564 223.163 127.301C223.191 127.566 223.219 127.83 223.246 128.094Z" fill="#211814"/>
<path fill-rule="evenodd" clip-rule="evenodd" d="M198.055 83.4464C198.077 83.6988 198.098 83.9513 198.12 84.202C198.098 83.9494 198.076 83.6979 198.055 83.4464Z" fill="#211814"/>
<path fill-rule="evenodd" clip-rule="evenodd" d="M207.749 79.1126C207.719 78.8449 207.689 78.5773 207.66 78.3105C207.69 78.5784 207.719 78.8454 207.749 79.1126Z" fill="#211814"/>
<path fill-rule="evenodd" clip-rule="evenodd" d="M64.1222 157.372C64.3167 157.369 64.5115 157.365 64.7039 157.363C64.5084 157.366 64.3153 157.369 64.1222 157.372Z" fill="#211814"/>
<path fill-rule="evenodd" clip-rule="evenodd" d="M134.966 157.393C135.155 157.384 135.344 157.376 135.531 157.367C135.342 157.376 135.154 157.384 134.966 157.393Z" fill="#211814"/>
<path fill-rule="evenodd" clip-rule="evenodd" d="M206.167 59.5682C206.158 59.297 206.15 59.0258 206.141 58.7551C206.15 59.0265 206.158 59.2972 206.167 59.5682Z" fill="#211814"/>
<path fill-rule="evenodd" clip-rule="evenodd" d="M45.6761 157.549C45.866 157.547 46.0556 157.546 46.2429 157.545C46.0521 157.546 45.8644 157.548 45.6761 157.549Z" fill="#211814"/>
<path fill-rule="evenodd" clip-rule="evenodd" d="M206.088 157.546C206.283 157.548 206.478 157.55 206.67 157.552C206.474 157.55 206.281 157.548 206.088 157.546Z" fill="#211814"/>
<path fill-rule="evenodd" clip-rule="evenodd" d="M210.3 157.523C210.489 157.536 210.677 157.55 210.863 157.562C210.674 157.549 210.487 157.536 210.3 157.523Z" fill="#211814"/>
<path fill-rule="evenodd" clip-rule="evenodd" d="M212.002 157.519C212.194 157.525 212.386 157.531 212.575 157.535C212.383 157.529 212.192 157.524 212.002 157.519Z" fill="#211814"/>
<path fill-rule="evenodd" clip-rule="evenodd" d="M220.738 80.1877C220.726 79.9209 220.713 79.654 220.701 79.3879C220.713 79.6551 220.726 79.9214 220.738 80.1877Z" fill="#211814"/>
<path fill-rule="evenodd" clip-rule="evenodd" d="M91.9884 154.023C92.5718 153.993 93.1554 153.963 93.739 153.932C93.1554 153.963 92.5718 153.993 91.9884 154.023Z" fill="#211814"/>
<path fill-rule="evenodd" clip-rule="evenodd" d="M56.7878 57.0396C57.2943 57.0836 57.8008 57.1277 58.3068 57.1713C57.8003 57.1274 57.2941 57.0834 56.7878 57.0396Z" fill="#211814"/>
<path fill-rule="evenodd" clip-rule="evenodd" d="M199.791 79.0596C199.807 79.5429 199.823 80.0261 199.839 80.508C199.823 80.0245 199.807 79.5421 199.791 79.0596Z" fill="#211814"/>
<path fill-rule="evenodd" clip-rule="evenodd" d="M210.244 154.85C210.773 154.882 211.301 154.914 211.83 154.946C211.298 154.97 210.758 155.121 210.244 154.85Z" fill="#211814"/>
<path fill-rule="evenodd" clip-rule="evenodd" d="M207.115 97.6841C207.119 97.2231 207.123 96.7621 207.127 96.3022C207.123 96.7635 207.119 97.2238 207.115 97.6841Z" fill="#211814"/>
<path fill-rule="evenodd" clip-rule="evenodd" d="M205.762 112.169C206.225 112.175 206.69 112.181 207.153 112.187C206.689 112.181 206.225 112.175 205.762 112.169Z" fill="#211814"/>
<path fill-rule="evenodd" clip-rule="evenodd" d="M88.9762 104.064C88.9645 104.415 88.953 104.766 88.942 105.116C88.9537 104.764 88.965 104.414 88.9762 104.064Z" fill="#211814"/>
<path fill-rule="evenodd" clip-rule="evenodd" d="M213.483 89.1869C213.464 89.5366 213.445 89.886 213.426 90.2338C213.445 89.8839 213.464 89.5354 213.483 89.1869Z" fill="#211814"/>
<path fill-rule="evenodd" clip-rule="evenodd" d="M203.585 153.294C203.923 153.271 204.26 153.248 204.597 153.227C204.343 153.43 204.088 153.447 203.585 153.294Z" fill="#211814"/>
<path fill-rule="evenodd" clip-rule="evenodd" d="M201.326 107.591C201.35 107.968 201.373 108.345 201.396 108.721C201.373 108.344 201.35 107.967 201.326 107.591Z" fill="#211814"/>
<path fill-rule="evenodd" clip-rule="evenodd" d="M75.1355 48.1059C75.139 47.7419 75.1425 47.378 75.1463 47.0154C75.1428 47.3798 75.1392 47.7429 75.1355 48.1059Z" fill="#211814"/>
<path fill-rule="evenodd" clip-rule="evenodd" d="M201.735 112.245L202.993 112.217C202.578 112.418 202.159 112.425 201.735 112.245Z" fill="#211814"/>
<path fill-rule="evenodd" clip-rule="evenodd" d="M213.34 114.931C213.043 114.933 212.747 114.936 212.452 114.939C212.75 114.937 213.045 114.934 213.34 114.931Z" fill="#211814"/>
<path fill-rule="evenodd" clip-rule="evenodd" d="M104.714 153.439C105.124 153.444 105.535 153.449 105.946 153.455C105.532 153.662 105.121 153.691 104.714 153.439Z" fill="#211814"/>
<path fill-rule="evenodd" clip-rule="evenodd" d="M27.363 154.649C27.7798 154.612 28.1967 154.574 28.6134 154.537C28.1967 154.574 27.7798 154.612 27.363 154.649Z" fill="#211814"/>
<path fill-rule="evenodd" clip-rule="evenodd" d="M199.936 82.1635C199.956 82.5417 199.976 82.92 199.997 83.2971C199.976 82.9184 199.956 82.541 199.936 82.1635Z" fill="#211814"/>
<path fill-rule="evenodd" clip-rule="evenodd" d="M66.9183 57.9277C67.2697 57.7545 67.6238 57.7254 67.9815 57.9089C67.6268 57.9153 67.2727 57.9216 66.9183 57.9277Z" fill="#211814"/>
<path fill-rule="evenodd" clip-rule="evenodd" d="M188.444 86.5315C188.473 86.8505 188.502 87.1697 188.531 87.4877C188.501 87.1683 188.473 86.8498 188.444 86.5315Z" fill="#211814"/>
<path fill-rule="evenodd" clip-rule="evenodd" d="M218.122 79.0861C217.941 78.7739 217.948 78.4634 218.131 78.1556C218.128 78.4662 218.125 78.7763 218.122 79.0861Z" fill="#211814"/>
<path fill-rule="evenodd" clip-rule="evenodd" d="M199.993 68.2485C199.993 68.5642 199.994 68.8802 199.994 69.1949C199.993 68.8785 199.993 68.5635 199.993 68.2485Z" fill="#211814"/>
<path fill-rule="evenodd" clip-rule="evenodd" d="M212.587 112.018C212.949 111.907 213.311 111.75 213.671 112.022C213.309 112.02 212.948 112.019 212.587 112.018Z" fill="#211814"/>
<path fill-rule="evenodd" clip-rule="evenodd" d="M95.7267 153.881C96.0907 153.847 96.4544 153.813 96.8182 153.779C96.4544 153.813 96.0907 153.847 95.7267 153.881Z" fill="#211814"/>
<path fill-rule="evenodd" clip-rule="evenodd" d="M45.8412 153.881C46.1745 153.735 46.507 153.658 46.8354 153.892C46.5038 153.888 46.1726 153.885 45.8412 153.881Z" fill="#211814"/>
<path fill-rule="evenodd" clip-rule="evenodd" d="M114.012 153.411C114.369 153.256 114.724 153.17 115.076 153.422C114.721 153.418 114.367 153.415 114.012 153.411Z" fill="#211814"/>
<path fill-rule="evenodd" clip-rule="evenodd" d="M34.6791 107.304C34.7058 107.626 34.7327 107.947 34.7592 108.268C34.7323 107.946 34.7056 107.625 34.6791 107.304Z" fill="#211814"/>
<path fill-rule="evenodd" clip-rule="evenodd" d="M117.419 88.7683C117.77 88.6409 118.119 88.5743 118.463 88.7873C118.115 88.7808 117.767 88.7747 117.419 88.7683Z" fill="#211814"/>
<path fill-rule="evenodd" clip-rule="evenodd" d="M199.93 98.3472C199.95 98.6617 199.969 98.9762 199.988 99.2901C199.969 98.9753 199.95 98.6612 199.93 98.3472Z" fill="#211814"/>
<path fill-rule="evenodd" clip-rule="evenodd" d="M34.4524 69.9663C34.4234 70.2197 34.3943 70.4733 34.3655 70.7252C34.3945 70.4714 34.4234 70.219 34.4524 69.9663Z" fill="#211814"/>
<path fill-rule="evenodd" clip-rule="evenodd" d="M14.1292 143.441C14.1112 143.687 14.0934 143.934 14.0756 144.179C14.0941 143.932 14.1117 143.686 14.1292 143.441Z" fill="#211814"/>
<path fill-rule="evenodd" clip-rule="evenodd" d="M207.27 100.012C207.251 99.7568 207.231 99.5018 207.211 99.2479C207.231 99.5034 207.251 99.7577 207.27 100.012Z" fill="#211814"/>
<path fill-rule="evenodd" clip-rule="evenodd" d="M181.735 152.935C182.048 152.937 182.36 152.94 182.672 152.942C182.36 152.94 182.048 152.937 181.735 152.935Z" fill="#211814"/>
<path fill-rule="evenodd" clip-rule="evenodd" d="M88.8579 106.234C88.9163 106.419 88.9746 106.605 89.033 106.791C88.6432 106.885 88.5849 106.699 88.8579 106.234Z" fill="#211814"/>
<path fill-rule="evenodd" clip-rule="evenodd" d="M112.284 88.3488C112.602 88.3474 112.919 88.3463 113.236 88.3448C112.919 88.4953 112.602 88.5987 112.284 88.3488Z" fill="#211814"/>
<path fill-rule="evenodd" clip-rule="evenodd" d="M34.8569 108.827C34.8677 109.108 34.8785 109.39 34.8888 109.67C34.8778 109.389 34.8672 109.108 34.8569 108.827Z" fill="#211814"/>
<path fill-rule="evenodd" clip-rule="evenodd" d="M38.2141 154.189C38.5204 154.189 38.8265 154.188 39.1329 154.188C38.8263 154.188 38.5204 154.189 38.2141 154.189Z" fill="#211814"/>
<path fill-rule="evenodd" clip-rule="evenodd" d="M189.214 111.793C189.225 112.052 189.237 112.311 189.248 112.568C189.237 112.308 189.225 112.051 189.214 111.793Z" fill="#211814"/>
<path fill-rule="evenodd" clip-rule="evenodd" d="M31.7112 154.505C32.0124 154.305 32.3142 154.322 32.6166 154.501C32.3147 154.503 32.0128 154.504 31.7112 154.505Z" fill="#211814"/>
<path fill-rule="evenodd" clip-rule="evenodd" d="M39.642 66.3483C39.6581 66.6126 39.6745 66.8772 39.6914 67.14C39.6752 66.8751 39.6586 66.6117 39.642 66.3483Z" fill="#211814"/>
<path fill-rule="evenodd" clip-rule="evenodd" d="M30.1442 154.532C30.4573 154.533 30.7704 154.534 31.0833 154.536C30.7692 154.75 30.4564 154.76 30.1442 154.532Z" fill="#211814"/>
<path fill-rule="evenodd" clip-rule="evenodd" d="M203.532 62.1982C203.535 61.9296 203.537 61.6612 203.539 61.3933C203.537 61.6621 203.534 61.93 203.532 62.1982Z" fill="#211814"/>
<path fill-rule="evenodd" clip-rule="evenodd" d="M59.7783 57.5013C60.0779 57.5405 60.3774 57.5796 60.6767 57.6185C60.3771 57.5794 60.0776 57.5405 59.7783 57.5013Z" fill="#211814"/>
<path fill-rule="evenodd" clip-rule="evenodd" d="M33.3464 80.6808C33.3504 80.9316 33.3544 81.1826 33.3591 81.4322C33.3551 81.1809 33.3509 80.9309 33.3464 80.6808Z" fill="#211814"/>
<path fill-rule="evenodd" clip-rule="evenodd" d="M205.548 80.6446C205.532 80.3892 205.516 80.1337 205.499 79.8794C205.516 80.1353 205.532 80.3901 205.548 80.6446Z" fill="#211814"/>
<path fill-rule="evenodd" clip-rule="evenodd" d="M135.688 154.232C136.057 154.266 136.427 154.299 136.796 154.333C136.427 154.299 136.057 154.266 135.688 154.232Z" fill="#211814"/>
<path fill-rule="evenodd" clip-rule="evenodd" d="M134.453 144.664C134.253 144.668 134.054 144.671 133.856 144.675C134.056 144.672 134.255 144.668 134.453 144.664Z" fill="#211814"/>
<path fill-rule="evenodd" clip-rule="evenodd" d="M134.47 154.086C134.78 154.117 135.09 154.147 135.4 154.178C135.09 154.147 134.78 154.117 134.47 154.086Z" fill="#211814"/>
<path fill-rule="evenodd" clip-rule="evenodd" d="M78.6837 133.211C79.087 135.49 75.5451 137.719 75.2644 134.479C75.1617 133.294 75.9539 132.461 76.841 131.737C78.1001 130.709 78.8034 131.693 78.6837 133.211Z" fill="#211814"/>
<path fill-rule="evenodd" clip-rule="evenodd" d="M39.6432 105.405C40.4775 105.746 46.8523 107.824 43.541 108.869C42.6645 109.145 41.3396 109.186 40.5797 108.699C39.6657 108.113 38.7436 106.382 39.6432 105.405Z" fill="#211814"/>
<path fill-rule="evenodd" clip-rule="evenodd" d="M41.2121 74.5415C43.3758 74.2903 45.3694 77.8441 42.7018 77.7288C40.76 77.6446 38.1486 74.5415 41.2121 74.5415Z" fill="#211814"/>
<path fill-rule="evenodd" clip-rule="evenodd" d="M48.9522 83.2551C50.759 84.8315 47.41 88.3596 46.0804 86.9941C45.4014 86.2966 46.0277 84.794 46.5881 84.2104C47.1632 83.6116 48.1865 83.4991 48.9522 83.2551Z" fill="#211814"/>
<path fill-rule="evenodd" clip-rule="evenodd" d="M54.3312 124.123C53.2645 124.292 48.5737 125.825 49.552 123.041C49.9251 121.979 50.9658 122.294 51.9171 122.343C53.4504 122.421 54.3312 122.348 54.3312 124.123Z" fill="#211814"/>
<path fill-rule="evenodd" clip-rule="evenodd" d="M51.2414 131.294C52.8382 132.148 50.504 136.929 49.1805 135.912C47.3442 134.5 49.8557 131.723 51.2414 131.294Z" fill="#211814"/>
<path fill-rule="evenodd" clip-rule="evenodd" d="M58.2056 127.451C58.9821 127.134 62.6424 130.655 61.249 131.634C60.5349 132.136 59.1818 131.276 58.7513 130.757C57.9441 129.784 57.8709 128.583 58.2056 127.451Z" fill="#211814"/>
<path fill-rule="evenodd" clip-rule="evenodd" d="M37.0878 98.6732C37.8814 98.8035 39.2515 98.8448 39.3028 99.9599C39.3478 100.94 38.119 101.258 37.2539 101.335C36.3563 101.414 35.168 101.161 35.1509 100.032C35.1328 98.8148 37.0596 98.8881 37.0878 98.6732Z" fill="#211814"/>
<path fill-rule="evenodd" clip-rule="evenodd" d="M56.6576 147.201C57.5028 147.714 61.445 149.561 59.7551 150.896C59.1228 151.395 57.2058 150.364 56.7744 149.84C56.2594 149.214 55.7562 147.748 56.6576 147.201Z" fill="#211814"/>
<path fill-rule="evenodd" clip-rule="evenodd" d="M67.6165 133.796C67.4944 131.757 70.9346 130.945 70.2214 133.84C70.0203 134.656 69.8257 135.895 68.8168 135.942C67.6242 135.998 67.5811 134.587 67.6165 133.796Z" fill="#211814"/>
<path fill-rule="evenodd" clip-rule="evenodd" d="M56.9894 98.3374C57.0133 99.8843 54.0494 101.248 54.0265 98.7966C54.0061 96.6056 57.1001 95.9644 56.9894 98.3374Z" fill="#211814"/>
<path fill-rule="evenodd" clip-rule="evenodd" d="M55.0322 90.2812C55.7625 90.5166 56.7331 90.6377 56.7973 91.5656C56.8655 92.5477 55.9533 92.9848 55.1325 92.9297C54.4594 92.8845 53.4633 92.3862 53.341 91.6559C53.1617 90.5838 54.2079 90.5138 55.0322 90.2812Z" fill="#211814"/>
<path fill-rule="evenodd" clip-rule="evenodd" d="M41.4521 118.601C41.4396 117.325 43.9976 115.791 44.4687 117.272C44.6194 117.746 43.4138 119.871 43.0128 120.03C41.9518 120.451 41.8036 119.47 41.4521 118.601Z" fill="#211814"/>
<path fill-rule="evenodd" clip-rule="evenodd" d="M62.4134 139.846C61.549 140.62 58.9561 142.793 59.15 139.875C59.2737 138.012 62.6415 138.109 62.4134 139.846Z" fill="#211814"/>
<path fill-rule="evenodd" clip-rule="evenodd" d="M104.658 148.184C104.941 146.958 108.998 149.086 107.644 150.635C107.19 151.155 106.002 150.685 105.545 150.376C104.641 149.766 104.621 149.203 104.658 148.184Z" fill="#211814"/>
<path fill-rule="evenodd" clip-rule="evenodd" d="M82.0559 121.925C82.2141 121.379 82.3899 120.412 82.9116 120.063C83.8557 119.431 84.6776 120.384 84.6779 121.388C84.6781 123.26 82.5465 123.851 82.0559 121.925Z" fill="#211814"/>
<path fill-rule="evenodd" clip-rule="evenodd" d="M72.0018 143.82C73.0551 144.062 75.4003 146.622 74.0402 147.667C72.7312 148.672 70.9903 144.585 72.0018 143.82Z" fill="#211814"/>
<path fill-rule="evenodd" clip-rule="evenodd" d="M73.0046 124.44C74.3588 124.548 76.2202 126.742 74.1153 127.09C72.4688 127.363 70.554 124.978 73.0046 124.44Z" fill="#211814"/>
<path fill-rule="evenodd" clip-rule="evenodd" d="M85.2648 134.532C85.6044 133.388 88.9629 134.614 88.7743 135.873C88.674 136.543 87.3008 136.7 86.5789 136.523C85.5162 136.262 85.2404 135.565 85.2648 134.532Z" fill="#211814"/>
<path fill-rule="evenodd" clip-rule="evenodd" d="M45.6747 70.6399C45.6991 69.161 48.5409 68.5582 48.749 70.0486C48.9372 71.3951 45.6391 72.8278 45.6747 70.6399Z" fill="#211814"/>
<path fill-rule="evenodd" clip-rule="evenodd" d="M84.3258 149.771C84.5306 149.027 84.619 148.132 85.5478 148.034C86.6114 147.922 86.58 148.737 86.4551 149.583C86.1148 151.882 84.8154 151.997 84.3258 149.771Z" fill="#211814"/>
<path fill-rule="evenodd" clip-rule="evenodd" d="M39.4486 88.2356C37.9671 88.5699 35.2537 85.7166 36.9122 85.1044C38.0808 84.6725 39.4486 87.3748 39.4486 88.2356Z" fill="#211814"/>
<path fill-rule="evenodd" clip-rule="evenodd" d="M58.3444 110.399C57.5904 110.754 57.4167 110.97 56.8376 110.387C56.3332 109.879 56.3555 108.466 56.7884 107.938C58.4463 105.917 58.4074 109.581 58.3444 110.399Z" fill="#211814"/>
<path fill-rule="evenodd" clip-rule="evenodd" d="M64.4958 106.3C65.2822 106.4 67.6186 108.616 66.402 109.497C64.9111 110.576 64.0676 107.195 64.4958 106.3Z" fill="#211814"/>
<path fill-rule="evenodd" clip-rule="evenodd" d="M81.5086 106.883C80.937 109.084 79.5103 107.603 79.5912 105.938C79.721 103.27 81.1995 105.593 81.5086 106.883Z" fill="#211814"/>
<path fill-rule="evenodd" clip-rule="evenodd" d="M90.1833 142.233C91.1503 142.633 92.4628 146.33 91.0816 146.528C89.5303 146.75 90.0469 143.003 90.1833 142.233Z" fill="#211814"/>
<path fill-rule="evenodd" clip-rule="evenodd" d="M78.1072 140.156C79.2136 139.783 79.6191 142.117 78.976 142.551C77.5611 143.505 77.8594 140.707 78.1072 140.156Z" fill="#211814"/>
<path fill-rule="evenodd" clip-rule="evenodd" d="M67.6165 133.796C67.6025 134.106 67.5886 134.416 67.5741 134.724C67.5879 134.413 67.602 134.105 67.6165 133.796Z" fill="#211814"/>
<path fill-rule="evenodd" clip-rule="evenodd" d="M104.658 148.184C104.646 148.502 104.635 148.82 104.623 149.136C104.634 148.818 104.646 148.501 104.658 148.184Z" fill="#211814"/>
<path fill-rule="evenodd" clip-rule="evenodd" d="M85.2647 134.532C85.2586 134.802 85.252 135.071 85.245 135.339C85.2511 135.069 85.2581 134.8 85.2647 134.532Z" fill="#211814"/>
<path fill-rule="evenodd" clip-rule="evenodd" d="M207.655 129.893C209.949 129.82 212.508 128.956 214.762 129.231C215.383 129.307 216.811 129.463 215.817 130.384C215.341 130.824 213.065 130.596 212.376 130.742C208.164 131.634 203.383 132.209 199.064 132.135C197.042 132.1 195.005 131.938 192.985 131.831C190.965 131.724 190.767 130.904 193.039 130.643C195.399 130.372 197.82 130.472 200.192 130.47C202.685 130.466 205.166 130.06 207.655 129.893Z" fill="#211814"/>
<path fill-rule="evenodd" clip-rule="evenodd" d="M212.691 124.366C212.47 124.995 212.276 126.438 211.43 126.533C210.245 126.665 210.049 124.63 210.093 123.886C210.145 122.988 210.469 121.496 211.585 121.807C212.528 122.07 212.622 123.648 212.691 124.366Z" fill="#211814"/>
<path fill-rule="evenodd" clip-rule="evenodd" d="M205.517 123.906C205.69 123.233 205.775 121.715 206.727 121.664C207.791 121.606 208.095 123.187 208.088 123.945C208.081 124.664 207.815 126.023 206.968 126.189C205.819 126.415 205.717 124.675 205.517 123.906Z" fill="#211814"/>
<path fill-rule="evenodd" clip-rule="evenodd" d="M193.569 125.114C193.225 125.923 192.997 127.037 191.93 126.485C191.105 126.059 190.99 124.338 191.145 123.55C191.307 122.734 191.648 121.798 192.586 122.165C193.667 122.589 193.558 124.223 193.569 125.114Z" fill="#211814"/>
<path fill-rule="evenodd" clip-rule="evenodd" d="M202.617 124.366C201.6 127.449 199.745 125.363 200.449 123.062C201.186 120.656 202.523 122.993 202.617 124.366Z" fill="#211814"/>
<path fill-rule="evenodd" clip-rule="evenodd" d="M197.662 124.519C197.38 125.062 197.079 126.233 196.318 126.109C195.385 125.958 195.355 124.162 195.457 123.493C195.546 122.908 195.809 121.932 196.59 121.945C197.719 121.963 197.644 123.816 197.662 124.519Z" fill="#211814"/>
<path fill-rule="evenodd" clip-rule="evenodd" d="M217.948 125.111C217.191 126.809 216.149 125.346 216.483 124.14C216.977 122.351 217.905 123.936 217.948 125.111Z" fill="#211814"/>
<path fill-rule="evenodd" clip-rule="evenodd" d="M199.408 130.472C198.581 130.468 197.754 130.465 196.927 130.462C197.755 130.306 198.582 130.246 199.408 130.472Z" fill="#211814"/>
<path fill-rule="evenodd" clip-rule="evenodd" d="M215.838 129.224C215.12 129.229 214.403 129.233 213.687 129.238C214.402 129.023 215.119 129.018 215.838 129.224Z" fill="#211814"/>
<path fill-rule="evenodd" clip-rule="evenodd" d="M207.655 129.893C207.081 129.932 206.507 129.97 205.933 130.009C206.507 129.97 207.081 129.932 207.655 129.893Z" fill="#211814"/>
<path fill-rule="evenodd" clip-rule="evenodd" d="M193.569 125.114C193.564 124.702 193.559 124.29 193.554 123.878C193.766 124.288 193.751 124.7 193.569 125.114Z" fill="#211814"/>
<path fill-rule="evenodd" clip-rule="evenodd" d="M198.068 132.126C198.401 132.129 198.734 132.132 199.064 132.135C198.73 132.132 198.399 132.129 198.068 132.126Z" fill="#211814"/>
<path fill-rule="evenodd" clip-rule="evenodd" d="M192.479 131.831C192.816 131.831 193.154 131.831 193.488 131.831C193.15 131.831 192.815 131.831 192.479 131.831Z" fill="#211814"/>
<path fill-rule="evenodd" clip-rule="evenodd" d="M195.243 130.507C194.774 130.546 194.306 130.584 193.837 130.623C194.306 130.584 194.774 130.546 195.243 130.507Z" fill="#211814"/>
<path fill-rule="evenodd" clip-rule="evenodd" d="M201.581 130.466C201.118 130.467 200.655 130.468 200.192 130.469C200.655 130.274 201.117 130.269 201.581 130.466Z" fill="#211814"/>
<path fill-rule="evenodd" clip-rule="evenodd" d="M197.662 124.519C197.651 124.09 197.639 123.66 197.629 123.231C197.64 123.661 197.651 124.09 197.662 124.519Z" fill="#211814"/>
<path fill-rule="evenodd" clip-rule="evenodd" d="M191.145 123.551C191.143 123.969 191.14 124.388 191.137 124.805C191.14 124.386 191.142 123.968 191.145 123.551Z" fill="#211814"/>
<path fill-rule="evenodd" clip-rule="evenodd" d="M210.285 129.738C209.875 129.775 209.466 129.811 209.058 129.848C209.467 129.811 209.876 129.775 210.285 129.738Z" fill="#211814"/>
<path fill-rule="evenodd" clip-rule="evenodd" d="M217.948 125.111C217.934 124.745 217.921 124.379 217.908 124.014C217.921 124.38 217.934 124.745 217.948 125.111Z" fill="#211814"/>
<path fill-rule="evenodd" clip-rule="evenodd" d="M200.541 132.138C200.826 132.133 201.11 132.127 201.392 132.123C201.107 132.128 200.824 132.133 200.541 132.138Z" fill="#211814"/>
<path fill-rule="evenodd" clip-rule="evenodd" d="M212.691 124.366C212.666 124.103 212.641 123.84 212.616 123.578C212.641 123.842 212.666 124.104 212.691 124.366Z" fill="#211814"/>
<path fill-rule="evenodd" clip-rule="evenodd" d="M202.617 124.366C202.599 124.096 202.58 123.826 202.562 123.557C202.58 123.827 202.599 124.097 202.617 124.366Z" fill="#211814"/>
<path fill-rule="evenodd" clip-rule="evenodd" d="M55.7491 45.0234C54.629 44.7295 54.419 43.1554 54.599 42.1886C54.8032 41.7227 55.0073 41.257 55.2115 40.7911C55.1315 40.6188 55.0519 40.4465 54.9722 40.2743C55.0746 39.3147 54.8128 38.8978 55.9155 39.2864C57.964 40.0087 58.2914 44.9493 55.7491 45.0234Z" fill="#211814"/>
<path fill-rule="evenodd" clip-rule="evenodd" d="M72.3293 41.9801C73.2521 41.9074 74.9281 42.982 74.0096 44.0217C73.4405 44.6658 71.5653 44.3611 70.8003 44.4956C69.7857 44.674 68.7275 44.9179 69.2764 43.3983C69.7074 42.2048 71.2468 41.9489 72.3293 41.9801Z" fill="#211814"/>
<path fill-rule="evenodd" clip-rule="evenodd" d="M71.3584 49.1282C70.4211 48.3766 70.8394 44.953 72.2659 45.569C73.7333 46.203 72.1405 48.6341 71.3584 49.1282Z" fill="#211814"/>
<path fill-rule="evenodd" clip-rule="evenodd" d="M54.599 42.1886C54.599 42.5488 54.5988 42.9093 54.5981 43.2679C54.4026 42.907 54.4087 42.5477 54.599 42.1886Z" fill="#211814"/>
<path fill-rule="evenodd" clip-rule="evenodd" d="M55.7491 45.0234C55.9402 45.018 56.1314 45.0124 56.3201 45.0074C56.1281 45.0135 55.9388 45.0185 55.7491 45.0234Z" fill="#211814"/>
<path fill-rule="evenodd" clip-rule="evenodd" d="M171.479 143.617C171.392 145.174 169.719 144.023 169.838 142.981C170.053 141.091 171.122 142.959 171.479 143.617Z" fill="#211814"/>
</svg>
