<svg width="240" height="180" viewBox="0 0 240 180" fill="none" xmlns="http://www.w3.org/2000/svg">
<path fill-rule="evenodd" clip-rule="evenodd" d="M60.9335 77.8576C68.6477 79.9147 76.2782 82.3334 83.9278 84.6165C84.7884 84.8734 84.786 84.9165 85.5557 84.4529C87.6492 83.192 89.7825 81.9943 91.9403 80.8468C98.4487 77.386 105.139 74.6169 112.305 72.8551C117.385 71.6063 122.549 70.6161 127.73 69.8888C127.203 71.51 126.181 73.2001 124.918 74.342C123.938 75.227 122.603 75.7107 121.393 76.1853C117.795 77.5965 114.028 78.5834 110.491 80.1521C106.885 81.7522 104.606 85.0784 103.921 88.9377C103.793 89.6595 103.801 89.7695 104.393 90.1337C105.057 90.5422 105.864 90.7812 106.597 91.0306C112.475 93.0329 118.675 94.2659 124.754 95.4812C127.98 96.1264 131.219 96.7259 134.475 97.2092C136.495 97.5092 138.63 97.9116 140.682 97.7919C149.475 97.2788 154.687 86.8121 157.262 79.7326C165.207 84.0366 174.322 86.7875 183.222 88.1148C194.013 89.7242 207.607 89.8126 216.137 81.8605C220.2 78.073 222.694 72.9446 224.527 67.7795C218.549 67.2669 212.597 66.3702 206.668 65.4631C205.632 65.3047 204.598 65.1434 203.563 64.9794C203.147 64.9133 202.508 64.6796 202.082 64.7417C201.436 64.8355 200.602 65.5363 200.029 65.8468C195.642 68.2278 191.107 70.4113 186.4 72.0868C183.878 72.9845 181.26 73.7785 178.586 74.0443C175.717 74.3298 172.78 73.7431 170.01 73.0428C163.061 71.2859 155.792 68.3134 149.996 64.0295C148.586 66.0397 146.041 67.4014 143.615 66.4313C140.957 65.3689 139.48 62.5827 138.056 60.2912C137.537 59.4568 136.559 59.4509 135.595 59.2049C132.9 58.5174 130.172 57.957 127.431 57.492C118.43 55.9651 109.174 55.4471 100.09 56.5004C91.2246 57.5284 82.4969 60.388 74.6803 64.6862C71.28 66.556 67.9692 68.7226 65.1438 71.3994C63.3593 73.0899 61.274 75.3024 60.9335 77.8576Z" fill="#F3F3F1"/>
<path fill-rule="evenodd" clip-rule="evenodd" d="M87.7137 19.7167C90.4959 20.6481 93.0059 22.0166 95.4579 23.6101C96.6527 24.3865 97.848 25.2952 99.1685 25.8451C100.341 26.3328 101.621 26.5547 102.825 26.9555C108.219 28.7513 114.072 29.1125 119.557 27.3861C125.149 25.6262 129.895 21.8467 135.677 20.6612C141.317 19.5051 147.052 19.7608 152.467 21.8545C155.097 22.8714 157.316 24.5801 159.56 26.2442C161.711 27.8389 163.968 29.4118 165.633 31.5406C167.269 33.6312 168.213 36.2328 168.933 38.7626C169.349 40.2216 169.54 41.7282 169.51 43.2458C169.49 44.3075 168.928 45.3331 169.258 46.3594C169.722 47.7987 170.396 48.8567 170.222 50.4591C170.082 51.7496 169.495 52.8617 168.578 53.7676C167.638 54.6969 166.512 55.3351 165.258 55.7382C164.309 56.0431 164.01 55.966 163.458 55.1391C161.915 56.5365 160.812 58.3022 158.878 59.2252C157.918 59.6837 156.935 59.9044 155.877 59.9717C155.076 60.0226 154.341 60.0458 153.664 60.533C152.954 61.0447 150.357 63.3268 151.35 64.2244C151.93 64.748 153.282 64.8518 154.019 65.1528C155.051 65.5737 156.042 66.0901 156.979 66.6945C160.403 68.9058 163.811 70.2854 167.771 71.2751C171.882 72.3026 176.027 72.8586 180.268 72.8738C184.121 72.8879 188.157 72.5951 191.73 71.0354C193.445 70.2868 195.1 69.294 196.503 68.0508C197.903 66.8105 198.762 65.0858 200.2 63.9315C201.131 63.1843 200.27 62.034 199.982 61.0083C199.397 58.9219 198.95 56.5468 198.772 54.3894C198.6 52.2936 198.311 50.2039 197.939 48.1301C197.544 45.9317 196.722 43.8854 196.141 41.7383C195.713 40.1551 195.282 38.2969 195.779 36.6802C196.025 35.8782 196.571 35.0307 197.348 34.6479C198.042 34.3055 198.47 34.6327 199.092 34.5959C200.917 34.4886 202.326 35.2327 203.703 36.4503C204.447 37.1082 205.309 37.6843 206.018 38.3733C206.569 38.9091 206.7 39.7737 207.288 40.2488C208.253 37.7862 209.264 34.6557 212.536 36.064C215.126 37.1785 215.459 41.3658 216.715 43.5488C217.421 42.9676 217.5 41.8222 217.775 41.0119C218.059 40.1733 218.538 39.2876 219.213 38.6944C220.688 37.3988 222.486 37.9191 223.501 39.4712C224.044 40.3008 223.721 41.2533 224.26 42.0727C224.794 42.8853 224.627 43.8347 224.845 44.7811C225.122 45.9807 225.456 47.1626 225.679 48.3758C225.782 48.9366 225.932 49.569 225.906 50.1446C225.895 50.3832 225.702 50.7936 225.761 51.0291C225.839 51.3373 226.205 51.6146 226.339 51.9195C226.52 52.3292 226.453 52.6271 226.473 53.0497C226.51 53.8104 226.714 54.4346 226.932 55.186C227.483 57.0786 227.343 59.4741 226.528 61.2664C226.106 62.1954 225.809 62.8712 225.684 63.8654C225.603 64.5073 225.119 65.0921 225.148 65.7821C225.188 66.7423 227.757 68.2231 225.729 68.8601C224.882 69.1262 224.701 68.9872 224.47 69.9547C224.24 70.9151 223.98 71.8496 223.603 72.7646C222.804 74.7064 221.623 76.445 220.508 78.2133C219.302 80.1275 218.035 81.9772 216.252 83.4045C214.599 84.728 212.704 85.8047 210.817 86.7575C206.842 88.7647 202.418 89.8852 197.955 89.7767C193.195 89.6607 188.367 90.1104 183.65 89.3021C178.821 88.4743 174.109 87.1041 169.299 86.1851C167.139 85.7722 165.125 85.3219 163.159 84.3024C161.164 83.2683 159.174 82.2122 157.35 80.8937C156.092 83.9065 155.415 87.0472 153.613 89.8189C152.04 92.2379 150.143 94.5122 147.82 96.2469C145.552 97.9416 142.587 99.2091 139.731 99.3181C138.859 99.3511 137.519 98.9686 136.894 99.6254C136.581 99.954 136.549 100.607 136.425 101.029C136.213 101.747 135.907 102.447 135.737 103.177C135.479 104.283 136.518 104.3 137.428 104.75C138.649 105.352 139.841 106.01 141.021 106.687C142.227 107.38 143.376 108.177 144.584 108.858C145.621 109.444 146.691 109.895 147.69 110.558C150.049 112.126 152.633 113.171 155.166 114.412C157.878 115.74 160.516 117.222 163.181 118.641C168.459 121.452 173.754 124.369 178.738 127.682C181.064 129.228 183.301 130.838 185.686 132.301C187.912 133.665 190.452 135.262 191.868 137.5C192.973 139.246 194.56 140.073 196.387 141.024C197.463 141.585 198.129 141.691 199.003 140.773C199.861 139.873 200.69 138.977 201.596 138.118C205.308 134.596 208.483 130.74 211.579 126.684C213.877 123.673 217.028 120.057 221.248 120.717C222.514 120.915 223.354 121.504 224.29 122.333C224.925 122.895 226.072 123.263 226.495 123.991C226.74 124.411 226.842 124.95 227.088 125.391C227.346 125.852 227.666 126.302 227.838 126.806C228.129 127.66 227.502 129.016 228.128 129.711C228.586 130.22 228.16 131.419 228.035 131.994C227.804 133.058 227.607 134.138 227.242 135.166C226.954 135.974 226.671 137.082 226.064 137.714C225.523 138.277 224.888 138.222 225.03 139.197C224.444 139.002 223.94 140.404 223.775 140.758C223.331 141.708 222.847 142.488 222.132 143.276C220.324 145.266 218.255 146.613 215.911 147.879C215.056 148.34 213.283 148.982 213.085 150.049C212.894 151.074 213.479 151.906 213.068 153.001C212.213 155.277 210.291 157.678 208.723 159.515C207.312 161.168 205.944 162.272 203.682 161.884C201.678 161.54 199.695 160.518 198.027 159.383C196.018 158.017 193.89 156.99 191.721 155.906C190.653 155.372 189.585 154.879 188.66 154.113C187.8 153.4 187.054 152.598 186.057 152.069C185.347 151.692 184.419 151.425 184.123 150.585C183.8 149.67 184.39 149.099 184.891 148.443C185.228 148.002 185.414 147.934 185.124 147.581C184.891 147.298 184.254 147.059 183.934 146.887C183.159 146.472 182.385 146.108 181.557 146.565C180.634 147.074 180.002 148.128 179.31 148.894C178.481 149.81 177.549 150.646 176.64 151.482C174.836 153.142 172.859 154.628 171.097 156.326C170.694 156.714 169.9 157.699 169.235 157.512C168.744 157.375 169.003 157.084 168.75 156.859C168.477 156.618 168.246 156.615 167.897 156.353C167.03 155.704 166.765 154.458 165.855 153.786C164.92 153.094 163.765 152.598 162.753 152.029C158.131 149.432 153.63 146.631 149.405 143.421C147.287 141.812 145.287 140.065 143.235 138.374C142.269 137.579 141.29 136.707 140.216 136.06C139.236 135.47 138.148 135.058 137.15 134.492C135.012 133.28 132.725 132.353 130.608 131.102C129.613 130.513 128.876 129.723 127.95 129.068C127.14 128.494 126.465 128.154 125.862 127.319C125.575 127.95 124.789 127.127 124.505 126.934C124.281 126.781 123.995 126.674 123.788 126.5C123.579 126.324 123.453 125.934 123.295 125.812C122.944 125.542 122.537 125.604 122.066 125.435C121.437 125.209 120.607 124.608 120.123 124.148C119.788 123.831 120.334 124.081 119.768 123.691C119.505 123.51 119.054 123.461 118.758 123.269C118.056 122.813 117.411 122.228 116.74 121.725C115.526 120.814 113.955 119.985 113.265 118.565C109.561 121.607 105.984 124.907 101.731 127.183C97.6231 129.382 92.8713 130.38 88.485 131.897C83.9716 133.457 79.4133 135.026 74.8242 136.349C72.5932 136.992 70.2926 137.453 68.0123 137.888C65.6733 138.334 63.3666 138.201 61.0195 138.453C59.8657 138.577 58.7105 138.537 57.5571 138.648C56.4949 138.751 55.4648 139.021 54.4102 139.161C53.4804 139.285 52.4318 139.181 51.5377 139.433C50.8816 139.619 50.0152 140.277 49.5347 139.421C49.1827 139.948 49.0709 139.699 48.6124 139.666C48.1235 139.629 47.9763 139.651 47.4977 139.742C46.7194 139.891 45.8604 139.948 45.1997 139.337C44.8973 140.432 41.9679 139.436 41.6184 138.712C41.2249 139.872 37.6664 138.871 37.6148 137.782C37.5715 136.861 38.1834 135.536 38.4361 134.67C38.8484 133.257 39.3593 131.875 39.8932 130.504C40.458 129.054 41.0372 127.609 41.6182 126.166C41.8734 125.532 42.1146 124.887 42.4059 124.268C42.5489 123.965 42.9209 123.512 42.9148 123.162C42.8967 122.137 41.0609 122.064 40.2846 121.809C39.6975 121.616 39.1015 121.412 38.5439 121.144C38.1391 120.949 37.6535 120.503 37.2056 120.441C36.1793 120.299 36.4118 121.46 36.3002 122.174C36.157 123.092 35.651 123.564 34.6784 123.571C33.5421 123.579 30.3019 121.625 29.6906 123.114C29.404 123.812 29.4818 125.15 29.3768 125.9C29.2043 127.129 29.2727 128.352 29.441 129.577C29.7173 131.595 30.6293 134.148 29.6027 136.082C27.5531 139.945 20.4458 137.617 18.1773 135.185C14.8365 131.604 14.934 126.238 16.5348 121.902C17.3132 119.793 18.4408 117.534 19.9147 115.819C20.5696 115.057 21.8153 114.322 22.0314 113.275C22.2109 112.406 21.5359 111.606 21.6779 110.716C21.8467 109.66 22.7404 109.019 23.5064 108.379C24.3037 107.712 25.0795 106.985 25.9882 106.468C28.0908 105.274 30.4753 105.995 32.5657 106.872C34.8516 107.832 37.0413 109.118 39.0832 110.518C40.0941 111.211 40.9512 111.835 42.1498 112.171C43.0687 112.428 43.9971 112.681 44.9203 112.922C45.7915 113.15 46.5258 113.319 47.1373 112.566C47.8102 111.737 48.033 111.402 49.1977 111.367C50.438 111.329 51.6792 111.398 52.9184 111.446C53.1802 111.456 53.7745 111.374 53.981 111.592C54.165 111.787 53.8985 112.192 54.0698 112.315C54.3403 112.509 55.8769 110.339 56.0084 112.096C56.0923 111.243 56.9873 111.656 57.4863 111.768C57.668 111.809 57.8491 111.857 58.0289 111.897C58.2239 111.832 58.3861 111.882 58.5143 112.047C58.7194 112.09 58.8581 112.012 58.9305 111.812C61.099 111.781 63.2864 111.917 65.4602 111.906C67.9741 111.893 70.5023 111.868 72.9926 111.504C73.9151 111.369 74.8381 111.183 75.7622 111.07C76.1857 111.018 76.541 111.063 76.9542 111.091C77.1049 111.119 77.2416 111.181 77.3644 111.278C77.4274 111.154 77.5214 111.06 77.6461 110.996C79.2277 110.533 80.8547 110.219 82.4618 109.814C83.5868 109.531 84.5299 109.313 85.6498 109.233L85.8621 109.22L86.3121 109.352C86.378 109.192 86.4851 109.067 86.6334 108.977C86.9986 108.827 87.3087 108.77 87.7022 108.729C89.2685 108.57 90.8053 108.586 92.2859 108.357C93.0656 108.236 95.9147 107.795 96.4402 108.568C96.843 107.626 99.7441 108.908 100.594 108.352C99.2754 106.554 98.7009 104.63 98.3278 102.455C97.9212 100.087 97.6657 97.5952 98.2671 95.236C98.8212 93.0622 100.028 90.8309 101.678 89.3016C103.274 87.8225 103.648 86.0532 104.713 84.2279C106.931 80.4244 110.586 78.1008 114.657 76.6976C116.874 75.9336 119.128 75.2977 121.365 74.5955C123.181 74.0253 124.702 73.2092 125.621 71.4647C117.886 71.4647 110.486 73.8636 103.404 76.7733C99.8808 78.2206 96.3736 79.7267 92.8941 81.2757C91.1229 82.0639 89.3714 82.9069 87.7191 83.9248L87.2623 84.2063C86.7298 84.5356 86.2005 84.8729 85.7041 85.2526C85.5858 85.3433 84.9396 85.7201 84.9016 85.846C84.6063 86.8247 86.2331 88.3988 86.6555 89.2383C87.2304 90.3816 87.7936 91.7185 87.8644 93.0073C87.9485 94.5488 86.9655 95.3201 85.4508 95.0037C83.5983 94.6168 82.1958 93.0729 80.7248 91.9995C80.3967 92.9846 80.8205 94.1178 81.0502 95.0778C81.3652 96.3945 81.6783 97.7311 81.9024 99.0671C82.219 100.955 81.994 103.086 80.1152 104.076C75.3277 106.597 72.8869 99.9451 71.9147 96.6221C71.2575 97.096 71.3341 98.8325 71.2132 99.5586C70.9809 100.956 70.7145 102.456 70.0941 103.739C69.6187 104.721 68.8111 105.868 67.6223 105.974C66.333 106.089 65.2938 104.981 64.7163 103.958C63.7184 102.19 63.483 100.22 63.4043 98.239C63.3867 97.8026 63.5133 93.7618 63.0722 93.6467C61.7752 95.9705 61.0516 98.5545 59.528 100.771C58.1927 102.713 56.1834 104.03 54.378 101.785C51.5822 98.307 52.4768 93.2813 53.6222 89.3687C54.2883 87.0933 55.1948 84.9214 56.4171 82.8868C56.9238 82.0428 57.5372 81.4095 58.1665 80.6656C58.6854 80.052 58.8851 79.764 58.6612 79.0569C58.5309 78.6446 58.4077 78.6296 58.5239 78.1737C58.6076 77.8468 58.8584 77.4443 59.0016 77.1406C59.4113 76.2727 59.8413 75.4163 60.3431 74.5974C61.4159 72.8483 62.8765 71.393 64.4114 70.0435L64.5656 69.9085L64.5584 69.9153C64.4595 70.0062 65.1776 69.4592 65.1628 69.4578L65.1588 69.4594L65.1778 69.4482C65.4427 69.275 65.5434 68.7057 65.8448 69.2138L65.8669 69.2518C65.914 68.5041 66.5435 68.0792 67.0835 67.6604C67.2846 67.5043 67.4857 67.2875 67.7299 67.1942C67.8998 67.1293 68.295 67.193 68.418 67.1023C68.6573 66.9263 68.7743 66.5776 69.0016 66.3701C69.2295 66.1627 69.544 66.0657 69.8032 65.9075C70.4386 65.5196 71.0224 65.0447 71.6423 64.6313C72.9591 63.7529 74.3339 62.9614 75.7425 62.2402C78.7059 60.7226 81.8512 59.5015 84.9989 58.4246C87.773 57.4754 90.6483 56.596 93.4976 55.9046C96.4221 55.1947 99.4957 55.3714 102.483 55.0796C108.57 54.4845 114.996 54.6045 121.081 55.1984C124.063 55.4895 127.028 55.9447 129.97 56.5137C132.822 57.0654 135.789 57.6933 138.323 59.1849C138.863 59.5027 139.838 60.522 140.471 60.4845C141.004 60.4531 141.467 59.4699 141.717 59.0825C142.312 58.1623 143.06 57.3167 143.566 56.3471C144.188 55.1529 144.507 53.8107 144.975 52.5542C142.804 52.8535 140.524 53.0476 138.44 52.2158C136.553 51.4625 135.281 49.9571 133.872 48.567C132.387 47.1029 130.797 46.1108 128.673 45.9762C126.263 45.8234 124.091 46.688 121.874 47.4938C117.192 49.1963 112.511 51.0669 107.692 52.351C105.337 52.9786 102.915 53.4741 100.475 53.5857C99.2327 53.6422 97.9753 53.5864 96.7465 53.8158C96.237 53.9108 96.0841 53.9902 95.6813 53.7652C95.7359 53.7959 95.1684 52.8523 95.0559 53.2196C94.9474 53.5735 95.1248 53.8501 94.8148 54.1168C94.4506 54.4299 93.6602 54.2776 93.2384 54.2415C92.6065 54.1876 92.1028 53.9731 91.4944 53.8304C90.5538 53.6098 89.4998 53.7551 88.5415 53.6347C88.0962 53.5787 87.773 53.4664 87.3724 53.3431C86.9527 53.214 87.2231 53.2304 86.7907 53.1753C86.4077 53.1265 86.1909 53.1769 85.7273 53.0262C85.3127 52.8915 84.9295 52.7987 84.5056 52.6997C84.1172 52.6095 83.8038 52.4471 83.4427 52.3414C83.8964 52.4743 82.8598 52.0634 82.9048 52.1729L82.9088 52.1799L82.905 52.1761C82.7925 52.0494 82.6622 51.7944 82.4393 51.755L82.3936 51.7498C83.1267 52.8753 79.9038 51.6861 79.6903 51.6212C77.9093 51.0793 76.0849 49.8493 74.2237 49.7361C72.4069 49.6254 70.6446 50.8637 69.1819 51.7819C67.4154 52.891 65.6569 54.0092 63.8972 55.1295C60.0075 57.6057 55.7955 59.8205 51.4303 61.3254C49.3071 62.0574 47.1314 62.6445 44.9777 63.2785C44.0067 63.5642 42.9464 63.6816 42.0185 64.0915C41.3913 64.3686 40.4873 65.1976 39.8536 64.4633C39.5984 65.1057 38.359 65.0729 37.8335 65.0928C37.7527 65.0958 37.8825 65.2498 37.6976 65.2369C37.4252 65.2177 37.3523 64.9533 37.1379 64.898C36.7022 64.786 36.657 64.9538 36.2252 65.1204C35.6644 65.3368 35.7712 65.1495 35.2753 65.0984C34.9915 65.0691 34.6908 65.225 34.4065 65.2339C34.2909 65.2376 34.1393 65.0452 33.9722 65.048C33.8114 65.0511 33.4345 65.243 33.2217 65.2749C32.6887 65.3551 32.0616 65.3019 31.5241 65.2779C30.7552 65.2435 23.053 64.5568 23.6058 62.9466C22.679 63.8016 20.5293 62.404 19.5632 61.9601C19.2034 61.7949 19.1802 61.6344 18.9775 61.448C19.0335 61.2242 18.9376 61.1243 18.6899 61.1483C18.6369 61.1422 18.5837 61.1363 18.531 61.1302C18.1065 60.9139 17.9554 60.9188 17.6174 60.5394C17.1667 60.0329 16.337 59.5749 16.1033 58.9149C16.0408 58.7377 16.1073 58.4319 16.0436 58.2926C15.962 58.114 15.7473 58.1347 15.6976 57.9898C15.6803 57.9392 15.7633 57.6071 15.7572 57.6017C15.3674 57.2754 14.818 57.4301 14.3664 57.0385C13.1183 55.9554 12.3653 53.783 12.0062 52.2404C11.0671 48.2056 10.7465 44.1486 12.5692 40.3322C13.4551 38.4767 14.5398 36.7119 15.7375 35.0424C16.0689 34.5807 16.416 33.9711 16.8388 33.5813C17.0287 33.4062 17.2771 33.3704 17.3697 33.2656C17.8637 32.7066 18.1199 31.9878 18.782 31.4438C19.5191 30.838 20.2459 30.2152 21.0601 29.7141C21.8073 29.254 22.7378 28.9571 23.4229 28.5268C23.6109 28.4087 23.5462 28.2223 23.7504 28.0819C23.9667 27.9331 24.2466 27.9216 24.4917 27.8492C24.7826 27.7637 25.1433 27.6059 25.4452 27.5799C26.0088 27.5309 26.198 27.6924 26.6231 28.0927C26.6231 26.5522 29.46 26.3377 30.6075 26.3349C31.1369 26.3335 33.7976 26.0961 33.7465 26.907C34.3526 26.1059 36.1952 26.7019 36.9968 26.9422C37.9587 27.2302 38.5671 27.935 39.1842 28.6878C39.2986 28.4492 39.4132 28.2104 39.5278 27.9718C39.7029 28.0941 40.2949 28.2976 40.1041 28.6203C40.7972 28.0088 40.4065 28.5125 41.0002 28.6212C41.261 28.669 41.4858 28.5727 41.7602 28.5401C41.783 28.9025 41.6257 29.0199 41.4014 29.2726C41.9391 29.2826 44.0053 29.068 42.476 29.7437C42.6804 30.1093 43.6502 29.9808 43.9912 30.0301C44.172 30.0561 44.6222 30.0655 44.73 30.1976C44.801 30.2846 44.6761 30.5251 44.692 30.5464C44.8378 30.744 44.535 30.8455 44.8341 30.9026C44.9077 30.9167 45.1404 30.683 45.1931 30.684C45.581 30.6901 45.3089 30.613 45.7202 30.6722C45.8653 30.6931 46.1437 30.8586 46.3301 30.8968C49.1393 31.4717 52.5731 29.3089 54.6138 27.6345C57.0527 25.6339 59.1757 23.4955 62.1077 22.1969C64.9441 20.9409 68.104 19.9504 71.1185 19.232C76.6931 17.9036 82.2291 17.8804 87.7137 19.7167ZM158.675 147.733C158.765 147.781 158.855 147.829 158.946 147.877C159.074 147.811 159.203 147.747 159.331 147.681C158.963 147.507 158.937 147.43 158.675 147.733ZM188.612 139.764C187.936 140.191 187.356 141.154 186.765 141.729C185.934 142.535 185.066 143.302 184.199 144.069C185.198 144.416 186.648 145.819 187.729 145.183C188.265 144.869 188.603 143.943 188.942 143.452C189.466 142.692 190.08 141.978 190.696 141.291C191.331 140.584 189.32 139.317 188.612 139.764ZM125.262 125.202C125.53 125.314 126.116 125.96 125.844 126.187C125.568 125.868 125.198 125.637 125.262 125.202ZM39.2566 114.972C38.7675 115.395 38.216 116.277 37.8755 116.833C37.4918 117.459 37.4782 117.774 38.0641 118.192C39.1964 118.999 40.8412 119.236 42.1544 119.613C42.8555 119.814 43.7222 120.32 44.3177 119.68C44.9074 119.048 44.9088 117.869 45.1741 117.084C45.3891 116.448 45.619 115.818 45.8421 115.186C44.6044 115.31 43.3596 115.319 42.1427 115.042C41.2594 114.841 40.0378 114.297 39.2566 114.972ZM60.6356 81.1362C59.6362 82.4935 58.7447 83.9312 57.9586 85.422C56.6578 87.8897 55.6467 90.5098 55.0062 93.2262C54.5522 95.1507 53.8889 97.8563 54.9255 99.7025C57.1838 103.724 61.7672 92.1143 62.4668 90.9001C62.8833 90.177 63.5297 89.4015 64.2457 90.331C64.833 91.0939 64.6418 92.3166 64.669 93.215C64.7501 95.885 64.3774 99.0826 65.445 101.595C65.7954 102.419 66.7235 103.61 67.7712 103.236C68.7103 102.9 69.1795 101.282 69.4699 100.449C70.3884 97.8129 71.04 94.591 71.0698 91.8017C71.0756 91.2413 70.5729 87.5368 71.8692 88.3564C72.7172 88.8922 72.6825 91.493 72.7648 92.344C73.087 95.6689 73.7438 101.315 77.869 101.875C78.7772 101.998 79.8052 101.783 80.337 100.966C80.9979 99.9519 80.3332 98.5876 80.1016 97.5211C79.7025 95.6827 79.2504 93.7876 79.2105 91.895C79.1862 90.7348 79.3003 88.8062 80.9299 89.2538C82.8938 89.7931 83.7244 92.3621 85.9298 92.4481C85.932 91.9311 85.6458 91.5097 85.4032 91.0777C84.6185 89.6815 83.1893 88.486 82.7056 86.9415C82.5469 86.4347 82.7119 85.6728 82.398 85.2504C82.1016 84.8518 81.4324 84.7496 80.985 84.6594C78.0063 84.0577 75.0781 83.2433 72.1132 82.5497C68.9438 81.8087 66.0052 81.0076 63.037 79.7026C61.6997 79.1145 61.3943 80.1062 60.6356 81.1362ZM131.702 101.961C132.139 102.169 132.573 102.385 133.015 102.581C133.4 102.753 133.551 102.616 133.704 102.257C133.426 102.199 131.863 101.644 131.702 101.961ZM112.933 56.9213C107.266 57.0875 101.725 57.1599 96.1385 58.2359C93.4669 58.7506 90.848 59.3469 88.2279 60.0776C87.1212 60.3863 86.1455 60.7081 85.1803 61.3238C84.8215 61.5526 83.8716 62.2709 83.7258 61.4499C83.2486 61.9072 82.3181 63.3031 81.5552 62.5276C81.4214 63.0882 81.0045 63.0708 80.5976 63.2614C80.4544 63.3284 80.3763 63.5565 80.1921 63.6392C80.1457 63.6598 80.1302 63.3394 80.0627 63.334C79.8197 63.3148 79.628 63.8267 79.4883 63.9572C79.152 64.2701 78.837 64.4133 78.3912 64.527C78.1976 64.5917 77.9991 64.6332 77.7959 64.6515C77.5566 64.7497 77.4131 64.6791 77.3658 64.4398C77.0355 64.4452 76.7939 64.5652 76.448 64.7218C77.1945 64.8929 75.9387 65.0811 75.7718 65.1001C75.7512 65.6579 76.2279 65.3044 76.5359 65.42C76.3934 66.1201 75.0959 66.6544 74.562 66.9978C74.4708 66.8037 74.3796 66.6097 74.2882 66.4158C74.1406 66.5586 74.0262 66.7229 73.9444 66.9087C73.8893 67.1337 73.7295 67.2115 73.4651 67.1422C73.2176 67.3386 73.1805 67.2476 73.0284 67.5242C72.8712 67.8108 73.3362 68.3686 72.6607 68.1284C72.6607 69.0804 71.7764 68.5034 71.9313 68.2564C71.2624 68.1917 70.977 69.4161 71.052 69.8937C70.732 69.5769 70.5359 69.6169 70.2145 69.8644L70.1862 69.8867L70.203 69.8747C70.4501 69.7074 70.196 70.3913 70.218 70.3833L70.2211 70.3805C69.5419 71.2756 69.6059 70.2734 69.8161 69.7454C69.3558 69.9298 69.2686 70.429 68.8992 70.7108C68.5704 70.9615 68.4778 70.8451 68.1949 70.8826C67.7592 70.9402 67.8907 70.5818 67.6997 71.0618C67.6188 71.2653 67.7414 71.6297 67.7414 71.8517C67.9303 71.5934 67.8588 71.1849 68.2001 71.037C68.0981 71.7854 66.6427 74.3565 66.0307 72.8412C65.4354 73.2549 66.0914 73.7082 65.7007 74.2622C65.4101 73.9819 65.3405 73.5359 65.373 73.1539C65.1905 73.3967 65.1963 73.7035 65.0534 73.9491C64.9043 74.2053 64.7482 74.2259 64.6763 74.5044C64.5673 74.9272 64.9397 74.72 64.743 75.1686C64.6444 75.3938 64.1822 75.5909 64.0003 75.7177C63.3633 76.1616 62.7192 76.6758 63.3375 77.4136C64.3057 78.5684 66.8569 78.7006 68.227 78.8947C71.1487 79.3086 73.9962 79.996 76.8748 80.6328C78.6082 81.0165 80.306 81.4435 82.0062 81.9551C83.227 82.3222 84.9134 82.5504 85.5577 83.8144C88.9608 80.5608 93.4987 78.8633 97.6988 76.9119C102.248 74.7985 106.946 72.8361 111.765 71.4237C116.038 70.1712 120.42 69.6959 124.834 69.2642C125.998 69.1503 127.791 68.859 128.828 69.5736C129.468 70.0147 129.498 70.6826 129.008 71.2728C128.742 71.5925 128.456 71.5095 128.294 72.0795C128.168 72.5201 128.237 72.8539 128.352 73.2901C128.058 73.0597 127.53 73.197 127.38 72.7901L127.365 72.7447L127.351 72.7929C127.15 73.587 128.554 73.6967 128.123 74.6487L128.096 74.7068C127.947 74.9977 127.946 74.0647 127.815 74.0579C127.459 74.0394 127.167 74.8714 127.021 75.102C127.683 75.102 127.431 75.5839 127.076 75.8272C126.822 76.0008 126.394 76.0512 126.099 76.1947C125.511 76.4815 124.994 76.902 124.391 77.1755C123.73 77.4753 123.149 77.4938 122.493 77.6717C122.392 77.6991 121.989 77.8501 121.948 77.8536C121.893 77.8585 121.88 78.0286 121.833 78.0352C121.413 78.0945 121.096 77.7052 120.69 77.8639C120.535 77.9248 120.616 78.3043 120.481 78.3903C120.332 78.4852 119.91 78.364 119.73 78.354C119.297 78.3291 119.231 78.2719 118.887 78.4728C118.297 78.8178 117.996 79.2842 117.2 79.3688C116.577 79.4351 116.176 79.3175 115.583 79.5509C114.984 79.7869 114.416 79.8392 113.832 79.9974C113.758 80.0176 113.738 80.2709 113.678 80.2885C113.484 80.3457 113.253 80.3021 113.069 80.3588C112.644 80.4894 112.3 80.6056 111.906 80.8397C110.175 81.8689 108.269 83.4137 106.912 84.8968C106.292 85.5739 104.563 87.2794 105.127 88.2596C105.488 88.8884 106.737 89.194 107.36 89.4596C108.289 89.8559 109.249 90.1444 110.188 90.5115C111.355 90.968 112.414 91.6772 113.605 92.0747C114.755 92.4584 115.984 92.5341 117.172 92.739C122.309 93.6249 127.342 95.0497 132.482 95.9333C135.3 96.4179 138.178 96.9964 141.041 96.5396C143.565 96.1369 145.981 95.0208 147.996 93.4615C151.664 90.6242 154.219 86.5955 155.505 82.1637C155.77 81.2483 155.826 78.9582 156.682 78.398C157.396 77.9316 157.77 78.9596 158.233 79.3658C158.985 80.0255 160.087 80.2808 160.992 80.6572C163.232 81.5888 165.268 82.5722 167.635 83.2025C170.036 83.8411 172.469 84.342 174.896 84.8686C179.815 85.9362 184.511 86.9459 189.567 86.9623C194.57 86.9783 199.592 87.1665 204.54 86.2449C208.868 85.4389 213.221 83.2369 216.456 80.2472C218.09 78.7376 219.35 76.831 220.634 75.0289C221.324 74.0623 221.964 73.0604 222.502 72.0012C222.898 71.2229 223.578 70.0958 223.647 69.2131C223.709 68.4244 223.248 68.5365 222.46 68.4558C221.248 68.3321 220.031 68.2536 218.819 68.1289C216.373 67.8781 213.935 67.5582 211.49 67.2983C208.995 67.0329 206.517 66.6732 204.093 66.0122C203.369 65.8147 202.833 65.5655 202.321 66.2696C201.992 66.7229 201.998 67.7572 201.309 66.9978C199.986 68.6686 198.051 69.6692 196.243 70.7178C194.287 71.8524 192.385 73.1009 190.311 74.0171C185.844 75.9915 180.92 75.8349 176.179 75.2023C171.361 74.5594 166.479 73.7302 161.952 71.8969C159.876 71.0562 158.092 69.777 156.23 68.5564C155.353 67.9815 154.443 67.5085 153.512 67.0294C152.462 66.4894 151.82 65.6888 150.871 65.0647C150.231 67.148 147.77 67.8643 145.826 67.9573C143.4 68.0736 141.438 66.9148 139.966 65.0328C138.744 63.4704 138.506 61.1335 136.615 60.2783C134.457 59.3028 131.928 58.9151 129.618 58.4614C124.194 57.3961 118.46 56.7589 112.933 56.9213ZM141.705 72.9387C142.315 73.2115 144.089 75.2518 142.681 75.2815C141.787 75.3005 141.261 74.1786 140.273 74.3485C139.83 74.4249 139.168 74.5777 139.059 74.9197C138.788 75.7711 140.04 76.3196 140.582 76.5561C141.416 76.9203 142.102 77.2866 142.558 78.1198C143.257 79.4 143.441 81.4712 141.805 82.0437C140.588 82.4694 139.069 82.1391 137.869 81.8044C136.857 81.5222 136.084 80.4762 136.55 79.4368C136.682 79.1424 137.035 78.6233 137.447 78.8178C137.774 78.9725 137.615 79.2654 137.715 79.5277C138.117 80.5786 141.123 82.0768 141.815 80.4884C142.659 78.5515 139.45 77.9682 138.47 77.3206C137.204 76.4836 137.171 75.0519 138.137 73.9578C138.983 72.999 140.475 72.3889 141.705 72.9387ZM147.006 79.5026C146.956 79.959 146.893 80.4319 146.814 80.884C146.745 81.2771 146.749 81.6901 146.297 81.8321C145.999 81.9258 145.709 81.6097 145.422 81.8197C145.104 82.0526 145.256 80.3583 145.271 80.2632C145.365 79.6313 145.536 78.3483 146.143 77.9565C147.171 77.2932 147.068 78.9462 147.006 79.5026ZM146.941 76.8547C145.85 77.5454 145.567 75.5865 146.001 74.9494C147.078 73.3679 148.661 75.7665 146.941 76.8547ZM124.779 75.8918C125.091 76.1234 124.988 75.9959 124.988 76.6123C124.625 76.6283 124.68 76.1316 124.779 75.8918ZM126.011 75.3586C125.906 75.6033 126.378 75.897 126.53 75.9352C126.54 75.8562 126.309 74.6647 126.011 75.3586ZM66.8238 71.7797C66.5337 72.2002 66.6975 72.4578 67.1588 72.2926L67.197 72.278L66.8238 71.7797ZM72.653 67.7382L72.3769 67.8549C72.2466 67.9794 72.1167 68.1036 71.9866 68.2278C72.3661 68.154 72.6295 68.2109 72.653 67.7382ZM74.182 67.1476C73.992 66.7599 73.3388 67.5289 73.3242 67.7089C73.4766 67.6186 74.4033 67.599 74.182 67.1476ZM74.7954 65.7776C74.6367 66.001 74.6691 66.1801 74.8924 66.3148C75.0778 66.0671 75.2187 65.7964 75.3145 65.5022C75.067 65.3225 74.8835 65.5658 74.7954 65.7776ZM199.862 38.104C199.384 38.3187 199.634 39.0579 199.681 39.4585C199.903 41.3663 200.256 43.2551 200.475 45.1625C200.782 47.8451 200.825 50.5601 201.329 53.2189C201.788 55.6435 202.562 57.998 202.971 60.4339C203.245 62.0635 202.723 63.9465 204.667 64.4408C206.415 64.8854 208.407 64.9095 210.199 65.105C212.508 65.3567 214.82 65.4804 217.139 65.5927C218.236 65.6457 219.368 65.6595 220.455 65.8259C221.095 65.9239 221.892 66.3483 222.384 65.7558C222.863 65.1797 222.864 63.7135 223.014 62.978C223.211 62.007 223.388 61.0308 223.485 60.0439C223.704 57.8094 223.382 55.5966 223.086 53.3841C222.767 50.9991 222.523 48.604 222.193 46.2214C221.98 44.6855 222.004 42.2054 220.948 40.9658C219.984 43.8437 219.723 46.8992 219.675 49.9168C219.664 50.5646 219.24 54.2876 218.113 52.4726C217.8 51.9678 217.795 51.6795 217.308 51.2527C216.807 50.8128 216.631 50.461 216.461 49.7949C216.154 48.5883 216.104 47.5273 215.439 46.4424C214.086 44.2341 213.537 41.5001 211.522 39.7175C211.502 41.7896 211.202 44.0307 211.587 46.0775C211.83 47.3637 212.822 49.2151 212.004 50.4875C211.596 51.1222 211.36 50.9328 210.88 50.614C210.572 50.4097 210.619 50.3145 210.233 50.1099C209.864 49.9149 209.574 49.924 209.225 49.6517C207.99 48.6879 207.892 47.0133 207.488 45.6268C206.597 42.5658 203.516 40.6754 201.157 38.7821C200.9 38.5761 200.257 37.9271 199.862 38.104ZM153.304 44.3054C151.496 45.0277 149.63 45.3029 147.708 44.8948C147.71 45.3172 148.319 46.0034 147.849 46.2462C147.736 46.3041 147.096 46.0269 146.971 45.9945C146.278 45.8147 145.344 45.5056 144.619 45.653C143.852 45.8091 143.879 46.3058 144.38 46.8683C145.083 47.6579 146.849 47.69 146.869 49.0001C146.877 49.5666 146.528 50.2763 146.453 50.8606C146.342 51.7344 146.22 52.6011 146.014 53.4591C145.661 54.9343 145.09 56.3375 144.41 57.6905C143.823 58.8561 143.11 60.0706 142.018 60.8323C141.307 61.3287 141.581 61.1047 141.72 61.8364C141.814 62.3265 141.798 62.6914 141.165 62.5704C141.044 62.5332 140.923 62.4961 140.802 62.4589C142.286 64.8908 146.04 66.4236 148.609 64.8008C147.525 63.9275 148.996 62.405 149.617 61.76C150.547 60.7937 151.521 59.6818 152.518 58.7996C154.045 57.4491 156.043 58.1063 157.849 57.5382C159.677 56.9633 161.007 55.666 162.188 54.2162C163.241 52.925 164.636 51.3448 164.778 49.5971C164.806 49.2549 164.64 48.8537 164.7 48.53C164.762 48.2 164.962 48.1571 165.066 47.941C165.279 47.4964 165.331 47.0387 165.365 46.5296C165.476 44.8683 164.948 44.6075 163.388 44.1783C162.479 43.928 161.557 43.7316 160.646 43.4872C159.777 43.254 159.002 42.8051 158.145 42.5548C156.341 42.0277 154.893 43.6712 153.304 44.3054ZM157.954 54.7449C159.388 55.6154 157.126 56.1727 156.291 55.7879C155.164 55.268 157.152 54.2588 157.954 54.7449ZM160.656 47.5072C161.958 49.0632 163.406 52.2258 160.554 52.8659C159.674 53.0635 158.312 53.3827 157.426 53.1406C156.162 52.7944 156.492 51.1444 157.753 51.072C158.501 51.0291 160.215 51.6202 160.659 50.7523C160.9 50.2817 160.352 49.5338 160.269 49.0641C160.162 48.4597 160.26 47.9766 160.656 47.5072ZM82.9088 52.1799L82.9097 52.1815C82.9144 52.1879 82.9216 52.1956 82.9317 52.2045L82.9369 52.2087L82.9273 52.1996L82.9088 52.1799ZM163.236 48.0636C164.14 48.0615 163.692 49.9826 163.243 50.3108C162.437 50.8995 162.094 48.0659 163.236 48.0636ZM157.273 49.512C156.224 49.6393 156.46 47.1277 157.416 47.0506C158.671 46.9491 158.486 49.3651 157.273 49.512ZM166.352 45.3434C166.227 45.5994 166.323 48.0912 166.623 48.1383C166.704 47.5297 166.659 46.9177 166.651 46.3065L166.65 46.152C166.657 46.1616 166.706 44.6213 166.352 45.3434Z" fill="#211814"/>
</svg>
