<svg width="240" height="180" viewBox="0 0 240 180" fill="none" xmlns="http://www.w3.org/2000/svg">
<path fill-rule="evenodd" clip-rule="evenodd" d="M71.075 98.6892C72.1873 107.031 73.2994 115.373 74.4117 123.715L75.3099 130.451C75.4233 131.301 75.3162 132.978 75.7482 133.739C75.9007 134.007 76.3018 134.135 76.5966 134.293C77.6114 134.838 78.6265 135.383 79.6414 135.928C88.2265 140.537 96.8117 145.146 105.396 149.756C113.636 154.179 121.875 158.603 130.114 163.026C130.966 163.484 132.346 164.678 133.266 164.363C134.141 164.064 135.035 163.327 135.829 162.861C137.354 161.968 138.879 161.074 140.404 160.181C149.63 154.774 158.856 149.366 168.083 143.959C171.889 141.728 175.696 139.498 179.502 137.267C180.544 136.656 181.586 136.046 182.627 135.435C183.172 135.116 183.243 135.128 183.457 134.586C184.259 132.56 184.63 130.239 185.197 128.138C185.822 125.821 186.447 123.505 187.072 121.189C187.351 120.155 187.22 120.022 186.766 119.024C185.866 117.049 184.966 115.074 184.067 113.1C182.07 108.717 180.074 104.334 178.077 99.9513C177.27 98.179 175.325 96.9319 173.925 95.6283L152.185 75.3879C151.632 74.8737 151.08 74.3597 150.528 73.8455C150.437 76.9355 149.827 80.2573 150.722 83.2423C152.192 88.1409 153.661 93.0396 155.131 97.9383C155.841 100.306 156.552 102.674 157.262 105.041C157.394 105.481 158.197 107.226 157.983 107.613C157.864 107.827 156.849 108.044 156.629 108.128C155.685 108.487 154.74 108.846 153.796 109.206C151.165 110.207 148.534 111.208 145.902 112.208C143.536 113.109 141.169 114.009 138.803 114.909C138 115.215 137.058 115.78 136.211 115.733C135.452 115.691 134.59 115.316 133.857 115.127C132.567 114.795 131.277 114.462 129.987 114.13C127.454 113.477 124.92 112.825 122.386 112.172C119.536 111.438 117.128 109.281 114.691 107.685C110.501 104.942 106.31 102.198 102.12 99.4547C101.161 98.8266 101.158 98.4682 100.775 97.3214C99.9164 94.7442 99.0572 92.167 98.1982 89.5898C97.7396 88.2138 97.1754 86.8319 96.829 85.4231C96.2576 83.0981 95.9187 80.6913 95.4661 78.3405C95.3297 77.6313 95.1931 76.9219 95.0567 76.2126C93.3019 76.9247 91.5471 77.6369 89.7921 78.3492C89.5378 78.4523 88.2985 78.7601 88.1883 79.013C88.1185 79.1728 88.4871 79.8982 88.5399 80.0541C89.9949 84.3635 91.4499 88.6727 92.9051 92.9819C93.3628 94.3376 93.8203 95.693 94.2781 97.0486C93.1845 95.3299 92.0907 93.611 90.9968 91.8923C90.1376 94.7829 89.2782 97.6737 88.4187 100.564C86.3876 98.2205 84.3563 95.8767 82.325 93.533C81.6218 95.8767 80.9187 98.2205 80.2156 100.564C78.0282 97.6737 75.8407 94.7829 73.6531 91.8923C73.3932 93.4008 73.133 94.9092 72.8728 96.4177C72.7943 96.873 72.81 98.1792 72.507 98.5397C72.2574 98.8364 71.5388 98.6892 71.075 98.6892Z" fill="#F3F3F1"/>
<path fill-rule="evenodd" clip-rule="evenodd" d="M209.575 116.721C209.452 120.648 209.537 125.745 207.388 129.198C207.041 129.755 205.867 131.491 205.735 129.964C205.607 128.465 205.976 126.98 205.61 125.464C205.415 124.652 204.757 122.88 203.633 123.613C203.061 123.986 202.91 124.909 202.686 125.491C202.354 126.352 201.983 127.2 201.634 128.055C200.415 131.038 199.153 134.599 196.443 136.574C196.798 134.001 197.764 131.254 197.115 128.653C196.894 127.766 196.223 126.148 195.068 126.667C193.942 127.173 193.213 129.431 192.682 130.437C191.072 133.485 189.425 136.476 187.612 139.411C186.7 140.887 185.715 142.236 184.522 143.499C183.776 144.288 182.846 145.623 181.67 145.741C181.67 143.49 182.41 141.316 183.086 139.196C183.814 136.917 184.477 134.619 185.191 132.335C185.81 130.355 186.318 128.389 186.731 126.358C186.901 125.518 187.036 124.648 187.752 124.106C188.396 123.618 189.413 123.386 190.13 123.028C192.015 122.086 193.953 121.071 195.703 119.9C196.422 119.42 197.041 118.799 197.794 118.368C198.651 117.877 199.452 117.464 200.245 116.866C203.668 114.283 206.754 111.107 208.834 107.326C209.171 108.845 209.618 110.33 209.668 111.895C209.718 113.501 209.625 115.116 209.575 116.721ZM181.401 134.77C180.854 133.845 180.019 134.224 179.284 134.67C178.144 135.362 177 136.048 175.854 136.731C173.521 138.121 171.232 139.584 168.953 141.059C164.313 144.062 159.512 146.52 154.621 149.062C149.894 151.519 145.353 154.442 140.924 157.397C139.859 158.107 138.802 158.834 137.78 159.604C136.873 160.288 136.147 161.248 135.192 161.856C134.198 162.49 133.514 161.976 132.562 161.509C131.373 160.924 130.133 160.434 128.917 159.907C124.009 157.779 119.088 155.571 114.314 153.156C109.568 150.756 105.072 147.99 100.526 145.244C98.3604 143.936 96.232 142.545 94.0962 141.189C91.8232 139.745 89.4698 138.665 87.0855 137.438C86.0306 136.895 85.0962 136.157 84.0127 135.664C82.8736 135.145 81.6703 134.773 80.6503 134.025C80.193 133.689 79.8073 133.288 79.2846 133.051C78.8555 132.856 78.3684 132.823 77.9447 132.616C77.0827 132.195 76.8359 131.341 76.669 130.452C75.5953 124.748 75.0246 118.886 74.4023 113.119C74.0527 109.876 73.6624 106.645 73.1791 103.419C72.9612 101.964 73.3995 100.837 73.6296 99.4225C73.8982 97.7699 74.0044 96.0826 74.1844 94.4188C75.0337 95.9924 75.7683 97.6438 76.849 99.0798C77.6456 100.138 79.0064 101.639 80.4734 101.603C82.7534 101.548 82.6491 97.6377 82.7409 96.0854C83.7795 97.0124 84.0945 98.5225 84.9565 99.5992C85.7435 100.582 86.8146 101.802 88.0233 102.242C90.5681 103.169 90.3232 98.4451 90.1833 97.1054C90.113 96.4335 89.7335 95.3704 90.6338 95.6767C91.4627 95.9589 92.2695 97.1286 92.9663 97.6651C94.1707 98.5928 95.4919 99.3636 96.7275 100.249C98.2606 101.348 99.9148 102.142 101.478 103.165C102.455 103.805 103.522 103.949 104.588 104.42C106.149 105.109 107.528 106.137 109.014 106.964C111.957 108.601 115.222 110.068 118.441 111.055C119.483 111.374 120.871 112.274 121.661 111.35C122.148 110.781 122.467 109.911 122.88 109.273C123.403 108.466 123.957 107.679 124.534 106.909C126.581 104.171 128.854 101.586 131.378 99.2769C134.315 96.5907 137.526 94.1734 140.96 92.1601C142.436 91.295 148.597 87.4178 149.952 90.1466C148.839 90.0772 147.874 90.4843 146.922 90.9941C146.69 91.1186 145.492 91.974 145.773 91.22C145.425 91.2852 145.119 91.739 144.856 91.9408C144.401 92.2895 143.71 92.6922 143.182 92.9809C142.661 93.2661 142.017 93.336 141.542 93.6819C141.369 93.8083 141.263 94.0131 141.098 94.1497L140.624 94.1535C140.553 94.4162 140.482 94.6787 140.411 94.9415C140.142 94.082 139.76 95.1997 139.312 95.5628C139.043 95.781 138.616 96.0058 138.299 96.1466C138.062 96.2518 138.026 96.0072 137.796 96.1933C137.591 96.3585 137.461 96.7225 137.241 96.9297C136.971 97.1833 136.626 97.3804 136.325 97.5969C135.749 98.0118 135.14 98.3375 134.556 98.7308C133.771 99.26 133.359 100.17 132.597 100.723C132.236 100.986 131.675 101.016 131.48 101.184C130.99 101.605 131.151 102.244 130.237 102.272C130.32 102.405 130.37 102.549 130.387 102.705C130.17 102.668 129.976 102.578 129.806 102.434C129.844 103.346 128.948 103.672 128.411 104.233C128.101 104.556 127.715 105.011 127.496 105.401C127.46 105.466 127.391 105.985 127.376 105.992C127.293 106.032 126.787 105.589 126.835 105.626C126.694 106.468 125.879 107.264 125.522 108.044C125.334 108.455 125.143 109.116 124.773 109.404C124.672 109.483 124.362 109.401 124.106 109.674C123.918 109.874 123.701 110.244 123.625 110.51C123.574 110.687 123.635 111.146 123.562 111.253C123.428 111.447 123.219 111.252 123.009 111.396C122.621 111.661 122.611 112.077 122.043 112.131C122.435 113.082 124.798 113.376 125.657 113.646C128.086 114.411 130.635 115.174 132.906 116.345C133.493 116.648 134.049 116.897 134.153 117.595C134.298 118.566 133.803 119.857 133.709 120.838C133.453 123.486 133.401 126.212 133.454 128.871C133.505 131.391 133.586 133.933 133.704 136.449C133.813 138.782 134.283 141.069 134.537 143.385C134.606 144.021 134.56 146.888 135.653 146.743C136.566 146.623 135.99 144.665 135.972 144.103C135.934 142.861 136.196 141.592 136.185 140.339C136.18 139.736 136.443 139.217 136.468 138.641C136.493 138.071 136.21 137.621 136.295 137.03C136.377 136.463 138.052 133.204 136.443 133.585C136.537 133.119 136.62 132.65 136.744 132.19C136.916 132.345 137.055 132.526 137.16 132.732C137.303 131.731 137.255 130.731 137.344 129.73C137.384 129.276 137.568 128.779 137.505 128.321C137.517 128.132 137.493 127.945 137.433 127.763C137.334 127.658 137.211 127.603 137.066 127.598C136.989 127.347 136.969 127.278 137.105 127.033C137.164 126.866 137.279 126.762 137.452 126.721C137.782 126.681 137.82 126.492 137.565 126.152C137.698 125.481 137.715 125.057 137.62 124.387C137.539 123.824 137.835 122.735 137.533 122.233C137.181 121.648 137.005 122.216 136.94 121.404C136.926 121.232 136.914 120.874 136.984 120.703C137.059 120.516 137.287 120.593 137.316 120.526C137.513 120.075 137.527 119.187 136.827 119.264C136.855 118.942 136.882 118.619 136.909 118.297C137.415 118.879 137.238 118.386 137.524 118.063C137.91 117.628 138.288 117.553 138.839 117.381C140.309 116.922 141.725 116.232 143.161 115.673C146.202 114.487 149.3 113.429 152.252 112.029C158.462 109.082 164.548 105.885 170.795 103.016C170.349 102.188 170.626 102.148 170.952 101.37C171.388 101.672 171.296 101.461 171.606 101.443C171.578 101.183 171.659 101.105 171.848 101.208C171.999 101.254 172.153 101.271 172.312 101.257C172.698 101.323 173.014 101.536 173.366 101.617C173.481 101.702 173.608 101.766 173.746 101.809C173.87 101.78 173.976 101.719 174.064 101.624C174.633 101.73 174.825 102.158 174.85 102.779C174.854 102.887 174.524 102.998 174.618 103.143C174.784 103.396 175.228 103.336 175.483 103.368C175.427 103.632 175.371 103.895 175.316 104.158C176.433 103.643 176.141 105.256 176.48 105.786C176.574 105.934 176.785 105.816 176.894 105.987C177.037 106.21 176.994 106.527 177.115 106.75C177.39 107.253 177.665 107.192 177.939 107.769C179.371 110.781 181.276 113.586 182.65 116.662C183.305 118.127 183.895 119.616 184.578 121.067C185.207 122.403 185.566 123.538 185.118 124.997C184.079 128.38 182.967 131.826 181.605 135.094C181.537 134.986 181.469 134.878 181.401 134.77ZM108.911 160.027C108.813 160.193 108.716 160.359 108.618 160.525C108.401 159.279 108.979 159.857 108.911 160.027ZM104.327 157.694C104.014 157.601 104.149 157.09 104.159 156.872C104.357 157.119 104.551 157.37 104.715 157.64C104.586 157.658 104.456 157.676 104.327 157.694ZM91.7634 152.905C92.0916 152.721 92.3276 152.589 92.6995 152.381C92.3215 153.118 92.3215 153.118 91.7634 152.905ZM71.9988 87.9983C71.4975 89.2288 73.0261 96.8263 71.603 97.0743C71.3988 96.4075 71.3733 94.5714 70.5284 94.3522C69.48 94.0801 69.5834 95.9704 69.4402 96.5549C67.2879 95.0575 66.3319 92.1657 65.3037 89.874C63.993 86.953 62.9618 83.9148 61.977 80.8712C61.1348 78.269 60.4385 75.6208 59.5875 73.0227C59.0529 71.391 58.4766 69.7553 58.117 68.0734C58.039 67.708 57.7317 66.7815 57.9928 66.4342C58.3723 65.9291 59.7382 66.5075 60.1784 66.6402C63.0337 67.4994 65.9958 67.8693 68.9295 68.3685C72.1889 68.9228 75.4411 69.4958 78.7202 69.9257C79.5396 70.033 80.3595 70.1347 81.1798 70.2336C81.7118 70.2979 82.5171 70.2336 83.0224 70.4722C84.0452 70.9548 84.263 72.8017 84.6429 73.7598C86.0602 77.3345 87.7282 80.7962 89.2205 84.3386C90.5648 87.5296 91.5839 90.9245 93.5163 93.83C92.0752 93.1911 90.2487 89.8133 88.6383 91.7603C87.9459 92.5975 88.1206 93.7004 88.1759 94.7024C88.256 96.1508 88.2811 97.61 88.2811 99.0608C86.7052 98.6514 85.6463 96.8624 84.8189 95.5951C83.6888 93.8643 82.977 92.2333 82.4766 90.249C82.2598 89.3898 81.6851 89.3685 81.1744 88.8543C80.8462 88.5238 80.6812 88.0785 80.2106 88.5592C79.6191 89.1634 80.0126 90.8366 80.1148 91.55C80.3573 93.2476 81.153 95.8602 80.3796 97.4554C79.3357 99.6081 76.5384 94.1915 76.2108 93.4091C76.0441 93.0109 73.0681 85.3738 71.9988 87.9983ZM70.0446 51.1054C70.2209 51.1323 70.3969 51.1593 70.5731 51.1862C70.4311 51.3116 70.1355 51.7513 69.8941 51.6351C69.9443 51.4586 69.9945 51.2821 70.0446 51.1054ZM79.3798 49.1022C79.3247 49.1629 79.2691 49.2233 79.2138 49.284C78.9612 48.9681 79.0507 48.5076 79.0507 48.1422C79.3847 48.344 79.4663 48.7476 79.3798 49.1022ZM80.1342 52.6075V53.6401C79.4344 53.3369 79.4205 53.1803 80.1342 52.6075ZM80.9841 53.9204C80.4938 53.7859 80.4352 53.6774 80.5041 52.9239C80.7073 53.346 80.8411 53.6242 80.9841 53.9204ZM83.8064 61.5681C83.6009 62.0969 82.3997 60.8368 82.4438 60.4597C82.4857 60.1 82.6702 59.9926 82.9247 60.224C83.0088 60.3006 82.8839 60.5774 82.9376 60.6735C83.1314 61.0213 83.5221 61.3058 83.8064 61.5681ZM83.8198 64.7537C83.5188 65.5051 82.9823 64.3218 83.7687 64.2894C83.8202 64.4406 83.8373 64.5953 83.8198 64.7537ZM83.2359 63.569C83.1195 63.4136 83.0063 63.2561 82.8963 63.0958C83.3013 63.1776 83.6229 63.7677 84.0502 63.374C83.9995 63.9744 83.573 63.9911 83.2359 63.569ZM57.0457 53.8086C56.3944 53.0978 60.6415 52.5988 61.1538 52.4767C64.872 51.5901 68.3824 50.3071 71.8589 48.7328C73.5173 47.9819 75.1673 47.2218 76.7869 46.3893C77.4862 46.03 78.4448 45.7253 79.0289 45.1858C79.4459 44.8007 79.4292 44.5094 79.9711 44.2799C80.4312 44.0856 80.4541 44.2691 80.6648 43.9176C80.7914 43.7066 80.9346 42.9337 80.8605 42.7049C80.6588 42.0808 80.3604 42.5868 79.9416 42.1567C79.6399 41.8466 79.713 40.9649 79.7953 40.5997C79.9022 40.7737 79.9636 40.9626 79.98 41.166C80.4344 40.9419 80.2512 40.1725 80.7483 40.0464C81.2721 39.9137 81.218 40.3218 81.3546 40.739C81.7505 40.1577 81.4331 39.662 81.2189 39.0944C82.308 38.8904 83.4783 38.6929 84.5578 39.0552C85.3385 39.317 86.0067 39.9608 86.831 40.0853C87.6382 40.2069 87.7934 39.8242 88.3884 39.4358C88.8715 39.1206 89.2863 39.4919 89.535 39.2537C89.3817 40.0576 88.0638 39.9477 88.226 40.9522C88.2991 41.4044 88.8532 41.8105 89.1054 42.1623C89.422 42.6039 89.6745 43.0921 89.8901 43.5897C90.7289 45.5251 91.0875 47.7712 91.4395 49.8409C92.3081 54.9498 92.4181 60.1595 93.2351 65.2848C93.6244 67.7261 94.0146 70.1687 94.2169 72.6339C94.2675 73.2503 94.6439 74.6483 94.3359 75.2413C94.0755 75.7419 93.4962 75.7433 92.9876 75.8645C91.9924 76.101 91.058 76.4223 90.1034 76.7783C89.2477 77.0973 88.999 77.293 88.4496 76.4879C87.9183 75.7089 87.6555 74.7803 87.2754 73.9262C86.7912 72.838 86.2062 71.788 85.6446 70.7383C86.7478 70.7383 87.3827 70.1427 87.3534 69.0217C87.3216 67.78 86.3004 67.4854 85.8795 66.4649C85.47 66.9967 85.4356 67.0117 85.1438 66.5068C84.81 65.9296 84.5848 64.8733 84.3806 64.2184C84.5266 64.3743 84.6727 64.5301 84.8187 64.6858C85.1869 64.179 84.6101 63.3803 84.4172 62.9031C84.1195 62.1662 84.067 61.3696 83.7846 60.6348C83.6306 60.2338 83.2739 59.9181 83.1865 59.4997C83.1281 59.2197 83.362 58.9532 83.3065 58.6689C83.2099 58.1739 82.65 57.6428 82.4759 57.1394C82.208 56.365 81.9171 55.6832 81.5848 54.9287C81.135 53.9076 81.2395 52.836 81.1573 51.7492C81.072 50.6223 80.711 49.5442 80.5835 48.4222C80.4954 47.6472 80.7713 46.6712 80.1848 46.0504C80.1162 47.0823 80.412 47.0664 79.4423 47.252C78.3384 47.4632 77.5378 48.2856 76.4941 48.531C76.279 48.5816 76.1222 47.6418 76.2061 48.9238C75.7055 48.5542 74.637 49.0131 75.0356 49.2325C74.7335 49.5557 74.1384 49.3321 74.0391 49.8163C73.0123 48.8181 71.3658 52.2158 70.1431 50.4435C69.9413 51.6447 69.0715 52.3548 67.9038 52.5137C67.3167 52.5934 66.9548 52.7891 66.4338 52.9651C66.3281 53.0005 66.2892 53.1526 66.1641 53.1936C65.9728 53.256 65.692 53.0678 65.5542 53.1044C65.2737 53.1789 64.9617 53.548 64.5701 53.6214C64.121 53.7055 63.6312 53.6669 63.1816 53.6148C62.6196 53.5497 62.3723 53.4831 61.822 53.6683C61.327 53.8349 60.7969 54.3015 60.3375 53.7934C59.6159 55.0419 57.8953 54.7368 57.0457 53.8086ZM90.4076 38.7423C89.8615 38.6769 90.2407 38.2072 90.4936 38.0662C91.1808 37.6832 90.9973 38.8131 90.4076 38.7423ZM60.1685 43.2226C63.3738 38.5984 68.8563 35.4212 73.6802 32.748C76.3151 31.2878 79.0045 29.8724 81.7711 28.6773C83.1466 28.0834 84.5381 27.5125 85.9427 26.9908C86.6927 26.7121 87.4519 26.4587 88.2115 26.2065C88.4215 26.1369 88.8035 25.9232 89.0234 25.944C88.9854 25.9403 89.5697 26.0992 89.4548 26.1491C89.8313 25.9853 90.0103 25.558 90.4528 25.3872C90.9502 25.195 91.5837 25.1155 92.1164 25.0982C92.5877 25.0827 92.9958 25.2775 93.4448 25.2927C93.7399 25.3026 93.9907 25.1624 94.2797 25.1418C94.4276 25.1315 94.4145 25.3527 94.5035 25.3656C94.5422 25.3712 94.9359 25.2233 94.9397 25.2259C95.0831 25.318 95.2102 25.6776 95.3398 25.818C95.7115 26.2206 96.2571 26.5012 96.7528 26.713C97.3561 26.9708 98.8277 27.2301 98.1457 28.184C98.6302 28.1144 98.8556 28.5522 98.2491 28.663C97.9205 28.7233 97.7801 28.4223 97.5361 28.217C96.9724 27.7436 95.6041 27.0695 94.7923 27.1C94.3355 27.1171 93.9825 27.4637 93.5613 27.5896C93.1467 27.7133 92.9414 27.5214 92.5777 27.5519C92.1525 27.5872 91.8787 27.947 91.4735 28.011C91.0941 28.071 90.8827 27.8122 90.5435 27.8303C90.1404 27.8516 89.7499 28.2018 89.3651 28.3194C88.7529 28.5065 88.3034 28.634 87.7057 28.944C86.5474 29.5452 85.2539 29.7735 84.0602 30.291C83.1059 30.7047 82.0238 30.9224 81.1406 31.3799C80.1586 31.8883 79.1721 32.3947 78.2105 32.9472C77.5158 33.3463 76.1034 33.4837 75.3375 33.3822C75.3265 34.7926 74.6323 33.8038 73.9327 34.4216C74.0981 34.5676 74.2861 34.675 74.4959 34.7437C73.7377 35.0465 73.0369 35.4233 72.3023 35.7714C71.5432 36.1314 70.7332 36.2106 70.2345 36.8915C69.7751 37.5189 69.9307 37.1952 69.2452 37.4422C68.9306 37.5557 68.6571 37.9016 68.4305 38.1339C68.0409 38.5333 67.9547 39.1379 67.7323 38.3172C67.6673 38.4172 67.4119 39.0545 67.3622 39.0707C67.0835 38.7749 67.0434 39.1255 66.8876 39.2509C66.9696 39.5235 66.8524 39.7021 66.536 39.7867C66.3759 39.9058 66.2137 40.0225 66.0499 40.1366C65.4555 40.5489 64.699 40.9026 64.2804 41.5169C63.9717 41.3347 63.8573 41.0204 64.0453 40.6996C63.4554 41.2433 62.7516 41.8019 62.592 42.6388C62.5186 42.568 62.4331 42.5169 62.336 42.4855C62.0965 42.6472 62.4084 43.1291 62.5603 43.2376C63.2227 42.9803 62.3948 43.0736 62.8399 43.1151C62.9667 43.1268 63.097 43.2217 63.237 43.2233C63.6473 43.2287 64.0329 43.209 64.4398 43.1465C65.337 43.0082 66.2187 42.7506 67.0873 42.4923C68.0332 42.2111 68.9794 41.9303 69.9045 41.5853C70.6662 41.3012 71.4152 40.9846 72.1641 40.6691C72.4631 40.543 72.762 40.4153 73.0615 40.2901C73.6303 40.0525 73.9303 39.662 73.8509 40.3309C74.3039 40.2557 74.6965 39.6154 75.0443 39.354C75.5337 38.9868 76.084 38.7128 76.6638 38.5253C76.8987 38.4494 77.0712 38.3528 77.314 38.3521C77.433 38.3519 77.5043 38.6875 77.5793 38.6692C78.0996 38.5431 77.8624 38.2548 78.0963 37.8395C78.608 36.9318 79.9861 36.4297 80.8324 35.9141C81.3696 35.5867 81.7509 35.1463 82.2469 34.7837C82.4789 34.6143 82.6474 34.5393 82.8905 34.4676C83.0766 34.4125 83.3048 34.84 83.4256 34.4104C82.9927 34.2334 82.6357 34.0152 82.2192 33.8861C81.9246 33.7944 82.278 33.4811 81.8112 33.6676C81.6237 33.7426 81.5592 34.1055 81.4903 34.2573C80.9688 33.7916 79.5026 34.2742 78.8838 34.4692C78.8412 34.4826 78.6502 34.3818 78.5602 34.3879C78.203 34.4118 77.9543 34.8925 77.7192 35.0997C77.0941 35.6502 76.4161 35.8804 75.6464 36.1947C75.8512 35.0755 77.3566 34.6171 78.2353 34.1884C79.5197 33.5617 80.7155 32.7618 82.1217 32.4247C83.0583 32.2 84.2993 32.0193 84.7038 33.1082C84.9459 33.7609 84.9764 35.3826 84.1573 35.6837C84.0708 35.379 84.3478 35.1187 84.4313 34.8543C83.6159 35.1655 83.4816 36.145 82.8623 36.6562C82.5143 36.9433 82.3898 37.0354 82.2216 37.3129C82.0545 37.5885 81.9743 37.8456 81.5827 38.1388C80.9426 36.7792 81.0509 38.6415 80.7262 38.8752C80.8568 38.7812 80.1973 39.0557 80.276 39.0266C80.2455 39.0379 79.9582 38.5724 79.7719 38.5822C79.4327 38.6001 79.4979 38.9734 79.3345 39.1614C78.7807 39.7975 78.0652 40.2147 77.1738 40.1146C77.153 40.5672 77.2927 41.1079 76.6746 41.1491L76.5935 40.1458C76.2572 40.4861 75.8145 40.8093 75.5407 41.2033C75.2292 41.6516 75.2625 41.9277 74.7457 42.2265C74.2057 42.539 73.0568 43.1544 72.4141 43.2076C72.5731 42.9822 72.5449 42.7785 72.3302 42.5971C72.007 42.9304 71.5298 42.9632 71.1858 43.2641C72.3802 43.7631 70.2682 43.7373 70.0003 43.7938C69.821 43.8318 69.6645 43.9951 69.4828 44.0319C69.2416 44.0809 69.2105 43.8273 69.0028 43.9077C68.6991 44.0254 68.8223 44.3575 68.5045 44.5244C68.2763 44.6444 67.8891 44.6427 67.6315 44.7566C67.0177 45.0285 65.7101 45.6306 65.2952 44.9003C65.085 46.1533 62.9379 45.3906 62.1431 45.3062C61.0547 45.1907 59.1588 44.6797 60.1685 43.2226ZM64.7402 30.4028C64.8942 30.2713 65.0484 30.2809 65.2027 30.4319C64.988 29.298 66.6485 28.7474 67.373 28.2653C68.3339 27.6259 69.465 26.3854 70.7224 26.4836C70.508 26.6425 70.294 26.8014 70.0798 26.9603C70.3856 26.9999 70.6913 27.0395 70.9966 27.0791C70.8244 27.3323 70.6519 27.5851 70.4791 27.838C70.197 26.2827 68.7246 28.2463 68.2985 28.5325C67.8694 28.8205 67.4414 29.0352 67.0601 29.3865C66.6823 29.7346 66.3412 30.3613 65.7166 30.0482C65.6597 30.9365 64.9455 30.6955 64.4517 31.1875C64.4311 30.8788 64.6078 30.6606 64.7402 30.4028ZM71.2638 25.9687C72.7837 25.3994 74.107 24.3468 75.5393 23.5949C76.9073 22.8766 78.303 22.2316 79.6938 21.5616C80.3993 21.2215 81.6916 20.3421 82.4981 20.7902C83.5863 21.3954 82.0882 21.5906 81.6991 21.8002C81.5552 20.8683 81.0511 21.7125 81.3523 22.2309C80.5219 21.8723 78.7109 23.2753 77.9187 23.6622C77.7394 23.7498 77.8198 23.8005 77.6159 23.9036C77.5657 23.9289 77.0459 24.0473 76.897 24.0972C76.1512 24.3468 75.6598 24.1485 75.3384 25.0487C75.2712 24.8369 75.2039 24.6248 75.1366 24.4126C74.6698 25.461 73.2506 25.9199 72.3431 26.5398C72.1092 26.6997 71.4412 27.3196 71.1445 27.1914C70.7316 27.0128 70.8973 26.1058 71.2638 25.9687ZM98.6827 29.1294C99.3244 29.1719 98.7056 29.4712 98.8819 29.669C98.862 29.6467 99.2684 29.9933 99.2152 29.8982C99.2869 30.0262 99.4591 30.0215 99.5473 30.2816C99.8508 31.1762 98.5254 32.1006 98.0784 32.6083C97.2094 33.5957 96.7071 34.8461 95.8015 35.8019C95.3925 36.2336 94.9856 36.5317 94.4187 36.6927C94.0219 36.8054 93.6021 36.6847 93.2374 37.0663C92.9437 37.3736 93.0103 37.5482 92.6857 37.7115C92.1138 37.9996 91.8619 37.7469 91.3055 38.3694C90.8266 37.0677 92.2024 37.0698 92.9203 36.3423C93.9112 35.338 94.9971 34.3248 95.9264 33.2505C96.7519 32.2958 97.0826 31.4589 97.4745 30.2992C97.598 29.9336 97.7325 29.1496 98.0731 28.9201C98.6034 28.563 98.2852 29.103 98.6827 29.1294ZM101.838 62.9451C103.521 61.0626 105.609 59.3722 107.872 58.2383C108.681 57.8329 109.833 57.3008 110.671 57.925C111.493 58.5367 111.316 59.7571 110.985 60.5872C110.667 60.4626 110.967 59.2958 110.802 59.0076C110.443 58.3785 109.667 58.7125 109.139 58.9234C108.521 59.1704 107.969 59.4433 107.479 59.8916C107.281 60.0733 106.9 60.2361 106.773 60.3611C106.582 60.2816 106.469 60.3395 106.435 60.5345C106.475 60.654 106.47 60.7717 106.421 60.8875C106.393 60.9243 106.144 60.7733 106.109 60.8036C105.948 60.9416 105.797 61.104 105.638 61.2322C105.32 61.4898 105.049 61.6117 104.756 61.9708C104.189 62.6647 103.44 63.0714 102.871 63.7326C102.743 63.8821 102.589 64.2653 102.56 64.2988C102.273 64.6344 101.846 64.9 101.522 65.2553C100.961 65.8691 100.362 66.2812 99.7151 66.8076C99.4364 67.034 99.1113 67.2779 98.9259 67.5929C98.8416 67.7366 98.794 68.5241 98.7909 68.5274C98.1562 69.223 98.2798 67.8247 98.3276 67.6494C98.843 65.7629 100.586 64.3466 101.838 62.9451ZM98.374 75.7014C98.453 75.9976 98.5179 76.2426 98.598 76.5433C98.0948 76.1305 98.0948 76.1305 98.374 75.7014ZM97.8305 76.6717C97.6456 76.858 97.4597 77.0432 97.2724 77.2272C96.8606 76.7919 97.9059 76.5972 97.8305 76.6717ZM97.5691 69.1806C97.3723 69.977 96.6516 70.9424 96.1561 71.571C96.2107 71.5016 95.7333 71.6411 95.6789 71.6727C95.5024 71.7749 95.925 72.4372 95.3135 72.1412C95.0965 72.264 95.5238 72.7642 95.2289 72.988C94.3767 71.0462 96.7036 69.3639 97.6045 67.9225C98.0452 68.327 97.6798 68.7341 97.5691 69.1806ZM92.0339 79.6792C92.6552 79.839 92.9784 79.7385 93.398 79.1282C93.6502 78.7616 93.7423 78.1124 94.3191 78.6608L94.4208 77.9556C95.2441 78.2933 95.175 79.514 95.5348 80.1904C95.7098 79.4251 96.1245 77.2874 97.3941 77.6303C98.8193 78.0154 96.4472 80.4665 96.2269 81.0669C95.7424 80.315 95.933 81.0144 95.5634 81.1204C95.2463 81.2115 94.7508 80.9781 94.3655 80.9992C93.1931 81.0629 92.1633 81.5903 91.0924 82.0368C90.8213 81.3058 90.5503 80.5747 90.2791 79.8437C90.9096 79.8922 92.2132 78.2141 92.3984 79.4338C91.9308 79.3525 91.7991 79.3731 91.5713 79.7987C91.7168 79.7249 91.871 79.685 92.0339 79.6792ZM94.6655 89.2208C94.6636 89.215 95.8781 89.29 95.9864 89.2504C96.8175 88.9468 96.5102 88.0042 96.6802 87.3379C97.0228 87.6529 96.8412 88.2278 96.9469 88.6354C97.0709 89.1144 97.4299 89.5227 97.4632 90.035C97.5389 91.1926 96.589 90.9357 95.869 91.3103C95.2537 91.6304 95.1855 92.0331 94.6659 91.1704C94.5253 90.9369 94.223 90.3287 94.2539 90.0301C94.2844 89.7343 94.7529 89.4885 94.6655 89.2208ZM95.6442 94.2299L95.3084 93.8537C96.3091 94.16 95.719 93.6995 95.9491 93.0697C96.7172 93.5811 97.3437 94.1068 97.9514 93.0829L99.0014 97.318C98.2962 97.4839 97.3863 96.3943 96.9026 96.02C96.6232 95.8037 95.0728 94.9705 96.0038 94.7277C95.8838 94.5618 95.764 94.3958 95.6442 94.2299ZM102.498 80.931C101.915 81.4853 101.328 81.7956 100.694 82.2313C100.137 82.6138 100.329 83.0528 99.8461 83.4793C99.5257 83.7629 98.7745 84.0517 98.3787 84.268C97.6734 84.6533 97.0418 84.7267 96.3164 84.2954C96.5138 85.8847 95.4253 86.0092 94.0704 86.324C93.4242 86.4742 93.0417 86.7036 92.576 86.1118C92.257 85.7068 92.1321 84.9735 92.5289 84.6029C93.1591 84.0142 94.8382 84.2174 95.6468 83.8471C96.2604 83.5663 96.8855 81.984 97.6425 82.5599C97.2518 81.9376 97.7067 81.7701 98.0463 81.3264C98.4183 80.84 98.6468 80.2715 99.0316 79.7891C99.7629 78.8722 100.886 77.95 101.924 77.3971C102.838 76.9108 103.318 77.2551 103.455 78.2765C103.523 78.79 103.521 79.555 103.233 80.0106C103.142 80.1559 102.839 80.1575 102.747 80.294C102.588 80.5323 102.734 80.7065 102.498 80.931ZM113.222 68.6045C113.951 69.1689 113.88 70.3548 113.995 71.1625C114.157 72.3008 114.039 73.4024 114.022 74.5618C114.004 75.7766 113.408 76.5679 113.127 77.7065C112.815 78.973 112.413 79.6438 111.713 80.7067C112.472 80.826 111.343 83.091 111.157 83.3842C110.955 83.7025 109.326 85.1692 110.024 85.1692C109.639 85.6773 109.219 86.1988 108.836 86.6929C108.684 86.8874 108.419 86.9638 108.3 87.1011C108.058 87.3803 108.043 87.6292 107.869 87.955C107.606 88.4493 107.519 88.3173 107.172 88.6759C106.933 88.9236 106.776 89.2506 106.541 89.488C105.783 90.2528 105.687 89.6263 105.263 89.0373C105.198 89.195 105.083 89.294 104.917 89.334C104.785 88.6675 105.698 87.9941 106.082 87.5891C106.71 86.9254 107.285 86.1941 107.841 85.4683C109.032 83.9129 110.102 82.2606 110.946 80.4906C111.844 78.6069 112.561 76.5683 112.934 74.5133C113.218 72.947 113.488 70.2601 111.395 69.8617C109.873 69.572 108.195 70.4968 106.94 71.2457C106.175 71.7018 105.406 72.1553 104.678 72.6683C103.887 73.2247 103.204 74.0122 102.345 74.4587C102.815 74.2145 101.266 74.9495 101.503 74.7428C101.392 74.8393 101.488 75.1344 101.414 75.2675C101.319 75.4408 100.986 75.6119 100.837 75.7239C100.444 76.0197 99.8145 76.3222 99.6354 76.8107C97.1379 75.029 102.105 71.8658 103.378 71.0603C105.903 69.4626 110.297 66.3407 113.222 68.6045ZM119.959 51.2765C119.935 49.9935 120.979 48.242 121.685 47.1958C122.03 46.6837 122.582 46.704 122.784 46.1001C122.901 45.7522 122.748 45.3876 122.783 45.0383C122.829 44.5661 123.034 44.1873 123.27 43.7814C125.406 40.1118 128.001 36.8638 130.765 33.6622C132.128 32.084 133.42 30.445 134.89 28.9623C135.504 28.3431 137.154 26.117 138.098 26.3397C138.598 26.4576 138.889 27.2205 139.115 27.6097C139.488 28.2536 139.898 28.8566 140.352 29.4487C141.549 31.0117 142.93 32.3837 144.56 33.4916C145.578 34.184 146.607 34.8569 147.603 35.5822C148.422 36.1792 149.661 36.8617 150.247 37.6998C150.832 38.5382 149.972 39.2481 149.502 39.9442C148.772 41.0268 148.1 42.1485 147.367 43.2299C147.076 43.0204 147.151 42.5947 146.951 42.3264C146.774 42.0885 146.524 41.9917 146.279 41.8447C145.81 41.5637 145.35 41.2201 144.926 41.691C144.185 42.5151 145.204 44.4629 146.303 44.2492C146.432 45.0625 144.238 46.4019 143.688 46.8496C142.001 48.2226 140.26 49.4162 138.031 49.5404C137.129 49.5906 136.19 49.5222 135.333 49.2203C134.922 49.0757 134.468 48.8772 134.154 48.5619C133.777 48.1846 133.681 47.623 133.315 47.2494C132.998 46.9253 132.562 46.8754 132.246 46.5501C131.928 46.2245 131.771 45.7103 131.643 45.2887C131.391 44.4648 131.344 43.596 131.102 42.7703C130.956 42.2737 130.837 41.6097 130.362 42.0869C129.673 42.7801 130.019 44.9601 130.195 45.7907C130.448 46.9757 131.04 47.931 131.659 48.9505C132.332 50.0565 132.58 51.0824 132.7 52.3621C132.926 54.7576 133.613 57.0564 134.683 59.2117C135.133 60.1192 135.672 60.9726 136.159 61.8592C136.386 62.2729 136.894 63.6843 137.512 63.6768C138.499 63.6646 137.093 60.7872 136.898 60.3041C135.817 57.6287 134.785 54.8167 134.553 51.9198C136.103 52.319 137.792 52.6977 139.396 52.4448C138.36 54.7609 139.442 57.0669 139.31 59.451C139.244 60.6465 139.196 61.7495 139.221 62.9415C139.242 63.9868 138.77 65.0317 138.362 65.9769C137.552 67.854 136.532 70.1697 135.026 71.6075C133.768 72.8097 132.085 72.9036 130.441 72.6268C126.701 71.9968 124.243 69.1218 122.674 65.8565C121.665 63.7588 120.894 61.5196 120.416 59.2415C119.861 56.605 120.008 53.9507 119.959 51.2765ZM124.816 33.5083C121.325 30.9829 126.397 28.1151 128.979 28.5055C129.585 28.5969 130.699 28.8472 130.642 29.6376C130.596 30.2835 129.518 31.0035 129.105 31.4022C127.925 32.5398 126.724 34.889 124.816 33.5083ZM150.206 89.6216C150.087 89.5143 149.11 89.7777 149.497 89.1997C149.818 88.7195 150.71 89.3214 151.034 89.4449C150.767 89.6293 150.535 89.915 150.206 89.6216ZM135.673 120.165C135.373 120.202 135.06 119.393 136.141 119.998C135.985 120.053 135.829 120.109 135.673 120.165ZM135.642 133.351C135.679 133.714 135.79 133.953 135.533 134.217C135.315 133.948 135.287 133.57 135.642 133.351ZM136.081 138.8C136.049 138.997 136.017 139.194 135.986 139.391C135.736 139.265 135.487 139.139 135.237 139.012C135.518 138.941 135.8 138.871 136.081 138.8ZM136.387 134.205C136.759 134.345 136.586 133.899 136.856 133.837C136.953 134.3 136.834 134.697 136.567 135.079C136.542 134.989 136.406 134.212 136.387 134.205ZM145.899 101.328C145.376 101.262 145.298 101.814 144.908 102.028C144.657 102.166 143.892 102.062 143.749 102.327C143.938 102.381 144.126 102.436 144.315 102.49C143.883 102.722 143.452 102.955 143.02 103.188C144.058 103.188 145.14 102.692 146.17 102.838C146.606 102.899 146.925 103.046 147.199 103.401C147.365 103.616 147.51 103.962 147.537 104.226C147.566 104.511 147.344 104.707 147.383 104.843C147.848 104.856 147.793 105.618 147.689 105.928C147.462 106.602 146.564 107.656 145.759 107.229C146.096 107.707 146.01 107.98 145.512 108.257C145.557 108.099 145.59 107.823 145.336 107.85C145.271 108.115 145.296 108.535 145.079 108.735C144.837 108.958 144.621 108.697 144.39 108.842C144.115 109.015 144.198 109.286 143.982 109.473C143.696 109.72 143.655 109.544 143.314 109.592C142.797 109.665 143.127 109.344 142.713 109.763C142.57 109.907 142.594 110.283 142.362 110.494C141.916 110.9 140.727 111.323 140.3 110.803C139.273 112.43 136.196 112.82 134.763 111.536C132.478 109.487 136.738 105.321 138.145 104C139.556 102.675 141.124 101.53 142.711 100.425C143.612 99.7977 144.537 99.2279 145.482 98.6687C146.065 98.3235 146.796 97.6932 147.512 97.7537C148.155 97.8081 148.703 98.3064 149.379 98.405C149.868 98.4763 150.818 98.594 150.201 99.2572C149.913 99.5671 148.78 100.068 148.394 100.144C148.167 100.188 147.929 100.103 147.704 100.149C147.324 100.227 147.063 100.548 146.649 100.507C146.78 101.121 146.541 101.41 145.899 101.328ZM152.66 78.5401C152.66 79.0204 151.784 78.9006 151.601 78.7375C151.299 78.4691 151.289 77.6666 151.177 77.3017C151.687 77.4299 152.66 77.8991 152.66 78.5401ZM145.599 62.6969C147.44 61.1835 149.376 59.796 151.423 58.574C152.156 58.1364 153.19 57.2537 154.101 57.3639C154.482 57.4103 155.272 57.8488 154.984 58.3323C154.931 58.4228 154.506 58.4591 154.374 58.5247C154.226 58.599 154.109 58.8039 153.971 58.9051C153.015 59.6066 151.866 60.0376 150.906 60.756C150.118 61.3459 149.383 62.0059 148.534 62.5122C147.72 62.9976 146.869 63.3048 146.096 63.8425C146.111 63.8317 145.091 64.1987 145.291 64.2655C144.395 63.9658 145.341 62.909 145.599 62.6969ZM157.875 62.1332C158.969 61.6972 160.039 61.1683 161.184 60.8753C161.756 60.729 162.342 60.6191 162.934 60.685C163.034 60.509 163.168 60.4701 163.335 60.5683C163.466 60.7689 163.638 60.9229 163.852 61.0304C164.178 61.2812 165.379 61.6091 165.139 62.1629C164.981 62.5293 163.776 62.5597 163.446 62.642C162.449 62.8902 161.52 63.4485 160.494 63.5856C160.398 63.5985 160.083 63.4818 160.08 63.4825C159.679 63.5699 159.346 63.9854 159.002 64.1847C158.261 64.6133 157.197 64.6853 156.665 65.4252C158.387 66.5926 159.881 65.4348 161.396 64.5533C162.303 64.0255 163.276 63.6447 164.267 63.3062C164.785 63.1295 165.308 62.9458 165.833 62.7906C166.05 62.7114 166.274 62.6544 166.503 62.6195C166.716 62.5771 166.869 62.6547 166.961 62.8525C167.595 62.8314 167.65 62.4332 168.032 63.1759C168.57 64.2231 167.746 64.1699 166.972 64.2986C165.898 64.4767 164.806 64.8779 163.748 65.144C163.504 65.2054 161.364 65.7015 161.361 65.7191C161.264 66.3946 167.406 65.769 167.933 65.6678C168.864 65.4887 169.862 64.9804 170.825 65.1029C171.565 65.1969 173.25 66.2821 172.07 67.003C171.838 65.8911 171.04 66.8094 170.624 67.1847C170.07 67.6841 169.275 67.6361 168.514 67.8318C167.474 68.099 164.812 69.1016 164.073 67.8233C164.306 68.9436 160.062 68.3743 159.478 68.3373C158.91 68.301 158.175 68.4219 157.625 68.2597C157.267 68.154 157.067 67.9208 156.73 67.8683C156.647 67.9574 156.548 68.0181 156.433 68.0502C156.262 67.9637 156.107 67.8536 155.969 67.7202C154.833 67.1978 153.074 66.909 153.705 65.2447C154.301 63.6751 156.43 62.7093 157.875 62.1332ZM168.529 63.1033C168.558 63.0055 168.586 62.9078 168.614 62.8098C168.618 63.1096 169.333 63.2376 169.25 63.6259C169.067 64.4858 168.242 63.1937 168.171 63.0529C168.291 63.0697 168.41 63.0864 168.529 63.1033ZM172.894 64.532C172.977 64.8843 173.927 65.6343 173.692 65.8072C173.317 65.2977 172.281 65.529 172.894 64.532ZM156.859 96.6742C157.207 95.984 158.259 97.1593 158.148 95.9809C158.72 96.0327 158.363 96.4679 159.048 96.2767C159.305 96.205 159.479 95.9202 159.792 95.8546C159.875 95.837 160.236 95.8656 160.361 95.8618C160.773 95.8492 162.389 95.8032 161.276 95.2625C161.899 94.851 161.976 95.0598 162.537 95.4369C162.393 94.6574 163.22 95.0999 163.605 95.1972C163.33 94.7525 164.011 94.2796 164.232 93.9791C164.153 94.442 164.195 94.9602 164.865 94.6642C165.032 94.5906 164.994 94.2634 165.127 94.21C165.369 94.1122 165.504 94.2901 165.591 94.28C165.677 94.2704 165.857 94.3185 166.037 94.2507C166.271 94.1629 166.158 93.8493 166.454 93.8026C166.647 93.7724 166.788 94.056 167.023 94.0583C167.144 94.0595 167.346 93.9367 167.438 93.9433C167.454 93.9444 167.569 93.6669 167.711 93.6601C167.917 93.65 168.001 94.2039 168.077 94.3114C168.439 94.8247 168.92 95.1594 169.475 95.4332C168.471 96.3538 166.445 96.2563 165.183 96.5666C164.499 96.7349 163.916 96.9775 163.29 97.2901C163.139 97.3883 163.009 97.5088 162.9 97.6515C162.811 97.5927 162.723 97.5339 162.634 97.475C162.291 97.4961 161.967 97.3264 161.581 97.3916C160.388 97.5927 159.455 98.4859 158.243 98.6849C157.699 98.7744 157.251 98.8993 156.897 98.4273C156.585 98.0134 156.637 97.1143 156.859 96.6742ZM155.224 91.1727C155.494 91.4012 155.169 92.1451 155.692 92.0643C156.064 92.0068 155.989 91.431 156.281 91.3089C156.664 91.1488 156.895 91.5287 157.255 91.4936C157.926 91.4275 157.888 90.8415 157.321 90.5842C157.91 90.4286 158.099 91.1256 158.621 91.1193C159.307 91.1111 159.143 90.3022 159.726 90.1682C159.979 90.11 159.895 90.4811 160.058 90.5272C160.387 90.6193 160.615 90.4611 160.905 90.3219C161.165 90.1975 161.35 89.957 161.634 89.8754C161.763 89.8382 162.091 89.9064 162.186 89.8372C162.377 89.698 162.548 89.1557 162.736 89.084C162.697 89.0985 163.314 89.4074 163.402 89.4365C163.348 89.6654 163.222 89.6926 163.026 89.5182C163.026 90.035 164.462 90.1961 164.167 89.5574C164.944 89.879 164.366 90.0444 164.288 90.4932C164.257 90.6737 164.152 90.6688 164.183 90.8596C164.197 90.9475 164.605 90.8718 164.599 90.9915C164.565 91.7629 162.107 92 161.641 92.068C160.677 92.2089 159.765 92.4458 158.835 92.7376C158.143 92.9549 156.95 93.5771 156.214 93.5385C155.154 93.4829 155.016 92.1011 155.224 91.1727ZM152.857 83.3019C152.599 82.4439 153.428 80.6715 154.507 80.893C154.772 80.9474 154.837 81.1672 155.043 81.2647C155.331 81.4011 155.798 81.3294 156.047 81.4703C156.606 81.7865 156.324 82.592 156.884 82.8831C156 83.0973 153.268 84.6657 152.857 83.3019ZM153.88 86.6357C154.261 86.4311 154.878 86.4048 155.137 86.0113C155.267 86.1008 155.511 86.6443 155.743 86.5611C155.851 86.5225 155.963 86.2279 155.955 86.2281C156.162 86.2222 156.203 85.9426 156.518 85.974C156.808 86.0031 157.132 86.3514 157.391 86.4812C157.346 85.6178 157.567 85.5353 158.268 85.0731C158.421 84.9718 158.549 84.5917 158.691 84.4379C158.555 85.344 158.897 85.349 159.62 85.4851C160.527 85.6557 161.092 86.1428 161.456 87.0191C160.683 86.8684 159.686 87.0498 159.381 87.8807C158.764 86.7536 156.522 88.3089 155.797 88.6274C155.259 88.8639 154.632 89.1817 154.181 88.6307C153.863 88.2425 154.045 87.7757 154.052 87.4309C154.054 87.3226 154.166 87.3163 154.155 87.155C154.142 86.9493 153.874 86.867 153.88 86.6357ZM162.132 104.359C161.928 104.437 160.878 104.48 160.871 104.132C160.865 103.824 162.725 104.134 162.132 104.359ZM160.426 103.233C159.631 103.723 158.741 101.997 158.449 101.499C159.283 101.606 159.69 100.908 160.181 100.378C160.649 101.402 161.358 100.861 162.105 100.519C162.985 100.116 163.95 100.113 164.852 99.789C165.133 99.688 165.393 99.5378 165.667 99.4222C165.889 99.3395 166.109 99.2547 166.329 99.1677C166.485 99.0271 166.54 98.8539 166.495 98.6486C166.421 98.4761 166.471 98.3671 166.646 98.3221C166.853 98.3839 167.065 98.42 167.282 98.4297C167.629 98.3607 168.129 98.0329 167.709 97.6794C168.159 97.2711 168.609 97.6771 169.042 97.8559C168.939 97.5627 168.837 97.2695 168.734 96.9763C168.949 97.0675 169.586 97.9581 169.651 97.9532C170.063 97.9222 170.02 97.3693 170.257 97.1462C170.393 97.3147 170.433 98.5712 170.97 98.1479C171.199 97.967 170.705 97.3506 170.583 97.2102C171.198 97.349 171.734 98.0825 171.9 98.6521C171.608 98.6943 171.339 98.6357 171.091 98.4758C170.932 99.269 172.401 98.9476 172.638 99.362C173.104 100.173 170.076 100.737 169.682 100.812C168.892 100.962 167.961 101.018 167.237 101.368C166.544 101.703 166.38 101.799 165.57 101.862C164.645 101.934 163.743 102.238 162.849 102.475C162.072 102.681 161.114 102.809 160.426 103.233ZM177.324 74.1965C178.054 73.9337 180.513 72.5704 181.139 73.1767C181.073 73.1125 181.591 74.1817 181.585 74.1144C181.63 74.6706 181.616 74.8944 180.932 75.1609C180.441 75.3517 180.014 74.9462 179.573 75.1072C179.089 75.2842 179.428 75.5973 179.178 75.816C178.905 76.0558 178.378 76.1594 178.038 76.2644C177.206 76.5215 176.366 76.7364 175.538 77.0134C173.852 77.5771 172.067 78.1016 170.334 78.5003C169.04 78.7982 166.842 79.5386 165.649 78.6641C165.533 79.1612 165.248 79.0933 164.853 79.1657C164.543 79.2224 163.982 79.3759 163.707 79.3839C163.248 79.3972 161.973 79.277 162.148 78.6336C162.1 78.8108 163.14 78.2043 162.96 78.1665C163.402 78.2596 163.259 78.0372 163.621 77.9134C164.093 77.7519 164.587 77.7606 165.07 77.5895C166.287 77.1583 167.307 76.5986 168.591 76.3283C171.525 75.7112 174.494 75.2148 177.324 74.1965ZM59.7389 140.663C59.5013 140.67 59.3163 139.994 60.0394 140.477C59.9393 140.539 59.8392 140.601 59.7389 140.663ZM54.0272 139.79C53.704 139.872 53.5751 139.692 53.6409 139.249C54.0916 139.07 54.2203 139.251 54.0272 139.79ZM49.6177 138.885C49.5349 138.49 49.8279 138.401 50.0934 138.223C50.0667 138.747 50.0667 138.747 49.6177 138.885ZM38.5228 135.633C38.0759 135.535 37.4803 135.098 37.3779 135.832C37.3031 135.662 36.9216 134.863 37.0854 134.678C37.1709 134.581 37.4948 135.029 37.4604 134.984C37.8516 134.193 38.5259 135.148 38.9027 135.43C38.7762 135.498 38.6494 135.566 38.5228 135.633ZM154.73 48.189C154.884 47.8628 155.066 47.7592 155.275 47.8785C154.946 48.6416 153.834 49.0553 154.73 48.189ZM162.462 41.0256C162.737 41.5424 162.323 41.7608 162.027 42.1904C162.2 41.7271 162.32 41.406 162.462 41.0256ZM196.066 91.4734C197.06 91.4732 199.178 90.9484 199.778 92.0849C200.175 91.3126 200.625 92.7608 200.97 92.9931C201.008 93.0193 201.256 92.8297 201.372 92.8996C201.546 93.0048 201.696 93.2915 201.795 93.4618C202.095 93.9756 202.225 94.5864 202.391 95.1517C200.655 95.1517 198.874 94.7474 197.139 94.6004C196 94.5039 194.884 94.5011 193.743 94.5625C193.516 94.5747 193.066 94.4999 192.873 94.5425C192.676 94.5859 192.319 94.9869 192.102 94.9225C192.439 95.5555 196.758 97.0881 197.088 96.3871C196.697 96.1508 195.83 95.9694 195.831 95.3985C195.832 94.7589 196.644 94.76 197.075 94.7788C198.017 94.82 199.595 95.1336 199.981 96.1133C200.147 96.5333 200.198 97.5908 200.016 97.9963C199.898 98.2581 199.7 98.5729 199.385 98.6261C199.256 98.6479 199.069 98.4761 199.05 98.4803C198.403 98.6174 197.207 99.1365 196.502 98.4046C195.994 99.0625 193.545 98.3439 192.795 98.0957C191.484 97.6616 189.678 97.0656 188.882 95.8422C187.911 94.3511 189.885 93.0908 191.018 92.4847C192.567 91.6565 194.337 91.4741 196.066 91.4734ZM202.683 94.9211C202.988 95.0071 203.292 95.0933 203.597 95.1793C203.516 95.7137 202.313 95.2909 202.683 94.9211ZM211.896 114.345C211.99 112.204 211.371 110.319 211.013 108.248C210.925 107.735 211.015 106.837 210.625 106.415C210.253 106.012 209.421 106.34 209.388 105.626C209.021 106.056 209.059 106.146 208.606 105.652C208.689 105.864 208.701 106.079 208.642 106.298C208.362 106.138 207.345 105.604 207.431 106.334C206.595 106.149 206.837 105.626 206.36 105.227C206.292 105.17 206.02 105.371 205.914 105.286C205.722 105.13 205.627 104.989 205.465 104.789C205.26 105.037 204.98 105.217 204.729 105.413C204.583 105.095 204.298 104.862 203.957 104.784C204.276 105.453 205.066 106.319 203.983 106.699C203.336 106.926 202.277 106.648 201.592 106.701C199.054 106.898 196.274 106.344 193.819 105.74C191.298 105.118 188.749 104.242 186.481 102.96C185.998 102.687 185.694 102.363 185.277 102.024C184.873 101.695 184.579 101.643 184.092 101.432C183.217 101.053 182.416 100.445 181.751 99.767C180.319 98.3094 178.988 96.4032 179.387 94.2693C179.785 92.1423 181.247 90.4801 182.811 89.0795C184.659 87.4253 186.745 86.0441 188.959 84.9306C189.949 84.433 192.481 82.5632 193.459 83.6572C194.084 84.3561 193.732 85.2479 192.878 85.4033C192.668 85.4418 192.448 85.3004 192.235 85.3972C191.928 85.5369 192.036 85.7019 191.909 85.8184C191.689 86.0207 191.455 86.3361 191.126 86.5115C189.978 87.1234 188.869 87.6083 187.772 88.3536C187.266 88.697 186.779 88.8447 186.333 89.1444C185.89 89.4423 185.789 89.9354 185.193 89.6312C185.405 90.4984 184.13 91.427 183.63 91.9583C182.856 92.781 181.928 93.831 182.289 95.0481C182.996 97.4307 186.191 99.2404 188.236 100.288C190.787 101.595 193.601 102.635 196.442 103.066C197.854 103.28 199.314 103.412 200.737 103.547C201.844 103.653 203.545 103.266 204.342 104.264C204.366 103.101 208 103.203 208.774 103.054C207.223 97.754 204.178 93.0414 200.923 88.6384C199.326 86.477 197.757 84.2542 195.936 82.2728C193.942 80.1036 191.665 78.1651 189.501 76.1692C185.256 72.2544 180.456 68.7606 175.571 65.6828C170.697 62.6122 165.65 59.5902 160.311 57.4009C154.212 54.9006 147.792 53.256 141.365 51.8554C142.237 50.7444 143.655 50.2026 144.771 49.3897C145.162 49.1052 145.691 48.4222 146.198 48.329C146.748 48.2277 147.181 48.8193 147.572 49.1162C148.696 49.9684 149.473 49.6065 150.759 49.5552C151.529 49.5245 153.352 49.9532 153.677 48.9119C154.109 49.4865 153.483 49.9473 153.162 50.3687C153.396 50.694 153.584 50.3565 153.814 50.3057C153.885 50.2469 153.956 50.1878 154.027 50.129C154.141 49.9635 154.244 49.9626 154.336 50.1257C154.473 50.3324 154.612 50.2867 154.751 49.9883C154.789 49.9644 154.827 49.9403 154.865 49.9164C155.032 49.8278 155.192 49.6876 155.347 49.5772C156.516 48.7417 157.558 48.0299 158.849 47.4144C159.933 46.8979 159.35 45.9095 160.065 45.2115C160.226 45.0536 160.498 45.1328 160.671 44.999C160.841 44.8675 160.866 44.7184 160.99 44.5776C161.287 44.2389 160.933 43.8458 161.691 44.2604L161.417 42.7227C162.903 44.1637 162.897 40.0171 163.1 39.4035C163.073 39.4846 163.233 38.8567 163.233 38.8621C163.276 37.6178 163.446 36.7159 161.989 36.6437C162.541 36.2966 162.709 36.9744 162.964 36.2727C163.092 35.9212 162.694 35.3169 163.328 35.5436C163.462 34.7964 163.33 34.1917 163.163 33.4656C162.993 32.7224 163.093 32.2265 163.101 31.4833C163.11 30.6402 162.715 29.793 162.589 28.9628C162.49 28.3126 162.592 27.2872 161.751 27.5261C161.633 27.3412 162.048 26.7723 162.031 26.4911C162.005 26.0542 161.531 25.6103 161.396 25.1908C161.199 25.3947 160.92 25.4626 160.652 25.3705C160.904 24.8005 160.667 24.609 160.425 24.1176C160.287 23.8361 160.371 23.5253 160.074 23.3236C159.904 23.2078 159.615 23.4028 159.481 23.2671C159.196 22.9765 159.301 22.5909 159.105 22.208C158.859 21.7277 158.296 21.3609 157.908 21.0005C155.728 18.9743 153.361 17.4258 150.461 16.6341C147.536 15.8353 144.125 15.5491 141.21 16.4705C140.045 16.8387 139.01 16.8009 137.961 17.4886C137.621 17.7117 137.585 17.652 137.412 18.0239C137.372 18.1106 137.734 18.3415 137.512 18.4833C137.272 18.6373 137.006 18.3241 136.883 18.0642C135.365 19.1625 133.944 20.6266 133.08 22.3055C132.221 23.9737 132.142 25.9335 131.814 27.7464C130.302 26.0186 128.256 25.1903 126.032 26.0209C124.094 26.7447 122.591 28.3356 122.212 30.3967C121.981 31.6532 122.234 32.9256 122.804 34.0593C123.051 34.5491 123.35 35.0915 123.804 35.4212C124.162 35.6819 124.777 35.6453 124.946 36.1154C125.205 36.8357 123.709 38.3912 123.321 39.0217C122.618 40.1626 121.966 41.3408 121.469 42.587C119.687 40.0705 117.982 37.322 115.956 35.0017C114.045 32.8117 111.765 30.8476 109.53 28.9965C104.891 25.1547 100.067 21.5454 94.8776 18.4847C90.0455 15.6347 84.2086 14.0524 78.577 14.6119C73.0746 15.1587 68.862 18.6387 65.317 22.6523C58.5009 30.3695 54.3263 41.369 53.9184 51.6419C53.7959 54.7279 54.0309 57.7736 54.7931 60.7668C55.1562 62.192 55.1034 63.5938 55.3144 65.0373C55.5525 66.6658 55.9643 68.2883 56.3625 69.8835C57.8794 75.9601 59.812 82.0321 61.9807 87.9074C63.1083 90.9627 64.4726 93.9496 66.3183 96.6437C67.1707 97.8883 68.2751 98.8618 69.1924 100.044C70.0823 101.19 70.3174 102.596 70.5131 104.003C70.9823 107.375 71.2936 110.761 71.5758 114.152C71.6955 115.59 71.8355 117.015 72.0258 118.442C72.1917 119.687 71.7743 119.625 70.7273 120.048C70.9397 118.93 65.9377 119.691 65.4654 119.767C64.9514 119.85 64.4072 119.851 64.0024 119.917C63.5498 119.991 63.1069 120.097 62.5856 120.082C61.8195 120.06 60.3848 119.865 60.0923 120.843C59.891 119.709 58.5612 120.949 59.5451 120.738C58.5352 120.851 57.5046 120.663 56.4825 120.758C55.3111 120.867 54.1296 120.971 52.9664 121.147C52.1566 121.269 51.3839 121.581 50.5727 121.672C49.5347 121.788 48.4514 121.777 47.4033 121.869C43.5373 122.211 39.5302 123.054 35.7722 124.019C34.9209 124.238 33.9429 124.393 33.1296 124.745C32.9119 124.838 32.7159 125.048 32.5073 125.129C32.1577 125.264 32.2055 125.171 31.8949 125.233C30.0342 125.604 28.1147 126.212 26.2542 126.689C25.2223 126.953 23.5437 127.192 22.7019 127.912C22.3246 128.235 21.9948 128.807 22.5995 129.173C23.0825 129.466 23.772 128.999 24.1629 128.746C23.8146 129.654 23.1578 130.106 23.5125 131.139C23.7926 131.955 24.4249 132.961 25.3978 132.434C25.5281 132.737 25.5809 133.34 25.9645 133.451C26.3093 133.551 26.5589 133.115 26.8966 133.217C27.0176 133.254 26.9716 133.483 27.0799 133.543C27.2665 133.645 27.4556 133.689 27.6694 133.761C27.8531 133.824 28.1489 133.952 28.3406 133.965C28.4623 133.974 28.7489 133.766 28.748 133.766C29.0273 133.808 29.1776 134.343 29.3787 134.497C29.6398 134.698 29.8554 134.743 30.1823 134.816C30.862 134.967 31.7381 135.226 32.1867 134.53C32.0841 135.027 32.7598 134.978 33.0579 135.041C33.0248 134.779 32.8802 134.54 32.6571 134.396C33.3237 134.44 33.0534 135.103 33.5461 135.278C33.8972 135.402 33.8573 135.086 34.1259 135.05C34.4798 135.004 34.7484 135.261 35.3011 135.024C35.4209 135.557 35.4647 136.093 36.1184 136.173C36.502 136.219 37.3966 135.527 37.346 136.103C38.2031 135.852 38.5284 136.022 38.9763 136.777C39.052 136.313 39.4184 136.448 39.7545 136.419C40.2872 136.374 40.3008 136.417 40.7138 136.115C40.7515 136.088 41.0763 135.343 41.2207 135.806C41.2856 136.013 40.8565 136.501 40.6976 136.625C40.8949 136.724 41.5416 137.074 41.7902 137.01C42.0054 136.954 42.0061 136.586 42.2646 136.567C42.2013 136.779 42.1383 136.99 42.0748 137.202C42.5777 137.275 42.998 136.938 43.3952 136.692C43.774 137.649 44.8566 137.11 45.4453 137.831C45.7568 138.212 45.7713 138.502 46.3648 138.601C46.972 138.703 47.5024 138.437 48.0185 138.938C47.8549 138.627 47.4473 138.369 47.8523 138.035C48.128 138.426 48.2702 138.897 48.5881 139.261C48.6319 139.076 48.6757 138.891 48.7195 138.706C49.548 139.592 50.591 139.6 51.6523 140.091V139.443C52.4121 140.602 52.4527 139.869 53.3604 139.395C53.2988 139.736 53.2369 140.077 53.1752 140.418C53.8284 140.368 54.4388 141.142 54.975 140.485C55.2989 141.028 55.6915 140.761 56.2223 140.933C56.5242 141.032 56.749 141.329 57.0427 141.436C57.483 141.598 57.6145 141.59 58.0291 141.73C58.3978 141.855 58.6073 142.098 59.0688 142.176C59.3686 142.226 59.6405 142.223 59.9273 142.209C60.0382 142.203 60.0016 141.954 60.248 142.012C60.6288 142.102 60.9124 142.58 61.1866 142.825C61.5991 141.788 62.7541 143.177 63.3124 143.362C63.3659 143.096 63.3563 142.776 63.5487 142.557C63.7746 143.052 63.8609 143.468 64.3298 143.787C64.6005 143.971 64.998 144.103 65.3107 144.17C65.5083 144.212 65.8673 144.162 65.9916 144.223C66.2034 144.326 66.2815 144.604 66.4955 144.63C66.6213 144.645 66.8079 144.314 66.9021 144.339C67.3334 144.457 67.5729 144.981 68.0084 145.264C69.3042 146.107 70.935 146.189 72.3788 146.374C72.7411 146.42 72.7936 146.321 73.088 146.534C73.245 146.648 73.1738 146.993 73.3669 147.09C74.0946 147.455 74.0951 146.676 74.2477 146.193C74.4884 146.51 74.5298 146.93 74.8591 147.182C75.0389 147.177 75.2189 147.181 75.3984 147.195C75.4997 147.31 75.5662 147.444 75.5972 147.595C76.0331 147.889 76.527 147.787 76.9772 148.008C77.1248 148.08 77.3864 148.518 77.5683 148.644C77.8938 148.869 78.3973 148.99 78.7692 149.088C79.5492 149.293 80.6677 149.02 81.1317 149.835C81.7479 149.174 81.5095 149.963 81.9279 150.129C82.1749 150.227 82.5464 149.838 82.8204 149.876C83.3138 149.946 83.4914 150.48 83.6494 150.868C83.9498 150.801 83.7436 149.951 83.7352 149.765C84.1085 149.721 84.1915 150.704 84.2559 150.92C84.8454 150.636 83.8779 149.753 84.5116 149.469C84.4535 150.222 85.0533 150.842 83.9822 150.95C84.1301 151.403 87.5848 151.906 87.8248 151.506C87.878 152.246 88.3748 151.555 88.5581 151.302C88.5788 151.733 88.4318 152.346 88.916 152.546C89.2451 152.683 89.9871 152.33 90.1163 152.008C90.2637 152.5 90.5107 152.484 90.8177 152.797C91.0287 153.012 91.1677 153.385 91.3889 153.565C91.796 153.896 92.5533 153.845 93.0277 153.771C93.9558 153.627 93.8461 153.449 94.1768 154.413C94.2516 154.047 94.4859 153.282 94.8947 153.851C95.1548 154.213 94.601 155.01 94.4409 155.327C94.7986 155.131 95.1537 154.898 95.5606 154.813C95.5833 154.939 95.6041 155.205 95.5441 155.321C95.5563 155.297 95.9904 155.588 96.1514 155.669C96.1127 155.649 96.2787 154.925 96.274 154.948C96.8466 155.302 96.4493 155.978 96.9565 156.326C97.0875 156.416 97.395 156.311 97.5534 156.366C97.8293 156.462 98.0679 156.72 98.313 156.871C98.1173 156.609 98.1455 156.168 98.1588 155.865C98.2835 155.934 98.3726 156.192 98.4984 156.212C98.546 156.22 99.0394 156.285 99.0361 156.283C99.5496 156.643 99.4439 156.688 99.003 157.12C99.1605 157.368 99.8189 156.938 99.997 156.866C100.034 156.963 100.044 157.314 100.114 157.377C100.156 157.481 100.199 157.585 100.242 157.689C100.373 157.592 100.514 157.559 100.665 157.591C100.76 157.624 101.503 157.926 101.553 157.823C101.391 157.771 101.243 157.69 101.111 157.581C101.54 157.196 101.822 156.991 102.217 157.548C102.267 157.618 102.096 157.869 102.146 157.961C102.335 158.301 102.723 158.572 102.986 158.849C103.095 158.466 102.841 157.508 103.447 157.543C103.93 157.571 104.298 158.742 104.13 159.106C104.323 158.896 105.47 158.687 105.687 158.753C106.299 158.938 106.127 159.505 106.881 158.675C107.395 159.03 106.942 159.164 107.034 159.596C107.17 159.624 107.299 159.591 107.42 159.496C107.329 161.332 108.685 159.929 109.565 160.209C109.91 160.32 109.999 160.712 110.369 160.826C110.565 160.887 110.784 160.744 110.974 160.779C111.127 160.757 111.279 160.73 111.43 160.698C111.621 160.602 111.711 160.709 111.699 161.019C112.007 161.179 111.891 161.241 112.25 161.272C112.482 161.292 112.695 161.051 112.958 161.092C113.412 161.163 113.352 161.512 113.642 161.694C113.903 161.858 114.198 161.853 114.519 161.821C114.683 161.805 115.143 161.594 115.198 161.593C115.542 161.588 115.356 161.515 115.768 161.81C116.089 162.04 116.224 162.189 116.618 162.295C117.07 162.417 117.872 162.682 118.177 162.355C118.587 162.971 118.909 162.519 119.452 162.56C119.729 162.581 119.773 162.689 120.02 162.732C120.42 162.802 120.92 162.741 121.346 162.878C122.017 163.093 122.092 163.202 122.778 163.231C122.902 163.183 123.026 163.134 123.149 163.086C123.186 163.292 123.284 163.461 123.441 163.591C123.825 163.672 124.077 163.478 124.393 163.266C124.629 164 125.394 164.064 126.049 164.161C127.104 164.317 128.114 164.402 129.132 164.749C129.992 165.042 130.854 165.371 131.681 165.746C132.409 166.077 133.096 166.57 133.919 166.339C135.785 165.813 137.594 163.898 139.155 162.798C141.004 161.495 142.999 160.422 144.931 159.25C152.623 154.588 160.749 150.643 168.334 145.807C172.474 143.167 176.317 140.03 180.763 137.894C180.13 140.51 179.053 143.165 179.247 145.904C179.326 147.008 179.651 148.311 180.507 149.082C181.565 150.035 182.744 149.428 183.756 148.747C185.924 147.289 187.37 145.162 188.993 143.164C190.913 140.8 192.402 138.261 193.812 135.568C194.15 136.042 193.893 136.836 193.898 137.362C193.904 138.032 194.085 138.679 194.396 139.278C195.199 140.823 196.727 141.198 198.108 140.139C200.765 138.101 202.308 134.472 203.731 131.549C204.544 133.06 205.696 134.962 207.646 133.883C209.256 132.992 210.201 131.003 210.693 129.317C212.13 124.398 211.675 119.388 211.896 114.345Z" fill="#211814"/>
<path fill-rule="evenodd" clip-rule="evenodd" d="M209.455 84.7983C209.272 84.3525 209.191 84.4254 209.529 83.9932C209.792 84.2522 209.581 84.4662 209.455 84.7983ZM217.588 111.778C217.072 110.311 217.391 108.717 217.077 107.213C216.934 106.522 216.706 105.852 216.625 105.149C216.588 104.837 216.311 103.433 216.5 103.212C215.918 102.86 215.916 102.599 215.781 101.908C215.989 101.688 215.963 101.5 215.703 101.344C215.533 101.139 215.363 100.933 215.193 100.728C215.936 101.091 215.497 100.162 215.421 99.626C215.361 99.2027 215.321 98.7612 215.18 98.3555C215.006 97.8567 214.62 97.6045 215.423 97.6045C215.159 97.3038 214.763 96.9935 214.632 96.6253C214.442 96.0954 214.755 95.3951 214.368 94.927C214.153 94.666 213.043 94.5638 213.237 93.9999C213.337 93.7125 213.787 93.927 213.926 93.7256C214.473 92.9344 212.857 92.6065 212.778 92.2699C212.675 91.8335 213.259 91.736 213.295 91.328C213.33 90.9286 212.709 90.2724 212.545 89.9152C212.321 89.9695 212.076 90.3232 211.82 90.1542C211.772 90.1224 211.845 88.7398 211.786 88.5563C211.729 88.3758 211.612 87.8972 211.571 87.8086C211.405 87.4568 210.931 87.2855 210.856 86.8699C210.811 86.622 211.782 86.2465 210.668 86.2348C211.068 85.5293 210.335 85.1006 210.068 84.4978C209.725 83.7228 209.522 82.8856 209.17 82.1065C208.827 81.3492 208.444 80.6306 207.95 79.961C207.503 79.3547 207.309 78.7716 206.952 78.1313C206.881 78.075 206.809 78.0188 206.738 77.9625C206.439 78.0057 206.344 77.8699 206.451 77.5552C206.223 77.2174 206.053 76.857 205.852 76.5042C205.618 76.0943 205.303 75.7601 205.062 75.3614C204.741 74.8329 204.647 74.2369 204.285 73.7067C203.839 73.0545 203.339 72.4793 202.926 71.8027C202.409 70.9549 201.837 70.4281 201.186 69.7716C200.876 69.4589 200.839 68.678 200.46 68.2341C200.046 67.7506 199.638 67.6196 199.352 66.9849C198.979 66.1592 198.432 65.7649 197.9 65.0513C197.461 64.4625 197.247 63.7859 196.763 63.2164C196.347 62.7272 195.874 62.2803 195.43 61.8164C194.87 61.2307 194.456 60.5189 193.872 59.9621C193.956 60.0425 193.364 59.5732 193.394 59.5882C193.263 59.5214 192.84 59.4678 192.902 59.5041C192.021 58.9864 190.917 57.0914 189.592 58.0955C188.895 58.6235 189.229 59.592 189.716 60.1179C189.925 60.3439 191.011 61.4576 191.246 60.9879C191.499 61.347 192.28 63.0828 192.929 62.5854C192.863 63.1786 193.206 62.9818 193.433 63.3828C193.582 63.6474 193.51 63.7772 193.618 64.1902C193.918 65.3255 195.06 66.4343 195.668 67.4243C197.182 69.8883 198.852 72.2253 200.367 74.6921C201.811 77.0431 203.428 79.2738 204.813 81.6565C206.389 84.3659 208.352 86.9234 209.539 89.8442C209.579 89.9424 209.909 90.0977 209.991 90.2452C210.134 90.5013 210.103 90.9443 210.195 91.2345C210.513 92.2404 211.03 93.2306 211.618 94.0638C212.134 94.7949 212.172 95.7884 212.527 96.6459C213.027 97.8546 213.556 99.0506 214.043 100.265C214.8 102.156 215.313 103.968 215.837 105.942C216.176 107.221 216.446 108.5 216.554 109.821C216.653 111.036 216.677 112.301 217.127 113.451C217.433 112.978 217.795 112.364 217.588 111.778Z" fill="#211814"/>
<path fill-rule="evenodd" clip-rule="evenodd" d="M44.3529 137.808C43.8087 137.698 43.2966 137.551 43.1813 136.926C43.1023 137.221 43.0236 137.515 42.9446 137.81C43.6072 137.96 44.27 138.11 44.9326 138.26C44.7779 137.988 44.6649 137.871 44.3529 137.808Z" fill="#211814"/>
<path fill-rule="evenodd" clip-rule="evenodd" d="M45.8133 35.2592C45.8546 35.0829 45.908 34.9102 45.9739 34.7417C46.0187 34.906 46.238 35.2613 46.1103 35.4162C45.9476 35.6129 45.7831 35.5015 45.8133 35.2592ZM48.4812 30.1831C48.6598 30.2618 49.0463 30.2771 49.268 30.3436C48.6929 30.8384 48.5916 30.6929 47.848 30.6354C47.8149 30.1348 48.0183 29.9794 48.4812 30.1831ZM43.4958 42.5764C43.573 42.5785 43.6503 42.5804 43.7279 42.5822C43.7326 42.3643 43.7269 42.1465 43.7105 41.929C44.4948 42.1004 44.0508 40.73 43.8045 40.4459C44.5695 40.4714 44.9422 38.0494 45.1845 37.5828C45.3997 37.1684 45.6434 37.0081 45.8007 36.5028C45.9383 36.0605 46.0871 35.6625 46.2856 35.2442C46.7417 34.2823 47.3401 33.4088 47.2297 32.2878C47.6162 33.129 47.956 32.2892 48.2012 31.887C48.5961 31.2389 49.5596 30.4121 49.662 29.6424C49.7525 28.9648 49.2491 28.929 49.5462 28.3006C49.8467 27.6645 50.0937 27.7282 50.6201 27.5248C50.9703 27.3893 51.0399 27.5539 51.2869 27.1118C51.447 26.8257 51.3905 26.6124 51.5956 26.3778C51.6802 26.4514 51.7766 26.4818 51.8844 26.4692C52.0508 26.2496 52.16 26.0049 52.2118 25.7351C52.3475 25.3709 52.4131 25.0365 52.6175 24.6896C52.8113 24.361 53.1554 23.4818 53.3377 23.3234C53.5313 23.1551 54.6294 23.2406 54.6247 23.2467C55.0782 22.6763 54.2459 22.1079 55.3984 22.2281C55.1708 21.8044 55.9702 21.2785 56.2023 21.0427C56.7819 20.4542 56.828 20.1818 56.9504 19.4417C57.0125 19.0643 56.607 19.1079 57.1505 19.0219C57.3753 18.9865 57.5909 19.2739 57.7531 19.2317C58.4691 19.046 57.7201 19.0814 57.9177 18.7896C57.98 18.6971 58.2985 18.3235 58.2955 18.3274C58.28 18.3462 58.3672 18.0024 58.4394 17.914C58.5762 17.9023 58.711 17.8784 58.8434 17.8423C58.9107 17.7064 58.9702 17.5671 59.0218 17.4246C59.54 16.9924 60.3153 16.7991 60.6737 16.3242C60.9055 16.0172 60.8361 15.7165 61.1356 15.4104C61.4209 15.1189 61.7982 15.33 61.8547 14.6714C61.9266 13.8335 61.0266 13.4606 60.6584 14.3063C59.66 13.0765 55.4867 17.5885 55.0046 18.1779C52.9105 20.7368 50.8522 23.359 49.1344 26.1886C47.4608 28.9458 46.0871 31.8469 45.0134 34.8879C44.4957 36.3542 44.1805 37.8139 43.8643 39.3305C43.7581 39.8384 42.9648 42.1018 43.295 42.6082C43.3618 42.5977 43.4288 42.5869 43.4958 42.5764Z" fill="#211814"/>
<path fill-rule="evenodd" clip-rule="evenodd" d="M208.333 105.328C208.686 105.093 208.686 105.093 208.748 104.648C208.275 104.734 208.275 104.734 208.333 105.328Z" fill="#211814"/>
<path fill-rule="evenodd" clip-rule="evenodd" d="M34.4647 135.24C34.4691 135.24 34.4724 135.241 34.475 135.243C34.4675 135.234 34.4403 135.206 34.4647 135.24Z" fill="#211814"/>
<path fill-rule="evenodd" clip-rule="evenodd" d="M34.2281 135.478C34.3371 135.714 34.5122 135.772 34.7536 135.654C34.8487 135.79 33.9281 134.805 34.2281 135.478Z" fill="#211814"/>
<path fill-rule="evenodd" clip-rule="evenodd" d="M50.1482 27.9717C49.5958 29.0547 50.2877 28.267 50.2523 28.6188C50.2755 28.3877 50.3714 28.0584 50.1482 27.9717Z" fill="#211814"/>
<path fill-rule="evenodd" clip-rule="evenodd" d="M139.959 44.7348C140.198 46.6768 142.855 45.7583 143.453 44.5836C143.888 43.7284 144.987 40.3489 143.804 39.635C142.928 39.1058 142.741 41.3867 142.524 41.8963C142.162 42.7496 141.879 42.1449 141.074 42.3638C140.186 42.6055 139.86 43.9294 139.959 44.7348Z" fill="#211814"/>
<path fill-rule="evenodd" clip-rule="evenodd" d="M137.056 41.18C138.005 41.391 138.936 41.2822 139.611 40.5322C139.985 40.1169 140.482 39.2931 139.809 38.8911C139.199 38.5272 138.508 39.3796 137.866 39.2033C136.993 38.9636 137.443 38.0275 137.143 37.4092C136.043 38.0429 135.429 40.8186 137.056 41.18Z" fill="#211814"/>
<path fill-rule="evenodd" clip-rule="evenodd" d="M138.041 46.0837C137.125 46.0819 137.118 47.2078 137.595 47.6904C138.053 48.1521 139.209 48.6194 139.829 48.2604C141.052 47.5516 138.781 46.1569 138.041 46.0837Z" fill="#211814"/>
<path fill-rule="evenodd" clip-rule="evenodd" d="M84.7744 90.8582C84.9699 90.9531 85.5459 91.4415 85.7887 91.221C85.4461 90.8758 85.1032 90.5305 84.7606 90.1853C84.5712 90.393 84.4413 90.6965 84.7744 90.8582Z" fill="#211814"/>
<path fill-rule="evenodd" clip-rule="evenodd" d="M80.448 41.4609C80.3508 41.5336 80.2533 41.606 80.156 41.6784C80.4844 41.952 80.4762 42.0333 80.8071 41.7743C80.7089 41.6449 80.5894 41.5406 80.448 41.4609Z" fill="#211814"/>
<path fill-rule="evenodd" clip-rule="evenodd" d="M142.494 105.894C142.31 105.564 141.963 106.173 141.728 106.272C141.345 106.433 141.031 105.58 141.141 106.603C140.276 106.207 139.752 107.115 139.194 107.588C138.406 108.256 137.443 108.619 136.917 109.568C139.391 110.147 142.108 108.015 143.952 106.614C144.253 106.385 145.758 105.231 144.738 105.12C144.321 105.074 142.804 106.45 142.494 105.894Z" fill="#211814"/>
<path fill-rule="evenodd" clip-rule="evenodd" d="M141.761 103.892C142.245 103.51 141.2 103.475 141.035 103.435C141.049 103.739 141.063 104.042 141.077 104.346C141.311 104.204 141.539 104.052 141.761 103.892Z" fill="#211814"/>
<path fill-rule="evenodd" clip-rule="evenodd" d="M139.94 105.165C140.085 105.074 140.489 104.792 140.214 104.582C139.966 104.74 139.789 104.997 139.75 105.292C139.813 105.249 139.877 105.207 139.94 105.165Z" fill="#211814"/>
<path fill-rule="evenodd" clip-rule="evenodd" d="M99.8829 80.5535C99.5733 80.6749 99.4346 80.8668 99.4672 81.1298C99.9429 81.0325 99.8522 80.5832 99.8829 80.5535Z" fill="#211814"/>
</svg>
