<svg width="151" height="145" viewBox="0 0 151 145" fill="none" xmlns="http://www.w3.org/2000/svg">
<path fill-rule="evenodd" clip-rule="evenodd" d="M133.4 24C125.18 12.33 108.34 3.38007 95.49 9.69007C84.1 15.2701 76.8299 27.5301 64.3399 31.0501C49.9099 35.1101 30.7999 27.3 17.2699 36.62C2.55992 46.76 -5.73004 71.13 5.49996 88.62C19.37 110.23 37 96.1501 51.5 106.55C65.15 116.33 69.8499 143.17 89.6999 139.48C108.09 136.06 109.87 108.04 118.97 93.14C126.09 81.49 135.79 85.97 144.78 79.65C159.21 69.55 141.62 35.67 133.4 24Z" fill="#D5FFE5"/>
<path fill-rule="evenodd" clip-rule="evenodd" d="M122.71 58.03C122.71 37.72 101.63 11.5801 80.6399 11.5801H60.6399C60.6399 11.5801 40.6399 41.34 40.6399 58.03V127.09H109.75C113.177 127.09 116.463 125.729 118.886 123.306C121.309 120.883 122.67 117.597 122.67 114.17L122.71 58.03Z" fill="#75768A"/>
<path fill-rule="evenodd" clip-rule="evenodd" d="M103.56 58.03C103.56 37.72 82.49 11.5801 61.5 11.5801C40.51 11.5801 21.5 34.06 21.5 58.03V118.62C21.5027 120.867 22.3972 123.022 23.9872 124.61C25.5773 126.198 27.7327 127.09 29.98 127.09H103.53L103.56 58.03Z" fill="#279FF2"/>
<path fill-rule="evenodd" clip-rule="evenodd" d="M85.27 43.99C78.69 37.42 44.37 37.42 37.8 43.99C34.23 47.57 35.67 56.78 36.8 61.99C37.0606 63.0263 37.6657 63.9432 38.5162 64.5901C39.3666 65.237 40.4118 65.5755 41.48 65.5501H81.69C82.7533 65.548 83.7847 65.1862 84.6163 64.5234C85.4478 63.8607 86.0307 62.9361 86.27 61.9C87.39 56.78 88.84 47.55 85.27 43.99Z" fill="#75768A"/>
<path fill-rule="evenodd" clip-rule="evenodd" d="M85.2699 79.55C78.6899 72.97 44.3699 72.97 37.7999 79.55C33.6999 83.65 36.2099 112.01 37.3399 122.85C37.4632 124.003 38.0083 125.069 38.8704 125.845C39.7324 126.62 40.8506 127.049 42.01 127.05H81.0599C82.2193 127.049 83.3374 126.62 84.1995 125.845C85.0615 125.069 85.6066 124.003 85.7299 122.85C86.8599 112.05 89.3699 83.69 85.2699 79.55Z" fill="#75768A"/>
<path fill-rule="evenodd" clip-rule="evenodd" d="M77.7299 43.99C71.1599 37.42 36.8399 37.42 30.2699 43.99C26.6999 47.57 28.14 56.78 29.32 61.99C29.5593 63.0261 30.1421 63.9507 30.9736 64.6134C31.8052 65.2761 32.8366 65.638 33.8999 65.64H74.1099C75.172 65.6375 76.202 65.2754 77.0319 64.6126C77.8618 63.9497 78.4427 63.0253 78.6799 61.99C79.8599 56.78 81.3099 47.55 77.7299 43.99Z" fill="#1E64A8"/>
<path fill-rule="evenodd" clip-rule="evenodd" d="M77.7299 79.4401C71.1599 72.8701 36.8399 72.8701 30.2699 79.4401C26.1599 83.5501 28.6799 112.02 29.8099 122.89C29.9333 124.043 30.4783 125.109 31.3403 125.885C32.2023 126.66 33.3205 127.089 34.4799 127.09H73.4799C74.6388 127.091 75.7569 126.662 76.6178 125.886C77.4786 125.111 78.021 124.043 78.1399 122.89C79.3199 112.02 81.8399 83.5501 77.7299 79.4401Z" fill="#1E64A8"/>
<path d="M122.65 75.5604L100.554 85.9109L102.827 90.7647L124.923 80.4142L122.65 75.5604Z" fill="#353648"/>
<path fill-rule="evenodd" clip-rule="evenodd" d="M52.8799 12.84C53.7399 12.52 56.3299 12.03 56.3599 12.02C57.8899 6.82997 68.5899 1.35994 75.6199 14.1199C76.9867 14.4634 78.4125 14.5008 79.7954 14.2294C81.1783 13.958 82.4843 13.3846 83.6199 12.55C81.4199 0.729995 58.5499 -6.71997 52.8799 12.84Z" fill="#353546"/>
<path fill-rule="evenodd" clip-rule="evenodd" d="M131.24 54.7101C130.519 52.8223 130.143 50.8206 130.13 48.8C129.91 45.88 130.39 44.13 131.39 43.04C132.527 42.028 133.948 41.3893 135.46 41.2101C137.93 40.6801 140.69 40.3201 142.86 38.7001C145.32 36.8701 145.63 33.7901 145.79 30.9801L144.12 30.88C143.98 33.21 143.9 35.8801 141.86 37.3501C139.82 38.8201 137.36 39.0901 135.11 39.5701C133.239 39.807 131.49 40.6255 130.11 41.91C128.89 43.24 128.11 45.35 128.42 48.91C128.435 51.1006 128.852 53.2699 129.65 55.3101L131.24 54.7101Z" fill="#279FF2"/>
<path fill-rule="evenodd" clip-rule="evenodd" d="M131.21 65.02C132.77 64.91 134.21 65.94 135.62 67.02C137.31 68.33 139.01 69.7801 140.79 70.3201L141.28 68.7201C139.28 68.1201 137.52 66.2701 135.65 64.9601C134.365 63.908 132.76 63.3258 131.1 63.3101L131.21 65.02Z" fill="#279FF2"/>
<path fill-rule="evenodd" clip-rule="evenodd" d="M0.47998 88.8601C1.62275 89.546 2.90358 89.9695 4.22998 90.1001C6.13873 90.2364 8.02651 89.631 9.5 88.41C12.65 85.93 12.61 83.04 11.79 80.01C11.08 77.39 9.68999 74.66 9.85999 72.01C9.96711 70.8775 10.5039 69.8291 11.36 69.0801C12.295 68.2051 13.2982 67.4059 14.36 66.6901L13.36 65.3301C12.2101 66.0953 11.1233 66.9514 10.11 67.89C8.96813 68.9275 8.25487 70.354 8.10999 71.89C7.92999 74.66 9.33998 77.59 10.11 80.39C10.76 82.78 10.88 85.08 8.39996 87.03C7.28856 87.9754 5.85694 88.4586 4.39996 88.38C3.24431 88.2568 2.13064 87.8777 1.13995 87.27L0.47998 88.8601Z" fill="#279FF2"/>
<path fill-rule="evenodd" clip-rule="evenodd" d="M15.3399 60.12C13.0623 60.5591 10.8598 61.3236 8.79993 62.39L9.48993 63.91C11.4104 62.9128 13.465 62.1988 15.5899 61.79L15.3399 60.12Z" fill="#279FF2"/>
<path fill-rule="evenodd" clip-rule="evenodd" d="M57.9698 134.41C62.8098 130.24 69.2398 128.56 75.3398 131.52C77.7598 132.69 80.0299 134.39 82.4099 135.76C84.866 137.347 87.7356 138.175 90.6599 138.14L90.5798 136.47C87.9764 136.483 85.427 135.728 83.2499 134.3C80.8299 132.91 78.5298 131.2 76.0798 130.01C69.3398 126.74 62.2199 128.53 56.8699 133.14L57.9698 134.41Z" fill="#279FF2"/>
<path fill-rule="evenodd" clip-rule="evenodd" d="M6.11987 24.9301C11.2999 27.9301 15.5798 32.06 20.4598 35.5L21.4598 34.13C16.5398 30.66 12.2199 26.56 6.99988 23.49L6.11987 24.9301Z" fill="#FFBA16"/>
<path fill-rule="evenodd" clip-rule="evenodd" d="M25.5499 30.9701C23.8357 29.2992 22.2354 27.5151 20.7599 25.63L19.4199 26.63C20.9357 28.5708 22.5793 30.4082 24.3399 32.13L25.5499 30.9701Z" fill="#FFBA16"/>
<path fill-rule="evenodd" clip-rule="evenodd" d="M126.19 126.92C129.6 129.41 133 131.92 136.19 134.65L137.28 133.36C134.02 130.61 130.59 128.08 127.16 125.57L126.19 126.92Z" fill="#FFBA16"/>
<path fill-rule="evenodd" clip-rule="evenodd" d="M129.48 125.55C131.12 126.12 132.74 126.75 134.4 127.24L134.88 125.64C133.25 125.15 131.65 124.52 130.04 123.96L129.48 125.55Z" fill="#FFBA16"/>
<path fill-rule="evenodd" clip-rule="evenodd" d="M3.60986 113.96C7.28986 111.08 11.2898 108.96 15.1498 106.37L14.2299 104.97C10.3299 107.56 6.28983 109.73 2.57983 112.63L3.60986 113.96Z" fill="#FFBA16"/>
<path fill-rule="evenodd" clip-rule="evenodd" d="M15.7799 97.25C13.0599 98.49 10.1899 99.4601 7.52991 100.82L8.28992 102.31C10.9299 100.97 13.7899 100.01 16.4799 98.78L15.7799 97.25Z" fill="#FFBA16"/>
<path fill-rule="evenodd" clip-rule="evenodd" d="M118.02 20.7101C119.53 18.4434 121.201 16.2878 123.02 14.26L121.79 13.1101C119.905 15.1957 118.174 17.4147 116.61 19.75L118.02 20.7101Z" fill="#FFBA16"/>
<path fill-rule="evenodd" clip-rule="evenodd" d="M121.22 23.87C122.06 23.11 122.9 22.33 123.72 21.54L122.56 20.3301C121.75 21.1101 120.92 21.87 120.09 22.63L121.22 23.87Z" fill="#FFBA16"/>
<path fill-rule="evenodd" clip-rule="evenodd" d="M131.31 59.3401C133.46 58.1901 134.11 56.2801 134.51 54.1801C134.84 52.4401 134.97 50.5701 136.09 49.0901L134.74 48.0901C133.47 49.7801 133.24 51.89 132.86 53.87C132.56 55.47 132.16 56.99 130.52 57.87L131.31 59.3401Z" fill="#A14DF6"/>
<path fill-rule="evenodd" clip-rule="evenodd" d="M5.58992 65.4C4.97029 65.9359 4.46698 66.593 4.11097 67.3308C3.75497 68.0686 3.5538 68.8716 3.51991 69.6901C3.44502 71.1524 3.44502 72.6177 3.51991 74.0801H5.1999C5.12488 72.6744 5.12488 71.2658 5.1999 69.8601C5.21581 69.2613 5.35248 68.6719 5.60164 68.1272C5.85079 67.5825 6.20732 67.0937 6.64991 66.6901L5.58992 65.4Z" fill="#A14DF6"/>
<path fill-rule="evenodd" clip-rule="evenodd" d="M74.72 136.65C76.8573 137.863 78.8329 139.342 80.6 141.05C82.5145 142.899 84.8964 144.192 87.49 144.79L87.8 143.14C85.4952 142.592 83.383 141.427 81.69 139.77C79.815 137.968 77.7181 136.412 75.45 135.14L74.72 136.65Z" fill="#A14DF6"/>
<path fill-rule="evenodd" clip-rule="evenodd" d="M137.33 94.7101C135.62 96.5601 134.04 98.51 132.41 100.42L133.69 101.51C135.31 99.61 136.87 97.6801 138.57 95.8501L137.33 94.7101Z" fill="#F56C2C"/>
<path fill-rule="evenodd" clip-rule="evenodd" d="M132.42 96.4801C133.892 97.6644 135.258 98.976 136.5 100.4L137.68 99.2101C136.367 97.7121 134.921 96.3365 133.36 95.1001L132.42 96.4801Z" fill="#F56C2C"/>
<path fill-rule="evenodd" clip-rule="evenodd" d="M134.56 94.3201C134.56 96.4001 134.49 98.48 134.46 100.55H136.14C136.14 98.46 136.25 96.37 136.24 94.29L134.56 94.3201Z" fill="#F56C2C"/>
<path fill-rule="evenodd" clip-rule="evenodd" d="M30.14 7.3501C27.98 9.7701 25.9 12.2601 23.95 14.8601L25.29 15.8601C27.21 13.3001 29.29 10.8601 31.39 8.46008L30.14 7.3501Z" fill="#F56C2C"/>
<path fill-rule="evenodd" clip-rule="evenodd" d="M24.5599 10.04C26.3299 11.4 28.0799 12.84 29.9599 14.04L30.8599 12.6101C29.0099 11.4501 27.3099 10.0401 25.5899 8.71008L24.5599 10.04Z" fill="#F56C2C"/>
<path fill-rule="evenodd" clip-rule="evenodd" d="M27.48 93.55C27.5733 101.955 28.0973 110.349 29.05 118.7C29.1145 120.539 29.3726 122.365 29.82 124.15C30.1867 125.475 31.017 126.625 32.16 127.39C33.1839 127.985 34.3571 128.273 35.54 128.22C36.54 128.22 37.66 128.08 38.64 128.06C42.71 127.96 46.78 128.06 50.84 128.16V126.48C46.75 126.4 42.66 126.28 38.58 126.38C37.58 126.38 36.58 126.55 35.51 126.54C34.6457 126.593 33.7846 126.395 33.03 125.97C32.5272 125.599 32.1042 125.131 31.7864 124.593C31.4685 124.056 31.2623 123.459 31.18 122.84C30.933 121.414 30.7694 119.975 30.69 118.53C29.7454 110.229 29.2247 101.884 29.13 93.53L27.48 93.55Z" fill="black"/>
<path fill-rule="evenodd" clip-rule="evenodd" d="M29.82 125.81C28.795 125.782 27.7815 125.586 26.82 125.23C23.71 123.67 22.74 120.56 22.49 117.23C22.23 113.6 22.8 109.67 22.82 106.79C22.87 91.99 22.25 77.1501 22.82 62.3601C23.01 57.6001 22.39 52.73 23.19 47.99L21.54 47.7101C20.72 52.5201 21.3399 57.46 21.1399 62.3C20.5499 77.1 21.1399 91.97 21.1399 106.78C21.1399 110.31 20.2999 115.37 21.1399 119.6C21.7199 122.6 23.1399 125.27 26.1399 126.76C27.2833 127.206 28.4936 127.456 29.72 127.5L29.82 125.81Z" fill="black"/>
<path fill-rule="evenodd" clip-rule="evenodd" d="M39.9999 39.55C37.9059 40.0109 35.8394 40.5884 33.8099 41.28C32.4002 41.7762 31.1142 42.5711 30.0399 43.6101C28.543 45.2808 27.609 47.3797 27.3699 49.6101C27.0313 52.8373 27.2068 56.0978 27.8899 59.27C28.2999 61.46 28.8899 64.1401 30.7699 65.6101C31.9981 66.4718 33.4596 66.9391 34.9599 66.9501C37.0506 66.9585 39.1402 66.855 41.2199 66.64C46.4699 66.44 51.8099 66.2901 57.0599 66.4301C60.4199 66.5201 63.7599 66.8201 67.1299 66.6001C68.6799 66.5001 71.2399 66.8601 73.4899 66.7201C75.035 66.7407 76.5374 66.2128 77.7299 65.2301C79.1699 63.8101 79.5899 61.7301 79.8599 59.8101C80.3699 56.2801 79.7999 52.81 79.7499 49.29H78.0799C78.0799 52.74 78.6999 56.1101 78.1999 59.5601C77.9799 61.1201 77.7299 62.86 76.5499 64.02C75.6432 64.7073 74.5269 65.0605 73.3899 65.02C71.1299 65.16 68.5699 64.8 67.0299 64.9C63.6999 65.12 60.4099 64.8101 57.1099 64.7201C51.8199 64.5801 46.4399 64.7201 41.1099 64.9401C39.0832 65.1461 37.0471 65.2462 35.0099 65.24C33.853 65.2462 32.722 64.8972 31.7699 64.24C30.2199 63.01 29.8299 60.72 29.4899 58.9C28.8403 55.9127 28.6682 52.8413 28.9799 49.8C29.1755 47.9205 29.9514 46.1486 31.1999 44.7301C32.1056 43.8688 33.1871 43.2138 34.3699 42.8101C36.337 42.1385 38.3401 41.5776 40.3699 41.13L39.9999 39.55Z" fill="black"/>
<path fill-rule="evenodd" clip-rule="evenodd" d="M81.7399 66.3301C85.0399 65.9001 86.8099 63.7901 87.7399 60.9801C88.9399 57.1401 88.3799 51.98 88.0399 48.63L86.3699 48.8C86.6899 51.94 87.2698 56.8001 86.1398 60.4801C85.4598 62.6501 84.1398 64.34 81.5798 64.67L81.7399 66.3301Z" fill="black"/>
<path fill-rule="evenodd" clip-rule="evenodd" d="M59.5499 75.4801C63.8599 76.3501 68.8299 75.9301 72.9099 77.7301C77.3199 79.6701 78.9599 83.73 79.2199 88.29C79.5699 94.06 78.9299 99.79 79.1499 105.55L80.8199 105.49C80.6099 99.71 81.2399 93.9701 80.8999 88.1901C80.5999 82.9901 78.6299 78.4101 73.5899 76.1901C69.3999 74.3501 64.3099 74.7201 59.8799 73.8401L59.5499 75.4801Z" fill="black"/>
<path fill-rule="evenodd" clip-rule="evenodd" d="M82.48 11.88C82.27 11.98 81.64 12.2701 81.48 12.3201C79.6011 12.9078 77.6624 13.2835 75.7 13.4401L75.83 15.12C77.9185 14.9522 79.9815 14.5497 81.98 13.92C82.5068 13.7668 83.0111 13.5449 83.48 13.26C83.6471 13.1552 83.7916 13.0181 83.9049 12.8567C84.0182 12.6953 84.0981 12.5128 84.14 12.3201C84.1709 11.4561 84.0294 10.5947 83.7238 9.78601C83.4181 8.97734 82.9546 8.23767 82.36 7.61011C80.7638 5.69684 78.8322 4.09047 76.66 2.87L75.89 4.36011C77.858 5.47067 79.6067 6.93123 81.05 8.67004C81.8948 9.53485 82.4021 10.6735 82.48 11.88Z" fill="black"/>
</svg>
