<svg width="132" height="142" viewBox="0 0 132 142" fill="none" xmlns="http://www.w3.org/2000/svg">
<path fill-rule="evenodd" clip-rule="evenodd" d="M37.7799 26.72C30.6341 33.2571 24.2927 40.6223 18.8899 48.66C10.3799 61.66 4.06993 77.06 3.48993 92.71C3.14993 101.98 4.89991 114.2 14.0299 119.09C26.3799 125.71 37.1399 106.09 49.4799 111.44C62.0699 116.94 60.0899 138.84 75.3599 140.86C77.5115 141.113 79.6912 140.967 81.7899 140.43C85.1328 139.585 88.3624 138.343 91.4099 136.73C102.8 130.89 109.32 120.25 115.97 109.73C119.83 103.63 123.5 97.19 125.62 90.25C127.68 83.51 130.23 74.04 124.3 68.47C118.75 63.26 109.64 66.06 103 66C99.1899 66 95.0699 64.8 93.5899 60.89C92.1999 57.21 93.0199 52.89 94.1199 49.3C95.0499 46.21 96.2999 43.21 97.3399 40.15C100.9 29.65 106.03 11.63 92.6899 5.31003C90.6951 4.39299 88.5429 3.86681 86.3499 3.76001C83.011 3.67313 79.6745 4.00913 76.4199 4.76001C71.9298 5.72683 67.5813 7.26257 63.4799 9.33002C57.6899 12.11 45.2199 20.17 37.7799 26.72Z" fill="#E4F0FF"/>
<path fill-rule="evenodd" clip-rule="evenodd" d="M62 92.03C62 93.34 62 94.63 62 95.82C62 102.75 61.5799 109.97 62.2199 116.87L63.8999 116.71C63.2599 109.86 63.7 102.71 63.68 95.82C63.68 94.61 63.68 93.3 63.68 91.98C65.41 91.87 67.15 91.59 68.86 91.32C68.98 92.85 69.1599 94.32 69.2199 95.79C69.5299 102.22 70.02 108.67 70.13 115.1H71.81C71.7 108.65 71.2099 102.17 70.8999 95.73C70.8299 94.25 70.62 92.67 70.5 91.09L70.88 91.03C72.0642 90.9221 73.2338 90.6909 74.37 90.34C75.0538 90.1429 75.6681 89.7568 76.1422 89.2261C76.6163 88.6954 76.9309 88.0416 77.05 87.34C77.2062 86.3143 76.9754 85.2672 76.4024 84.4022C75.8295 83.5372 74.9553 82.9162 73.9499 82.66C73.3845 82.4767 72.7845 82.4265 72.1964 82.5132C71.6084 82.5999 71.0484 82.8213 70.56 83.16C69.8327 83.7152 69.3231 84.5079 69.12 85.4C68.8072 86.7835 68.6861 88.2035 68.76 89.62C67.07 89.89 65.35 90.18 63.63 90.29C63.6021 88.37 63.299 86.4639 62.73 84.63C62.4367 83.6403 61.798 82.7886 60.93 82.23C60.3124 81.8866 59.6119 81.7208 58.906 81.7508C58.2 81.7808 57.5161 82.0055 56.93 82.4C55.9678 82.9496 55.2063 83.7922 54.7566 84.805C54.3069 85.8177 54.1924 86.9477 54.43 88.03C55.02 90.28 57.22 91.42 59.31 91.78C60.1984 91.9362 61.098 92.0198 62 92.03ZM62 90.35C61.9686 88.6027 61.6891 86.8687 61.17 85.2C61.0039 84.5856 60.6246 84.0503 60.0999 83.69C59.7455 83.5155 59.3507 83.4393 58.9568 83.4692C58.5628 83.4991 58.184 83.634 57.86 83.86C57.207 84.221 56.6873 84.7823 56.3777 85.4611C56.068 86.1399 55.9846 86.9002 56.1399 87.63C56.5499 89.21 58.2 89.89 59.68 90.15C60.4337 90.2749 61.1959 90.3418 61.9599 90.35H62ZM70.44 89.35H70.67C71.7357 89.2612 72.7885 89.0567 73.81 88.74C74.207 88.6422 74.5685 88.4346 74.8532 88.1411C75.1379 87.8475 75.3343 87.4799 75.42 87.08C75.506 86.4592 75.3567 85.8287 75.0014 85.3124C74.6461 84.7961 74.1106 84.4314 73.5 84.29C73.2213 84.1781 72.9211 84.1305 72.6215 84.1505C72.3219 84.1705 72.0307 84.2577 71.7694 84.4056C71.5082 84.5535 71.2836 84.7584 71.1123 85.005C70.941 85.2515 70.8274 85.5335 70.7799 85.83C70.5002 86.9953 70.3725 88.1919 70.3999 89.39L70.44 89.35Z" fill="black"/>
<path fill-rule="evenodd" clip-rule="evenodd" d="M55.96 104.91C55.9586 103.321 55.5095 101.764 54.6641 100.418C53.8187 99.072 52.6112 97.9914 51.1801 97.3C43.2892 93.5265 36.9152 87.1829 33.104 79.3101C29.2928 71.4373 28.2707 62.5029 30.2054 53.9728C32.1401 45.4427 36.9167 37.8235 43.7515 32.3653C50.5862 26.9071 59.0733 23.9341 67.8201 23.9341C76.5668 23.9341 85.0538 26.9071 91.8886 32.3653C98.7234 37.8235 103.5 45.4427 105.435 53.9728C107.369 62.5029 106.347 71.4373 102.536 79.3101C98.7249 87.1829 92.3509 93.5265 84.46 97.3C83.0289 97.9914 81.8214 99.072 80.976 100.418C80.1306 101.764 79.6815 103.321 79.6801 104.91V117.73C72.1801 121.94 64.26 121.73 55.96 117.73V104.91Z" fill="#279FF2" fill-opacity="0.21"/>
<path fill-rule="evenodd" clip-rule="evenodd" d="M79.95 108.6C71.946 110.425 63.634 110.425 55.63 108.6V119.93C55.6334 121.025 55.9962 122.089 56.6628 122.958C57.3295 123.827 58.263 124.453 59.32 124.74C64.8826 126.276 70.7574 126.276 76.32 124.74C77.3663 124.447 78.2884 123.82 78.947 122.956C79.6056 122.092 79.9647 121.037 79.97 119.95C79.95 115.55 79.95 108.6 79.95 108.6Z" fill="#5E6371"/>
<path fill-rule="evenodd" clip-rule="evenodd" d="M92.48 100.74C92.6462 99.9252 93.0053 99.1622 93.5273 98.515C94.0493 97.8677 94.7189 97.355 95.48 97.02C97.58 96.22 100.22 97.02 102.29 99.02C104.21 100.85 106.29 104.4 108.86 106.43C110.86 107.97 113.01 108.68 115.55 107.56C116.622 107.064 117.629 106.439 118.55 105.7C119.617 104.888 120.62 103.996 121.55 103.03L120.32 101.88C119.453 102.789 118.513 103.625 117.51 104.38C116.693 105.037 115.795 105.588 114.84 106.02C112.41 107.09 110.44 105.83 108.7 104.02C106.7 102.02 105 99.28 103.41 97.76C100.81 95.28 97.41 94.4 94.84 95.42C93.8336 95.8435 92.9444 96.5038 92.248 97.3447C91.5516 98.1857 91.0685 99.1823 90.84 100.25L92.48 100.74Z" fill="#FFBA16"/>
<path fill-rule="evenodd" clip-rule="evenodd" d="M105.1 90.27C110.46 91.7 114.3 91.43 118.3 87.21L117.07 86.05C113.59 89.74 110.21 89.9 105.54 88.65L105.1 90.27Z" fill="#FFBA16"/>
<path fill-rule="evenodd" clip-rule="evenodd" d="M27.26 73.23C25 70.92 22.38 68.51 18.85 68.78C17.5959 68.9354 16.3762 69.2969 15.24 69.85C13.45 70.64 11.5199 71.72 9.63994 72.45C7.97994 73.1 6.36999 73.5 4.99999 72.97C3.99377 72.5077 3.20288 71.6775 2.78997 70.65C2.39851 69.8334 2.14184 68.9587 2.02996 68.06C1.70839 66.3244 1.76981 64.5394 2.20995 62.83L0.589953 62.36C0.0914505 64.2945 0.0164375 66.3138 0.369982 68.28C0.496415 69.3604 0.804031 70.4118 1.27996 71.39C1.87935 72.7942 2.99152 73.9172 4.38994 74.53C6.11994 75.2 8.14999 74.83 10.25 74.01C12.14 73.27 14.1 72.18 15.91 71.38C16.8766 70.9068 17.9133 70.5928 18.98 70.45C21.98 70.22 24.13 72.45 26.06 74.45L27.26 73.23Z" fill="#FFBA16"/>
<path fill-rule="evenodd" clip-rule="evenodd" d="M10.34 57.62C11.1066 58.637 12.0718 59.4876 13.1771 60.1202C14.2824 60.7528 15.5048 61.1542 16.77 61.3C17.8852 61.38 19.0048 61.38 20.12 61.3C21.0612 61.2306 22.0052 61.3919 22.87 61.77C24.1031 62.4185 25.1029 63.4359 25.73 64.68C26.48 66 27.01 67.47 27.73 68.85L29.24 68.11C28.55 66.71 28 65.2 27.24 63.86C26.4466 62.3195 25.1961 61.062 23.66 60.26C22.5563 59.7631 21.3479 59.5434 20.14 59.62C19.1045 59.69 18.0655 59.69 17.03 59.62C15.9686 59.4916 14.9444 59.1488 14.0196 58.6124C13.0948 58.0761 12.2886 57.3574 11.65 56.5L10.34 57.62Z" fill="#FFBA16"/>
<path fill-rule="evenodd" clip-rule="evenodd" d="M67.54 23.22C67.3894 22.2672 67.4294 21.294 67.6577 20.3567C67.886 19.4195 68.2981 18.5368 68.87 17.76C70.0291 16.4801 71.5554 15.5895 73.24 15.21C77.1 14.1 81.96 14.21 85.51 13.76C89.93 13.17 94.26 10.92 93.26 5.76001L91.62 6.07001C92.4 10.14 88.75 11.66 85.29 12.13C81.67 12.61 76.71 12.5 72.78 13.62C70.7631 14.0921 68.9427 15.1788 67.57 16.73C66.8565 17.6724 66.3386 18.748 66.0466 19.8934C65.7547 21.0388 65.6946 22.2311 65.87 23.4L67.54 23.22Z" fill="#FFBA16"/>
<path fill-rule="evenodd" clip-rule="evenodd" d="M81.87 7.55002C87.15 7.98002 88.45 5.15003 90.94 1.00003L89.5 0.130005C87.4 3.64 86.5 6.24001 82.01 5.88L81.87 7.55002Z" fill="#FFBA16"/>
<path fill-rule="evenodd" clip-rule="evenodd" d="M30.48 90.72C28.19 93.01 25.48 94.72 23.03 96.81L24.1301 98.08C26.5901 95.93 29.35 94.23 31.67 91.91L30.48 90.72Z" fill="#A14DF6"/>
<path fill-rule="evenodd" clip-rule="evenodd" d="M28.23 43.32C26.1464 41.9428 24.2184 40.3434 22.48 38.55L21.28 39.72C23.0856 41.607 25.0983 43.2843 27.28 44.72L28.23 43.32Z" fill="#A14DF6"/>
<path fill-rule="evenodd" clip-rule="evenodd" d="M106.78 36.47C108.974 35.6663 111.106 34.7038 113.16 33.59L112.39 32.1C110.405 33.1737 108.346 34.106 106.23 34.89L106.78 36.47Z" fill="#A14DF6"/>
<path fill-rule="evenodd" clip-rule="evenodd" d="M31.62 36.18C26.86 31.49 22.25 26.64 17.86 21.6L16.6 22.7C21.01 27.77 25.6 32.7 30.44 37.37L31.62 36.18Z" fill="#A14DF6"/>
<path fill-rule="evenodd" clip-rule="evenodd" d="M111.19 75.63C114.541 76.0266 117.859 76.6615 121.12 77.53L121.54 75.91C118.207 75.0192 114.815 74.3675 111.39 73.96L111.19 75.63Z" fill="#A14DF6"/>
<path fill-rule="evenodd" clip-rule="evenodd" d="M124.48 45.85C122.915 48.9507 121.617 52.179 120.6 55.5L122.21 55.98C123.194 52.7537 124.455 49.6186 125.98 46.61L124.48 45.85Z" fill="#F56C2C"/>
<path fill-rule="evenodd" clip-rule="evenodd" d="M117.67 47.46C122.22 49.59 126.86 53.07 130.97 56.04L131.97 54.68C127.79 51.68 123.04 48.11 118.4 45.94L117.67 47.46Z" fill="#F56C2C"/>
<path fill-rule="evenodd" clip-rule="evenodd" d="M121.88 45.41C122.95 48.7 124.06 51.93 125.44 55.1L126.98 54.43C125.62 51.31 124.53 48.13 123.48 44.89L121.88 45.41Z" fill="#F56C2C"/>
<path fill-rule="evenodd" clip-rule="evenodd" d="M5.76001 87.76C5.7617 92.1814 5.46771 96.5979 4.88 100.98L6.54999 101.21C7.16439 96.7495 7.4751 92.2526 7.47998 87.75L5.76001 87.76Z" fill="#F56C2C"/>
<path fill-rule="evenodd" clip-rule="evenodd" d="M1.47998 91.71C5.12998 92.71 8.14999 94.98 11.61 96.44L12.26 94.89C8.74001 93.41 5.64999 91.12 1.92999 90.09L1.47998 91.71Z" fill="#F56C2C"/>
</svg>
