<svg width="595" height="842" viewBox="0 0 595 842" fill="none" xmlns="http://www.w3.org/2000/svg">
<g clip-path="url(#clip0_1_777)">
<rect width="595" height="842" fill="#E2A2A3"/>
<path fill-rule="evenodd" clip-rule="evenodd" d="M251.225 302C249.144 316.589 248 332.497 248 349.15C248 419.732 268.554 476.95 293.909 476.95C319.264 476.95 339.818 419.732 339.818 349.15C339.818 332.497 338.674 316.589 336.592 302H251.225Z" fill="#E3B03B"/>
<rect x="290.187" y="476.95" width="6.20389" height="124.078" fill="#E3B03B"/>
<ellipse cx="293.909" cy="602.889" rx="35.9826" ry="1.86117" fill="#E3B03B"/>
<g filter="url(#filter0_d_1_777)">
<path fill-rule="evenodd" clip-rule="evenodd" d="M610.4 0H555.6V25.9545L561.08 25.9545V115.377L466.21 315.189C463.059 321.824 467.898 329.478 475.243 329.478H475.792L470.806 415.272H694.116L688.91 329.44C695.747 328.85 700.071 321.551 697.05 315.189L604.92 121.148V25.9545L610.4 25.9545V0ZM446 842.08L453.375 715.191H712.305L720 842.08H446ZM540.48 631.714L540.192 620.866C537.184 621.314 534.304 621.666 531.552 621.922C528.8 622.114 526.08 622.21 523.392 622.21C520.768 622.21 518.592 621.89 516.864 621.25C515.136 620.546 513.76 619.426 512.736 617.89C511.776 616.29 511.104 614.21 510.72 611.65C510.336 609.09 510.144 605.922 510.144 602.146C510.144 598.306 510.24 595.074 510.432 592.45C510.688 589.826 511.04 587.714 511.488 586.114C511.936 584.578 512.448 583.298 513.024 582.274C513.664 581.186 514.464 580.354 515.424 579.778C516.448 579.138 517.664 578.69 519.072 578.434C520.544 578.178 522.336 578.05 524.448 578.05C528.608 578.05 533.856 578.53 540.192 579.49L540.576 568.93C533.408 567.202 527.04 566.338 521.472 566.338C516.672 566.338 512.672 566.914 509.472 568.066C506.272 569.218 503.712 571.138 501.792 573.826C499.872 576.45 498.496 579.906 497.664 584.194C496.896 588.482 496.512 593.794 496.512 600.13C496.512 606.146 496.864 611.138 497.568 615.106C498.272 619.074 499.552 622.53 501.408 625.474C503.264 628.418 505.824 630.562 509.088 631.906C512.352 633.25 516.704 633.922 522.144 633.922C524.896 633.922 527.776 633.73 530.784 633.346C533.792 632.962 537.024 632.418 540.48 631.714ZM588.765 567.49H602.013V632.77H588.765V605.698H564.477V632.77H551.229V567.49H564.477V594.178H588.765V567.49ZM626.566 620.962L623.974 632.77H610.726L625.414 567.49H650.566L665.254 632.77H652.006L649.414 620.962H626.566ZM646.918 609.442L640.294 578.434H635.686L629.062 609.442H646.918ZM687.196 582.274V632.77H673.948V567.49H696.508L708.028 615.106L719.548 567.49H742.108V632.77H728.86V582.274H727.42L714.652 629.89H701.404L688.636 582.274H687.196ZM769.602 613.762H780.354C788.034 613.762 793.826 611.746 797.73 607.714C801.634 603.682 803.586 597.826 803.586 590.146C803.586 575.042 795.842 567.49 780.354 567.49H756.354V632.77H769.602V613.762ZM769.602 602.434V578.818H780.258C783.714 578.818 786.21 579.714 787.746 581.506C789.346 583.234 790.146 586.114 790.146 590.146C790.146 598.338 786.85 602.434 780.258 602.434H769.602ZM823.253 620.962L820.661 632.77H807.413L822.101 567.49H847.253L861.941 632.77H848.693L846.101 620.962H823.253ZM843.605 609.442L836.981 578.434H832.373L825.749 609.442H843.605ZM897.803 609.346H903.755V622.018L895.787 622.402C892.907 622.402 890.539 622.05 888.683 621.346C886.827 620.642 885.355 619.49 884.267 617.89C883.243 616.29 882.507 614.21 882.059 611.65C881.675 609.026 881.483 605.826 881.483 602.05C881.483 594.562 881.963 589.25 882.923 586.114C883.371 584.578 883.915 583.298 884.555 582.274C885.259 581.25 886.155 580.418 887.243 579.778C888.395 579.138 889.803 578.69 891.467 578.434C893.131 578.178 895.179 578.05 897.611 578.05C900.043 578.05 902.827 578.146 905.963 578.338C909.099 578.53 912.587 578.85 916.427 579.298L916.811 569.026L913.355 568.354C906.443 567.01 900.011 566.338 894.059 566.338C889.259 566.338 885.195 566.978 881.867 568.258C878.539 569.538 875.819 571.522 873.707 574.21C871.659 576.898 870.155 580.354 869.195 584.578C868.299 588.802 867.851 593.89 867.851 599.842C867.851 605.794 868.267 610.914 869.099 615.202C869.995 619.49 871.467 623.042 873.515 625.858C875.627 628.61 878.379 630.658 881.771 632.002C885.227 633.282 889.483 633.922 894.539 633.922C897.419 633.922 900.683 633.73 904.331 633.346C908.043 632.962 912.203 632.418 916.811 631.714V597.826H897.803V609.346ZM942.571 579.01V632.77H929.323V567.49H951.691L967.435 621.25H968.395V567.49H981.643V632.77H959.851L943.531 579.01H942.571ZM1038.13 621.25V632.77H995.885V567.49H1038.13V579.01H1009.13V594.274H1032.37V605.602H1009.13V621.25H1038.13Z" fill="#DEC19E"/>
</g>
<g filter="url(#filter1_d_1_777)">
<path fill-rule="evenodd" clip-rule="evenodd" d="M-136.758 207.375C-206.287 241.494 -254 311.801 -254 392.993V826.491C-254 843.059 -240.569 856.491 -224 856.491H141C157.569 856.491 171 843.059 171 826.491V392.993C171 311.801 123.287 241.494 53.7576 207.375C42.5335 201.867 34.6793 190.855 34.6793 178.352V170.623C34.6793 156.009 45.8319 144.143 58.0735 136.161C74.5877 125.393 85.4654 107.023 85.4654 86.1713V60.0588C85.4654 26.8892 57.9408 0 23.9874 0H-101.642C-135.595 0 -163.119 26.8892 -163.119 60.0588V86.1713C-163.119 105.859 -153.423 123.334 -138.44 134.287C-127.44 142.329 -117.679 153.663 -117.679 167.29V178.352C-117.679 190.855 -125.533 201.867 -136.758 207.375ZM-102.62 110.269C-89.4421 113.738 -80.2579 125.653 -80.2579 139.28V203.471C-80.2579 215.974 -88.0119 227.166 -99.7175 231.559L-104.26 233.263C-170.012 257.938 -216.579 320.198 -216.579 392.993C-216.579 396.599 -213.656 399.522 -210.05 399.522H127.05C130.656 399.522 133.579 396.599 133.579 392.993C133.579 320.198 87.0118 257.938 21.2603 233.263L16.7175 231.559C5.01187 227.166 -2.74214 215.974 -2.74214 203.471V139.918C-2.74214 125.304 7.78815 112.817 22.1922 110.349L28.2156 109.317C39.4814 107.387 48.044 97.7189 48.044 86.1713V60.0588C48.044 47.0794 37.2735 36.5575 23.9874 36.5575H-101.642C-114.928 36.5575 -125.698 47.0794 -125.698 60.0588V86.1713C-125.698 96.9783 -118.198 106.168 -107.942 108.868L-102.62 110.269ZM-97.1957 462.436H-89.2597V479.332L-99.8837 479.844C-103.724 479.844 -106.881 479.375 -109.356 478.436C-111.83 477.498 -113.793 475.962 -115.244 473.828C-116.609 471.695 -117.59 468.922 -118.188 465.508C-118.7 462.01 -118.956 457.743 -118.956 452.708C-118.956 442.724 -118.316 435.642 -117.036 431.46C-116.438 429.412 -115.713 427.706 -114.86 426.34C-113.921 424.975 -112.726 423.866 -111.276 423.012C-109.74 422.159 -107.862 421.562 -105.644 421.22C-103.425 420.879 -100.694 420.708 -97.4517 420.708C-94.209 420.708 -90.497 420.836 -86.3157 421.092C-82.1344 421.348 -77.4837 421.775 -72.3637 422.372L-71.8517 408.676L-76.4597 407.78C-85.6757 405.988 -94.2517 405.092 -102.188 405.092C-108.588 405.092 -114.006 405.946 -118.444 407.652C-122.881 409.359 -126.508 412.004 -129.324 415.588C-132.054 419.172 -134.06 423.78 -135.34 429.412C-136.534 435.044 -137.132 441.828 -137.132 449.764C-137.132 457.7 -136.577 464.527 -135.468 470.244C-134.273 475.962 -132.31 480.698 -129.58 484.452C-126.764 488.122 -123.094 490.852 -118.572 492.644C-113.964 494.351 -108.289 495.204 -101.548 495.204C-97.7077 495.204 -93.3557 494.948 -88.4917 494.436C-83.5424 493.924 -77.9957 493.199 -71.8517 492.26V447.076H-97.1957V462.436ZM-37.5057 406.628V493.668H-55.1697V406.628H-37.5057ZM-0.880692 421.988V493.668H-18.5447V406.628H11.2793L32.2713 478.308H33.5513V406.628H51.2153V493.668H22.1593L0.399307 421.988H-0.880692Z" fill="#F5EBAD"/>
</g>
<g filter="url(#filter2_d_1_777)">
<path fill-rule="evenodd" clip-rule="evenodd" d="M374.903 722.263C399.16 688.706 443.008 680.804 476.003 702.744L444.434 721.682C444.434 721.682 465.653 730.586 470.703 743.328C476.249 757.322 464.568 781.682 464.568 781.682L469.156 776.674L459.691 789.768C464.17 776.215 463.92 763.296 455.858 757.423C446.672 744.446 421.981 747.84 400.71 765.006C394.274 770.199 388.889 776.059 384.762 782.065L359.609 761.337C361.334 747.556 366.375 734.061 374.903 722.263ZM505.608 739.018L504.496 738.102L504.988 737.565C505.199 738.047 505.406 738.532 505.608 739.018Z" fill="#C5B49B"/>
<path fill-rule="evenodd" clip-rule="evenodd" d="M225.086 720.626C200.83 687.069 156.981 679.167 123.987 701.107L155.555 720.045C155.555 720.045 134.336 728.95 129.287 741.692C123.741 755.685 135.422 780.045 135.422 780.045L130.835 775.039L140.299 788.131C135.82 774.578 136.07 761.659 144.131 755.787C153.318 742.809 178.009 746.204 199.279 763.369C205.715 768.563 211.1 774.422 215.227 780.428L240.38 759.7C238.656 745.92 233.614 732.424 225.086 720.626ZM94.3813 737.382L95.4936 736.465L95.0011 735.928C94.7899 736.411 94.5833 736.896 94.3813 737.382Z" fill="#C5B49B"/>
<path d="M171.445 649.392C171.445 649.392 194.312 660.818 207.194 671.038C219.038 680.435 217.92 684.385 224.819 701.312C231.719 718.239 220.988 734.858 220.988 734.858C220.988 734.858 211.548 736.571 201.83 725.04C191.249 712.485 191.261 705.723 188.803 689.039C186.315 672.156 171.445 649.392 171.445 649.392Z" fill="#C5B49B"/>
<path d="M367.62 652.665C367.62 652.665 390.486 664.091 403.369 674.311C415.213 683.708 414.095 687.658 420.994 704.585C427.894 721.512 417.163 738.131 417.163 738.131C417.163 738.131 407.723 739.844 398.005 728.313C387.424 715.758 387.436 708.996 384.978 692.312C382.49 675.429 367.62 652.665 367.62 652.665Z" fill="#C5B49B"/>
<path fill-rule="evenodd" clip-rule="evenodd" d="M276.479 651.646C263.596 641.426 240.73 630 240.73 630C240.73 630 255.599 652.763 258.087 669.647C258.33 671.295 258.549 672.847 258.756 674.316C260.647 687.724 261.579 694.333 271.115 705.648C271.909 706.59 272.701 707.443 273.486 708.217C273.318 710.428 273.232 712.665 273.232 714.923C273.232 729.826 276.964 743.798 283.484 755.833H315.258C315.088 748.386 315.998 740.234 318.121 731.924C325.138 704.459 342.741 685.665 357.44 689.945C367.182 689.335 374.772 699.399 378.982 713.049V696.515L378.216 703.468C378.216 703.468 373.524 676.563 361.126 669.103C349.837 662.31 327.944 669.103 327.944 669.103L342.098 633.517C320.021 635.889 300.71 648.266 288.2 666.336C285.931 660.822 283.451 657.178 276.479 651.646ZM384.888 642.921H386.291C385.853 642.668 385.413 642.419 384.97 642.175L384.888 642.921Z" fill="#C5B49B"/>
<path d="M351.787 772.99C353.081 771.2 355.512 770.887 357.217 772.292L375.309 787.201C377.014 788.606 377.347 791.196 376.053 792.986L362.011 812.412C360.717 814.202 358.286 814.515 356.581 813.11L338.489 798.201C336.784 796.796 336.451 794.206 337.746 792.416L351.787 772.99Z" fill="#C5B49B"/>
<path d="M327.44 806.672C328.735 804.881 331.166 804.569 332.871 805.974L350.963 820.882C352.667 822.287 353 824.878 351.706 826.668L337.665 846.093C336.37 847.884 333.939 848.196 332.234 846.791L314.143 831.883C312.438 830.478 312.105 827.888 313.399 826.097L327.44 806.672Z" fill="#C5B49B"/>
<path d="M303.093 840.353C304.387 838.563 306.819 838.25 308.523 839.655L326.615 854.564C328.32 855.969 328.653 858.559 327.359 860.35L313.317 879.775C312.023 881.565 309.592 881.878 307.887 880.473L289.795 865.564C288.091 864.159 287.758 861.569 289.052 859.779L303.093 840.353Z" fill="#C5B49B"/>
<path d="M248.203 771.354C246.909 769.563 244.478 769.251 242.773 770.656L224.681 785.565C222.976 786.969 222.643 789.56 223.937 791.35L237.979 810.775C239.273 812.566 241.704 812.878 243.409 811.473L261.501 796.565C263.206 795.16 263.539 792.57 262.245 790.779L248.203 771.354Z" fill="#C5B49B"/>
<path d="M272.55 805.035C271.256 803.245 268.824 802.933 267.12 804.338L249.028 819.246C247.323 820.651 246.99 823.241 248.284 825.032L262.326 844.457C263.62 846.248 266.051 846.56 267.756 845.155L285.848 830.246C287.553 828.842 287.885 826.251 286.591 824.461L272.55 805.035Z" fill="#C5B49B"/>
<path d="M296.896 838.717C295.602 836.927 293.171 836.614 291.466 838.019L273.374 852.928C271.669 854.333 271.336 856.923 272.63 858.713L286.672 878.139C287.966 879.929 290.397 880.241 292.102 878.837L310.194 863.928C311.899 862.523 312.232 859.933 310.938 858.142L296.896 838.717Z" fill="#C5B49B"/>
<path d="M285.176 766.548C285.176 764.339 286.967 762.548 289.176 762.548H311.829C314.038 762.548 315.829 764.339 315.829 766.548V791.276C315.829 793.486 314.038 795.276 311.829 795.276H289.176C286.967 795.276 285.176 793.486 285.176 791.276V766.548Z" fill="#C5B49B"/>
<path d="M285.176 809.095C285.176 806.886 286.967 805.095 289.176 805.095H311.828C314.037 805.095 315.828 806.886 315.828 809.095V833.823C315.828 836.032 314.037 837.823 311.828 837.823H289.176C286.967 837.823 285.176 836.032 285.176 833.823V809.095Z" fill="#C5B49B"/>
</g>
<path d="M141.18 107V83.96H164.412V72.44H141.18V53.24H169.596V41.72H127.932V107H141.18ZM204.948 85.112H192.18V107H178.932V41.72H204.276C219.636 41.72 227.316 48.888 227.316 63.224C227.316 71.736 224.116 78.008 217.716 82.04L227.028 107H212.532L204.948 85.112ZM192.18 73.784H204.468C207.604 73.784 209.94 72.824 211.476 70.904C213.012 68.984 213.78 66.456 213.78 63.32C213.78 60.184 212.948 57.688 211.284 55.832C209.684 53.976 207.348 53.048 204.276 53.048H192.18V73.784ZM280.703 107V95.48H251.711V79.832H274.943V68.504H251.711V53.24H280.703V41.72H238.463V107H280.703ZM304.868 107V53.24H305.828L322.148 107H343.94V41.72H330.692V95.48H329.732L313.988 41.72H291.62V107H304.868ZM399.27 95.096L399.558 105.944C396.102 106.648 392.87 107.192 389.862 107.576C386.854 107.96 383.974 108.152 381.222 108.152C375.782 108.152 371.43 107.48 368.166 106.136C364.902 104.792 362.342 102.648 360.486 99.704C358.63 96.76 357.35 93.304 356.646 89.336C355.942 85.368 355.59 80.376 355.59 74.36C355.59 68.024 355.974 62.712 356.742 58.424C357.574 54.136 358.95 50.68 360.87 48.056C362.79 45.368 365.35 43.448 368.55 42.296C371.75 41.144 375.75 40.568 380.55 40.568C386.118 40.568 392.486 41.432 399.654 43.16L399.27 53.72C392.934 52.76 387.686 52.28 383.526 52.28C381.414 52.28 379.622 52.408 378.15 52.664C376.742 52.92 375.526 53.368 374.502 54.008C373.542 54.584 372.742 55.416 372.102 56.504C371.526 57.528 371.014 58.808 370.566 60.344C370.118 61.944 369.766 64.056 369.51 66.68C369.318 69.304 369.222 72.536 369.222 76.376C369.222 80.152 369.414 83.32 369.798 85.88C370.182 88.44 370.854 90.52 371.814 92.12C372.838 93.656 374.214 94.776 375.942 95.48C377.67 96.12 379.846 96.44 382.47 96.44C385.158 96.44 387.878 96.344 390.63 96.152C393.382 95.896 396.262 95.544 399.27 95.096ZM461.091 107V41.72H447.843V68.408H423.555V41.72H410.307V107H423.555V79.928H447.843V107H461.091ZM274.669 152.448V155.52L253.069 201.696L265.357 205.152L287.917 155.616V140.64H247.405V152.448H274.669ZM302.852 140.64H341.54V152.16H313.22L311.588 165.888C315.556 164.352 319.332 163.584 322.916 163.584C336.612 163.584 343.46 169.952 343.46 182.688C343.46 189.856 341.572 195.392 337.796 199.296C334.084 203.2 328.74 205.152 321.764 205.152C320.292 205.152 318.692 205.056 316.964 204.864C315.236 204.736 313.508 204.544 311.78 204.288C310.052 204.032 308.388 203.744 306.788 203.424C305.252 203.104 303.908 202.784 302.756 202.464L299.3 201.6L300.74 191.808C304.644 192.448 308.196 192.928 311.396 193.248C314.596 193.504 317.508 193.632 320.132 193.632C323.268 193.632 325.668 192.8 327.332 191.136C328.996 189.472 329.828 187.072 329.828 183.936C329.828 180.864 329.124 178.624 327.716 177.216C326.308 175.808 324.324 175.104 321.764 175.104C317.348 175.104 313.572 175.52 310.436 176.352L308.996 176.736L301.124 174.912L302.852 140.64Z" fill="#8B7374"/>
<path fill-rule="evenodd" clip-rule="evenodd" d="M314.5 338C323.613 338 331 322.106 331 302.5C331 282.894 323.613 267 314.5 267C305.387 267 298 282.894 298 302.5H314.5V338Z" fill="#FFE64D"/>
</g>
<defs>
<filter id="filter0_d_1_777" x="439" y="0" width="606.125" height="864.08" filterUnits="userSpaceOnUse" color-interpolation-filters="sRGB">
<feFlood flood-opacity="0" result="BackgroundImageFix"/>
<feColorMatrix in="SourceAlpha" type="matrix" values="0 0 0 0 0 0 0 0 0 0 0 0 0 0 0 0 0 0 127 0" result="hardAlpha"/>
<feOffset dy="15"/>
<feGaussianBlur stdDeviation="3.5"/>
<feComposite in2="hardAlpha" operator="out"/>
<feColorMatrix type="matrix" values="0 0 0 0 0 0 0 0 0 0 0 0 0 0 0 0 0 0 0.1 0"/>
<feBlend mode="normal" in2="BackgroundImageFix" result="effect1_dropShadow_1_777"/>
<feBlend mode="normal" in="SourceGraphic" in2="effect1_dropShadow_1_777" result="shape"/>
</filter>
<filter id="filter1_d_1_777" x="-261" y="0" width="439" height="878.491" filterUnits="userSpaceOnUse" color-interpolation-filters="sRGB">
<feFlood flood-opacity="0" result="BackgroundImageFix"/>
<feColorMatrix in="SourceAlpha" type="matrix" values="0 0 0 0 0 0 0 0 0 0 0 0 0 0 0 0 0 0 127 0" result="hardAlpha"/>
<feOffset dy="15"/>
<feGaussianBlur stdDeviation="3.5"/>
<feComposite in2="hardAlpha" operator="out"/>
<feColorMatrix type="matrix" values="0 0 0 0 0 0 0 0 0 0 0 0 0 0 0 0 0 0 0.25 0"/>
<feBlend mode="normal" in2="BackgroundImageFix" result="effect1_dropShadow_1_777"/>
<feBlend mode="normal" in="SourceGraphic" in2="effect1_dropShadow_1_777" result="shape"/>
</filter>
<filter id="filter2_d_1_777" x="87.3813" y="630" width="425.227" height="273.352" filterUnits="userSpaceOnUse" color-interpolation-filters="sRGB">
<feFlood flood-opacity="0" result="BackgroundImageFix"/>
<feColorMatrix in="SourceAlpha" type="matrix" values="0 0 0 0 0 0 0 0 0 0 0 0 0 0 0 0 0 0 127 0" result="hardAlpha"/>
<feOffset dy="15"/>
<feGaussianBlur stdDeviation="3.5"/>
<feComposite in2="hardAlpha" operator="out"/>
<feColorMatrix type="matrix" values="0 0 0 0 0 0 0 0 0 0 0 0 0 0 0 0 0 0 0.1 0"/>
<feBlend mode="normal" in2="BackgroundImageFix" result="effect1_dropShadow_1_777"/>
<feBlend mode="normal" in="SourceGraphic" in2="effect1_dropShadow_1_777" result="shape"/>
</filter>
<clipPath id="clip0_1_777">
<rect width="595" height="842" fill="white"/>
</clipPath>
</defs>
</svg>
