<svg width="595" height="842" viewBox="0 0 595 842" fill="none" xmlns="http://www.w3.org/2000/svg">
<g clip-path="url(#clip0_1_129)">
<rect width="595" height="842" fill="#BEDEAD"/>
<path fill-rule="evenodd" clip-rule="evenodd" d="M303.105 581.75V416.201L426.21 292H169L292.105 416.201V581.75H298.105C270.491 581.75 248.105 584.66 248.105 588.25C248.105 591.84 270.491 594.75 298.105 594.75C325.719 594.75 348.105 591.84 348.105 588.25C348.105 584.66 325.719 581.75 298.105 581.75H303.105Z" fill="#D4ED7E"/>
<g filter="url(#filter0_d_1_129)">
<path fill-rule="evenodd" clip-rule="evenodd" d="M-23.5405 586.321C-67.4098 570.809 -100 512.912 -100 443.861C-100 374.591 -67.2027 316.546 -23.1227 301.255C-23.6947 299.776 -24 298.22 -24 296.613C-24 286.886 -12.8071 279 1 279C14.8071 279 26 286.886 26 296.613C26 298.449 25.6014 300.219 24.862 301.883C68.0627 318.08 100 375.505 100 443.861C100 511.965 68.2975 569.219 25.339 585.659C25.7713 586.956 26 588.309 26 589.699C26 599.427 14.8071 607.313 1 607.313C-12.8071 607.313 -24 599.427 -24 589.699C-24 588.544 -23.842 587.414 -23.5405 586.321ZM26 371.998C26 375.889 30.4771 379.044 36 379.044C41.5228 379.044 46 375.889 46 371.998C46 368.107 41.5228 364.953 36 364.953C30.4771 364.953 26 368.107 26 371.998ZM26 410.043C20.4771 410.043 16 406.889 16 402.998C16 399.107 20.4771 395.953 26 395.953C31.5229 395.953 36 399.107 36 402.998C36 406.889 31.5229 410.043 26 410.043ZM-4 379.044C-4 382.935 0.47715 386.089 6 386.089C11.5229 386.089 16 382.935 16 379.044C16 375.153 11.5229 371.999 6 371.999C0.47715 371.999 -4 375.153 -4 379.044Z" fill="#164728"/>
</g>
<g filter="url(#filter1_d_1_129)">
<path fill-rule="evenodd" clip-rule="evenodd" d="M540.771 377.799C514.122 392.102 496 420.232 496 452.595V612C496 628.569 509.431 642 526 642H635.665C652.233 642 665.665 628.569 665.665 612V452.595C665.665 419.973 647.252 391.652 620.252 377.458C614.976 374.684 611.244 369.442 611.244 363.481C611.244 356.488 616.68 350.822 622.17 346.489C627.864 341.994 631.518 335.031 631.518 327.213V316.543C631.518 302.988 620.53 292 606.976 292H556.823C543.269 292 532.28 302.988 532.28 316.543V327.213C532.28 334.335 535.314 340.749 540.159 345.232C545.288 349.978 550.421 355.768 550.421 362.756C550.421 369.154 546.408 374.773 540.771 377.799ZM554.308 336.488C560.829 338.246 565.36 344.159 565.36 350.913V373.376C565.36 379.56 561.55 385.104 555.778 387.322C529.529 397.405 510.939 422.847 510.939 452.595C510.939 454.068 512.133 455.262 513.607 455.262H648.058C649.531 455.262 650.726 454.068 650.726 452.595C650.726 422.847 632.136 397.405 605.887 387.322C600.115 385.104 596.305 379.56 596.305 373.376V351.386C596.305 344.131 601.517 337.925 608.664 336.672C613.161 335.883 616.579 331.932 616.579 327.213V316.543C616.579 311.239 612.28 306.939 606.976 306.939H556.823C551.519 306.939 547.22 311.239 547.22 316.543V327.213C547.22 331.63 550.214 335.385 554.308 336.488ZM561.785 505.384H565.754V513.832L560.441 514.088C558.521 514.088 556.943 513.853 555.706 513.384C554.468 512.915 553.487 512.147 552.762 511.08C552.079 510.013 551.588 508.627 551.29 506.92C551.034 505.171 550.906 503.037 550.906 500.52C550.906 495.528 551.226 491.987 551.866 489.896C552.164 488.872 552.527 488.019 552.953 487.336C553.423 486.653 554.02 486.099 554.745 485.672C555.514 485.245 556.452 484.947 557.562 484.776C558.671 484.605 560.036 484.52 561.658 484.52C563.279 484.52 565.135 484.584 567.226 484.712C569.316 484.84 571.642 485.053 574.201 485.352L574.458 478.504L572.154 478.056C567.546 477.16 563.257 476.712 559.29 476.712C556.09 476.712 553.38 477.139 551.161 477.992C548.943 478.845 547.13 480.168 545.722 481.96C544.356 483.752 543.354 486.056 542.714 488.872C542.116 491.688 541.818 495.08 541.818 499.048C541.818 503.016 542.095 506.429 542.65 509.288C543.247 512.147 544.228 514.515 545.593 516.392C547.001 518.227 548.836 519.592 551.097 520.488C553.402 521.341 556.239 521.768 559.61 521.768C561.53 521.768 563.706 521.64 566.137 521.384C568.612 521.128 571.385 520.765 574.458 520.296V497.704H561.785V505.384ZM562.912 526.48V570H554.08V526.48H562.912ZM549.881 583.16V619H541.049V575.48H555.96L566.456 611.32H567.097V575.48H575.928V619H561.4L550.521 583.16H549.881Z" fill="#F5EBAD"/>
</g>
<path fill-rule="evenodd" clip-rule="evenodd" d="M360 342C377.673 342 392 319.614 392 292C392 264.386 377.673 242 360 242C342.327 242 328 264.386 328 292H360V342Z" fill="#164728"/>
<path fill-rule="evenodd" clip-rule="evenodd" d="M240.417 73.3515C239.892 57.4772 228.55 43.1573 213.24 38.8901C202.167 35.8037 190.113 46.5095 184.908 51.8951L180.435 46.3319C172.405 36.3446 157.799 34.7579 147.812 42.788L220.51 133.206C230.498 125.176 232.084 110.57 224.054 100.583L221.305 97.1634C228.326 93.1564 240.784 84.4581 240.417 73.3515ZM127.861 34.2872L95.1763 149.145L5.84889 105.846C-7.20801 99.5175 -13.8639 84.751 -9.95867 70.7764L-2.71006 44.8379C1.25509 30.6489 14.9362 21.4389 29.5744 23.1044L127.861 34.2872ZM98.0796 20.5896C103.042 21.8283 107.897 18.0221 107.767 12.9092C107.682 9.56885 105.43 6.67775 102.196 5.83617C94.7691 3.90332 81.2284 0.576514 71.2763 -0.739122C62.6433 -1.88039 50.9285 -2.27268 43.1959 -2.40563C38.7417 -2.48221 35.1819 1.18743 35.2953 5.64088C35.4055 9.97063 38.9589 13.4236 43.2895 13.4952C51.0161 13.6229 62.9316 14.0103 71.6813 15.167C79.8516 16.2471 90.4404 18.6826 98.0796 20.5896ZM67.8539 159.647C70.6608 155.372 68.5424 149.577 63.6731 148.013C56.1769 145.605 45.8957 142.09 38.3843 138.699C30.3401 135.068 20.012 129.113 13.3797 125.147C9.66251 122.924 4.82245 123.984 2.44545 127.604C0.000569032 131.328 1.08995 136.324 4.91484 138.607C11.5549 142.572 21.7152 148.417 29.652 152C38.8016 156.13 52.0608 160.445 59.3903 162.719C62.5816 163.709 66.0201 162.441 67.8539 159.647Z" fill="#D4ED7E" fill-opacity="0.5"/>
<g opacity="0.75">
<path d="M138.362 132.851C138.362 132.851 269.031 293.592 254.71 245.221C240.388 196.85 326.92 253.054 275.925 206.234C224.929 159.413 138.362 132.851 138.362 132.851Z" fill="url(#paint0_linear_1_129)"/>
<path d="M141.565 136.676C141.565 136.676 242.032 317.835 236.412 267.702C230.792 217.569 306.131 288.072 264.133 233.037C222.134 178.003 141.565 136.676 141.565 136.676Z" fill="url(#paint1_linear_1_129)"/>
<path d="M146.36 138.223C146.36 138.223 210.399 335.228 214.452 284.944C218.505 234.661 279.001 318.248 248.28 256.208C217.559 194.169 146.36 138.223 146.36 138.223Z" fill="url(#paint2_linear_1_129)"/>
</g>
<path d="M447.623 79.85H428.948V38H418.598V89H447.623V79.85ZM486.974 89V80H464.324V67.775H482.474V58.925H464.324V47H486.974V38H453.974V89H486.974ZM358.889 146.7H354.239V137.7H369.089V164.175C365.489 164.725 362.239 165.15 359.339 165.45C356.489 165.75 353.939 165.9 351.689 165.9C347.739 165.9 344.414 165.4 341.714 164.4C339.064 163.35 336.914 161.75 335.264 159.6C333.664 157.4 332.514 154.625 331.814 151.275C331.164 147.925 330.839 143.925 330.839 139.275C330.839 134.625 331.189 130.65 331.889 127.35C332.639 124.05 333.814 121.35 335.414 119.25C337.064 117.15 339.189 115.6 341.789 114.6C344.389 113.6 347.564 113.1 351.314 113.1C355.964 113.1 360.989 113.625 366.389 114.675L369.089 115.2L368.789 123.225C365.789 122.875 363.064 122.625 360.614 122.475C358.164 122.325 355.989 122.25 354.089 122.25C352.189 122.25 350.589 122.35 349.289 122.55C347.989 122.75 346.889 123.1 345.989 123.6C345.139 124.1 344.439 124.75 343.889 125.55C343.389 126.35 342.964 127.35 342.614 128.55C341.864 131 341.489 135.15 341.489 141C341.489 143.95 341.639 146.45 341.939 148.5C342.289 150.5 342.864 152.125 343.664 153.375C344.514 154.625 345.664 155.525 347.114 156.075C348.564 156.625 350.414 156.9 352.664 156.9L358.889 156.6V146.7ZM389.214 165V114H378.864V165H389.214ZM410.674 165V125.55H411.799L421.774 162.75H432.124L442.099 125.55H443.224V165H453.574V114H435.949L426.949 151.2L417.949 114H400.324V165H410.674ZM493.729 155.85H475.054V114H464.704V165H493.729V155.85ZM533.08 165V156H510.43V143.775H528.58V134.925H510.43V123H533.08V114H500.08V165H533.08ZM550.683 123.15V165H561.033V123.15H574.533V114H537.033V123.15H550.683Z" fill="#5C6F51"/>
<g filter="url(#filter2_d_1_129)">
<path fill-rule="evenodd" clip-rule="evenodd" d="M370.934 712.433C393.921 680.632 435.474 673.144 466.741 693.935L436.826 711.882C436.826 711.882 456.933 720.32 461.719 732.396C466.974 745.656 455.905 768.741 455.905 768.741L460.251 763.997L451.283 776.404C455.527 763.56 455.291 751.317 447.651 745.753C438.946 733.454 415.547 736.671 395.39 752.938C389.291 757.86 384.188 763.412 380.277 769.104L356.44 749.461C358.075 736.402 362.853 723.613 370.934 712.433ZM494.796 728.311L493.743 727.443L494.209 726.934C494.409 727.391 494.605 727.85 494.796 728.311Z" fill="#C5B49B"/>
<path fill-rule="evenodd" clip-rule="evenodd" d="M228.961 710.882C205.975 679.081 164.422 671.593 133.154 692.385L163.07 710.331C163.07 710.331 142.962 718.77 138.177 730.845C132.921 744.106 143.991 767.19 143.991 767.19L139.644 762.446L148.612 774.853C144.368 762.009 144.605 749.767 152.244 744.202C160.95 731.903 184.348 735.12 204.505 751.387C210.604 756.309 215.707 761.861 219.618 767.553L243.455 747.91C241.82 734.851 237.043 722.062 228.961 710.882ZM105.099 726.76L106.153 725.892L105.686 725.383C105.486 725.84 105.291 726.299 105.099 726.76Z" fill="#C5B49B"/>
<path d="M178.128 643.377C178.128 643.377 199.797 654.205 212.005 663.89C223.229 672.795 222.17 676.538 228.708 692.579C235.246 708.619 225.077 724.369 225.077 724.369C225.077 724.369 216.131 725.992 206.922 715.064C196.895 703.167 196.907 696.759 194.577 680.948C192.219 664.949 178.128 643.377 178.128 643.377Z" fill="#C5B49B"/>
<path d="M364.033 646.479C364.033 646.479 385.702 657.306 397.91 666.992C409.134 675.896 408.074 679.639 414.613 695.68C421.151 711.721 410.982 727.47 410.982 727.47C410.982 727.47 402.036 729.093 392.827 718.166C382.8 706.268 382.812 699.861 380.482 684.05C378.124 668.05 364.033 646.479 364.033 646.479Z" fill="#C5B49B"/>
<path fill-rule="evenodd" clip-rule="evenodd" d="M277.663 645.513C265.455 635.828 243.786 625 243.786 625C243.786 625 257.877 646.572 260.234 662.571C260.465 664.133 260.672 665.603 260.868 666.996C262.66 679.702 263.543 685.965 272.58 696.687C273.332 697.58 274.083 698.389 274.827 699.122C274.667 701.218 274.586 703.337 274.586 705.476C274.586 719.599 278.123 732.84 284.301 744.245H314.412C314.251 737.188 315.114 729.463 317.125 721.588C323.774 695.561 340.456 677.751 354.386 681.807C363.618 681.229 370.811 690.766 374.801 703.703V688.03L374.074 694.621C374.074 694.621 369.628 669.126 357.879 662.056C347.181 655.619 326.434 662.056 326.434 662.056L339.847 628.333C318.926 630.581 300.625 642.31 288.77 659.434C286.621 654.208 284.27 650.755 277.663 645.513ZM380.396 637.244H381.727C381.312 637.004 380.894 636.769 380.474 636.537L380.396 637.244Z" fill="#C5B49B"/>
<path d="M348.905 760.674C350.2 758.884 352.631 758.571 354.336 759.976L371.157 773.838C372.862 775.243 373.195 777.833 371.901 779.624L358.84 797.693C357.546 799.483 355.114 799.795 353.41 798.391L336.588 784.529C334.883 783.124 334.55 780.534 335.844 778.743L348.905 760.674Z" fill="#C5B49B"/>
<path d="M325.834 792.592C327.128 790.802 329.559 790.49 331.264 791.894L348.085 805.756C349.79 807.161 350.123 809.751 348.829 811.542L335.768 829.611C334.474 831.401 332.043 831.714 330.338 830.309L313.516 816.447C311.811 815.042 311.478 812.452 312.773 810.661L325.834 792.592Z" fill="#C5B49B"/>
<path d="M302.762 824.511C304.056 822.72 306.487 822.408 308.192 823.813L325.013 837.675C326.718 839.079 327.051 841.67 325.757 843.46L312.696 861.529C311.402 863.319 308.971 863.632 307.266 862.227L290.444 848.365C288.739 846.96 288.406 844.37 289.701 842.58L302.762 824.511Z" fill="#C5B49B"/>
<path d="M250.99 759.123C249.696 757.333 247.265 757.021 245.56 758.425L228.738 772.287C227.033 773.692 226.7 776.282 227.995 778.073L241.056 796.142C242.35 797.932 244.781 798.245 246.486 796.84L263.307 782.978C265.012 781.573 265.345 778.983 264.051 777.192L250.99 759.123Z" fill="#C5B49B"/>
<path d="M274.062 791.042C272.768 789.251 270.336 788.939 268.632 790.344L251.81 804.206C250.105 805.61 249.772 808.201 251.066 809.991L264.127 828.06C265.422 829.851 267.853 830.163 269.558 828.758L286.379 814.896C288.084 813.491 288.417 810.901 287.123 809.111L274.062 791.042Z" fill="#C5B49B"/>
<path d="M297.134 822.96C295.84 821.17 293.408 820.857 291.703 822.262L274.882 836.124C273.177 837.529 272.844 840.119 274.138 841.909L287.199 859.978C288.494 861.769 290.925 862.081 292.63 860.676L309.451 846.815C311.156 845.41 311.489 842.819 310.195 841.029L297.134 822.96Z" fill="#C5B49B"/>
<path d="M285.905 754.609C285.905 752.4 287.696 750.609 289.905 750.609H310.953C313.162 750.609 314.953 752.4 314.953 754.609V777.624C314.953 779.833 313.162 781.624 310.953 781.624H289.905C287.696 781.624 285.905 779.833 285.905 777.624V754.609Z" fill="#C5B49B"/>
<path d="M285.905 794.928C285.905 792.719 287.696 790.928 289.905 790.928H310.953C313.162 790.928 314.953 792.719 314.953 794.928V817.943C314.953 820.152 313.162 821.943 310.953 821.943H289.905C287.696 821.943 285.905 820.152 285.905 817.943V794.928Z" fill="#C5B49B"/>
<path d="M285.905 835.247C285.905 833.038 287.696 831.247 289.905 831.247H310.953C313.162 831.247 314.953 833.038 314.953 835.247V858.262C314.953 860.471 313.162 862.262 310.953 862.262H289.905C287.696 862.262 285.905 860.471 285.905 858.262V835.247Z" fill="#C5B49B"/>
</g>
</g>
<defs>
<filter id="filter0_d_1_129" x="-107" y="279" width="214" height="350.313" filterUnits="userSpaceOnUse" color-interpolation-filters="sRGB">
<feFlood flood-opacity="0" result="BackgroundImageFix"/>
<feColorMatrix in="SourceAlpha" type="matrix" values="0 0 0 0 0 0 0 0 0 0 0 0 0 0 0 0 0 0 127 0" result="hardAlpha"/>
<feOffset dy="15"/>
<feGaussianBlur stdDeviation="3.5"/>
<feComposite in2="hardAlpha" operator="out"/>
<feColorMatrix type="matrix" values="0 0 0 0 0 0 0 0 0 0 0 0 0 0 0 0 0 0 0.25 0"/>
<feBlend mode="normal" in2="BackgroundImageFix" result="effect1_dropShadow_1_129"/>
<feBlend mode="normal" in="SourceGraphic" in2="effect1_dropShadow_1_129" result="shape"/>
</filter>
<filter id="filter1_d_1_129" x="489" y="292" width="183.665" height="372" filterUnits="userSpaceOnUse" color-interpolation-filters="sRGB">
<feFlood flood-opacity="0" result="BackgroundImageFix"/>
<feColorMatrix in="SourceAlpha" type="matrix" values="0 0 0 0 0 0 0 0 0 0 0 0 0 0 0 0 0 0 127 0" result="hardAlpha"/>
<feOffset dy="15"/>
<feGaussianBlur stdDeviation="3.5"/>
<feComposite in2="hardAlpha" operator="out"/>
<feColorMatrix type="matrix" values="0 0 0 0 0 0 0 0 0 0 0 0 0 0 0 0 0 0 0.25 0"/>
<feBlend mode="normal" in2="BackgroundImageFix" result="effect1_dropShadow_1_129"/>
<feBlend mode="normal" in="SourceGraphic" in2="effect1_dropShadow_1_129" result="shape"/>
</filter>
<filter id="filter2_d_1_129" x="98.0994" y="625" width="403.697" height="260.106" filterUnits="userSpaceOnUse" color-interpolation-filters="sRGB">
<feFlood flood-opacity="0" result="BackgroundImageFix"/>
<feColorMatrix in="SourceAlpha" type="matrix" values="0 0 0 0 0 0 0 0 0 0 0 0 0 0 0 0 0 0 127 0" result="hardAlpha"/>
<feOffset dy="15"/>
<feGaussianBlur stdDeviation="3.5"/>
<feComposite in2="hardAlpha" operator="out"/>
<feColorMatrix type="matrix" values="0 0 0 0 0 0 0 0 0 0 0 0 0 0 0 0 0 0 0.1 0"/>
<feBlend mode="normal" in2="BackgroundImageFix" result="effect1_dropShadow_1_129"/>
<feBlend mode="normal" in="SourceGraphic" in2="effect1_dropShadow_1_129" result="shape"/>
</filter>
<linearGradient id="paint0_linear_1_129" x1="142.552" y1="136.182" x2="247.659" y2="204.391" gradientUnits="userSpaceOnUse">
<stop stop-color="#164728" stop-opacity="0"/>
<stop offset="1" stop-color="#164728"/>
</linearGradient>
<linearGradient id="paint1_linear_1_129" x1="148.977" y1="141.901" x2="229.738" y2="224.604" gradientUnits="userSpaceOnUse">
<stop stop-color="#C5B49B" stop-opacity="0"/>
<stop offset="1" stop-color="#C5B49B"/>
</linearGradient>
<linearGradient id="paint2_linear_1_129" x1="148.58" y1="145.64" x2="209.695" y2="243.397" gradientUnits="userSpaceOnUse">
<stop stop-color="#F5EBAD" stop-opacity="0"/>
<stop offset="1" stop-color="#F5EBAD"/>
</linearGradient>
<clipPath id="clip0_1_129">
<rect width="595" height="842" fill="white"/>
</clipPath>
</defs>
</svg>
